<?xml version="1.0" encoding="utf-8"?>
<!-- Generator: Adobe Illustrator 23.0.1, SVG Export Plug-In . SVG Version: 6.00 Build 0)  -->
<svg version="1.1" id="Layer_1" xmlns="http://www.w3.org/2000/svg" xmlns:xlink="http://www.w3.org/1999/xlink" x="0px" y="0px"
	 viewBox="0 0 148 526.4" style="enable-background:new 0 0 148 526.4;" xml:space="preserve">
<style type="text/css">
	.st0{fill:none;stroke:#5E4A3A;stroke-width:2;stroke-miterlimit:10;}
	.st1{fill:#ED7F1D;}
	.st2{fill:#F29949;}
	.st3{fill:#F4A664;}
</style>
<title>balloon</title>
<g>
	<g>
		<path class="st0" d="M75.3,227.6c-4.6,14-9.2,28.6-7.4,43.2c0.7,6,2.6,12,2.9,18c0.8,14.5-6.7,28.2-8.8,42.6
			c-2.4,17.2,3.2,34.6,1.6,51.9c-0.8,9.1-3.6,18-4.6,27.1s0,19.1,5.8,26.2c19,23.3,3.7,54.6-0.3,84.4c-1.7,13.2-4.5,26.2-5,39.5
			s1.5,27,8.6,38.3"/>
		<path class="st1" d="M142.4,130.9c-0.4,8-2,23-5.1,30.4c-3,7-8,18.8-12.9,24.6c-10.6,12.5-21.2,24.9-33.7,31.4
			c2.4-2.6,4.6-5.4,6.8-8.2c17.1-22,30.1-47.6,34.5-75c3.2-20.5,1.3-42.2-6.5-61.3c6.8,7.3,11.7,16.1,14.4,25.7
			C142.8,109,143,120,142.4,130.9z"/>
		<path class="st2" d="M132,134.1c-4.3,27.5-17.4,53.1-34.5,75c-2.2,2.8-4.4,5.6-6.8,8.2c-8.4,4.5-18.2,5.8-27.6,3.6
			c-24.2-5.4-41.3-27.5-50.3-50.6C3.6,146.5,1,119.2,10.4,95.5s32.4-42.8,58-43.1c15.9-0.2,29.7,1,43.3,9.1
			c5.1,3.1,9.8,6.9,13.8,11.3C133.3,91.9,135.2,113.6,132,134.1z"/>
		<path class="st3" d="M33.6,85c-4.2,6-6.2,13.3-7.9,20.4c-1.2,4.7-1.9,9.6-2,14.5c0.1,3.3,0.7,6.9,3.2,9.1c3.1,2.8,7.8,2.5,11.9,2
			c0.8,0,1.5-0.2,2.2-0.6c1-0.7,1.7-1.7,2.1-2.8c6-13.4,9.1-28.3,18.1-39.9c5.5-7,10.2-16.6-2-16.5C49.3,71.3,39.2,77,33.6,85z"/>
		<path class="st2" d="M79.5,225.7c0,0.1,0,0.3,0,0.4c0.1,0.4-0.2,0.8-0.6,0.9c-0.1,0-0.1,0-0.2,0l-11.4,2.1
			c-1.1,0.2-2.3,0.4-3.4,0.8c0.4-0.9,0.9-1.9,1.4-2.7c2.6-3,5.7-5.4,9.2-7.1l-2,0.6c1.6-0.8,3.4-1.3,5.3-1.3
			c0.2,1.1,0.6,2.1,1.1,3.1C79,223.6,79.1,224.7,79.5,225.7z"/>
		<path class="st1" d="M82.8,232.6c-0.4,0-0.7-0.1-1.1-0.2c-1.2-0.4-2.3-1-3.5-1.2c-1.4-0.2-2.7-0.3-4.1-0.1
			c-3.6,0.3-7.2,0.3-10.8,0.1c0.2-0.4,0.3-0.9,0.5-1.3c1.1-0.3,2.2-0.6,3.4-0.8l11.4-2.1c0.4,0,0.8-0.3,0.8-0.7c0-0.1,0-0.1,0-0.2
			c0-0.1,0-0.3,0-0.4c-0.3-1.1-0.5-2.2-0.6-3.3c0.3,0.6,0.7,1.3,1.1,1.8c0,0.1,0.1,0.2,0.2,0.3c0.4,0.6,0.9,1.1,1.4,1.6
			c0.1,0.2,0.2,0.3,0.3,0.5C82.7,228.5,83,230.6,82.8,232.6z"/>
	</g>
</g>
</svg>
