<?xml version="1.0" encoding="utf-8"?>
<!-- Generator: Adobe Illustrator 23.0.1, SVG Export Plug-In . SVG Version: 6.00 Build 0)  -->
<svg version="1.1" xmlns="http://www.w3.org/2000/svg" xmlns:xlink="http://www.w3.org/1999/xlink" x="0px" y="0px"
	 viewBox="0 0 600 406" style="enable-background:new 0 0 600 406;" xml:space="preserve">
<style type="text/css">
	.st0{fill:#160808;}
	.st1{fill:#C3CECF;}
	.st2{fill:#18131E;}
	.st3{fill:#F4D67E;}
	.st4{fill:#F5D170;}
	.st5{fill:#01000A;}
	.st6{fill:#040714;}
	.st7{fill:#ECBD24;}
	.st8{fill:#A44400;}
	.st9{fill:#1B172B;}
	.st10{fill:#0F0B15;}
	.st11{fill:#1A151F;}
	.st12{fill:#211C2B;}
	.st13{fill:#211D36;}
	.st14{fill:#31293E;}
	.st15{fill:#171624;}
	.st16{fill:#DADCDA;}
	.st17{fill:#DDDACA;}
	.st18{fill:#E3E0CC;}
	.st19{fill:#EADEB6;}
	.st20{fill:#595C69;}
	.st21{fill:none;}
	.st22{fill:#844237;}
	.st23{fill:#272B3D;}
</style>
<g id="Layer_1">
</g>
<g id="Layer_2">
	<g id="ylGYqW_1_">
	</g>
</g>
<g id="Layer_3">
</g>
<g id="Layer_4">
	<g id="kPJDND_1_">
	</g>
</g>
<g id="Layer_6">
</g>
<g id="Layer_7">
	<g>
		<path class="st0" d="M244.6,394.8c-10.4,0-20.7-1.2-28.6-2.2c-0.5-0.1-0.9-0.1-1.2-0.5c-0.3-0.4-0.3-0.9-0.3-1.3
			c0-0.5,0.1-1,0.1-1.5c0.1-1.7,0.2-3.5,0.2-5.2c-0.3,0.2-0.7,0.4-1.1,0.6c-0.5,0.2-1,0.4-1.3,0.7l-0.2,0.2l0-0.2
			c0.1-0.8,0.1-1.6,0.1-2.5c0.1-3.3,0.3-7,2.4-9.3c1.3-1.5,4.4-2.8,6.5-2.8c0.3,0,0.6,0,0.9,0.1c1.8,0.4,2.3,1.4,2.9,2.4
			c0.5,0.9,1,1.8,2.3,2.5c1.6,0.8,3.6,0.9,5.2,0.9h0.1c2.2,0,4.5-0.2,6.7-0.3c2.2-0.2,4.5-0.3,6.8-0.3c2.1,0,4,0.2,5.7,0.5
			c8.2,1.5,15.4,7.7,18.2,15.6l0,0.1l-0.1,0C262.2,393.9,253.9,394.8,244.6,394.8C244.6,394.8,244.6,394.8,244.6,394.8z"/>
		<path class="st0" d="M214.6,390.8c0,0.4,0,0.9,0.3,1.3c0.3,0.3,0.7,0.4,1.1,0.4c17.9,2.3,36.4,3.7,53.9-0.6
			c-2.8-7.8-9.9-14-18.1-15.5c-6.3-1.2-12.8,0.2-19.2,0.2c-1.9,0-3.8-0.1-5.4-1c-2.9-1.5-2-4.1-5.2-4.8c-2.1-0.5-5.8,1.1-7.3,2.7
			c-2.6,2.9-2.1,8.2-2.5,11.8c0.7-0.6,1.9-0.9,2.6-1.4C215,386.1,214.7,388.5,214.6,390.8z"/>
		<path class="st1" d="M234.6,388.6c-0.5,0-6.1-3.4-6.6-3.8c-1.8-1.6-2.3-3-3-4.8c-0.2-0.6-0.5-1.2-0.8-1.9c-1.8-4-3.6-4.3-6.1-4.8
			c-1.6-0.3-3.3-0.6-5.5-1.8c-2.9-1.5-4.2-3.2-3.9-4.8c1-6,21.5-10.3,24.6-10.7c1.9-0.3,3.9-0.4,5.8-0.6c2.3-0.2,4.6-0.3,6.9-0.7
			c3.4-0.6,6.9-1.7,10.7-3.5c0.7-0.3,1.5-0.7,2.3-0.7c0.2,0,0.4,0,0.6,0.1c1.2,0.3,1.9,1.5,2.4,2.7c0.2,0.3,0.3,0.7,0.5,1
			c0.8,1.3,2,2.4,3.2,3.4c1.5,1.3,3.1,2.6,3.7,4.4c1.3,3.7-1.8,7.7-5.4,9.2c-2.3,1-4.9,1.3-7.3,1.6c-1.4,0.2-2.7,0.4-4.1,0.6
			c-7.9,1.7-14.8,7.4-17.9,14.9l0,0.1L234.6,388.6z"/>
		<path class="st1" d="M234.7,388.5c3.1-7.5,10-13.3,18-15c3.8-0.8,7.8-0.7,11.4-2.3s6.6-5.4,5.4-9.1c-1.1-3.3-5.1-4.8-6.9-7.8
			c-0.8-1.4-1.3-3.3-2.9-3.7c-1-0.2-1.9,0.2-2.8,0.6c-3.4,1.6-7,2.8-10.7,3.5c-4.2,0.7-8.5,0.7-12.7,1.3
			c-5.7,0.8-34.8,7.8-20.7,15.4c5.9,3.2,8.8,0.2,11.6,6.6c1.2,2.7,1.3,4.5,3.7,6.7C228.6,385.1,234.6,388.7,234.7,388.5z"/>
		<path class="st2" d="M279,393.8c-0.7,0-1.4,0-2,0c-1.7,0-3.3,0-5.2-0.5c-1.7-0.4-3.5-0.8-5.2-1.2l-0.1,0l0-0.1
			c0.7-2.9,1.3-5.8,2-8.6c-3.8-0.3-7.4-3.6-9.6-8.8c-0.5-1.2-1-2.5-1.4-3.8c-1-3-2.1-6.1-4.2-8.6c-3-3.6-8-5.7-13.7-5.7
			c-1.3,0-2.5,0.1-3.8,0.3c-5.7,0.9-11,3.5-16.1,6l-1.8,0.9c-20.7,10.1-42.8,17-65.5,20.8l-0.1,0l0-0.1c0.1-0.2,0-0.4-0.1-0.6
			c-0.2-0.3-0.6-0.4-1-0.4c-0.4,0-0.8,0.2-0.9,0.5l-0.2-0.1l0.1-0.4c0.3-1.2,0.5-2.3,0.8-3.5c-1.6,1.6-3.7,2.5-6,2.5l-0.2,0l0.1-0.2
			c8.3-10.9,20.6-17.6,32.5-24.1c9.5-5.2,19.4-10.5,27.3-18c3.3-19.2,1.5-39-0.2-58.1c-1.3-14-2.6-28.4-1.9-42.6
			c1.2-26.2,9.2-51.6,16.8-76.1c0,0,6.9-22.1,8.3-26.7c2.2-7,4.4-14.2,7.5-21.2c8.9-19.9,23.9-36.2,41.2-54l0,0l0.1,0
			c2.3-0.4,4.1-1.7,5.6-3.9l0.1-0.1l0.1,0.1c0.2,0.2,0.4,0.4,0.6,0.6l0,0.1l0.1-0.1c1.8,1.9,3.9,3.6,5.9,5.2
			c2.4,1.9,4.9,3.9,6.8,6.3c0.3,0.4,0.6,0.8,0.9,1.2c0,0,0,0,0,0c0,0,0,0,0.1,0l0.1,0l0,0.1c-0.3,1.6,0.1,3.4,0.4,5
			c0.1,0.6,0.2,1.3,0.3,1.8c0.1,1.2,0.3,2.4,0.4,3.6c0,0.4,0.1,0.8,0.1,1.2c0,0.2,0,0.3,0,0.5l0,0.3c0,0,0,0.1,0,0.2
			c0.1,0.6,0.1,1.3,0.2,1.9l0,0.4c0,0.2,0,0.4,0,0.5l0.1,0.9c0,0.4,0.1,0.8,0.1,1.3c0,0.6,0.1,1.2,0.1,1.8c0,0.6,0,1.2,0,1.8
			c0.1,4.8-0.3,9.1-1.1,13.1c-1.7,8.2-5.3,15.8-9.2,23.4l-1.2,2.3c-0.5,1-1,1.9-1.5,2.9c-0.5,1.1-1.1,2.1-1.6,3.2l0,0.1l-0.1,0
			c-1.2-0.1-2.3-0.3-3.5-0.5c-0.8-0.1-1.5-0.3-2.3-0.4c-1.1-0.1-2.2-0.2-3.4-0.2c-7.6,0-15.6,3.1-25.2,9.8c-1.7,1.2-4.1,2.5-6.2,2.5
			c-0.8,0-1.6-0.2-2.2-0.6c-0.2,0.6-0.3,1.1-0.5,1.7c-2.2,7.6-3.2,15-3.1,22.2c0.1,7.2,1.4,14.3,2.6,21.3c0.8,4.7,1.7,9.5,2.2,14.2
			c1.4,13.6,0,27.7-4,40.9c-1.3,4.1-2.8,8.2-4.3,12.1c-0.4,1-0.7,1.9-1.1,2.9c-2.7,7.2-5.4,14.8-6,22.9c-0.1,1.8-0.1,3.8,1.2,5
			c0.6,0.6,1.3,0.9,2.1,0.9c2.3,0,4.9-2.2,6.4-4.1c5.8-7.3,11.8-15,17.4-22.9c14.7-20.8,22.6-37.8,25.5-55.3
			c1.8-10.6,1.6-21.7,1.1-31l-0.1-2.1c-0.2-3.6-0.4-7.3-0.3-10.9c6.9-8.2,11.6-17.9,15-25.5c0.1-0.3,0.3-0.6,0.4-1l0.1-0.2l0.1,0.1
			c3.6,4.9,5.3,11.1,7,17.1c1.1,3.8,2.2,7.8,3.8,11.4c0.5,1.1,1.1,2.3,2,3.3c1.4,1.4,3.5,2.2,6,2.3c0.2,0,0.3,0,0.5,0
			c6.1,0,11.1-3.5,16.5-7.3c4.2-2.9,8.5-5.9,13.3-7.1c0.7-0.2,1.4-0.3,1.9-0.3c0.7,0,1.3,0.1,1.8,0.4c1.9,1,2.2,3.6,2.1,5.8
			l-0.1,17.2c0,4.5,0.6,8.8,1.2,13c0.6,4.1,1.3,8.4,1.2,12.8c0,8.5-3.5,16.4-6.9,24.1c-2.7,6.1-5.4,12.4-6.5,19
			c-0.4,2.5-0.3,5,0.2,7.3c-3.2,8.4-6.7,16.8-10,24.9c-6.3,15.5-12.9,31.6-18.4,47.7l-0.2,0.7c-1.5,4.4-3.1,9-5.8,12.8
			c-1.3,1.9-2.9,3.6-4.5,5.2c-1.1,1.2-2.2,2.4-3.2,3.6c-1.6,2-3,4.2-4.1,6.5l0,0.1h-0.1c-0.7,1.4-1.3,2.9-1.8,4.4
			c-1,2.9-1.6,6-1.8,9.2c-2.1,1.7-3.5,4.4-3.7,7c1.5-0.7,2.7-1.2,3.8-1.6c4.6-1.8,8.6-2.7,12.2-2.7c2.4,0,4.6,0.4,6.6,1.2
			c6.6,2.6,10.7,9.2,14,15.9l0,0.1l-0.1,0c-1,0.5-2.1,0.7-3.2,0.7c-0.5,0-1.1-0.1-1.6-0.2l0,0.2c0,0.6-0.1,0.9-0.1,1.6l0,0.1
			L279,393.8z M255.1,280.2c0.4,2.2,1.1,4.1,2,5.8c1.4,2.6,3.4,4.9,5.4,7.2c3.3,3.7,6.3,7.1,6.8,11.8c0.2,1.7-0.1,3.5-0.3,5.2
			c-0.2,1.4-0.4,2.9-0.4,4.4c0.1,3.2,1.4,6.3,2.6,9.2c0.6,1.4,1.2,2.9,1.7,4.3c2,6,1.7,12.8-0.6,18.7c-0.4,1.1-0.9,2.1-1.4,3.2
			c-1.1,2.3-2.2,4.7-2.5,7.2c-0.7,5.2,2,10.1,5.1,15.1c0,0,4.7,7.6,6.9,11.3c0.4-4.4,0-8.8-1.2-13.1c-0.1-0.3-0.2-0.6-0.2-0.9
			c-0.4-1.4-0.8-2.8-0.8-4.3c0-1.4,0.4-2.7,0.8-4.1l0.2-0.5c1.2-4,1.9-8.2,2.3-12.4c0.9-11.1-1.2-22.1-3.3-32.8
			c-0.9-4.7-1.8-9.4-3.5-13.9C271,292.6,263.9,284.7,255.1,280.2z M264.4,233.2c1.3-3.2,2.4-6.4,3.4-9.5l0.1-0.2l0.3,0.4
			c-0.3,3-1.4,5.8-3.5,9.4L264.4,233.2z M298.2,108.2c0.2-1.5,0.4-3,0.5-4.8l0.2,0c-0.1,1.5-0.3,3.1-0.5,4.8L298.2,108.2z
			 M360.7,107.4c-0.1-0.2-0.4-0.3-0.7-0.3l-0.1,0l0-0.2c0-0.7-0.1-1.3-0.1-2l0-0.3l0.2,0.2c0.3,0.3,0.6,0.7,0.8,1.1
			c0.1,0.5,0.1,1,0.1,1.4l0,0.4L360.7,107.4z M339.7,99c-1.3,0-2.6-0.1-3.9-0.4c-2-0.9-3.8-2.1-5.4-3.6c-1.5-1.4-3-3.1-4.3-4.7
			c-1.2-1.5-2.5-3-3.8-4.2c-0.7-1.5-1.3-3.1-1.8-4.5c-0.3-0.9-0.7-1.7-1-2.5c-1.8-4.4-4.8-10.6-10.3-13c-0.9-0.4-1.8-0.7-2.7-0.9
			c-0.9-0.3-1.9-0.6-2.8-1c-4.5-2-7.9-6.8-8.9-12.5c-0.3-1.9-0.2-6.2,0.7-10.3c0.3-0.3,0.6-0.5,0.9-0.6c0.9-0.5,1.8-0.9,2.7-1.2
			l0.1,0c1-0.3,2-0.5,2.9-0.5c1.5,0,2.6,0.5,3.5,1.4c1.2,1.2,1.5,2.9,1.9,4.5c0.1,0.3,0.1,0.6,0.2,0.9c1.1,4.9,4.3,9.5,8.7,12.7
			c3.5,2.5,7.5,3.9,11.5,4c0.3,0,0.5,0,0.8,0c2.3,0,4.6-0.3,6.9-0.7c1.6-0.2,3.3-0.5,4.9-0.6c0.6,0,1.3-0.1,1.9-0.1
			c1.4,0,2.7,0.1,3.9,0.4l0.1,0l0,0.1c-0.4,3.5,1.7,7.2,3.8,10.7c-0.5,4.7-0.6,9.5-0.2,14.1l0,0.3c0.3,3.2,0.5,6.8-1.5,9.4
			c-1.2,1.5-3.1,2.5-5.6,3C341.7,98.9,340.7,99,339.7,99C339.7,99,339.7,99,339.7,99z M359.5,97.8c-0.1-0.1-0.2-0.1-0.2-0.2
			c-0.1-0.6-0.1-1-0.2-1.5l-0.1-1.1l0.2,0l0,0.2c0,0.1,0,0.2,0.1,0.3c0.1,0.7,0.3,1.4,0.4,2.2l0,0.3L359.5,97.8z"/>
		<path class="st2" d="M298.3,108.2c0.2-1.6,0.4-3.2,0.5-4.8C298.7,105.1,298.5,106.7,298.3,108.2z M298.3,108.2
			c0.2-1.6,0.4-3.2,0.5-4.8C298.7,105.1,298.5,106.7,298.3,108.2z M298.3,108.2c0.2-1.6,0.4-3.2,0.5-4.8
			C298.7,105.1,298.5,106.7,298.3,108.2z M349.7,86.1c-0.4-4.7-0.3-9.4,0.2-14.1c-2.2-3.7-4.1-7.3-3.8-10.8
			c-1.9-0.4-3.9-0.4-5.8-0.3c-4.2,0.3-8.4,1.4-12.6,1.2c-4.1-0.1-8.2-1.6-11.6-4c-4.3-3-7.5-7.6-8.7-12.7c-0.4-1.9-0.7-4-2-5.3
			c-1.6-1.6-4-1.6-6.3-0.8v0c-1,0.3-1.9,0.8-2.7,1.3c-0.3,0.2-0.6,0.4-0.9,0.6c-0.8,3.9-1,8.2-0.7,10.2c0.9,5.2,3.9,10.3,8.8,12.5
			c1.8,0.8,3.7,1.1,5.5,1.9c5.2,2.3,8.3,7.8,10.4,13.1c0.9,2.3,1.8,4.7,2.8,7v0c2.8,2.7,5.3,6.3,8.1,9c1.6,1.5,3.4,2.7,5.4,3.6
			c2.2,0.5,4.6,0.6,6.9,0.2c2.1-0.4,4.2-1.2,5.6-2.9C350.3,93.1,350,89.4,349.7,86.1z M267.9,223.7c-1,3.2-2.1,6.4-3.4,9.5
			c1.7-2.9,3.1-5.9,3.5-9.3C268,223.8,267.9,223.8,267.9,223.7z M289.7,372.9c0.2-3.1,0.8-6.2,1.8-9.2c0.5-1.6,1.1-3.1,1.9-4.5
			c0,0,0,0,0,0c1.1-2.3,2.5-4.5,4.2-6.5c2.5-3,5.5-5.6,7.7-8.8c2.8-4,4.4-8.8,6-13.5c8.3-24.6,19-48.3,28.4-72.5
			c-0.5-2.4-0.5-5-0.2-7.3c2.4-14.9,13.4-27.9,13.4-43c0-8.9-2.6-17-2.5-25.8c0-5.8,0.1-11.5,0.1-17.2c0-2.1-0.2-4.7-2.1-5.7
			c-1.1-0.6-2.4-0.4-3.6-0.1c-11,2.6-19,14.7-30.3,14.4c-2.2-0.1-4.5-0.7-6.1-2.3c-0.9-0.9-1.5-2.1-2.1-3.3
			c-4.1-9.3-4.8-20.4-10.8-28.5c-0.1,0.4-0.3,0.7-0.5,1c-4,9-8.7,18-15,25.4c0,4.3,0.2,8.7,0.5,13c0.5,10.4,0.6,20.8-1.1,31
			c-3.4,20.3-13.5,38.4-25.5,55.4c-5.5,7.9-11.5,15.5-17.4,22.9c-2.2,2.7-6.1,5.7-8.7,3.3c-1.3-1.2-1.4-3.2-1.2-5
			c0.6-7.9,3.2-15.4,6-22.9c1.9-5,3.8-9.9,5.4-15c4.1-13.1,5.5-27.1,4-40.8c-1.2-11.9-4.6-23.6-4.8-35.6c-0.1-7.5,1.1-15,3.1-22.2
			c0.2-0.6,0.4-1.2,0.5-1.8c2.3,1.7,5.9,0,8.4-1.8c8.5-5.9,18.5-10.9,28.7-9.6c1.9,0.2,3.8,0.7,5.7,0.8c0.5-1.1,1-2.1,1.6-3.2
			c0.9-1.7,1.8-3.5,2.6-5.2c3.8-7.6,7.5-15.2,9.2-23.4c0.9-4.3,1.2-8.7,1.1-13c0-0.6,0-1.2,0-1.8c0-0.6,0-1.2-0.1-1.8
			c0-0.4,0-0.8-0.1-1.2c0-0.3,0-0.6-0.1-0.9c0-0.2,0-0.4,0-0.5c0-0.2,0-0.3,0-0.4c0-0.6-0.1-1.3-0.2-1.9c0-0.1,0-0.1,0-0.2
			c0-0.1,0-0.2,0-0.3c0-0.2,0-0.3,0-0.5c0-0.4-0.1-0.8-0.1-1.2c-0.1-1.2-0.3-2.4-0.4-3.6c-0.2-2-1.1-4.7-0.7-6.8c0,0,0-0.1,0-0.1
			c0,0-0.1,0-0.1,0c-0.3-0.4-0.6-0.8-0.9-1.2c-3.6-4.5-8.8-7.2-12.7-11.5c0,0-0.1,0-0.1-0.1c-0.2-0.2-0.4-0.4-0.6-0.7
			c-1.4,2-3.1,3.5-5.6,4c0,0-0.1,0-0.1,0c-15.8,16.2-31.9,33.3-41.1,54c-3,6.8-5.3,14-7.5,21.2c-2.8,8.9-5.5,17.8-8.3,26.7
			c-7.8,24.9-15.6,50.1-16.8,76.1c-1.6,33.6,7.9,67.6,2.1,100.8c-17.8,17-45,22.5-59.8,42.1c2.3,0,4.6-1.1,6.1-2.8
			c-0.3,1.4-0.6,2.8-0.9,4.2c0.3-1,2.5-0.6,2.2,0.6c22.7-3.7,44.8-10.7,65.5-20.8c5.8-2.8,11.6-5.9,17.9-6.9
			c6.3-1,13.5,0.5,17.6,5.4c2.9,3.5,3.8,8.2,5.6,12.5c1.7,4.2,5,8.5,9.6,8.8c-0.7,2.9-1.3,5.8-2,8.7c1.7,0.4,3.4,0.8,5.2,1.2
			c2.6,0.6,4.5,0.4,7.2,0.5c12.9,0.5,25.8,0.9,38.6,1.4c0.1-0.8,0.1-1,0.1-1.9c1.6,0.4,3.3,0.2,4.8-0.5c-3.2-6.5-7.3-13.2-14-15.9
			c-6-2.4-12.6-0.9-18.7,1.5c-1.3,0.5-2.6,1.1-3.9,1.7C286.1,377.3,287.5,374.5,289.7,372.9z M273.4,372.3
			c-2.8-4.7-5.8-9.8-5.1-15.2c0.5-3.7,2.5-6.9,3.9-10.4c2.3-5.9,2.5-12.6,0.6-18.6c-1.5-4.5-4.1-8.8-4.3-13.6
			c-0.1-3.2,1-6.4,0.7-9.6c-0.7-7.6-8.7-12.2-12.2-18.9c-1-1.9-1.6-3.9-2-6c8.9,4.5,16,12.4,19.6,21.7c1.7,4.5,2.6,9.2,3.5,13.9
			c2.1,10.8,4.2,21.8,3.3,32.8c-0.3,4.2-1.1,8.3-2.3,12.4c-0.4,1.5-0.9,3-0.9,4.6c0,1.8,0.6,3.4,1.1,5.1c1.2,4.3,1.6,8.9,1.2,13.4
			C278.1,380,275.7,376.2,273.4,372.3z M360.6,106c-0.2-0.4-0.5-0.8-0.8-1.1c0.1,0.7,0.1,1.4,0.1,2.1c0.4,0,0.6,0.1,0.8,0.4
			C360.7,106.9,360.7,106.5,360.6,106z M359.1,95.5c0-0.2-0.1-0.3-0.1-0.5C359.1,95.2,359.1,95.4,359.1,95.5c0,0.6,0.1,1.3,0.1,2
			c0.1,0,0.2,0.1,0.3,0.2C359.4,97,359.3,96.3,359.1,95.5z M298.3,108.2c0.2-1.6,0.4-3.2,0.5-4.8
			C298.7,105.1,298.5,106.7,298.3,108.2z"/>
		<path class="st3" d="M354.8,113.8c-1.1,0-2.2-0.2-3.1-0.3c-7.8-1.3-15.1-3-19.8-8.3c-1-1.2-1.9-2.5-2.7-3.8
			c-0.7-1.1-1.5-2.2-2.3-3.3c-2.2-2.7-5.1-4.7-8-6.7c-2.1-1.5-4.3-3-6.2-4.8c-0.2-0.2-0.4-0.4-0.6-0.6c0.2-1.1,0.4-2.1,0.6-3.1
			c0-0.1,0.1-0.3,0.1-0.4l0.1-0.6c0.2-1.3,0.5-2.6,0.7-3.9c0.3-2,0.6-4.2-0.6-5.8c-0.8-1.1-2.1-1.6-3.4-1.9l-0.3-0.1
			c-1.9-0.6-6-1.9-8.9-1.9c-1.2,0-2,0.2-2.5,0.6c-0.6,0.5-1.1,1.2-1.2,2.1l0,0.1l-0.1-0.1l0,0l-0.1-0.1c-0.3-0.4-0.6-0.8-0.9-1.2
			c-1.9-2.4-4.4-4.4-6.8-6.2c-2-1.6-4.1-3.3-5.9-5.2c2-7.1,6.6-13.3,12.6-17.3l0.2-0.1l0,0.2c-0.8,4.1-1,8.3-0.7,10.2
			c0.9,5.7,4.3,10.4,8.8,12.4c0.9,0.4,1.8,0.7,2.7,1c0.9,0.3,1.8,0.6,2.7,0.9c5.6,2.5,8.7,8.7,10.5,13.2c0.3,0.8,0.7,1.7,1,2.5
			c0.6,1.5,1.2,3,1.8,4.5c1.3,1.3,2.6,2.8,3.8,4.2c1.4,1.6,2.8,3.3,4.3,4.7c1.6,1.4,3.4,2.6,5.3,3.6c1.2,0.3,2.5,0.4,3.8,0.4
			c1,0,2-0.1,3-0.3c2.5-0.5,4.3-1.4,5.5-2.9c2-2.5,1.7-6.1,1.5-9.3l0-0.3c-0.4-4.7-0.3-9.4,0.2-14.1l0-0.3L350,72
			c0.3,0.5,0.7,1.1,1,1.6c1.5,2.4,3,4.9,4,7.4c1.7,4.3,3.1,8.9,4.1,14.1l0,0.5l0.1,0.6c0,0.5,0.1,1,0.1,1.4c0,0,0,0,0,0
			c0,0,0.1,0.1,0.2,0.1c0.5,2.5,0.8,5.2,1.1,8.3l-0.2,0.1c-0.2-0.3-0.4-0.6-0.6-0.8c0,0.6,0.1,1.1,0.1,1.7l0,0
			c0.3,0,0.6,0.2,0.8,0.4l0,0.2c0,0.4,0.1,0.8,0.1,1.2c-0.3,1.4-1.5,3.3-2.6,4.1C357.4,113.4,356.3,113.8,354.8,113.8z"/>
		<path class="st3" d="M360.9,108.7c-0.3,1.4-1.5,3.2-2.6,4c-1.8,1.4-4.3,1-6.5,0.6c-7.2-1.2-14.9-2.8-19.7-8.3
			c-1.9-2.2-3.2-4.8-5-7c-3.8-4.7-9.8-7.3-14.2-11.5c-0.2-0.2-0.4-0.4-0.6-0.5c0.2-1,0.4-2,0.6-3c0-0.2,0.1-0.4,0.1-0.6
			c0-0.1,0.1-0.3,0.1-0.4c0.2-1.3,0.5-2.6,0.7-3.9c0.3-2,0.6-4.3-0.7-5.9c-0.8-1.1-2.2-1.6-3.5-2c-2.4-0.7-9.6-3.1-11.8-1.3
			c-0.7,0.6-1.1,1.3-1.3,2.2c0,0-0.1,0-0.1,0c-0.3-0.4-0.6-0.8-0.9-1.2c-3.6-4.5-8.8-7.2-12.7-11.5c2-6.9,6.6-13.1,12.6-17.1
			c-0.8,3.9-1,8.2-0.7,10.2c0.9,5.2,3.9,10.3,8.8,12.5c1.8,0.8,3.7,1.1,5.5,1.9c5.2,2.3,8.3,7.8,10.4,13.1c0.9,2.3,1.8,4.7,2.8,7v0
			c2.8,2.7,5.3,6.3,8.1,9c1.6,1.5,3.4,2.7,5.4,3.6c2.2,0.5,4.6,0.6,6.9,0.2c2.1-0.4,4.2-1.2,5.6-2.9c2.1-2.6,1.7-6.3,1.5-9.6
			c-0.4-4.7-0.3-9.4,0.2-14.1c1.8,2.9,3.8,5.9,5,9c1.9,4.5,3.2,9.3,4.1,14c0,0,0,0,0,0c0,0.2,0,0.3,0,0.5c0.1,0.7,0.1,1.4,0.2,2
			c0.1,0,0.2,0.1,0.3,0.2c0.5,2.7,0.8,5.5,1.1,8.3c-0.2-0.4-0.5-0.8-0.8-1.1c0.1,0.7,0.1,1.4,0.1,2.1c0.4,0,0.6,0.1,0.8,0.4
			c0,0,0,0,0,0C360.8,107.8,360.8,108.2,360.9,108.7z"/>
		<path class="st4" d="M296.4,71c-1-0.4-1.9-0.8-2.9-1.2c-2.2-0.9-4.5-1.8-6.6-3.1c-0.9-0.6-1.7-1-2.4-1.4c-2.4-1.3-3.1-1.7-2.2-5.7
			c0.1-0.5,0.2-0.9,0.4-1.4l0-0.2l0.1,0.1c1.8,1.9,3.9,3.6,5.9,5.2c2.4,1.9,4.9,3.9,6.8,6.3c0.3,0.4,0.6,0.8,0.9,1.2l0.2,0.3
			L296.4,71z"/>
		<path class="st4" d="M295.5,69.7c0.3,0.4,0.6,0.8,0.9,1.2c-3.2-1.4-6.5-2.5-9.5-4.3c-4.3-2.8-5.7-2-4.5-6.9
			c0.1-0.5,0.2-0.9,0.4-1.4C286.7,62.5,292,65.3,295.5,69.7z"/>
		<path class="st4" d="M339.7,99c-1.3,0-2.6-0.1-3.9-0.4c-2-0.9-3.8-2.1-5.4-3.6c-1.5-1.4-3-3.1-4.3-4.7c-1.2-1.5-2.5-3-3.8-4.2
			c-0.7-1.5-1.3-3.1-1.8-4.5c-0.3-0.8-0.7-1.7-1-2.5c-1.8-4.4-4.8-10.6-10.3-13c-0.9-0.4-1.8-0.7-2.7-0.9c-0.9-0.3-1.9-0.6-2.8-1
			c-4.5-2-7.9-6.8-8.9-12.5c-0.3-1.9-0.2-6.2,0.7-10.3c0.3-0.3,0.6-0.5,0.9-0.6c0.9-0.5,1.8-0.9,2.7-1.2l0.1,0c1-0.3,2-0.5,2.9-0.5
			c1.5,0,2.6,0.5,3.5,1.4c1.2,1.2,1.5,2.9,1.9,4.5c0.1,0.3,0.1,0.6,0.2,0.9c1.1,4.9,4.3,9.5,8.7,12.7c3.5,2.5,7.5,3.9,11.5,4
			c0.3,0,0.5,0,0.8,0c2.3,0,4.6-0.3,6.9-0.7c1.6-0.2,3.3-0.5,4.9-0.6c0.6,0,1.3-0.1,1.9-0.1c1.4,0,2.7,0.1,3.9,0.4l0.1,0l0,0.1
			c-0.4,3.5,1.7,7.2,3.8,10.7c-0.5,4.7-0.6,9.5-0.2,14.1l0,0.3c0.3,3.2,0.5,6.8-1.5,9.4c-1.2,1.5-3.1,2.5-5.6,3
			C341.7,98.9,340.7,99,339.7,99z"/>
		<path class="st4" d="M348.3,95.7c-1.3,1.7-3.4,2.5-5.6,2.9c-2.3,0.4-4.6,0.3-6.9-0.2c-2-0.9-3.8-2.1-5.4-3.6
			c-2.9-2.7-5.3-6.2-8.1-9v0c-1-2.3-1.9-4.7-2.8-7c-2.1-5.3-5.2-10.8-10.4-13.1c-1.8-0.8-3.7-1.1-5.5-1.9c-4.9-2.1-8-7.2-8.8-12.5
			c-0.3-2-0.1-6.3,0.7-10.2c0.3-0.2,0.6-0.4,0.9-0.6c0.8-0.5,1.8-0.9,2.7-1.3v0c2.3-0.8,4.7-0.8,6.3,0.8c1.4,1.4,1.6,3.4,2,5.3
			c1.2,5.1,4.4,9.7,8.7,12.7c3.4,2.4,7.4,3.9,11.6,4c4.2,0.2,8.4-1,12.6-1.2c1.9-0.1,3.9-0.1,5.8,0.3c-0.4,3.5,1.5,7.1,3.8,10.8
			c-0.5,4.7-0.6,9.4-0.2,14.1C350,89.4,350.3,93.1,348.3,95.7z"/>
		<path class="st4" d="M360.8,108.7c0-0.4-0.1-0.8-0.1-1.2l0-0.4l0.2,0.2c0.2,0.3,0.3,0.8,0.1,1.4L360.8,108.7z"/>
		<path class="st4" d="M360.9,108.7c0-0.4-0.1-0.8-0.1-1.3C361,107.7,361,108.1,360.9,108.7z"/>
		<path class="st5" d="M280,165.2c0-0.5,0-0.9,0-1.4l0-1c0-0.4,0-0.8,0-1.1c0-0.4,0-0.7,0.1-1.1c0-0.3,0-0.7,0.1-1l0-0.1
			c0-0.3,0-0.6,0.1-0.9l0-0.5c0.1-0.6,0.1-1.3,0.2-1.9c0.1-0.4,0.1-0.8,0.2-1.2c0.1-0.4,0.1-0.8,0.2-1.1l0.1-0.4
			c0-0.2,0.1-0.5,0.2-0.7c0.1-0.5,0.2-0.9,0.3-1.4c1.3-5.1,3.5-9.8,5.7-14.1c0.1-0.2,0.2-0.4,0.3-0.6l0.2-0.4
			c0.4-0.7,0.7-1.4,1.1-2.1c0.5-0.9,0.9-1.8,1.4-2.6c1.7-3.2,3.4-6.6,4.7-10.2c1.2-3.2,2.1-6.6,2.8-10.2c0.2-0.9,0.3-1.9,0.5-2.8
			l0.1-0.5c0.2-1.7,0.4-3.2,0.5-4.8c0.2-2.8,0.3-5.6,0.3-8.8c0-0.9,0-1.8,0-2.6c0-2.5-0.2-5.2-0.3-8c-0.1-1.8-0.2-3.5-0.4-5.3
			c-0.1-1.8-0.3-3.5-0.4-5.3c-0.3-0.7-0.8-1.6-1.5-2.4l0-0.1l0-0.1c0.2-0.9,0.6-1.7,1.3-2.2c0.5-0.4,1.4-0.7,2.6-0.7
			c2.9,0,7,1.3,8.9,1.9l0.3,0.1c1.3,0.4,2.7,0.9,3.5,2c1.3,1.6,1,3.9,0.7,5.9c-0.2,1.3-0.5,2.6-0.7,4l-0.1,0.6c0,0.1,0,0.3-0.1,0.4
			c-0.2,1-0.4,2-0.6,3c-1.3,6.3-2.8,12.6-4.5,18.8c-3.3,11.6-7.4,23.1-12.2,34.1c-0.2,0.4-0.3,0.7-0.5,1.1
			c-3.4,7.6-8.1,17.3-15,25.4l-0.2,0.2V165.2z"/>
		<path class="st5" d="M313.8,78c-0.2,1.3-0.5,2.6-0.7,3.9c0,0.1,0,0.3-0.1,0.4c0,0.2-0.1,0.4-0.1,0.6c-0.2,1-0.4,2-0.6,3
			c-1.3,6.3-2.8,12.6-4.5,18.8c-3.3,11.6-7.3,23-12.2,34.1c-0.1,0.4-0.3,0.7-0.5,1c-4,9-8.7,18-15,25.4c0-0.5,0-0.9,0-1.4
			c0-0.3,0-0.7,0-1c0-0.4,0-0.8,0.1-1.1c0-0.4,0-0.7,0.1-1.1c0-0.3,0-0.7,0.1-1c0,0,0-0.1,0-0.1c0-0.5,0.1-0.9,0.1-1.3
			c0.1-0.6,0.1-1.3,0.2-1.9c0-0.4,0.1-0.8,0.2-1.2c0.1-0.4,0.1-0.7,0.2-1.1v0c0,0,0-0.1,0-0.2c0.1-0.3,0.1-0.6,0.2-0.9
			c0.1-0.5,0.2-0.9,0.3-1.4c1.2-4.9,3.4-9.5,5.7-14c0.1-0.3,0.3-0.6,0.5-0.9c0.8-1.6,1.7-3.2,2.5-4.7c1.7-3.3,3.4-6.7,4.7-10.2
			c1.2-3.3,2.2-6.7,2.8-10.2c0.2-0.9,0.3-1.9,0.5-2.8c0-0.2,0-0.3,0.1-0.5c0.2-1.6,0.4-3.2,0.5-4.8c0.2-2.9,0.3-5.8,0.3-8.8
			c0-0.9,0-1.8,0-2.6c0-2.7-0.2-5.3-0.3-8c-0.1-1.8-0.2-3.5-0.4-5.3c-0.1-1.8-0.3-3.5-0.4-5.3c-0.4-0.8-0.9-1.7-1.5-2.5
			c0,0,0-0.1,0-0.1c0.2-0.8,0.6-1.6,1.3-2.2c2.2-1.8,9.4,0.6,11.8,1.3c1.3,0.4,2.6,0.9,3.5,2C314.4,73.7,314.1,75.9,313.8,78z"/>
		<path class="st6" d="M298.2,108.2c0.2-1.5,0.4-3,0.5-4.8l0.2,0c-0.1,1.5-0.3,3.1-0.5,4.8L298.2,108.2z"/>
		<path class="st6" d="M298.8,103.5c-0.1,1.6-0.3,3.2-0.5,4.8C298.5,106.7,298.7,105.1,298.8,103.5z"/>
		<path class="st6" d="M328.5,62.3c-0.3,0-0.5,0-0.8,0c-4.1-0.1-8.1-1.6-11.6-4.1c-4.4-3.1-7.6-7.8-8.8-12.8
			c-0.1-0.3-0.1-0.6-0.2-0.9c-0.3-1.6-0.7-3.3-1.8-4.4c-0.9-0.9-2-1.3-3.4-1.3c-0.8,0-1.8,0.2-2.7,0.5l-0.1,0
			c-0.9,0.3-1.8,0.7-2.7,1.2c-0.3,0.2-0.6,0.4-0.9,0.6c-6,3.9-10.6,10.1-12.6,17l-0.1,0.2l-0.1-0.2c-0.3-0.3-0.4-0.5-0.6-0.7l0-0.1
			l0-0.1c1.5-2.2,2.5-5.1,3.5-7.9c0.4-1.1,0.8-2.2,1.1-3.2c3.2-8.2,9.6-14.2,17.1-20.6c7.3-6.2,15.8-12.9,25.4-12.9
			c0.5,0,1.1,0,1.7,0.1c6.1,0.5,11.5,3.7,16.7,6.9c3.7,2.2,7.5,4.5,11.5,5.9c3.7,1.2,7.6,1.7,11.4,2.1c2.8,0.3,5.7,0.7,8.5,1.3
			c8.4,2,12.9,5.5,14.1,11l0.1,0.2l-0.2-0.1c-2.6-1.7-5.8-2.5-9.6-2.5c-1.7,0-3.5,0.2-5.4,0.5c-12.1,2.1-23.1,9.1-30.2,19.2
			c-0.3,0.4-0.5,0.8-0.8,1.3c-0.4,0.8-0.6,1.6-0.7,2.5l0,0.1l-0.1,0c-1.2-0.2-2.5-0.4-3.9-0.4c-0.6,0-1.2,0-1.8,0.1
			c-1.6,0.1-3.3,0.4-4.9,0.6C333.2,62,330.8,62.3,328.5,62.3z"/>
		<path class="st6" d="M393,40.2c-4.4-2.9-10-3-15.1-2.1c-12.1,2.1-23.2,9.2-30.3,19.3c-0.3,0.4-0.6,0.9-0.8,1.3
			c-0.4,0.8-0.6,1.7-0.7,2.5c-1.9-0.4-3.9-0.4-5.8-0.3c-4.2,0.3-8.4,1.4-12.6,1.2c-4.2-0.1-8.2-1.6-11.6-4c-4.3-3-7.5-7.6-8.7-12.7
			c-0.4-1.9-0.7-4-2-5.3c-1.6-1.6-4-1.6-6.3-0.8v0c-1,0.3-1.9,0.8-2.7,1.3c-0.3,0.2-0.6,0.4-0.9,0.6c-6.1,3.9-10.6,10.1-12.6,17.1
			c0,0,0,0-0.1-0.1c-0.2-0.2-0.4-0.4-0.6-0.6c2.1-3.1,3.2-7.5,4.6-11.1c3.2-8.4,10.3-14.7,17.1-20.5c7.8-6.7,16.8-13.6,27-12.8
			c10.4,0.8,18.4,9.5,28.2,12.7c6.4,2.1,13.3,1.9,19.8,3.5C385.6,30.8,391.6,33.6,393,40.2z"/>
		<path class="st7" d="M339.7,99c-1.3,0-2.6-0.1-3.9-0.4c-2-0.9-3.8-2.1-5.4-3.6c-1.5-1.4-3-3.1-4.3-4.7c-1.2-1.5-2.5-3-3.8-4.2
			c-0.7-1.5-1.3-3.1-1.8-4.5c-0.3-0.8-0.7-1.7-1-2.5c-1.8-4.4-4.8-10.6-10.3-13c-0.9-0.4-1.8-0.7-2.7-0.9c-0.9-0.3-1.9-0.6-2.8-1
			c-4.5-2-7.9-6.8-8.9-12.5c-0.3-1.9-0.2-6.2,0.7-10.3c0.3-0.3,0.6-0.5,0.9-0.6c0.9-0.5,1.8-0.9,2.7-1.2l0.1,0c1-0.3,2-0.5,2.9-0.5
			c1.5,0,2.6,0.5,3.5,1.4c1.2,1.2,1.5,2.9,1.9,4.5c0.1,0.3,0.1,0.6,0.2,0.9c1.1,4.9,4.3,9.5,8.7,12.7c3.5,2.5,7.5,3.9,11.5,4
			c0.3,0,0.5,0,0.8,0c2.3,0,4.6-0.3,6.9-0.7c1.6-0.2,3.3-0.5,4.9-0.6c0.6,0,1.3-0.1,1.9-0.1c1.4,0,2.7,0.1,3.9,0.4l0.1,0l0,0.1
			c-0.4,3.5,1.7,7.2,3.8,10.7c-0.5,4.7-0.6,9.5-0.2,14.1l0,0.3c0.3,3.2,0.5,6.8-1.5,9.4c-1.2,1.5-3.1,2.5-5.6,3
			C341.7,98.9,340.7,99,339.7,99z"/>
		<path class="st7" d="M348.3,95.7c-1.3,1.7-3.4,2.5-5.6,2.9c-2.3,0.4-4.6,0.3-6.9-0.2c-2-0.9-3.8-2.1-5.4-3.6
			c-2.9-2.7-5.3-6.2-8.1-9v0c-1-2.3-1.9-4.7-2.8-7c-2.1-5.3-5.2-10.8-10.4-13.1c-1.8-0.8-3.7-1.1-5.5-1.9c-4.9-2.1-8-7.2-8.8-12.5
			c-0.3-2-0.1-6.3,0.7-10.2c0.3-0.2,0.6-0.4,0.9-0.6c0.8-0.5,1.8-0.9,2.7-1.3v0c2.3-0.8,4.7-0.8,6.3,0.8c1.4,1.4,1.6,3.4,2,5.3
			c1.2,5.1,4.4,9.7,8.7,12.7c3.4,2.4,7.4,3.9,11.6,4c4.2,0.2,8.4-1,12.6-1.2c1.9-0.1,3.9-0.1,5.8,0.3c-0.4,3.5,1.5,7.1,3.8,10.8
			c-0.5,4.7-0.6,9.4-0.2,14.1C350,89.4,350.3,93.1,348.3,95.7z"/>
		<path class="st8" d="M314.3,61.3c-5.3,0-10.7-3.7-13.2-9c-1.2-2.5-2.6-8.5-2.1-13.1v-0.1l0.1,0c1-0.3,2-0.5,2.9-0.5
			c1.5,0,2.6,0.5,3.5,1.4c1.2,1.2,1.5,2.9,1.9,4.5c0.1,0.3,0.1,0.6,0.2,0.9c1.1,4.9,4.3,9.5,8.7,12.7c0.1,1.1,0.1,2.1-0.2,3.1l0,0.1
			l-0.1,0C315.4,61.3,314.8,61.3,314.3,61.3z"/>
		<path class="st8" d="M315.9,61.1c-6.1,0.9-12.2-3.2-14.8-8.8c-1.1-2.5-2.5-8.5-2.1-13v0c2.3-0.7,4.7-0.8,6.3,0.8
			c1.4,1.4,1.6,3.4,2,5.3c1.2,5.1,4.4,9.7,8.7,12.7C316.3,59.2,316.2,60.1,315.9,61.1z"/>
		<path class="st9" d="M243,141.6c1.3-3.3,2.8-6.8,4.5-10.3l0.2,0.1c-1.5,3.4-3,6.9-4.5,10.3L243,141.6z"/>
		<path class="st9" d="M247.5,131.4c-1.5,3.4-3,6.9-4.5,10.3C244.4,138.2,245.9,134.8,247.5,131.4z"/>
		<path class="st10" d="M230,291.9c-0.9,0-1.6-0.3-2.3-0.9c-1.3-1.2-1.4-3.3-1.3-5.1c0.6-8.1,3.3-15.8,6-23c2.6-2.6,4.2-6.1,5.5-9.2
			c4.6-11.7,9.4-29.3,6.1-47.2c-2.2-12-4.5-24.3-4.2-36.6c0.1-2.2,0.2-4.4,0.3-6.5c0.3-4.6,0.6-9.3,0.1-13.9
			c0.2-0.7,0.4-1.3,0.5-1.9l0-0.1l0.1,0.1c0.6,0.5,1.4,0.7,2.2,0.7c2.1,0,4.4-1.4,6.1-2.5c9.7-6.7,17.7-9.8,25.4-9.8
			c1.1,0,2.3,0.1,3.4,0.2c0.8,0.1,1.5,0.2,2.3,0.4c1.1,0.2,2.3,0.4,3.4,0.5c0.4,0,0.7,0,1.1,0c0.7,0,1.4-0.1,2.1-0.2
			c-0.5-1.3-1-2.2-1.6-2.9l-0.1-0.1l0-0.1c0.5-1,1-2,1.5-2.9l1.2-2.3c3.9-7.7,7.5-15.2,9.2-23.4c0.8-4,1.2-8.2,1.1-13
			c0-0.6,0-1.2,0-1.8c0-0.6,0-1.2-0.1-1.8c0-0.7-0.1-1.4-0.1-2.2c0-0.2,0-0.4,0-0.5l-0.1-0.8l-0.1-1l-0.1-1c0-0.2,0-0.3,0-0.4
			c0-0.5-0.1-0.9-0.1-1.3c-0.1-1.2-0.3-2.4-0.4-3.6c-0.1-0.6-0.2-1.2-0.3-1.8c-0.3-1.6-0.7-3.5-0.4-5l0-0.2l0.1,0.2
			c0.6,0.9,1.1,1.8,1.5,2.5c0.2,1.8,0.3,3.5,0.5,5.3c0.1,1.8,0.3,3.5,0.4,5.3c0.2,2.8,0.3,5.5,0.3,8c0,0.9,0,1.8,0,2.6
			c0,3.1-0.1,6-0.3,8.8c-0.2,1.7-0.3,3.3-0.5,4.8l-0.1,0.5c-0.1,0.9-0.3,1.9-0.5,2.8c-0.7,3.6-1.6,7-2.8,10.2
			c-1.3,3.6-3.1,7-4.7,10.2c-0.5,0.9-0.9,1.8-1.4,2.6c-0.4,0.7-0.7,1.4-1.1,2.1l-0.2,0.4c-0.1,0.2-0.2,0.4-0.3,0.6
			c-2.2,4.3-4.4,8.9-5.7,14c-0.1,0.5-0.2,0.9-0.3,1.4c-0.1,0.2-0.1,0.5-0.2,0.7l0,0.2l-0.1,0.1h0.1c-0.1,0.4-0.1,0.7-0.2,1
			c-0.1,0.5-0.1,0.9-0.2,1.3c-0.1,0.6-0.2,1.2-0.2,1.9l0,0.5c0,0.3-0.1,0.6-0.1,0.9c0,0.4-0.1,0.7-0.1,1.1c0,0.4-0.1,0.7-0.1,1.1
			c0,0.4,0,0.7,0,1.1l0,1.1c0,0.5,0,0.9,0,1.4c0,3.6,0.2,7.3,0.3,10.9l0.1,2.1c0.4,9.4,0.7,20.4-1.1,31.1
			c-2.9,17.5-10.8,34.6-25.5,55.4c-5.6,7.9-11.7,15.7-17.4,22.9C235,289.6,232.4,291.9,230,291.9L230,291.9z M233.8,276.4
			c0.4,0,0.7,0.1,1.1,0.1c4.4,0,8.5-3.5,12.8-10.8l0.1-0.2c2.2-3.9,4.6-7.9,6.8-11.9c4.3-7.7,7.4-14.2,9.9-20.3v-0.1l0.1,0
			c2-3.4,3.1-6.3,3.4-9.2l-0.1-0.1l-0.1-0.1c1.2-4.1,2.1-8.1,2.8-11.9c1.5-9.6,1.3-19.5,1.1-29l-0.5-24.9c0-0.5,0-1,0-1.5
			c0-3.2,0-4.2-2.4-4.2c-0.4,0-1,0-1.7,0.1c-2.4,0.2-5.4,2-7.7,3.2l-0.9,0.5c-6.2,3.4-9.9,7.4-11.5,12.3c-0.8,2.4-1,4.8-1,7.8
			c-0.2,8.5,0.5,17.3,1.2,25.8c1.4,16.9,2.9,34.3-3.4,50.1c-1.2,2.9-2.6,5.8-4,8.6C237.5,265.7,234.9,270.8,233.8,276.4z"/>
		<path class="st10" d="M299.1,92.1c0-2.7-0.2-5.3-0.3-8c-0.1-1.8-0.2-3.5-0.4-5.3c-0.1-1.8-0.3-3.5-0.4-5.3
			c-0.4-0.8-0.9-1.7-1.5-2.5c-0.4,2.1,0.4,4.8,0.7,6.8c0.1,1.2,0.3,2.4,0.4,3.6c0,0.4,0.1,0.8,0.1,1.2c0,0.1,0,0.3,0,0.5
			c0,0.1,0,0.2,0,0.3c0,0.2,0,0.5,0.1,0.7c0,0.3,0.1,0.7,0.1,1c0,0.3,0,0.5,0.1,0.8c0,0.2,0,0.4,0,0.5c0.1,0.7,0.1,1.4,0.1,2.2
			c0,0.6,0.1,1.2,0.1,1.8c0,0.6,0,1.2,0,1.8c0.1,4.4-0.2,8.7-1.1,13c-1.7,8.2-5.4,15.9-9.2,23.4c-0.9,1.7-1.8,3.4-2.6,5.2
			c0.8,0.8,1.3,1.9,1.7,3c0,0,0,0,0,0c-1.1,0.2-2.2,0.3-3.3,0.2c-1.9-0.1-3.8-0.6-5.7-0.8c-10.2-1.3-20.2,3.7-28.7,9.6
			c-2.5,1.8-6.1,3.5-8.4,1.8c-0.2,0.6-0.4,1.2-0.5,1.8c0.7,6.8-0.3,13.6-0.5,20.4c-0.4,12.3,1.9,24.5,4.2,36.6
			c2.9,15.7-0.2,32.4-6.1,47.3c-1.3,3.3-2.9,6.7-5.5,9.2c-2.8,7.5-5.4,15-6,22.9c-0.1,1.8-0.1,3.8,1.2,5c2.6,2.4,6.5-0.6,8.7-3.3
			c5.9-7.5,11.9-15.1,17.4-22.9c12-17,22.1-35.1,25.5-55.4c1.7-10.2,1.6-20.7,1.1-31c-0.2-4.3-0.5-8.7-0.5-13c0-0.5,0-0.9,0-1.4
			c0-0.3,0-0.7,0-1c0-0.4,0-0.8,0.1-1.1c0-0.4,0-0.7,0.1-1.1c0-0.3,0-0.7,0.1-1c0,0,0-0.1,0-0.1c0-0.5,0.1-0.9,0.1-1.3
			c0.1-0.6,0.1-1.3,0.2-1.9c0-0.4,0.1-0.8,0.2-1.2c0.1-0.4,0.1-0.7,0.2-1.1v0c0,0,0-0.1,0-0.2c0.1-0.3,0.1-0.6,0.2-0.9
			c0.1-0.5,0.2-0.9,0.3-1.4c1.2-4.9,3.4-9.5,5.7-14c0.1-0.3,0.3-0.6,0.5-0.9c0.8-1.6,1.7-3.2,2.5-4.7c1.7-3.3,3.4-6.7,4.7-10.2
			c1.2-3.3,2.2-6.7,2.8-10.2c0.2-0.9,0.3-1.9,0.5-2.8c0-0.2,0-0.3,0.1-0.5c0.2-1.6,0.4-3.2,0.5-4.8c0.2-2.9,0.3-5.8,0.3-8.8
			C299.2,93.8,299.2,92.9,299.1,92.1z M270.7,211.8c-0.6,4-1.6,8-2.8,11.9c0,0.1,0.1,0.2,0.1,0.2c-0.4,3.4-1.8,6.4-3.5,9.3
			c0,0,0,0,0,0c0,0,0,0,0,0c-2.8,6.9-6.2,13.7-9.9,20.3c-2.2,4.1-4.6,8.1-6.9,12.1c-3.1,5.5-7.8,11.7-14,10.8
			c1.6-8.7,6.9-16.2,10.1-24.4c9.4-23.7,1.4-50.4,2.1-75.9c0.1-2.6,0.2-5.3,1-7.8c1.8-5.7,6.4-9.5,11.5-12.3
			c2.3-1.3,5.9-3.5,8.5-3.7c4.6-0.5,4.1,0.5,4.2,5.6c0.1,5.2,0.2,10.4,0.3,15.6c0.1,3.1,0.1,6.2,0.2,9.2
			C272,192.5,272.2,202.3,270.7,211.8z"/>
		<path class="st6" d="M284.9,137.2c-0.4,0-0.7,0-1.1,0l-0.1,0l0.1-0.1c0.5-1.1,1.1-2.1,1.6-3.2l0.1-0.1l0.1,0.1
			c0.7,0.7,1.2,1.7,1.7,3l0,0.1h-0.1C286.4,137.1,285.6,137.2,284.9,137.2z"/>
		<path class="st6" d="M287.1,136.8C287,136.8,287,136.8,287.1,136.8c-1.1,0.2-2.2,0.3-3.3,0.2c0.5-1.1,1-2.1,1.6-3.2
			C286.1,134.6,286.7,135.7,287.1,136.8z"/>
		<path class="st6" d="M297.7,83.5L297.7,83.5L297.7,83.5l0-0.2l0.2,0c0,0,0.1,0.7,0.1,0.7l-0.2,0L297.7,83.5z"/>
		<path class="st6" d="M297.9,84.1c0-0.2,0-0.4-0.1-0.5c0-0.1,0-0.1,0-0.2C297.9,83.6,297.9,83.8,297.9,84.1z"/>
		<path class="st6" d="M298.2,108.2c0.2-1.5,0.4-3,0.5-4.8l0.2,0c-0.1,1.5-0.3,3.1-0.5,4.8L298.2,108.2z"/>
		<path class="st6" d="M298.8,103.5c-0.1,1.6-0.3,3.2-0.5,4.8C298.5,106.7,298.7,105.1,298.8,103.5z"/>
		<path class="st11" d="M264.4,233.2c1.3-3.2,2.4-6.4,3.4-9.5l0.1-0.2l0.3,0.4c-0.3,3-1.4,5.8-3.5,9.4L264.4,233.2z"/>
		<path class="st11" d="M268,223.9c-0.4,3.4-1.8,6.4-3.5,9.3c1.3-3.1,2.4-6.3,3.4-9.5C267.9,223.8,268,223.8,268,223.9z"/>
		<path class="st11" d="M285.3,133.9c-0.1-0.1-0.2-0.2-0.3-0.3c-0.1-0.1-0.2-0.2-0.4-0.3c-0.1-0.1-0.3-0.1-0.4-0.2
			c-0.1-0.1-0.3-0.1-0.5-0.2c-0.3-0.1-0.7-0.1-1-0.1c-0.3,0-0.7-0.1-1.1-0.1c-1.3-0.3-2.1-1.4-3-2.5c-0.7-0.9-1.4-1.8-2.4-2.3
			c-0.5-0.3-1.1-0.4-1.8-0.4c-0.9,0-1.9,0.2-2.9,0.4c-0.2,0.1-0.5,0.1-0.7,0.2c-0.6,0.1-1.3,0.2-1.9,0.2c-1.6,0-2.7-0.5-3.4-1.5
			c-0.2-0.2-0.3-0.5-0.4-0.7c-0.1-0.3-0.2-0.5-0.4-0.7c-0.6-0.9-1.6-1.3-3.1-1.3c-0.7,0-1.5,0.1-2.3,0.3c-0.9,0.2-1.9,0.4-2.9,0.4
			c-1.3,0-2.2-0.3-2.8-1c-0.5-0.6-0.9-1.4-0.9-2.4c1.5-2.5,2.9-4.9,4.4-7.2c1-1.6,2.1-3.2,3.2-4.8c2.4-3.5,4.8-7.2,7-10.9l0.2,0.1
			c-0.1,1.6-0.2,2.9,0.2,4.2c0.5,1.5,1.9,3.1,3.6,3.1c0.3,0,0.6-0.1,0.9-0.2c0.6-0.2,1-0.6,1.5-1.1c0.3-0.3,0.7-0.6,1-0.8
			c0.5-0.3,1.1-0.5,1.8-0.5c1.1,0,2.3,0.5,3.1,1.3c0.7,0.7,1.1,1.6,1.1,2.5c0,0.2,0,0.3,0,0.5c0,0.7-0.1,1.4,0.4,1.8
			c0.2,0.2,0.4,0.2,0.7,0.2c0.3,0,0.6-0.1,0.9-0.1c0.2,0,0.4-0.1,0.5-0.1c0.1,0,0.2,0,0.4,0c2.1,0,3.7,1.9,4.1,3.8
			c0.4,1.8,0.1,3.7-0.2,5.5l-0.1,0.7c-0.4,2.4-0.7,5.9,0.5,9l0.1,0.2l-1.2,2.4c-0.5,1-1,1.9-1.5,2.9l-0.1,0.1L285.3,133.9z"/>
		<path class="st11" d="M288,128.6c-0.9,1.7-1.8,3.4-2.6,5.2l0,0c-0.1-0.1-0.2-0.2-0.4-0.3c-0.1-0.1-0.2-0.2-0.4-0.3c0,0,0,0,0,0
			c-0.1-0.1-0.3-0.2-0.4-0.2c-0.1-0.1-0.3-0.1-0.5-0.2c-0.7-0.2-1.4-0.1-2-0.3c-2.3-0.6-3.1-3.7-5.3-4.7c-1.7-0.8-3.7-0.2-5.5,0.2
			c-1.8,0.4-4.1,0.3-5.1-1.2c-0.3-0.5-0.4-1-0.7-1.5c-1.1-1.7-3.6-1.5-5.5-1.1c-1.9,0.4-4.3,0.8-5.7-0.6c-0.6-0.6-0.8-1.5-0.9-2.3
			c1.4-2.4,2.9-4.8,4.4-7.1c3.4-5.2,7-10.4,10.2-15.7c-0.1,1.5-0.2,2.9,0.2,4.3c0.6,2,2.7,3.7,4.6,3c1-0.4,1.7-1.4,2.6-1.9
			c2.3-1.4,5.8,0.5,5.8,3.2c0,0.8-0.2,1.9,0.4,2.4c0.6,0.5,1.5,0.1,2.2,0c2.1-0.2,3.9,1.7,4.4,3.7c0.5,2,0,4.2-0.3,6.2
			c-0.5,3-0.6,6.2,0.5,9.1C288,128.5,288,128.6,288,128.6z"/>
		<path class="st12" d="M287.8,128.5c-1.2-3.2-0.9-6.8-0.5-9.2l0.1-0.8c0.3-1.8,0.6-3.7,0.2-5.4c-0.4-1.8-2-3.6-3.9-3.6
			c-0.1,0-0.2,0-0.3,0c-0.2,0-0.3,0.1-0.5,0.1c-0.3,0.1-0.6,0.1-0.9,0.1c-0.4,0-0.6-0.1-0.9-0.3c-0.6-0.4-0.5-1.2-0.5-2
			c0-0.2,0-0.3,0-0.5c0-0.8-0.4-1.7-1-2.3c-0.8-0.8-1.9-1.3-2.9-1.3c-0.6,0-1.2,0.2-1.7,0.5c-0.4,0.2-0.7,0.5-1,0.8
			c-0.5,0.4-1,0.9-1.6,1.1c-0.3,0.1-0.6,0.2-1,0.2c-1.8,0-3.3-1.6-3.8-3.2c-0.4-1.5-0.3-3-0.2-4.3c4.5-7.6,7.2-14.1,8.3-20.4
			c0.7-3.7,0.7-7.6,0.7-11.3c0-1.7,0-3.5,0.1-5.2l0-0.1l0.1,0c2.2-0.4,4-1.6,5.5-3.9l0.1-0.1l0.1,0.1c0.2,0.2,0.4,0.4,0.6,0.6l0,0.1
			l0.1-0.1c1.8,1.9,3.9,3.6,5.9,5.2c2.4,1.9,4.9,3.9,6.8,6.3c0.3,0.4,0.6,0.8,0.9,1.2c0,0,0.1,0.1,0.1,0.1c-0.3,1.6,0.1,3.4,0.4,5
			c0.1,0.6,0.2,1.3,0.3,1.8c0.1,1.2,0.3,2.4,0.4,3.6c0,0.4,0.1,0.8,0.1,1.2c0,0.2,0,0.3,0,0.5l0.1,1l0.1,1.8c0,0.2,0,0.4,0,0.5
			l0.1,0.9c0,0.4,0.1,0.9,0.1,1.3c0,0.6,0.1,1.2,0.1,1.8c0,0.6,0,1.2,0,1.8c0.1,4.8-0.3,9.1-1.1,13.1c-1.7,8.2-5.3,15.8-9.2,23.4
			l-0.1,0.2L287.8,128.5z"/>
		<path class="st12" d="M298.3,92.2c0.1,4.4-0.2,8.7-1.1,13c-1.7,8.2-5.4,15.9-9.2,23.4c0-0.1-0.1-0.1-0.1-0.2
			c-1.1-2.9-1-6.1-0.5-9.1c0.3-2.1,0.8-4.2,0.3-6.2c-0.5-2-2.3-3.9-4.4-3.7c-0.8,0.1-1.6,0.4-2.2,0c-0.7-0.5-0.5-1.5-0.4-2.4
			c0-2.7-3.5-4.7-5.8-3.2c-0.9,0.6-1.6,1.5-2.6,1.9c-1.9,0.8-4-1-4.6-3c-0.4-1.4-0.3-2.8-0.2-4.3c3.8-6.4,7-13.1,8.3-20.4
			c1-5.4,0.6-11,0.8-16.6c2.5-0.4,4.2-1.9,5.6-4c0.2,0.2,0.4,0.4,0.6,0.7c0,0,0,0,0.1,0.1c3.9,4.2,9.1,7,12.7,11.5
			c0.3,0.4,0.6,0.8,0.9,1.2c0,0,0.1,0.1,0.1,0.1c-0.4,2.1,0.4,4.8,0.7,6.8c0.1,1.2,0.3,2.4,0.4,3.6c0,0.4,0.1,0.8,0.1,1.2
			c0,0.1,0,0.3,0,0.5c0,0.1,0,0.2,0,0.3c0,0.2,0,0.5,0.1,0.7c0,0.3,0.1,0.7,0.1,1c0,0.3,0,0.5,0.1,0.8c0,0.2,0,0.4,0,0.5
			c0,0.3,0,0.6,0.1,0.9c0,0.4,0.1,0.8,0.1,1.2c0,0.6,0.1,1.2,0.1,1.8C298.3,91,298.3,91.6,298.3,92.2z"/>
		<path class="st13" d="M243.2,148.4c-0.9,0-1.7-0.2-2.3-0.7l-0.1,0l0-0.1c0.6-1.9,1.2-3.8,2-5.8l3.7-8.5l0.1-0.1l-0.1,0
			c0.1-0.3,0.3-0.6,0.4-1l0.3-0.7c1.6-3.4,3.5-6.8,5.5-10.2l0.2-0.3l0,0.3c0.1,1,0.4,1.7,0.9,2.3c0.6,0.7,1.5,1,2.7,1
			c1,0,2-0.2,2.9-0.4c0.9-0.2,1.7-0.3,2.4-0.3c1.5,0,2.6,0.5,3.3,1.4c0.2,0.2,0.3,0.5,0.4,0.8c0.1,0.2,0.2,0.5,0.4,0.7
			c0.7,1.1,2.1,1.4,3.2,1.4c0.6,0,1.2-0.1,1.8-0.2c0.2-0.1,0.5-0.1,0.7-0.2c1-0.2,1.9-0.4,2.9-0.4c0.7,0,1.4,0.1,1.9,0.4
			c1,0.5,1.7,1.4,2.4,2.3c0.8,1.1,1.6,2.1,2.8,2.4c0.3,0.1,0.7,0.1,1,0.1c0.3,0,0.7,0.1,1,0.1c0.2,0,0.3,0.1,0.5,0.2
			c0.2,0.1,0.3,0.1,0.4,0.2c0.1,0.1,0.3,0.2,0.4,0.3c0.1,0.1,0.2,0.2,0.4,0.3c0.7,0.7,1.2,1.7,1.7,3.1l0,0.1h-0.1
			c-0.7,0.1-1.4,0.2-2.2,0.2c-0.4,0-0.7,0-1.1,0c-1.2-0.1-2.3-0.3-3.5-0.5c-0.8-0.1-1.5-0.3-2.3-0.4c-1.1-0.1-2.2-0.2-3.4-0.2
			c-7.6,0-15.6,3.1-25.2,9.8C247.8,147,245.4,148.4,243.2,148.4z"/>
		<path class="st13" d="M287.1,136.8C287,136.8,287,136.8,287.1,136.8c-1.1,0.2-2.2,0.3-3.3,0.2c-1.9-0.1-3.8-0.6-5.7-0.8
			c-10.2-1.3-20.2,3.7-28.7,9.6c-2.5,1.8-6.1,3.5-8.4,1.8c0.6-1.9,1.2-3.9,2-5.8c0.3-0.7,0.6-1.4,0.9-2.1c0,0,0,0,0-0.1
			c0.9-2.1,1.8-4.2,2.8-6.3c0,0,0-0.1,0-0.1c0.2-0.6,0.5-1.1,0.7-1.7c1.7-3.5,3.6-6.9,5.5-10.2c0.1,0.9,0.3,1.7,0.9,2.3
			c1.4,1.5,3.7,1,5.7,0.6c2-0.4,4.4-0.6,5.5,1.1c0.3,0.5,0.4,1,0.7,1.5c1,1.6,3.3,1.6,5.1,1.2c1.8-0.4,3.8-1,5.5-0.2
			c2.2,1,3,4.1,5.3,4.7c0.7,0.2,1.4,0.1,2,0.3c0.2,0,0.3,0.1,0.5,0.2c0.1,0.1,0.3,0.1,0.4,0.2c0,0,0,0,0,0c0.1,0.1,0.3,0.2,0.4,0.3
			c0.1,0.1,0.2,0.2,0.4,0.3l0,0C286.1,134.6,286.7,135.7,287.1,136.8z"/>
		<path class="st14" d="M285.3,133.9c-0.1-0.1-0.2-0.2-0.3-0.3c-0.1-0.1-0.2-0.2-0.4-0.3c-0.1-0.1-0.3-0.1-0.4-0.2
			c-0.1-0.1-0.3-0.1-0.5-0.2c-0.3-0.1-0.7-0.1-1-0.1c-0.3,0-0.7-0.1-1.1-0.1c-1.3-0.3-2.1-1.4-3-2.5c-0.7-0.9-1.4-1.8-2.4-2.3
			c-0.5-0.3-1.1-0.4-1.8-0.4c-0.9,0-1.9,0.2-2.9,0.4c-0.2,0.1-0.5,0.1-0.7,0.2c-0.6,0.1-1.3,0.2-1.9,0.2c-1.6,0-2.7-0.5-3.4-1.5
			c-0.2-0.2-0.3-0.5-0.4-0.7c-0.1-0.3-0.2-0.5-0.4-0.7c-0.6-0.9-1.6-1.3-3.1-1.3c-0.7,0-1.5,0.1-2.3,0.3c-0.9,0.2-1.9,0.4-2.9,0.4
			c-1.3,0-2.2-0.3-2.8-1c-0.5-0.6-0.9-1.4-0.9-2.4c1.5-2.5,2.9-4.9,4.4-7.2c1-1.6,2.1-3.2,3.2-4.8c2.4-3.5,4.8-7.2,7-10.9l0.2,0.1
			c-0.1,1.6-0.2,2.9,0.2,4.2c0.5,1.5,1.9,3.1,3.6,3.1c0.3,0,0.6-0.1,0.9-0.2c0.6-0.2,1-0.6,1.5-1.1c0.3-0.3,0.7-0.6,1-0.8
			c0.5-0.3,1.1-0.5,1.8-0.5c1.1,0,2.3,0.5,3.1,1.3c0.7,0.7,1.1,1.6,1.1,2.5c0,0.2,0,0.3,0,0.5c0,0.7-0.1,1.4,0.4,1.8
			c0.2,0.2,0.4,0.2,0.7,0.2c0.3,0,0.6-0.1,0.9-0.1c0.2,0,0.4-0.1,0.5-0.1c0.1,0,0.2,0,0.4,0c2.1,0,3.7,1.9,4.1,3.8
			c0.4,1.8,0.1,3.7-0.2,5.5l-0.1,0.7c-0.4,2.4-0.7,5.9,0.5,9l0.1,0.2l-1.2,2.4c-0.5,1-1,1.9-1.5,2.9l-0.1,0.1L285.3,133.9z"/>
		<path class="st14" d="M288,128.6c-0.9,1.7-1.8,3.4-2.6,5.2l0,0c-0.1-0.1-0.2-0.2-0.4-0.3c-0.1-0.1-0.2-0.2-0.4-0.3c0,0,0,0,0,0
			c-0.1-0.1-0.3-0.2-0.4-0.2c-0.1-0.1-0.3-0.1-0.5-0.2c-0.7-0.2-1.4-0.1-2-0.3c-2.3-0.6-3.1-3.7-5.3-4.7c-1.7-0.8-3.7-0.2-5.5,0.2
			c-1.8,0.4-4.1,0.3-5.1-1.2c-0.3-0.5-0.4-1-0.7-1.5c-1.1-1.7-3.6-1.5-5.5-1.1c-1.9,0.4-4.3,0.8-5.7-0.6c-0.6-0.6-0.8-1.5-0.9-2.3
			c1.4-2.4,2.9-4.8,4.4-7.1c3.4-5.2,7-10.4,10.2-15.7c-0.1,1.5-0.2,2.9,0.2,4.3c0.6,2,2.7,3.7,4.6,3c1-0.4,1.7-1.4,2.6-1.9
			c2.3-1.4,5.8,0.5,5.8,3.2c0,0.8-0.2,1.9,0.4,2.4c0.6,0.5,1.5,0.1,2.2,0c2.1-0.2,3.9,1.7,4.4,3.7c0.5,2,0,4.2-0.3,6.2
			c-0.5,3-0.6,6.2,0.5,9.1C288,128.5,288,128.6,288,128.6z"/>
		<path class="st15" d="M234.9,276.6c-0.4,0-0.8,0-1.2-0.1l-0.1,0l0-0.1c1-5.6,3.6-10.8,6.1-15.8c1.4-2.8,2.8-5.7,4-8.6
			c6.3-15.7,4.8-33.2,3.3-50c-0.7-8.5-1.5-17.3-1.2-25.8c0.1-3,0.3-5.5,1-7.8c1.6-4.9,5.3-8.9,11.5-12.4l0.9-0.5
			c2.2-1.3,5.3-3,7.7-3.3c0.7-0.1,1.2-0.1,1.7-0.1c2.6,0,2.6,1.1,2.6,4.4c0,0.4,0,0.9,0,1.5l0.5,24.9c0.2,9.5,0.4,19.4-1.1,29
			c-0.6,3.8-1.5,7.8-2.8,11.9c-0.9,3.1-2.1,6.3-3.4,9.5l0,0.1h0c-2.5,6.2-5.6,12.6-9.9,20.3c-2.2,4-4.5,8-6.8,11.9l-0.1,0.2
			C245.1,270.4,240.8,276.6,234.9,276.6z"/>
		<path class="st15" d="M270.7,211.8c-0.6,4-1.6,8-2.8,11.9c-1,3.2-2.1,6.4-3.4,9.5c0,0,0,0,0,0c0,0,0,0,0,0
			c-2.8,6.9-6.2,13.7-9.9,20.3c-2.2,4.1-4.6,8.1-6.9,12.1c-3.1,5.5-7.8,11.7-14,10.8c1.6-8.7,6.9-16.2,10.1-24.4
			c9.4-23.7,1.4-50.4,2.1-75.9c0.1-2.6,0.2-5.3,1-7.8c1.8-5.7,6.4-9.5,11.5-12.3c2.3-1.3,5.9-3.5,8.5-3.7c4.6-0.5,4.1,0.5,4.2,5.6
			c0.1,5.2,0.2,10.4,0.3,15.6c0.1,3.1,0.1,6.2,0.2,9.2C272,192.5,272.2,202.3,270.7,211.8z"/>
		<path class="st16" d="M284.5,388.7c-0.5,0-0.9-0.1-1.4-0.2l-1.4-2.3l-1.4-2.2c0.4-4.6,0-9.1-1.2-13.4c-0.1-0.3-0.2-0.6-0.2-0.9
			c-0.4-1.4-0.8-2.8-0.8-4.3c0-1.4,0.4-2.7,0.8-4.1l0.2-0.5c1.2-4,1.9-8.2,2.3-12.4c0.9-11.1-1.2-22.1-3.3-32.8
			c-0.9-4.7-1.8-9.4-3.5-13.9c-3.5-9.2-10.6-17.1-19.6-21.7c-0.6-3-0.8-6.2-0.9-8.9c-0.1-2.1-0.2-4.3-0.2-6.5
			c14.7-20.8,22.6-37.9,25.5-55.4c1.8-10.6,1.6-21.7,1.1-31l-0.1-2.1c-0.2-3.6-0.4-7.3-0.3-10.9c6.9-8.2,11.6-17.9,15-25.5
			c0.1-0.3,0.3-0.6,0.4-1l0.1-0.2l0.1,0.1c3.6,4.9,5.3,11.1,7,17.1c1.1,3.8,2.2,7.8,3.8,11.4c0.5,1.1,1.1,2.3,2,3.3
			c1.4,1.4,3.5,2.2,6,2.3c0.2,0,0.3,0,0.5,0c6.1,0,11.1-3.5,16.5-7.3c4.2-2.9,8.5-5.9,13.3-7.1c0.7-0.2,1.4-0.3,1.9-0.3
			c0.7,0,1.3,0.1,1.8,0.4c1.9,1,2.2,3.6,2.1,5.8l-0.1,17.2c0,4.5,0.6,8.8,1.2,13c0.6,4.1,1.3,8.4,1.2,12.8c0,8.5-3.5,16.4-6.9,24.1
			c-2.7,6.1-5.4,12.4-6.5,19c-0.4,2.5-0.3,5,0.2,7.3c-3.2,8.4-6.7,16.8-10,24.9c-6.3,15.5-12.9,31.6-18.4,47.7l-0.2,0.7
			c-1.5,4.4-3.1,9-5.8,12.8c-1.3,1.9-2.9,3.6-4.5,5.2c-1.1,1.2-2.2,2.4-3.2,3.6c-1.6,2-3,4.2-4.1,6.5l0,0.1h-0.1l-0.1,0
			c-0.2,0.1-0.3,0.1-0.5,0.2c-0.7,0.4-1.3,0.7-1.7,1.3c-0.5,0.9-0.1,1.9,0.4,2.8c0.1,0.2,0.3,0.5,0.4,0.7c0.3,0.5,0.5,0.9,0.7,1.4
			c1,2.4,0,4.9-1.1,7.4c-0.7,1.6-1.4,3.3-1.5,4.9c0,0.1,0,0.2,0,0.3c0,0.8,0,1.7,0.1,2.5c0.1,1.3,0.2,2.7-0.2,3.9
			C289.3,387,287,388.7,284.5,388.7z M360.7,107.4c-0.1-0.2-0.4-0.3-0.7-0.3l-0.1,0l0-0.2c0-0.7-0.1-1.3-0.1-2l0-0.3l0.2,0.2
			c0.3,0.3,0.6,0.7,0.8,1.1c0.1,0.5,0.1,1,0.1,1.4l0,0.4L360.7,107.4z"/>
		<path class="st16" d="M360.6,106c-0.2-0.4-0.5-0.8-0.8-1.1c0.1,0.7,0.1,1.4,0.1,2.1c0.4,0,0.6,0.1,0.8,0.4
			C360.7,106.9,360.7,106.5,360.6,106z M339.4,250.5c2.4-14.9,13.4-27.9,13.4-43c0-8.9-2.6-17-2.5-25.8c0-5.8,0.1-11.5,0.1-17.2
			c0-2.1-0.2-4.7-2.1-5.7c-1.1-0.6-2.4-0.4-3.6-0.1c-11,2.6-19,14.7-30.3,14.4c-2.2-0.1-4.5-0.7-6.1-2.3c-0.9-0.9-1.5-2.1-2.1-3.3
			c-4.1-9.3-4.8-20.4-10.8-28.5c-0.1,0.4-0.3,0.7-0.5,1c-4,9-8.7,18-15,25.4c0,4.3,0.2,8.7,0.5,13c0.5,10.4,0.6,20.8-1.1,31
			c-3.4,20.3-13.5,38.4-25.5,55.4c0,0,0,0,0,0c0,2.2,0.1,4.3,0.2,6.5c0.1,2.9,0.3,6,0.8,8.8c8.9,4.5,16,12.4,19.6,21.7
			c1.7,4.5,2.6,9.2,3.5,13.9c2.1,10.8,4.2,21.8,3.3,32.8c-0.3,4.2-1.1,8.3-2.3,12.4c-0.4,1.5-0.9,3-0.9,4.6c0,1.8,0.6,3.4,1.1,5.1
			c1.2,4.3,1.6,8.9,1.2,13.4c0.9,1.5,1.8,3,2.8,4.5c2.7,0.8,5.9-0.9,6.7-3.6c0.6-2,0-4.2,0.1-6.4c0-0.1,0-0.2,0-0.3
			c0.4-4.3,4.3-8.4,2.6-12.3c-0.3-0.7-0.8-1.4-1.1-2.1c-0.5-1-0.9-1.9-0.4-2.9c0.4-0.6,1-1,1.7-1.4c0.2-0.1,0.4-0.2,0.6-0.3
			c0,0,0,0,0,0c1.1-2.3,2.5-4.5,4.2-6.5c2.5-3,5.5-5.6,7.7-8.8c2.8-4,4.4-8.8,6-13.5c8.3-24.6,19-48.3,28.4-72.5
			C339,255.4,339,252.8,339.4,250.5z"/>
		<path class="st17" d="M280.3,384c-2.4-3.9-4.7-7.7-7.1-11.6c-3.1-5.1-5.8-10-5.1-15.3c0.3-2.6,1.4-5,2.5-7.3c0.5-1,1-2.1,1.4-3.2
			c2.3-5.8,2.5-12.6,0.6-18.5c-0.5-1.5-1.1-2.9-1.7-4.3c-1.2-3-2.5-6-2.6-9.3c0-1.5,0.2-3,0.4-4.4c0.2-1.7,0.5-3.4,0.3-5.2
			c-0.4-4.6-3.5-8-6.7-11.7c-2-2.3-4.1-4.6-5.5-7.2c-0.9-1.8-1.6-3.8-2-6l0-0.2l0.2,0.1c8.9,4.6,16.1,12.5,19.6,21.8
			c1.7,4.5,2.6,9.2,3.5,13.8c2.1,10.8,4.2,21.8,3.3,32.9c-0.3,4.2-1.1,8.4-2.3,12.4l-0.2,0.5c-0.4,1.3-0.8,2.6-0.8,4
			c0,1.4,0.4,2.9,0.8,4.2c0.1,0.3,0.2,0.6,0.2,0.9c1.2,4.4,1.6,8.9,1.2,13.4l0,0.3L280.3,384z"/>
		<path class="st17" d="M279.1,360.8c-0.4,1.5-0.9,3-0.9,4.6c0,1.8,0.6,3.4,1.1,5.1c1.2,4.3,1.6,8.9,1.2,13.4
			c-2.4-3.9-4.7-7.7-7.1-11.6c-2.8-4.7-5.8-9.8-5.1-15.2c0.5-3.7,2.5-6.9,3.9-10.4c2.3-5.9,2.5-12.6,0.6-18.6
			c-1.5-4.5-4.1-8.8-4.3-13.6c-0.1-3.2,1-6.4,0.7-9.6c-0.7-7.6-8.7-12.2-12.2-18.9c-1-1.9-1.6-3.9-2-6c8.9,4.5,16,12.4,19.6,21.7
			c1.7,4.5,2.6,9.2,3.5,13.9c2.1,10.8,4.2,21.8,3.3,32.8C281,352.6,280.3,356.8,279.1,360.8z"/>
		<path class="st18" d="M339.5,257.8c-0.5-2.3-0.6-4.9-0.2-7.4c1.1-6.6,3.8-12.9,6.5-19c3.4-7.7,6.8-15.6,6.9-24
			c0-4.4-0.6-8.7-1.2-12.8c-0.6-4.2-1.3-8.5-1.2-13l0.1-17.2c0-2.1-0.2-4.6-2-5.6c-0.5-0.3-1-0.4-1.7-0.4c-0.5,0-1.1,0.1-1.9,0.3
			c-4.8,1.2-9.1,4.2-13.3,7.1c-5.4,3.8-10.4,7.3-16.6,7.3c-0.2,0-0.3,0-0.5,0c-2.6-0.1-4.8-0.9-6.2-2.3c-1-1-1.6-2.3-2.1-3.4
			c-1.6-3.7-2.7-7.6-3.8-11.5c-1.7-6-3.4-12.1-7-17c4.8-11.1,8.9-22.5,12.2-34.1c1.7-6.1,3.3-12.4,4.5-18.8l0-0.2l0.1,0.1
			c0.2,0.2,0.4,0.4,0.6,0.5c1.9,1.8,4.1,3.3,6.2,4.8c2.8,2,5.8,4,8,6.7c0.9,1,1.6,2.2,2.3,3.3c0.8,1.3,1.7,2.6,2.7,3.7
			c4.6,5.3,11.9,6.9,19.7,8.2c0.9,0.2,2,0.3,3.1,0.3c1.4,0,2.5-0.3,3.4-1c1.1-0.8,2.2-2.6,2.5-4l0.2,0c0.4,5.4,0.6,10.9,0.8,16.3
			c0.1,4.1,0.4,8.3,0.6,12.3c0.1,2.2,0.3,4.4,0.4,6.6c0.6,12.8,0.7,23.5-1.3,33.9c-0.4,2-0.7,4.1-1.1,6.1
			c-2.9,15.7-5.6,30.6-10.5,45.8c-2.7,8.5-6,17.4-10.1,28.1l-0.1,0.3L339.5,257.8z"/>
		<path class="st18" d="M361.4,177.8c-3.3,17.6-6.1,34.7-11.6,51.9c-3.1,9.5-6.5,18.8-10.1,28.1c-0.5-2.4-0.5-5-0.2-7.3
			c2.4-14.9,13.4-27.9,13.4-43c0-8.9-2.6-17-2.5-25.8c0-5.8,0.1-11.5,0.1-17.2c0-2.1-0.2-4.7-2.1-5.7c-1.1-0.6-2.4-0.4-3.6-0.1
			c-11,2.6-19,14.7-30.3,14.4c-2.2-0.1-4.5-0.7-6.1-2.3c-0.9-0.9-1.5-2.1-2.1-3.3c-4.1-9.3-4.8-20.4-10.8-28.5
			c4.9-11,8.9-22.4,12.2-34.1c1.8-6.2,3.3-12.5,4.5-18.8c0.2,0.2,0.4,0.4,0.6,0.5c4.4,4.2,10.3,6.8,14.2,11.5c1.8,2.2,3.1,4.9,5,7
			c4.8,5.5,12.5,7,19.7,8.3c2.2,0.4,4.7,0.7,6.5-0.6c1.1-0.8,2.3-2.6,2.6-4c0.4,5.4,0.6,10.9,0.8,16.3c0.2,6.2,0.6,12.6,1,18.9
			C363.2,155.4,363.4,166.8,361.4,177.8z"/>
		<path class="st19" d="M360.7,107.4c-0.1-0.2-0.4-0.3-0.7-0.3l-0.1,0l0-0.2c0-0.7-0.1-1.3-0.1-2l0-0.3l0.2,0.2
			c0.3,0.3,0.6,0.7,0.8,1.1c0.1,0.5,0.1,1,0.1,1.4l0,0.4L360.7,107.4z"/>
		<path class="st19" d="M360.7,107.4c-0.2-0.2-0.4-0.4-0.8-0.4c0-0.7-0.1-1.4-0.1-2.1c0.3,0.3,0.6,0.7,0.8,1.1
			C360.7,106.5,360.7,106.9,360.7,107.4z"/>
		<path class="st19" d="M360.8,108.7c0-0.4-0.1-0.8-0.1-1.2l0-0.4l0.2,0.2c0.2,0.3,0.3,0.8,0.1,1.4L360.8,108.7z"/>
		<path class="st19" d="M360.9,108.7c0-0.4-0.1-0.8-0.1-1.3C361,107.7,361,108.1,360.9,108.7z"/>
		<path class="st19" d="M360.6,144.5c-0.5,0-1-0.1-1.4-0.2c-1.6-0.6-2.6-2-3.6-3.3c-0.6-0.8-1.2-1.7-2-2.4c-2.2-2-5.2-2.1-8.1-2.1
			l-2.3,0c-2,0-4.3-0.1-6.3-0.9c-2.7-1-4.7-3.2-6.7-5.3c-1.9-2.1-3.9-4.2-6.5-5.2c-1-0.4-2.2-0.7-3.3-0.9c-1.3-0.3-2.7-0.6-3.9-1.2
			c-1.6-0.8-3-2.1-4.4-4.1c-3.3-4.7-4-9.4-4.4-14.1c0-0.6-0.1-1.1-0.1-1.7c-0.2-2.9-0.5-5.9-1.2-8.9c-0.2-0.8-0.7-1.6-1.2-2.6
			c-0.9-1.6-1.9-3.3-1.5-4.7c0.9-3,6.2-4.8,9.5-5.1l0.1,0l-0.1,0.7c0,0.1,0,0.3-0.1,0.4c-0.2,1-0.4,2-0.6,3c0.2,0.1,0.3,0.3,0.5,0.5
			c1.9,1.8,4.1,3.3,6.2,4.8c2.8,2,5.8,4,8,6.7c0.9,1,1.6,2.2,2.3,3.3c0.8,1.3,1.7,2.6,2.7,3.7c4.6,5.3,11.9,6.9,19.7,8.2
			c0.9,0.2,2,0.3,3.1,0.3c1.4,0,2.5-0.3,3.4-1c1.1-0.8,2.2-2.6,2.5-4l0.2,0c0.4,5.4,0.6,10.9,0.8,16.3c0.1,4.1,0.4,8.3,0.6,12.3
			c0.1,2.2,0.3,4.4,0.4,6.6l0,0.1l-0.1,0C362,144.3,361.3,144.5,360.6,144.5z"/>
		<path class="st19" d="M362.6,143.9c-1.1,0.5-2.3,0.6-3.4,0.2c-2.5-0.9-3.6-3.9-5.6-5.7c-4.4-3.8-11.4-0.9-16.8-3
			c-5.3-2-7.9-8.4-13.2-10.5c-2.3-0.9-4.9-0.9-7.2-2c-1.8-0.9-3.2-2.4-4.4-4.1c-3.3-4.7-4-9.3-4.4-14.1c-0.3-3.4-0.5-7-1.4-10.6
			c-0.5-2.1-3.3-5-2.7-7.2c0.9-2.9,6.2-4.7,9.4-5c0,0.1,0,0.3-0.1,0.4c0,0.2-0.1,0.4-0.1,0.6c-0.2,1-0.4,2-0.6,3
			c0.2,0.2,0.4,0.4,0.6,0.5c4.4,4.2,10.3,6.8,14.2,11.5c1.8,2.2,3.1,4.9,5,7c4.8,5.5,12.5,7,19.7,8.3c2.2,0.4,4.7,0.7,6.5-0.6
			c1.1-0.8,2.3-2.6,2.6-4c0.4,5.4,0.6,10.9,0.8,16.3C361.9,131.3,362.3,137.6,362.6,143.9z"/>
		<path class="st20" d="M232.5,262.9c0.4-1,0.7-1.9,1.1-2.9c1.5-3.9,3.1-8,4.3-12.1c4.1-13.1,5.5-27.2,4-40.8
			c-0.5-4.8-1.3-9.6-2.2-14.2c-1.2-7-2.5-14.1-2.6-21.3c-0.1-7.2,0.9-14.6,3.1-22.2l0.2,0c0.5,4.6,0.2,9.3-0.1,13.9
			c-0.1,2.1-0.3,4.4-0.3,6.5c-0.3,12.3,1.9,24.7,4.2,36.6c3.3,18-1.5,35.6-6.1,47.3c-1.2,3.1-2.8,6.7-5.5,9.2L232.5,262.9z"/>
		<path class="st20" d="M238.1,253.7c-1.3,3.3-2.9,6.7-5.5,9.2c1.9-5,3.8-9.9,5.4-15c4.1-13.1,5.5-27.1,4-40.8
			c-1.2-11.9-4.6-23.6-4.8-35.6c-0.1-7.5,1.1-15,3.1-22.2c0.7,6.8-0.3,13.6-0.5,20.4c-0.4,12.3,1.9,24.5,4.2,36.6
			C247,222.1,243.9,238.9,238.1,253.7z"/>
		<path class="st21" d="M231.1,264.4l-0.1-0.2c0.6-0.4,1.1-0.9,1.6-1.3l0.1,0.1C232.2,263.5,231.7,263.9,231.1,264.4z"/>
		<path class="st21" d="M232.6,262.9c-0.5,0.5-1,0.9-1.6,1.4"/>
		<path class="st22" d="M353.9,39.1c-1.8,0-3.5-0.1-5.2-0.2l-0.3,0l0.2-0.2c2.3-1.8,4.9-3.1,7.7-3.9c4-1.2,8.1-1.4,11.7-1.4
			c1.3,0,2.6,0,3.8,0l9.5,0.2l0,0.2C373.7,37.2,363.7,39.1,353.9,39.1C353.9,39.1,353.9,39.1,353.9,39.1z"/>
		<path class="st22" d="M381.3,33.7c-3.2-0.1-6.4-0.1-9.6-0.2c-5.2-0.1-10.5-0.2-15.5,1.3c-2.8,0.8-5.4,2.2-7.7,3.9
			C359.1,39.6,371.7,37.9,381.3,33.7z"/>
		<path class="st23" d="M187.8,374.4c0.9-3.3,2.5-6.4,4.6-9.1c-0.2,0-0.4,0-0.6,0c-1.7,0-3.3,1-4.8,1.9c-1.6,0.9-3.2,1.9-4.8,1.9
			c-0.4,0-0.8-0.1-1.1-0.2l-0.2,0l0.1-0.1c2.3-2.1,4.8-4.1,7.3-5.9c-0.5,0.2-1.1,0.5-1.6,0.7l-0.1-0.2c2.4-2.6,4.6-5.3,6.5-8.2
			l-8.3,2.9l-0.1-0.2c3.2-1.1,6.3-3.6,9.2-6c3.9-3.1,7.8-6.3,12.2-6.9l0.2,0l-0.1,0.2c-0.8,1.4-1.8,2.7-2.7,4l-0.7,1
			c-0.7,1-1.2,1.8-1.2,2.8c0,1.4,1.4,2.3,2.7,2.3c0.6,0,1-0.2,1.4-0.5l0.2-0.2l0,0.3c-0.2,1.3-0.2,2.6-0.2,3.9l2.2-0.8l0.1,0.2
			c-0.7,0.4-1.3,0.9-1.8,1.5c0.9-0.5,1.9-0.8,3-0.8c0.5,0,0.9,0.1,1.4,0.2l0.2,0.1l-3.9,2.7c2.8-0.8,5.7-1.3,8.6-1.3l0,0.2
			l-16.2,7.2c-3.8,1.7-8.1,3.6-11.3,6.7l-0.3,0.3L187.8,374.4z"/>
		<path class="st23" d="M184.7,358.1c2.9-1,5.8-2,8.6-3c-2,3-4.3,5.8-6.7,8.4c1.3-0.5,2.6-1.1,3.8-1.9c-3.3,2.1-6.5,4.5-9.4,7.2
			c4,1.1,7.5-4.4,11.6-3.6c-2.2,2.7-3.8,5.9-4.7,9.2c3.1-3.1,7.3-5,11.3-6.7c5.4-2.4,10.8-4.8,16.2-7.2c-3.1,0.1-6.2,0.6-9.2,1.5
			c1.4-1,2.9-1.9,4.3-2.9c-1.6-0.4-3.4,0-4.8,1c0.6-0.8,1.4-1.5,2.2-2c-0.8,0.3-1.5,0.6-2.3,0.9c-0.1-1.3,0-2.7,0.2-4
			c-1.4,1.3-4.2,0.1-4.2-1.9c0-1.1,0.6-2,1.3-2.9c1.2-1.6,2.4-3.3,3.4-5C198.4,346.1,192,355.5,184.7,358.1z"/>
	</g>
</g>
<g id="Layer_8">
</g>
</svg>
