<?xml version="1.0" encoding="utf-8"?>
<!-- Generator: Adobe Illustrator 23.0.1, SVG Export Plug-In . SVG Version: 6.00 Build 0)  -->
<svg version="1.1" id="Layer_1" xmlns="http://www.w3.org/2000/svg" xmlns:xlink="http://www.w3.org/1999/xlink" x="0px" y="0px"
	 viewBox="0 0 14.6 14.4" style="enable-background:new 0 0 14.6 14.4;" xml:space="preserve">
<style type="text/css">
	.st0{fill:none;}
</style>
<path class="st0" d="M-4.6-4.8h24v24h-24V-4.8z"/>
<path d="M2.4,9.2h-2v2.4c0,1.4,1.1,2.6,2.6,2.6h2.4v-2h-2c-0.6,0-1-0.5-1-1V9.2z M0.4,5.2h2v-2c0-0.6,0.5-1,1-1h2v-2H2.9
	c-1.4,0-2.6,1.1-2.6,2.6V5.2z M11.3,12.2h-2v2h2.4c1.4,0,2.6-1.1,2.6-2.6V9.2h-2v2C12.4,11.8,11.9,12.2,11.3,12.2z M9.4,0.2v2h2
	c0.6,0,1,0.5,1,1v2h2V2.8c0-1.4-1.1-2.6-2.6-2.6H9.4z"/>
</svg>
