<?xml version="1.0" encoding="utf-8"?>
<!-- Generator: Adobe Illustrator 23.0.1, SVG Export Plug-In . SVG Version: 6.00 Build 0)  -->
<svg version="1.1" id="Layer_1" xmlns="http://www.w3.org/2000/svg" xmlns:xlink="http://www.w3.org/1999/xlink" x="0px" y="0px"
	 viewBox="0 0 568 163" style="enable-background:new 0 0 568 163;" xml:space="preserve">
<style type="text/css">
	.st0{fill:#325283;}
	.st1{fill:#303E5B;}
	.st2{fill:#839DC0;}
	.st3{fill:#3A598F;}
	.st4{fill:#CDD4DE;}
	.st5{fill:#E9EDF9;}
	.st6{fill:#6584A0;}
	.st7{fill:#172B4E;}
	.st8{fill:#4B6586;}
	.st9{fill:#C2E0FF;}
	.st10{fill:none;}
	.st11{fill:#050D10;}
</style>
<title>endangered-animals</title>
<g>
	<path class="st0" d="M560.1,43.2c-1,0.9-2,1.8-3.1,2.7c-17.6,15.2-37.2,27.8-58.3,37.7c-27.8,13-57.7,20.8-87.4,28.5
		c-10.7,2.8-21.5,5.6-32.5,6.2c-17.4,0.9-34.6-3.6-52-5.9c-8.6-1.1-17.3-1.6-25.8-2.8c-13-1.8-25.8-5.2-38.5-8.6l-34.1-9
		c-5-4.8-11.7-7.6-18.6-8.9c-5.2-1-8.8-3.6-12.1-6.3c-10.4,2.9-20.5,7.6-31,10.3l0,0c-4.5,1.2-9.2,1.9-13.9,2
		c-31.6-3.5-51.5-5.3-81.9,4c-4.7,1.4-9.4,3.1-13.3,6.1c-3,2.4-5.4,5.5-7.9,8.3c-12.2,13.6-28.9,22.2-47,24.3
		c7.3-5,10.3-14.2,15.3-21.4c3.5-5,7.9-9.1,13.1-12.2c-5,1.6-10.2,1.6-16.2,1.1c8.4-8.9,21.3-12,31.9-18.1
		c11.8-6.7,20.8-17.2,31.5-25.6c22.3-17.5,50.6-25,77.8-33.3c3.1-1,6.4-2,8.7-4.3s3.3-6.3,1.3-8.9c14.9,3.7,30.1,6.1,45.4,7.2
		c32,2.4,64.2-0.9,96.1,2.6c49.1,5.4,97.9,26.8,146.3,16.8c8.4-1.7,17.9-4.1,24.8,0.9c14.4,0.9,29.4-2.1,43.8-3.6
		c12.1-1.2,24.8-1.3,36.1,2.8c2.2,0.8,3.4,3.3,2.6,5.5C561,42.1,560.6,42.7,560.1,43.2z"/>
	<path class="st1" d="M193.5,14.8c-1.9,0.7-4,0.6-6,0.9c-2.8,0.4-5.5,1.6-8.2,2.5c-2.3,0.7-4.6,1.3-7,1.6c1.5-1.9,2.3-4.2,2.4-6.6
		c-0.1-2.4-0.6-4.8-1.7-7.1c7,2.2,13.9,4.7,20.8,7.2c0.1,0,0.3,0.1,0.4,0.2C194.7,14,194.1,14.6,193.5,14.8z"/>
	<path class="st2" d="M168.8,20c0,0,0,0.1,0,0.1c-2.7,0.1-5.4,0-8-0.4c-0.1-1.4,0.9-2.5,1.7-3.6c2.2-2.9,2.5-5.7,2.7-9.1
		c1,0.3,1.8,1,2.3,1.8c0.8,1.5,1.3,3.3,1.3,5C169.2,15.9,169.2,18,168.8,20z"/>
	<path class="st3" d="M174.6,13.2c0,2.4-0.9,4.7-2.4,6.6c-1.2,0.2-2.3,0.3-3.5,0.3c0,0,0-0.1,0-0.1c0.4-2,0.5-4.1,0.1-6.1
		c-0.1-1.7-0.5-3.5-1.3-5c-0.6-0.9-1.4-1.5-2.3-1.8c0-0.1,0-0.3,0-0.4c0.2-4.1,3.5-1.9,6.7-0.9l1.1,0.4
		C174,8.3,174.6,10.7,174.6,13.2z"/>
	<path class="st4" d="M473.6,98.1c-6.3,2.2-12.5,4.4-18.5,7.1c-10.5,4.7-20.4,10.8-31.4,14.3c-11.1,3.6-22.9,4.5-34.6,5.3
		c-15.2-1-31.5-3.1-46.6-4c-11-0.7-22.1-1.4-32.9-3.2c18.5-5.7,41,2.9,61-0.8c5.9-1.1,11.7-3.4,17.7-3.4c5.4-0.1,10.6,1.6,16,2.2
		C428,118.3,450.4,100.4,473.6,98.1z"/>
	<path class="st5" d="M557,45.9c-0.7,2.6-2,4.9-3.9,6.8c-14.3,12.2-28.9,24.3-45.8,32.6c-10.8,5.3-22.3,8.9-33.7,12.8
		c-23.2,2.3-45.6,20.2-69.4,17.5c-5.4-0.6-10.6-2.3-16-2.2c-6,0.1-11.8,2.3-17.7,3.4c-20,3.8-42.5-4.9-61,0.8
		c-4-0.6-7.9-1.4-11.9-2.4c-11-2.7-21.5-7-32.3-10.4c-12.5-3.9-25.2-7.1-38.1-9.5c1.2-0.2,2.5-0.4,3.7-0.7c-0.8-1-1.6-1.9-2.5-2.7
		c-5-4.8-11.7-7.6-18.6-8.9c-5.2-1-8.8-3.6-12.1-6.3c5.2-1.5,10.6-2.3,16.1-2.4c9.5,0,18.7,2.8,28.1,4c36.1,4.8,73.5-13,108.5-3.1
		c-22.2-0.8-47.5-1.3-67.3,8.9c18.1,8.4,35.7,15.8,55.1,20.5c6.8,1.8,13.8,2.9,20.9,3.3c7.4,0.3,14.7-0.7,21.8-2.8
		c-3.1-0.9-4.9-6.2-5-9.4c0-1.7,0.4-3.3,1-4.9c3.9-11.2,11.7-21.9,23.1-25.2c0.8-0.3,1.7-0.4,2.5-0.2c-8.1,5.7-14,13.8-16.9,23.3
		c-1.3,4.3-1.7,9.8,4.4,11.3c0.8,0.2,1.7,0.3,2.6,0.3c6.5,0,13.1,0.3,19.3-1.5c4.5-1.3,8.2-4.6,12.7-5.6C441,89,449.2,80.6,462,77
		c1.4-0.4,1.1,0.2,2-1c5.1-7.2,11.3-13.8,19.1-18.1c3.9-2,8.1-3.6,12.4-4.6c20-5.5,40.8-11.1,61.5-11.2
		C557.4,43.3,557.4,44.6,557,45.9z"/>
	<path class="st6" d="M177.4,45.5c16.9-1.2,33.8,1.4,50.1,6c2.1,0.6,4.2,1.2,5.6,2.8s1.8,4.3,0.2,5.7c-1.1,1-2.9,1.1-3.5,2.5
		c-0.3,0.7-0.2,1.6-0.7,2.2c-0.5,0.5-1.1,0.9-1.8,1c-27.6,7.8-55.7,15.6-84.4,15.1c-3.8-0.1-7.7-0.3-11.2-1.8s-6.5-4.6-7-8.3
		C122.6,53.7,166.5,46.2,177.4,45.5z"/>
	<path class="st7" d="M24.9,118.6c16.4-7.3,23.2-27.9,38.7-36.9l-3.8,10.6c10.8-2.9,21.6-5.5,32.5-7.7c8.9-1.8,18-3.4,27.1-3.1
		c13.6,0.4,28.4,4.6,40.1-2.5c-11.4,0.9-22.9-0.3-33.8-3.6c33.7-5.2,65.9-24,99.8-19.9c-32-7.9-65,4.3-97.5,9.5
		c6.3-5.6,13.6-10.1,21.5-13.2c-12.5-2-23.2,11.3-35.8,10.5c4.3-2.6,8-6.1,10.8-10.4l-8-0.3c1.4-7,9.2-10.3,16-12.5l19.3-6.4
		c6-2,13.4-6.3,11.8-12.5c-14,6-29.2,8.4-44.2,11.4s-30,6.6-43,14.6S57.2,65,51.4,78.5C45.3,93,33.9,105.8,24.9,118.6z"/>
	<path class="st8" d="M405.8,114.8c-1.8,3.5-3.7,6.9-5.8,10.1c-10,15.1-25.2,26.1-42.8,30.7l14.2-22.6c7.4-11.7,15.1-23.7,25.4-32.7
		c-6.2,7.1-10.8,15.5-11.6,24.8c4.1-7.3,9.2-14,15-20c1.2,1.6,1.7,3.6,1.4,5.5c-0.5,1.9-1.2,3.7-2.2,5.4c-1.7,3.4-2.8,7-3.3,10.8
		C399.4,122.9,402.6,118.9,405.8,114.8z"/>
	<path class="st9" d="M429.7,62.4c-3,4.3-5.8,8.8-7.3,14c-0.6,2.1-0.2,13.9-1.1,14.7c-6.8,6.6-11,15.3-15.5,23.8
		c-3.2,4-6.4,8-9.6,12.1c0.5-3.7,1.6-7.4,3.3-10.8c1-1.7,1.8-3.5,2.2-5.4c0.3-2-0.2-4-1.4-5.5c-5.8,6-10.9,12.7-15,20
		c0.8-9.3,5.4-17.6,11.6-24.8c2.5-2.1,5.1-4.1,7.9-5.8c1.6-1,3.3-2,4.1-3.6c0.5-1.4,0.8-3,0.7-4.5C410,78,419,59.9,429.7,62.4z"/>
	<path class="st10" d="M441.2-76.8l-4.5,5.6"/>
	<path class="st10" d="M437.6-95.1c-3.5,2.9-6.8,6-9.8,9.5"/>
	<path class="st11" d="M464.6,70.1c4.3-2.1,6.9-6.8,10.2-10.4c5.8-6.2,14.1-8.8,22.1-11c17.8-4.9,36-8.6,54.3-11.1
		c3.5-0.5,8.6-1.1,9.8,2.3c1,3,0.5,4.1,0,5c-1,2-2.6,4.4-6,5c1-1,1.4-3-1.9-5.5s-7.8-2-11.8-1.3c-12.5,2.2-25,4.8-37.3,7.8
		c-8.7,2.1-17.7,4.9-24.8,10.7c-4.3,3.5-7.6,8.1-11.6,11.9c-2.4,2.3-15.6,11.6-18,4.9C447.5,72.5,461.8,71.5,464.6,70.1z"/>
	<path class="st7" d="M210.1,47.2c5.7,0.2,11.9,0.5,16.2,4.1s5,11.9-0.1,14.3c22.6-6.1,45.6-10.4,68.9-13c10.2-1.1,20.4-1.9,30.6-1
		c19.5,1.7,40.5,9,57.6-0.4c-21.1-3.7-42.5-7.3-63.9-6.4c-19.5,0.9-39,5.5-58.4,3.2c-25.3-3-51-17.6-74.7-8.4
		c1.6-0.5,2.6,2.2,1.4,3.5s-3.1,1.2-4.8,1c-5.2-0.6-10.4-1.7-15.7-1C173.3,50.8,200.3,46.9,210.1,47.2z"/>
	<path class="st4" d="M231,94.6c-1.2,0.2-2.4,0.5-3.7,0.7c-14.3-2.7-28.8-4.8-43.3-6.9c-3.6-0.4-7.3-0.6-11-0.4
		c-1.1,0-2.1,0.1-3.2,0.3c-6.4,0.9-11.4,3.2-17.8,0.7h0.9c4.7-0.1,9.4-0.8,13.9-2l0,0c10.5-2.7,20.6-7.4,31-10.3
		c3.3,2.7,6.8,5.4,12.1,6.3c6.8,1.3,13.6,4.1,18.6,8.9C229.4,92.8,230.2,93.7,231,94.6z"/>
</g>
</svg>
