<?xml version="1.0" encoding="utf-8"?>
<!-- Generator: Adobe Illustrator 23.0.1, SVG Export Plug-In . SVG Version: 6.00 Build 0)  -->
<svg version="1.1" id="Layer_1" xmlns="http://www.w3.org/2000/svg" xmlns:xlink="http://www.w3.org/1999/xlink" x="0px" y="0px"
	 viewBox="0 0 792 612" style="enable-background:new 0 0 792 612;" xml:space="preserve">
<style type="text/css">
	.st0{fill:#FFC93B;}
</style>
<g>
	<path class="st0" d="M357,576.5l3,0.4l8.1-54.3c-1,0-2,0.1-3,0.1L357,576.5z"/>
	<path class="st0" d="M433.4,11.7l-3-0.4l-10.1,78.9c1,0.1,2,0.2,3,0.3L433.4,11.7z"/>
	<path class="st0" d="M248.7,568.4l2.6,1.5l27.9-45.3c-1.1-0.1-2.2-0.1-3.3-0.2L248.7,568.4z"/>
	<path class="st0" d="M547.1,51.2l-2.6-1.5L510.3,110c0.9,0.4,1.9,0.7,2.8,1.1L547.1,51.2z"/>
	<path class="st0" d="M729.6,198.4l-0.9-2.9L647,222.3c0.5,0.9,0.9,1.8,1.4,2.7L729.6,198.4z"/>
	<path class="st0" d="M58.8,414.9l0.9,2.9l70.3-23c-0.3-0.9-0.6-1.9-0.9-2.8L58.8,414.9z"/>
	<path class="st0" d="M741.4,318.1l0.1-3l-73.1-2c0,1,0.1,2,0.2,3L741.4,318.1z"/>
	<path class="st0" d="M30.9,295.1l-0.1,3l83.1,2.5c0-0.9,0-2,0-3L30.9,295.1z"/>
	<path class="st0" d="M655.5,99.9l-1.9-2.3l-67.5,54.2c0.8,0.6,1.6,1.3,2.4,1.9L655.5,99.9z"/>
	<path class="st0" d="M115.2,529.7l1.9,2.3l61.2-49.1c-0.7-0.7-1.3-1.5-2-2.2L115.2,529.7z"/>
	<path class="st0" d="M59.9,168.2l-1.1,2.8l56.9,23.4c0.1-1.1,0.3-2.1,0.4-3.1L59.9,168.2z"/>
	<path class="st0" d="M754.8,453.7l-68.4-28.1c0.1,1.1,0.2,2.2,0.3,3.4l67,27.5L754.8,453.7z"/>
	<path class="st0" d="M653.7,562.8l2.1-2.1L607.2,513c-1.4,0-2.8,0.1-4.2,0.1L653.7,562.8z"/>
	<path class="st0" d="M149.6,64.9l-2.1,2.1l44.5,43.6c1-0.4,2-0.8,3.1-1.2L149.6,64.9z"/>
	<path class="st0" d="M296.8,14.8l-2.8,1L319.2,90c1,0,2.1-0.1,3.1-0.1L296.8,14.8z"/>
	<path class="st0" d="M486.6,578.4l2.8-1l-20.9-56.4c-1,0.1-2.1,0.1-3.1,0.2L486.6,578.4z"/>
</g>
</svg>
