<svg width="336" height="151" viewBox="0 0 336 151" fill="none" xmlns="http://www.w3.org/2000/svg">
<path d="M0 1H336" stroke="#CEA41D" stroke-width="0.25"/>
<path d="M0 60H336" stroke="#CEA41D" stroke-width="0.25"/>
<path d="M0 119H336" stroke="#CEA41D" stroke-width="0.25"/>
<rect x="20" y="37.4974" width="14.5854" height="134.503" fill="#E9974C"/>
<rect x="20" y="12.8103" width="14.5854" height="24.6872" fill="#FFDB5B"/>
<rect x="67.4023" y="101.344" width="14.5854" height="70.6564" fill="#E9974C"/>
<rect x="67.4023" y="6" width="14.5854" height="70.6564" fill="#E9974C"/>
<rect x="67.4023" y="76.6564" width="14.5854" height="24.6872" fill="#FFDB5B"/>
<rect x="114.805" y="101.344" width="14.5854" height="70.6564" fill="#E9974C"/>
<rect x="114.805" y="6" width="14.5854" height="70.6564" fill="#E9974C"/>
<rect x="114.805" y="76.6564" width="14.5854" height="24.6872" fill="#FFDB5B"/>
<rect x="162.208" y="101.344" width="14.5854" height="70.6564" fill="#E9974C"/>
<rect x="162.208" y="6" width="14.5854" height="70.6564" fill="#E9974C"/>
<rect x="162.208" y="76.6564" width="14.5854" height="24.6872" fill="#FFDB5B"/>
<rect x="209.61" y="101.344" width="14.5854" height="70.6564" fill="#E9974C"/>
<rect x="209.61" y="6" width="14.5854" height="70.6564" fill="#E9974C"/>
<rect x="209.61" y="76.6564" width="14.5854" height="24.6872" fill="#FFDB5B"/>
<rect x="257.012" y="101.344" width="14.5854" height="70.6564" fill="#E9974C"/>
<rect x="257.012" y="6" width="14.5854" height="70.6564" fill="#E9974C"/>
<rect x="257.012" y="76.6564" width="14.5854" height="24.6872" fill="#FFDB5B"/>
<rect x="304.415" y="101.344" width="14.5854" height="70.6564" fill="#E9974C"/>
<rect x="304.415" y="6" width="14.5854" height="70.6564" fill="#E9974C"/>
<rect x="304.415" y="76.6564" width="14.5854" height="24.6872" fill="#FFDB5B"/>
</svg>
