<svg xmlns="http://www.w3.org/2000/svg" viewBox="0 0 600 600">
  <title>ocean</title>
  <g id="Layer_3" data-name="Layer 3">
    <g id="ocean">
      <path d="M446,585.8a4.91,4.91,0,0,0,2,.91l-58,2.75c-7.5.36-15.21.69-22.32-1.72-6.23-2.1-11.95-6.28-18.53-6.39-6.41-.1-12.14,3.67-18.21,5.72-17.29,5.83-35.71-2.53-53.6-6.13-17.69-3.56-41.12,1.59-44.75,19.06H54.85a28,28,0,0,0,11.73-9.57c5.47-8.12,9-21.56,18.68-20,8.29,1.33,10.44,13.53,18.34,16.4,9.8,3.56,18.32-9.55,28.74-9.82,8-.22,17.27,6.81,22.88,1.13,5-5.08-.12-13.4-5.12-18.47,5.71-1.2,11.85-2.65,15.64-7.08S169,539.74,163.39,538l6.82-6.45A68.25,68.25,0,0,1,153.14,491a16.53,16.53,0,0,1,12.5,11.6,19.21,19.21,0,0,1,6.82-17.27,104.57,104.57,0,0,0,38.5,68l1.32-20.09a9.09,9.09,0,0,0,7.2,2.86c4.26-9.13-2.66-19.23-8.53-27.42-27.41-38.2-37.73-93-11.45-132,8.51,11.64,6.23,27.57,5.34,42a175.54,175.54,0,0,0,30.52,109.68c1.81,2.62,4.17,5.46,7.36,5.48,5.56,0,7.12-7.58,6.84-13.14l-1.74-35.23,6.33,11.32-1.23-36.16c13.43,15-2.8,43.31,11.56,57.48,1.82,1.8,4.12,3.34,4.92,5.77,2.1,6.41-7.71,11.53-7,18.25.74,7.45,11.86,7.36,18.57,4s15.88-7.2,20.61-1.39c4.51,5.55,2.14,17.51,9.29,17.75,1.79.06,3.43-.89,5-1.68,26-12.75,55.75,11.69,84.55,9.09,3.52-.32,8-2.31,7.41-5.8a19.11,19.11,0,0,0,24.08-1.59,9.22,9.22,0,0,1,3.78,7.79,25.41,25.41,0,0,0,13-4.08C451.42,572.74,440.45,581.42,446,585.8Z" fill="#93def2"/>
      <path d="M456.61,208.72a13.3,13.3,0,0,0-.24,5.19l5.79,68.8a43.89,43.89,0,0,0-21.05-26.46l-8.65,25.38a79.61,79.61,0,0,1-25.33-48.75c-.47-3.77-.77-7.84-3.2-10.76-5-6-15.57-2.49-19.41,4.28s-3.26,15-3.4,22.83-1.65,16.5-8,21c-8.33-9.69-21.26-20.31-32.31-13.88-3.07,1.79-5.46,4.76-8.84,5.87-8.36,2.77-15.12-6.79-22.82-11.08a22,22,0,0,0-11.45-2.74,45.69,45.69,0,0,0-1.24,5.39c-1.27,8,2.45,18.32,10.56,19,2.82.23,5.6-.79,8.42-.75,10,.15,14.77,12.17,16.95,21.94,2.5-7.45,13.3-8.91,19.89-4.64s9.93,12,12.91,19.26c2.33-6.79,7.12-15.08,14.13-13.52,5.62,1.25,7.73,8.08,12.08,11.85,5.16,4.49,12.76,4.14,19.5,5.37s14.28,6.45,12.81,13.13l8.65-6.82a179.72,179.72,0,0,0,54.68,52.85q7.47,1.41,14.95,2.84a40.05,40.05,0,0,1,6.12-26.56,80,80,0,0,0,19.56,20.87q1.88-4.91,3.76-9.82a10.24,10.24,0,0,0,7,3.16A280.79,280.79,0,0,0,486.64,265a116.18,116.18,0,0,1,55.2,64,34.34,34.34,0,0,0,6.69-26.26,32.31,32.31,0,0,1,12.58,20.74c10.39-1.75,3.48-22.23,13.16-26.41,5.88-2.54,11.61,3.65,15.05,9.06L598,319.79V600H232.66c3.63-17.47,27.06-22.62,44.75-19.06,17.89,3.6,36.31,12,53.6,6.13,6.07-2.05,11.8-5.82,18.21-5.72,6.58.11,12.3,4.29,18.53,6.39,7.11,2.41,14.82,2.08,22.32,1.72l58-2.75a4.91,4.91,0,0,1-2-.91c-5.55-4.38,5.42-13.06,2.65-19.57a25.41,25.41,0,0,1-13,4.08,9.22,9.22,0,0,0-3.78-7.79,19.11,19.11,0,0,1-24.08,1.59c.55,3.49-3.89,5.48-7.41,5.8-28.8,2.6-58.59-21.84-84.55-9.09-1.6.79-3.24,1.74-5,1.68-7.15-.24-4.78-12.2-9.29-17.75-4.73-5.81-13.9-1.92-20.61,1.39s-17.83,3.41-18.57-4c-.66-6.72,9.15-11.84,7-18.25-.8-2.43-3.1-4-4.92-5.77-14.36-14.17,1.87-42.43-11.56-57.48l1.23,36.16-6.33-11.32,1.74,35.23c.28,5.56-1.28,13.18-6.84,13.14-3.19,0-5.55-2.86-7.36-5.48a175.54,175.54,0,0,1-30.52-109.68c.89-14.39,3.17-30.32-5.34-42-26.28,39-16,93.78,11.45,132,5.87,8.19,12.79,18.29,8.53,27.42a9.09,9.09,0,0,1-7.2-2.86L211,553.32a104.57,104.57,0,0,1-38.5-68,19.21,19.21,0,0,0-6.82,17.27,16.53,16.53,0,0,0-12.5-11.6,68.25,68.25,0,0,0,17.07,40.56L163.39,538c5.56,1.78,6.15,10.18,2.35,14.61s-9.93,5.88-15.64,7.08c5,5.07,10.12,13.39,5.12,18.47-5.61,5.68-14.9-1.35-22.88-1.13-10.42.27-18.94,13.38-28.74,9.82-7.9-2.87-10-15.07-18.34-16.4-9.66-1.54-13.21,11.9-18.68,20A28,28,0,0,1,54.85,600H-3V-1H598V264.61c-7-7.21-12.56-15.78-19.17-23.37-1.84-2.11-3.93-4.25-6.65-4.92-5.67-1.41-10.71,4.13-12.84,9.57s-3.11,11.71-7.4,15.69l-21.59-20c-9.38.07-6.3,20.4-15.67,20.66-2.43.07-4.57-1.52-6.43-3.09a102.59,102.59,0,0,1-28.12-38.4c-2.25-5.36-4.26-11.23-8.89-14.74S458.36,203.18,456.61,208.72Z" fill="#003582"/>
      <path d="M508.67-1A134.82,134.82,0,0,1,483.88,9c-16.16,4.85-33.2,7.39-49.94,9.82l-55.65,8.09c-16.23,2.36-32.62,4.72-49,3.5-4.86-.37-9.74-1.05-14.59-.57-4.3.42-8.46,1.73-12.64,2.83a126.56,126.56,0,0,1-41.57,3.7,126.37,126.37,0,0,1-35.33-7.83,8.52,8.52,0,0,0-1.75-11.8,8.51,8.51,0,0,0-11.66,2.49,11.37,11.37,0,0,0-9.72.83l14.2,5.26a236.83,236.83,0,0,0-65.55,2.24l-30-8.82a15.06,15.06,0,0,1-11.28-5.57l-18,4.35c1.46-5.25-7.37-6.79-10.7-6.49C82.48,9.91,84.05,7.92,86,6.82c-2.12-1.31-4-3.06-6.24-4.31,12.44.15,25.45,5.63,37.94,7.59,13.64,2.15,32-1,44.79,2.9L142.12,6.84c7.45-10.71,24.24.63,37.1-1.58,3-.51,5.76-1.8,8.66-2.61,19.79-5.54,41.57,11.41,60.57,3.6,4.21,5.15,11.95,5.09,18.58,4.59l92-6.94-11.34,6.81L401.83-1Z" fill="#179ad2"/>
      <path d="M242.16,124.3a24.41,24.41,0,0,0,19.18,4.08L227,137.83l13.18,2.39a25.82,25.82,0,0,0-17.8,15.07,188.5,188.5,0,0,1,48.11-.56L251,160.91c-1.55.49-3.34,1.22-3.72,2.81s2.36,3,2.82,1.42l-14,5,9.21,9.28-17,6c2.07-.81,3.61,2.67,2.17,4.35s-4,1.72-6.21,1.4a11,11,0,0,0,10.4,9.34l-6.73,26.85c-6-11.11-26.61,2.7-35-6.75-12.05-13.6-30.16-20.62-48.2-22.75s-36.29.12-54.32,2.38a19,19,0,0,1,18.27-10.58c-3.47-4.61-1.9-12.13,3.12-15a27.28,27.28,0,0,1-9.32-14.83l15.81-4.74c2.63-.79-2.39-4.54-2.4-1.79a213.84,213.84,0,0,0,46.93-14.77L141.94,136l12.53-3.73a15.88,15.88,0,0,1-19.28-6.52L265.51,96.27c39.41-8.9,81.28-17.71,119.48-4.55l-15.46,3.8a10.34,10.34,0,0,0,7,4.28,59.18,59.18,0,0,0-26.72,5.76A60.75,60.75,0,0,1,385.6,117l-46.55-1.64c-1.88-.07-4.11,0-5.11,1.64s1.57,4.09,2.57,2.5c-2.57,0-5.42.21-7.25,2s-1.32,5.79,1.24,6a13.79,13.79,0,0,1-11.84,1.68c3.31-1.62.31-7.94-3-6.4l7.22-4.15c-6-2.23-2.8-9.27-7.26-11.63-5.71-3-20.79.41-26.89,1.32C283.33,109.1,242.87,124.82,242.16,124.3Z" fill="#004fa6"/>
      <path d="M598,264.61v55.18l-8.68-13.64c-3.44-5.41-9.17-11.6-15.05-9.06-9.68,4.18-2.77,24.66-13.16,26.41a32.31,32.31,0,0,0-12.58-20.74A34.34,34.34,0,0,1,541.84,329a116.18,116.18,0,0,0-55.2-64,280.79,280.79,0,0,1,51.77,96.9,10.24,10.24,0,0,1-7-3.16q-1.89,4.91-3.76,9.82a80,80,0,0,1-19.56-20.87A40.05,40.05,0,0,0,502,374.29q-7.47-1.44-14.95-2.84a179.72,179.72,0,0,1-54.68-52.85l-8.65,6.82c1.47-6.68-6.08-11.89-12.81-13.13s-14.34-.88-19.5-5.37c-4.35-3.77-6.46-10.6-12.08-11.85-7-1.56-11.8,6.73-14.13,13.52-3-7.27-6.31-15-12.91-19.26S334.9,286.52,332.4,294c-2.18-9.77-6.94-21.79-16.95-21.94-2.82,0-5.6,1-8.42.75-8.11-.65-11.83-10.93-10.56-19a45.69,45.69,0,0,1,1.24-5.39,22,22,0,0,1,11.45,2.74c7.7,4.29,14.46,13.85,22.82,11.08,3.38-1.11,5.77-4.08,8.84-5.87,11.05-6.43,24,4.19,32.31,13.88,6.34-4.52,7.85-13.23,8-21s-.45-16.06,3.4-22.83,14.41-10.25,19.41-4.28c2.43,2.92,2.73,7,3.2,10.76a79.61,79.61,0,0,0,25.33,48.75l8.65-25.38a43.89,43.89,0,0,1,21.05,26.46l-5.79-68.8a13.3,13.3,0,0,1,.24-5.19c1.75-5.54,10-6.23,14.63-2.71s6.64,9.38,8.89,14.74a102.59,102.59,0,0,0,28.12,38.4c1.86,1.57,4,3.16,6.43,3.09,9.37-.26,6.29-20.59,15.67-20.66l21.59,20c4.29-4,5.27-10.25,7.4-15.69s7.17-11,12.84-9.57c2.72.67,4.81,2.81,6.65,4.92C585.44,248.83,591,257.4,598,264.61Z" fill="#57cde9"/>
      <path d="M598,196.73v67.88c-7-7.21-12.56-15.78-19.17-23.37-1.84-2.11-3.93-4.25-6.65-4.92-5.67-1.41-10.71,4.13-12.84,9.57s-3.11,11.71-7.4,15.69l-21.59-20c-9.38.07-6.3,20.4-15.67,20.66-2.43.07-4.57-1.52-6.43-3.09a102.59,102.59,0,0,1-28.12-38.4c-2.25-5.36-4.26-11.23-8.89-14.74s-12.88-2.83-14.63,2.71a13.3,13.3,0,0,0-.24,5.19l5.79,68.8a43.89,43.89,0,0,0-21.05-26.46l-8.65,25.38a79.61,79.61,0,0,1-25.33-48.75c-.47-3.77-.77-7.84-3.2-10.76-5-6-15.57-2.49-19.41,4.28s-3.26,15-3.4,22.83-1.65,16.5-8,21c-8.33-9.69-21.26-20.31-32.31-13.88-3.07,1.79-5.46,4.76-8.84,5.87-8.36,2.77-15.12-6.79-22.82-11.08a22,22,0,0,0-11.45-2.74,45.69,45.69,0,0,0-1.24,5.39c-1.27,8,2.45,18.32,10.56,19,2.82.23,5.6-.79,8.42-.75,10,.15,14.77,12.17,16.95,21.94,2.5-7.45,13.3-8.91,19.89-4.64s9.93,12,12.91,19.26c2.33-6.79,7.12-15.08,14.13-13.52,5.62,1.25,7.73,8.08,12.08,11.85,5.16,4.49,12.76,4.14,19.5,5.37s14.28,6.45,12.81,13.13l8.65-6.82a179.72,179.72,0,0,0,54.68,52.85l-9-1.68h0c-32.17-5.95-64.41-11.43-96.77-15.82q-13.38-1.81-26.78-3.37c-19.47-2.24-39-4-58.59-5.25-20-1.24-40.12-1.84-60.23-1.69q-13.46.11-26.9.67-5.62.24-11.25.57-16.71,1-33.32,2.72-4.24.43-8.49.95-13.66,1.63-27.23,3.86Q100.74,357,73.62,364.2q-6.2,1.67-12.36,3.48-18,5.32-35.54,12h0q-8.54,3.22-16.94,6.81C5,388.09,0,389.53-3,386.94V263.57c3.45-.77,6.84.12,8.42,3.52,16-5.84,25.83-22.31,29.7-38.86C37.51,218,38.25,207,44.05,198.17s19.37-13.66,26.89-6.3a91,91,0,0,1,19.38-18.15,96.59,96.59,0,0,1,40-16.11h.05a89.27,89.27,0,0,1,19.8-.94c12.66.82,25.37,4.21,37.89,2.1,7.42-1.25,14.42-4.39,21.84-5.63a53.82,53.82,0,0,1,13.77-.37c3.11.28,6.23.76,9.35,1.35h0c7.87,1.48,15.72,3.66,23.56,5s15.88,2,23.73.2a74.92,74.92,0,0,0-16.13,13l9.27,1a16.92,16.92,0,0,0-4.34,11.37l20.62-2.87L287,196.08a82.16,82.16,0,0,1,32.5-1.07c-.83-5.3,5.61-8.63,10.92-9.4s11.76-1.44,14-6.32c1-2.26.85-5,2.07-7.17,4-7.12,14.75-.57,22.92-1,5.4-.27,9.91-4,14.62-6.62,12.45-7,27.48-7.13,41.77-7.06,54.54.3,112.26,1.47,158.53,30.35C588.89,190.64,593.42,193.76,598,196.73Z" fill="#00479a"/>
      <path d="M598,319.79v73.15c-4.4-.73-8.79-1.58-13.15-2.43-27.6-5.39-55.2-10.93-82.85-16.22a40.05,40.05,0,0,1,6.12-26.56,80,80,0,0,0,19.56,20.87q1.88-4.91,3.76-9.82a10.24,10.24,0,0,0,7,3.16A280.79,280.79,0,0,0,486.64,265a116.18,116.18,0,0,1,55.2,64,34.34,34.34,0,0,0,6.69-26.26,32.31,32.31,0,0,1,12.58,20.74c10.39-1.75,3.48-22.23,13.16-26.41,5.88-2.54,11.61,3.65,15.05,9.06Z" fill="#00479a"/>
      <path d="M77.14,15.33l2.46-1.39C79.6,15.15,78.68,15.54,77.14,15.33Z" fill="#003c8c"/>
      <path d="M297.55,18.41l-1.7.3C296.21,18,296.93,18,297.55,18.41Z" fill="#003c8c"/>
      <path d="M438.29,80.58c-16.7,2.57-35.16,4.8-49.29-4.46C409.3,78.8,427.66,65.18,446.83,58c17.8-6.68,37.09-7.89,55.77-11.41a227.13,227.13,0,0,0,56.77-18.69L505.64,34l26.89-13c-48,6.89-94.09,33.21-142,26.09Q466,22.71,543.29,4.29a230.06,230.06,0,0,0-70.1,7.26A10.08,10.08,0,0,1,480,4.69L423.1,16.75Q433.71,11,444.29,5.18L345.52,23.26c-10.17,1.86-21.24,3.56-30.92.85q6.38-5.47,12.75-10.95l-29.8,5.25a2,2,0,0,1,.94,2.52c-.89,1.61-3.08,1.81-4.92,1.81l-46.59,0,17.27,9.15-17.46.9L282.12,42,247.9,48.37l12,3.81A162.4,162.4,0,0,1,197.67,59l14.65,2.31a304.6,304.6,0,0,1-154.51.18A55.88,55.88,0,0,0,83.3,54a88.86,88.86,0,0,1-23.19-6.6c2.58.58,4.66-2.69,4-5.25s-2.87-4.36-5-6L84.65,44l-16-10.65,40.93,5.42L92.05,27.36a162,162,0,0,0,53.87,4l-77.77-11,9-5C70.55,14.43,52.63,2.72,47-1H35.37c-3.95,4.45,3,16,11.9,19.4L29.33,19.83c2.13,2.23-.12,6.28-3.13,6.94s-6-.84-8.74-2.3A42.1,42.1,0,0,0,49.77,49c-2.36-.12-5.17,0-6.47,2-.74,1.13,0,2.66.93,3.4-3.4.25-6.81.8-9.55,2.74-3.34,2.37-5,7.62-2.2,10.64,1.51,1.65,3.86,2.2,6.06,2.66L60,75l-27.89-.9a104.15,104.15,0,0,0,40.38,11.7L29.37,95.3A126.49,126.49,0,0,1,52.74,102a45.34,45.34,0,0,1-33.07,11.58l16.56,14.15L14.94,138.32a67,67,0,0,0,48.44,6.83l-17.6,5.56a152.47,152.47,0,0,1,31.37,1.53L28.52,167l8.39,3.44a34,34,0,0,1-15.31,3.76l.63,7.9,56.62-9c6.4-1,15.17-.5,16.49,5.84a850.48,850.48,0,0,0,134.85-7.71c-40.73-7.64-82.52-6.86-124-6.06a251.72,251.72,0,0,1,98.92-15.59c-34.91-15-75.19,1-113-3.12l25.15-6.42a426.35,426.35,0,0,0-70.5-6.58L62,125.86c.78-.4.51-1.2.26-1.63l43.69-.31,14.09-.09c23-.17,46.13-.32,69.08,1.84,17.24,1.62,35.8,4.3,50.91-4.14l-12.13-6.4a846.26,846.26,0,0,0,86.21-16A20.69,20.69,0,0,1,298,94q69.32,5.92,138.87,8.5a117.17,117.17,0,0,0-41.73-8.14,785.42,785.42,0,0,0,155.39-19l-28.12.09,32.44-12.77ZM306.56,20.51l2.76,1.57A25.34,25.34,0,0,1,306.56,20.51Z" fill="#003c8c"/>
      <path d="M82.82,430.61c.16-.62.32-1.24.47-1.86A1.55,1.55,0,0,1,82.82,430.61Z" fill="#1395d8"/>
      <path d="M589.32,306.15,598,319.79V465.87l-.42-.12a3.45,3.45,0,0,1-.43-.12c-.62-.17-1.23-.36-1.84-.56l-.78-.26c-.51-.17-1-.35-1.52-.54l-.19-.07c-.48-.18-1-.37-1.43-.57s-.81-.34-1.2-.52l-.69-.31h0l0,0h0l-.93-.44-.53-.26-.32-.16-.33-.17c-1.25-.64-2.46-1.33-3.65-2.08l-.74-.47q-.36-.23-.72-.48-.71-.46-1.38-1c-.33-.23-.65-.47-1-.71l-.47-.36c-.47-.36-.92-.72-1.37-1.1l-1.28-1.1s0,0,0,0c-.39-.35-.78-.71-1.16-1.08s-.91-.88-1.35-1.34c-4.59-4.75-8.65-10.65-14.95-12.61s-14.92,3.78-12.32,9.85l-14.16-11.38q-1.26,11.37-2.53,22.75c-18.67-1-28.53-21.86-35.41-39.24-.84-2.11-2-4.47-4.17-5-1.8-.47-3.65.48-5.2,1.52-22.12,14.8-21.63,46.9-18.7,73.36-1.6-4.9-9.71-3.76-12.15.79s-1.18,10.07-.26,15.15,1.16,11-2.57,14.6c-1-1-2-2-2.92-3q-1.08-1.12-2.13-2.28l-.93-1c-.7-.78-1.39-1.56-2.07-2.36l-.86-1c-.12-.13-.24-.27-.35-.41l-.31-.36-1.4-1.72c-.29-.35-.57-.71-.85-1.07-.57-.72-1.13-1.44-1.68-2.17-.24-.3-.47-.6-.69-.91-.37-.49-.73-1-1.09-1.48-.14-.18-.27-.36-.4-.55l-.71-1-.07-.09c-.3-.42-.6-.85-.89-1.29s-.79-1.14-1.17-1.71l-.16-.24,0-.06c-.71-1.06-1.4-2.12-2.07-3.19l-.09-.15a.25.25,0,0,1,0-.07c-.09-.14-.18-.27-.26-.41-.37-.59-.73-1.18-1.09-1.77-.09-.14-.17-.28-.25-.42-.43-.71-.85-1.42-1.26-2.14l-.66-1.16c-.22-.39-.44-.77-.65-1.16l-.07-.13q-.66-1.2-1.29-2.4-.29-.51-.54-1l-.26-.5c-.56-1.1-1.11-2.2-1.64-3.31-.3-.62-.59-1.24-.88-1.87q-1.37-2.94-2.59-5.92c0-.06,0-.13-.08-.2q-1.47-3.62-2.75-7.3c-8.45-24.41-10.24-50.55-12-76.32-14.45-1.83-21.82-18.54-23.14-33-.07-.74-.13-1.49-.18-2.24l0-.38c0-.51-.08-1-.11-1.53,0-.21,0-.41,0-.62-.05-.72-.1-1.44-.16-2.15s-.1-1.22-.16-1.83c0-.08,0-.16,0-.24-.07-.73-.15-1.45-.24-2.17-.11-.88-.24-1.76-.4-2.63-.07-.38-.14-.77-.23-1.16s-.17-.77-.26-1.15-.11-.47-.18-.71a2.25,2.25,0,0,0-.09-.35c0-.15-.08-.3-.13-.45a2.43,2.43,0,0,0-.09-.3c-.11-.39-.24-.78-.38-1.16a8.56,8.56,0,0,0-.36-1,1.8,1.8,0,0,0-.08-.21l-.11-.26c-.15-.37-.32-.74-.49-1.1-3.18-6.63-11-11.81-17.85-9l-.55.24-.3.15-.23.12a6.65,6.65,0,0,0-.58.33l-.19.12q-.42.27-.81.57l-.09.07,0,0-.13.11-.19.16,0,0,0,0c-.2.18-.39.37-.57.55s-.43.47-.63.72l-.4.54c-.12.18-.25.37-.36.56a10.46,10.46,0,0,0-.64,1.19c-.08.16-.15.33-.22.5s-.14.34-.2.51-.13.35-.19.53-.19.63-.28,1-.16.66-.22,1-.12.68-.17,1-.07.53-.09.81,0,.34-.05.51a1.28,1.28,0,0,0,0,.19.17.17,0,0,1,0,.07c0,.11,0,.22,0,.33a1.34,1.34,0,0,1,0,.2v.11c0,.15,0,.3,0,.45s0,.36,0,.55,0,.6,0,.9v.1c0,.17,0,.34,0,.51s0,.22,0,.33,0,.21,0,.31,0,.06,0,.1c0,.34.06.69.1,1,0,.16,0,.32.05.48l.06.48c.07.54.15,1.09.25,1.64.06.32.11.65.18,1,.23,1.14.5,2.28.81,3.4.1.38.21.76.32,1.13s.25.81.38,1.21.25.75.38,1.12.27.76.41,1.13.31.82.47,1.22l24.75,61.43c5.06,12.57,10.15,25.2,17.23,36.75.31.51.63,1,.95,1.53l.21.32c.11.19.23.37.35.55.27.44.55.87.83,1.3l0,0v0c1.68,2.6,3.42,5.18,5.07,7.8a1.63,1.63,0,0,1,.11.17c.4.62.79,1.25,1.17,1.87h0a0,0,0,0,0,0,0v0c.12.2.24.4.37.6l.21.36c.21.36.43.72.63,1.08s.57,1,.84,1.49c.14.24.27.49.4.73s.26.49.39.74a.14.14,0,0,1,.05.08c.12.22.24.45.35.68s.3.58.44.88.43.89.64,1.34v0l0,.06c.06.13.12.27.17.4a1.89,1.89,0,0,1,.11.25c.11.23.21.47.31.71l0,.08c.17.4.34.81.5,1.22,6.74,17.3,3,36.71-.82,54.89-12.77.33-21.1-12.93-26.39-24.56-.87-1.9-1.72-3.81-2.57-5.72l-.45-1q-1.39-3.12-2.74-6.27c-.37-.84-.73-1.69-1.09-2.53-.23-.53-.46-1.07-.68-1.6-.16-.36-.32-.73-.47-1.1l-.39-.92a1.12,1.12,0,0,1-.05-.13c-.55-1.29-1.09-2.59-1.63-3.89l-.16-.39q-1.22-2.93-2.4-5.88c-.56-1.37-1.11-2.75-1.65-4.13-.46-1.14-.91-2.29-1.36-3.45q-.86-2.16-1.68-4.34-1-2.64-2-5.3c-.24-.62-.47-1.23-.69-1.85-.39-1-.77-2.07-1.15-3.11l-.27-.75c-.27-.72-.53-1.45-.79-2.18q-.88-2.42-1.74-4.84l-.12-.33-.28-.82-.18-.51q-.85-2.42-1.68-4.83l-.06-.19-.3-.87c-.25-.72-.49-1.44-.73-2.16s-.42-1.24-.63-1.86c-.14-.41-.28-.82-.41-1.23q-.86-2.55-1.69-5.12a0,0,0,0,1,0,0q-.82-2.55-1.65-5.13c-.25-.78-.49-1.56-.73-2.34-.15-.46-.29-.93-.43-1.39,0-.09-.06-.19-.1-.29a.09.09,0,0,1,0-.05c-.33-1.06-.65-2.11-1-3.16l0-.12c-.08-.23-.15-.46-.22-.69-.17-.56-.34-1.12-.5-1.67-.32-1.06-.63-2.12-1-3.17l-.18-.6h0c-.18-.61-.35-1.21-.53-1.81s-.29-1-.43-1.48c-.59-2-1.16-4-1.72-6-.52-1.82-1-3.64-1.52-5.47q-1.18-4.33-2.31-8.69c-.06-.2-.11-.4-.16-.6l-.3-1.15c-.14-.57-.29-1.13-.43-1.69,0-.05,0-.1,0-.15l0-.11c-.33-1.31-.66-2.61-1-3.91-2.22-8.93-4.49-18.33-10.7-25.12-10.81,11.06,2.33,29.33,2.21,44.6,0,.14,0,.29,0,.42s0,.34,0,.5a2.55,2.55,0,0,1,0,.39q0,.56-.09,1.11,0,.36-.09.72c0,.32-.09.63-.16.94a3,3,0,0,1-.07.32.19.19,0,0,1,0,.08s0,.06,0,.09a1.94,1.94,0,0,1-.05.2l-.12.5c-.05.2-.1.41-.17.61s-.18.58-.28.87c0,0,0,0,0,0l-.09.22a.43.43,0,0,1,0,.05v0c-.07.19-.15.38-.23.57s-.14.34-.22.5c-.17.38-.36.75-.56,1.12-2.23,4-6.13,7-8.26,11.06-6.06,11.59,4.12,27.09-2.46,38.39-1-4.49-8.94-4.53-10-.06a12.85,12.85,0,0,0-8.53-9.43A178,178,0,0,0,298,475.62c-8.81.42-16.67-6.37-20.32-14.4s-4-17.11-4.21-25.92q-.87-30.26-1.75-60.5c-6.7,4.24-6,13.93-6.51,21.84s-7.29,17.61-14.32,13.93a21.15,21.15,0,0,1-3.16,14c-14.23-10.06-14.73-30.6-13.8-48q.38-7.15.76-14.32l1-18.61.66-12.3c.22-4.24.4-8.72-1.59-12.48-3.85-7.28-15.07-10.57-14.91-18.81-7.43,2.55-7,13.44-3.38,20.41s9.16,14.23,7.09,21.81a41.94,41.94,0,0,0-10-19.19l-.32.05a1.65,1.65,0,0,0-.32.06l-.6.15-.16.05a5.12,5.12,0,0,0-.65.25l-.29.13a5.42,5.42,0,0,0-.48.26,1.67,1.67,0,0,0-.28.18l-.21.14c-.15.11-.3.22-.45.35l-.41.38c-.19.19-.37.39-.55.6l-.2.27-.18.27a5.14,5.14,0,0,0-.32.49c-.14.24-.27.5-.39.76s-.23.53-.34.8-.19.56-.28.85-.16.59-.22.89-.11.55-.15.83a.3.3,0,0,0,0,.1l-.09.66c0,.28-.06.56-.08.85,0,.66-.06,1.33,0,2,0,.09,0,.18,0,.28v.07a.2.2,0,0,0,0,.07.34.34,0,0,0,0,.1c0,.25,0,.5.05.75s0,.57.08.86c0,.12,0,.24.05.36s0,.28,0,.42,0,.17,0,.26,0,.15,0,.23c0,.24.08.48.13.71l.06.3a.3.3,0,0,0,0,.1c0,.24.1.49.16.73.14.6.3,1.2.49,1.78.1.34.21.68.33,1s.15.42.23.62c.16.41.32.81.5,1.19l.06.14q.41.89.81,1.8c.14.31.27.62.4.93s.27.63.4.95c.21.52.42,1.05.62,1.58,0,.12.09.23.13.35.12.31.23.63.34.95,0,.07,0,.13.07.2.16.47.31,1,.46,1.42,0,0,0,0,0,0,.1.3.19.61.27.91,0,.13.08.26.11.38s0,0,0,.05h0c.07.27.13.53.19.79l0,.11a.36.36,0,0,0,0,.1c.05.19.09.39.13.58s.05.26.08.39,0,0,0,0,0,.16,0,.24a4.54,4.54,0,0,1,.09.51l0,.22c0,.19.06.38.08.56s0,.27.05.41,0,.08,0,.12c0,.27.05.53.06.8s0,.61,0,.91a10.37,10.37,0,0,1,0,1.25.06.06,0,0,1,0,0v0a0,0,0,0,1,0,0,.22.22,0,0,1,0,.08c0,.25-.06.5-.1.74a0,0,0,0,1,0,0,.59.59,0,0,1,0,.13,2.29,2.29,0,0,1-.07.36l-.12.51a1.32,1.32,0,0,1-.08.3.66.66,0,0,1-.06.2.65.65,0,0,1,0,.13,1.29,1.29,0,0,1-.07.21.58.58,0,0,1,0,.14h0c-.07.19-.15.38-.23.57a3.13,3.13,0,0,1-.22.45.61.61,0,0,1-.07.14,6.78,6.78,0,0,1-.65,1,6,6,0,0,1-.39.49,8,8,0,0,1-.91.93l-.13.11c-.13.11-.26.22-.4.32-.72-1-1.42-1.93-2.1-2.92l-.28-.42-.58-.87c-.06-.09-.12-.18-.17-.27s-.3-.46-.44-.69l-.42-.67c-.28-.44-.56-.89-.82-1.34s-.61-1-.9-1.55l-.51-.91-.32-.59-.32-.61c-.1-.19-.2-.38-.29-.57q-1.59-3.06-2.91-6.26c-.2-.47-.39-.95-.57-1.42s-.37-.95-.55-1.43c-.32-.85-.62-1.71-.91-2.58-.14-.42-.28-.85-.41-1.28l-.15-.47c-.21-.67-.4-1.34-.6-2,0-.12-.07-.24-.1-.37-.16-.58-.32-1.17-.46-1.76,0-.09,0-.18-.07-.26s0-.12-.05-.18v0c0-.14-.07-.27-.1-.4-.14-.57-.27-1.14-.39-1.72-.05-.22-.1-.43-.14-.65s-.11-.5-.16-.76l0-.08,0-.15s0-.09,0-.13c-.1-.51-.19-1-.28-1.54-.14-.73-.26-1.47-.36-2.21s-.21-1.47-.3-2.2c-.06-.47-.11-.94-.16-1.42-.07-.74-.14-1.48-.19-2.22,0-.22,0-.44-.05-.66,0-.53-.07-1.07-.09-1.61l0-.63c0-1-.06-2-.06-3.05s0-2.21.07-3.31c-.79,2.45-4.78,3.69-7.24,2.13-2.92-1.85-3.92-5.58-4.69-8.95q-2.76-12.19-5.53-24.38c-.6-2.64-1.28-5.43-3.21-7.33-4-4-11.43-1.57-14.39,3.24s-2.72,10.88-2.18,16.51c.08.85.17,1.71.26,2.56.11,1,.22,2.08.35,3.13.15,1.28.31,2.57.48,3.86.27,2.11.57,4.23.89,6.34s.62,4,1,6l.48,2.87q.45,2.7.94,5.4c.76,4.33,1.56,8.67,2.37,13,.13.76.27,1.53.42,2.3l.93,5.11q.66,3.69,1.29,7.4c0,.13.05.26.07.4q.49,2.93,1,5.88l.21,1.34c.45,2.87.86,5.76,1.23,8.65,0,.26.07.52.1.78.06.47.12.95.17,1.42.1.76.19,1.52.27,2.27s.19,1.71.28,2.56q.16,1.62.3,3.24c.06.7.12,1.39.17,2.09l0,.31s0,0,0,0c0,.19,0,.38,0,.56s0,.22,0,.32a.06.06,0,0,1,0,.06c0,.07,0,.15,0,.22q.1,1.35.18,2.7c0,.65.07,1.3.1,2,0,.07,0,.14,0,.21a.13.13,0,0,1,0,.06c0,.57,0,1.15.07,1.73,0,.18,0,.36,0,.54l0,1c0,.12,0,.24,0,.36v.13c0,.23,0,.48,0,.72s0,.48,0,.72a.38.38,0,0,1,0,.15c.05,2.29,0,4.59,0,6.88l0,1.29a.66.66,0,0,1,0,.14v.06l0,1,0,.66,0,.71a.15.15,0,0,1,0,.07c0,.76-.07,1.52-.13,2.28,0,.35,0,.7-.07,1a1.42,1.42,0,0,1,0,.29c0,.1,0,.21,0,.31a1.84,1.84,0,0,1,0,.33c0,.54-.08,1.08-.13,1.63v0c-.05.64-.12,1.28-.19,1.92-.12,1.29-.28,2.59-.45,3.88v0c0,.1,0,.21,0,.31-.06.45-.13.89-.19,1.33-.21,1.47-.45,2.94-.72,4.4l-.09.47a2.38,2.38,0,0,1,0,.26q-.45,2.39-1,4.74l-.39,1.6c-.18.71-.36,1.41-.55,2.12-.13.48-.26,1-.4,1.44l-.06.2c-.1.36-.21.73-.32,1.09s-.17.58-.26.87v0l-.09.27c-.2.66-.42,1.32-.64,2a2.25,2.25,0,0,1-.08.24l-.34,1-.09.26c-.14.4-.28.8-.44,1.2a.52.52,0,0,1-.06.16c0,.09-.07.19-.1.29q-.21.58-.45,1.17l-.12.31c-.1.26-.2.52-.31.77s-.26.64-.39,1a1.11,1.11,0,0,1-.07.16c-.15.36-.3.71-.46,1.07-.35.83-.72,1.65-1.11,2.47-.12.26-.25.53-.38.79,0,.09-.08.17-.13.26-.16.35-.33.69-.5,1l-.56,1.09-.22.42c-.09.18-.18.35-.28.52-.25.47-.5.93-.76,1.39s-.56,1-.85,1.47-.74,1.26-1.13,1.88c-8.47-4.55-8.81-16.37-8-25.95q.86-9.69,1.79-19.38c0-.59.11-1.17.17-1.76q.36-3.85.75-7.69.48-4.81,1-9.61.33-3.32.69-6.63c.13-1.3.27-2.59.42-3.89.09-.91.19-1.83.29-2.75s.19-1.82.3-2.72c0,0,0,0,0,0h0a.09.09,0,0,0,0,0s0,0,0,0c0-.57.11-1.13.18-1.69,0-.3.06-.59.1-.88q.3-2.83.63-5.67l.27-2.35.06-.6c0-.38.08-.77.13-1.15.23-2,.45-4,.68-6q.62-5.28,1.25-10.57.7-5.93,1.45-11.87c.67-5.45,1.34-11.17-.58-16.32s-7.35-9.45-12.69-8.14c-5.69,1.41-8.27,7.91-9.78,13.58-.35,1.33-.7,2.67-1,4,0,.13-.07.26-.1.39-.08.33-.16.65-.23,1q-.24.93-.45,1.86c-.07.26-.13.53-.19.8l-.18.78-.3,1.32c-.09.41-.19.82-.27,1.23,0,.17-.08.35-.11.52-.1.45-.2.9-.29,1.35-.2.91-.39,1.81-.56,2.72-.13.57-.24,1.15-.35,1.73-.09.43-.17.87-.25,1.31s-.15.77-.21,1.15-.15.77-.21,1.15h0v0q-.18.94-.33,1.89c-.05.29-.11.58-.15.88a2.17,2.17,0,0,0,0,.25c0,.21-.08.41-.1.62-.1.55-.19,1.11-.27,1.66s-.16,1-.23,1.45-.12.75-.17,1.12c0,.08,0,.17,0,.25-.09.61-.18,1.23-.26,1.84,0,.21-.07.43-.09.64-.11.76-.21,1.53-.31,2.29h0v0c0,.3-.08.6-.11.89-.06.46-.12.92-.17,1.38-.1.83-.2,1.66-.29,2.48-.06.48-.1,1-.15,1.44a2.45,2.45,0,0,0,0,.38c-.12,1.09-.23,2.17-.32,3.26-.06.5-.1,1-.13,1.5-.07.69-.13,1.39-.18,2.09a.29.29,0,0,0,0,.13c0,.55-.09,1.11-.12,1.66a1,1,0,0,0,0,.29c0,.61-.09,1.21-.13,1.82,0,0,0,0,0,0,0,.32,0,.65-.05,1s0,.66-.06,1l0,.55a.42.42,0,0,0,0,.16,4.36,4.36,0,0,0,0,.51c0,.16,0,.31,0,.47a.61.61,0,0,0,0,.19c0,.17,0,.34,0,.5,0,.32,0,.63,0,.94-.06,1.14-.1,2.28-.14,3.42,0,.09,0,.18,0,.27,0,1-.06,2-.07,3a1,1,0,0,0,0,.24,0,0,0,0,0,0,0c0,.12,0,.24,0,.36a.29.29,0,0,0,0,.13s0,0,0,0v.15a.92.92,0,0,0,0,.16.43.43,0,0,0,0,.16h0s0,0,0,0a0,0,0,0,0,0,0,0,0,0,0,0,0,0,0,0,0,0,0,0,0,.07.07,0,0,0,0,0,0,0,0,0,0,0,0,0,0,0,0,0,0,0h0v0a0,0,0,0,0,0,0s0,0,0,0a0,0,0,0,0,0,0h0v0a.41.41,0,0,0,0,.11,4.86,4.86,0,0,0,0,.54q0,1.61,0,3.21c0,1,0,2.07,0,3.11s0,1.9,0,2.85,0,1.89.08,2.84c0,.73,0,1.47.08,2.2s.05,1.3.08,1.95c0,.09,0,.18,0,.26l0,.7c.06,1.23.14,2.46.22,3.7,0,.35,0,.69.07,1,.06,1,.14,2,.22,3,.1,1.24.21,2.48.32,3.72,0,.08,0,.15,0,.22a2.29,2.29,0,0,1,0,.25c.11,1.09.22,2.17.34,3.25a.11.11,0,0,0,0,.05s0,.1,0,.15q.14,1.31.3,2.61s0,.07,0,.11a3.32,3.32,0,0,0,.06.44l.12,1a.37.37,0,0,0,0,.11,3.06,3.06,0,0,0,.05.32s0,.1,0,.14,0,0,0,0a.59.59,0,0,0,0,.14c0,.27.06.54.1.8a1.1,1.1,0,0,0,0,.18l.06.46c0,.17,0,.35.07.52s0,.2,0,.29l.21,1.52c.13.91.26,1.82.4,2.73l.09.59.09.59q.57,3.62,1.23,7.22c0,.13.05.26.07.4s.05.25.07.38l.09.48.39,2c.11.56.22,1.13.34,1.69.05.26.1.52.16.78.11.55.22,1.09.34,1.63.15.73.31,1.45.48,2.18.09.43.19.86.29,1.29.25,1.11.51,2.23.78,3.34.21.89.43,1.77.65,2.65l.19.76.51,2a0,0,0,0,0,0,0c0,.18.09.35.14.53s0,.21.08.31c.26,1,.53,2,.81,3,.12.44.25.89.38,1.34l.24.83c.09.34.19.69.3,1,.33,1.16.68,2.32,1,3.48.25.82.51,1.65.77,2.47-.44-.45-.87-.9-1.29-1.36l-.75-.83a1.34,1.34,0,0,1-.11-.14l-.4-.45-.06-.08,0,0-.38-.45-.66-.79c-.4-.5-.81-1-1.2-1.53s-.57-.77-.85-1.16c-.45-.61-.88-1.24-1.3-1.86l0-.06c-.42-.63-.83-1.25-1.22-1.89,0,0,0,0,0,0l-.23-.38-.48-.79c-.32-.53-.63-1.07-.94-1.61s-.6-1.08-.89-1.63c-.59-1.1-1.15-2.21-1.69-3.34-.23-.48-.46-1-.68-1.45l-.11-.24c-.1-.24-.21-.47-.31-.71s-.2-.43-.29-.65c-.26-.59-.51-1.18-.76-1.78q-.78-1.89-1.5-3.84c-.24-.65-.48-1.31-.71-2s-.46-1.32-.68-2c-.16-.47-.32-1-.47-1.42s-.34-1.05-.5-1.58c-.38-1.2-.75-2.41-1.1-3.62-.11-.39-.23-.79-.34-1.19s-.17-.61-.26-.92l-.09-.31-.13-.49a.08.08,0,0,1,0,0c-.08-.28-.15-.56-.23-.84-.16-.56-.31-1.13-.45-1.69s-.33-1.22-.48-1.83c-.32-1.22-.63-2.45-.93-3.67l-.54-2.19-.45-1.84c-.11-.49-.23-1-.35-1.45l-.09-.39a5.07,5.07,0,0,0-4.19.43,4.4,4.4,0,0,0-.45.3l-.29.23-.14.12c-.12.1-.23.21-.33.31a5.22,5.22,0,0,0-.39.43l-.09.1-.13.17,0,.06,0,0-.08.1-.11.15-.08.11a0,0,0,0,0,0,0h0s0,0,0,0-.13.18-.19.28-.22.36-.32.55a6.36,6.36,0,0,0-.3.58c-.09.18-.17.36-.25.54s-.19.44-.28.67-.25.69-.36,1a17.7,17.7,0,0,0-.48,1.84l-.15.75c0,.11,0,.21,0,.32s-.07.43-.1.64l-.06.54a.15.15,0,0,0,0,.07h0s0,.08,0,.12v0s0,.05,0,.08c0,.2,0,.4,0,.6s0,.49,0,.73a22.47,22.47,0,0,0,.11,3.7q4.26,36.19,8.53,72.4A118.1,118.1,0,0,1,97.74,444.8l.12-1.88c0-.29,0-.58.07-.87v0a.81.81,0,0,1,0-.16c0-.49.08-1,.13-1.47s.11-1.19.17-1.78c.07-.75.16-1.51.25-2.26.06-.54.12-1.07.2-1.61s.13-1.08.21-1.61.13-1,.2-1.47.13-.92.2-1.38.16-1.09.25-1.63c.21-1.37.43-2.73.66-4.09l.06-.37q.47-2.81,1-5.59c0-.25.09-.5.13-.75.34-1.93.68-3.85,1-5.77.17-.93.33-1.87.48-2.8.21-1.24.41-2.48.59-3.73s.35-2.33.51-3.5c.08-.55.15-1.09.22-1.64.11-.78.2-1.55.29-2.34.08-.61.14-1.22.21-1.83,0-.28,0-.56.08-.85a1.94,1.94,0,0,0,0-.24q.13-1.35.24-2.7c0-.62.09-1.25.13-1.87s.08-1.26.1-1.88c.06-1.26.1-2.51.11-3.77-.23,4.71-7.91.69-8.54-4s-2.94-11.59-7.19-9.56a215.25,215.25,0,0,1-6.32,57.36A2.54,2.54,0,0,0,81,427c-1.8,0-3.17,1.57-4.12,3.09-.37.6-.72,1.2-1,1.81s-.61,1.23-.87,1.86a27.54,27.54,0,0,0-1.27,3.85q-.24,1-.42,2c-.07.41-.14.82-.19,1.23a5.93,5.93,0,0,0-.07.59,4.26,4.26,0,0,0-.06.5s0,.05,0,.07c0,.37-.07.73-.09,1.1s0,.79-.06,1.18,0,.94,0,1.41,0,1,0,1.45c0,.14,0,.29,0,.43a0,0,0,0,0,0,0,.24.24,0,0,0,0,.12.76.76,0,0,0,0,.15c0,.79.09,1.59.17,2.39v.08a.49.49,0,0,0,0,.12c0,.13,0,.27,0,.4a1.94,1.94,0,0,0,0,.24c0,.11,0,.21,0,.32s0,.27,0,.4c.05.47.12.94.2,1.41,0,.08,0,.17,0,.26q.12.89.3,1.77c.08.46.17.92.26,1.38.12.63.26,1.26.41,1.89q.08.39.18.78a2.74,2.74,0,0,0,.09.39c0,.07,0,.14,0,.22s.07.27.1.41.13.51.2.77c0,.1,0,.19.07.29s0,.2.08.29h0c.39,1.49.81,3,1.25,4.44s.88,2.91,1.34,4.33q10.36,32.34,20.71,64.66a126.28,126.28,0,0,1-27.67-59.42q-.27,16-.55,31.94c-.64-1.39-1.26-2.79-1.84-4.2-.12-.27-.23-.54-.34-.82l-.36-.89c-.23-.56-.45-1.13-.66-1.7-.08-.19-.15-.39-.22-.59-.2-.51-.39-1-.57-1.54s-.46-1.28-.68-1.93-.49-1.44-.72-2.17c-.18-.56-.36-1.12-.53-1.68q-.33-1.08-.63-2.16c-.21-.72-.41-1.44-.6-2.17s-.38-1.45-.56-2.18-.35-1.44-.51-2.16-.3-1.34-.44-2c0-.18-.07-.36-.11-.54s-.07-.36-.11-.54h0c-.17-.85-.33-1.71-.49-2.56,0-.28-.1-.56-.14-.84-.1-.57-.19-1.14-.28-1.71,0-.24-.08-.47-.11-.71s-.1-.72-.16-1.08c0-.17-.05-.33-.07-.51s-.07-.57-.11-.85l-.15-1.21c0-.12,0-.24,0-.35a2.42,2.42,0,0,1,0-.25c0-.11,0-.21,0-.31l0-.19c0-.37-.07-.74-.11-1.1,0-.07,0-.15,0-.23-.06-.63-.12-1.27-.17-1.9a1.64,1.64,0,0,1,0-.22c-.06-.73-.11-1.45-.16-2.18s-.1-1.59-.13-2.4c0-.17,0-.34,0-.52q0-1.05-.06-2.1,0-.66,0-1.32c0-1.18,0-2.36,0-3.54a9.94,9.94,0,0,1-12.37-15.52q-.45,5.75-.92,11.5l1-.88.4-.34.18-.16.27-.23h0a2.27,2.27,0,0,0,.28-.26,2.19,2.19,0,0,0,.23-.21c.47-.4.93-.83,1.39-1.26l.6-.57c.42-.39.84-.8,1.25-1.22l0,0c.18-.17.36-.35.52-.53s.57-.58.84-.87a1.42,1.42,0,0,0,.12-.13c.21-.21.4-.41.58-.62s.34-.36.5-.55t0,0a2.19,2.19,0,0,0,.21-.23c.09-.09.17-.19.25-.28s.15-.17.22-.25c.25-.27.49-.55.72-.83s.47-.54.69-.81l.59-.72.82-1c.75-.95,1.48-1.91,2.18-2.9l.6-.85.24-.35c.24-.33.46-.67.68-1s.54-.81.8-1.22.53-.83.79-1.24c.77-1.25,1.51-2.51,2.21-3.8.38-.68.75-1.38,1.1-2.07q1.06-2.08,2-4.23.48-1.08.93-2.16c.6-1.45,1.17-2.91,1.69-4.39.13-.37.26-.74.38-1.11s.26-.73.37-1.11l.12-.37c.21-.63.4-1.27.59-1.9s.44-1.5.63-2.25.37-1.38.53-2.08c.13-.49.24-1,.34-1.47a.94.94,0,0,0,0-.16l.09-.41a.78.78,0,0,0,0-.21,1,1,0,0,0,.06-.25,5.78,5.78,0,0,0,.12-.57c.1-.48.2-1,.29-1.45a2.5,2.5,0,0,0,0-.29c0-.19.07-.38.11-.57s.06-.39.1-.58c.07-.39.13-.78.19-1.17,0-.09,0-.19,0-.29.08-.48.15-1,.21-1.45s.14-1,.19-1.46a1.37,1.37,0,0,0,0-.19c.06-.43.11-.84.15-1.27.08-.78.16-1.56.22-2.34s.09-1.29.13-1.93c0-.26,0-.53,0-.8a21.58,21.58,0,0,0,0-.67.76.76,0,0,0,0-.15c0-.1,0-.2,0-.31,0-.29,0-.57,0-.86a.29.29,0,0,0,0-.13c0-1.45,0-2.91,0-4.36,0-.47,0-.93-.05-1.39s0-.92-.06-1.37-.06-1-.09-1.48v0c0-.32,0-.62-.08-.94,0-.14,0-.28,0-.43-.06-.68-.13-1.34-.21-2,0-.43-.09-.86-.16-1.29,0,0,0,0,0,0,0-.43-.11-.85-.17-1.28a2.57,2.57,0,0,0-.06-.4c0-.28-.08-.55-.13-.83s-.06-.41-.1-.61,0-.28-.07-.41a2.32,2.32,0,0,0-.07-.38c0-.35-.12-.7-.19-1.05s-.1-.53-.15-.79-.05-.22-.07-.34c-.08-.4-.17-.81-.27-1.21a1.1,1.1,0,0,0-.06-.26c-.07-.35-.16-.7-.24-1.05h0c-.12-.52-.25-1-.39-1.55l-.21-.8q-.15-.59-.33-1.17c-.06-.2-.12-.4-.17-.59s-.14-.47-.22-.7c-.13-.45-.27-.91-.43-1.36,0-.15-.09-.29-.14-.44s-.07-.22-.11-.33-.07-.23-.12-.34v0l0-.1a2.25,2.25,0,0,0-.08-.24q-.19-.58-.42-1.17c-.12-.34-.25-.68-.39-1a1.46,1.46,0,0,0-.07-.19c-.13-.37-.28-.75-.44-1.12a4.62,4.62,0,0,0-.19-.47c-.08-.22-.17-.44-.27-.65s-.25-.62-.4-.92-.15-.36-.23-.54l-.24-.52a2.64,2.64,0,0,0-.18-.38c-.14-.33-.3-.66-.46-1l-.21-.44c-.34-.7-.7-1.39-1.06-2.08l-9.08,2.25a15.11,15.11,0,0,1-2-8.37L46.17,341,46,325.19,45.63,300a8.29,8.29,0,0,1,.79-4.5c2.91-4.74,10,.15,13,4.87a46.82,46.82,0,0,0,4.13-26.53c5.2-2.33,9.36,4.8,10.65,10.35q8.5,36.61,17,73.22a107,107,0,0,0-5.92-85.73c-3.59-6.77-8.07-13.9-6.88-21.46s12.18-13,16.6-6.8c4.54,6.42-1.21,19.32,6.45,21.08.15-.88.31-1.76.49-2.64s.31-1.52.48-2.28c0-.19.09-.39.13-.58s0-.24.08-.36c.1-.45.21-.89.32-1.34l0-.14c0-.14.07-.28.11-.42l.18-.7c.09-.36.18-.71.29-1.07l.06-.24a.19.19,0,0,1,0-.07l.24-.88c.3-1.07.63-2.15,1-3.21.07-.23.14-.45.22-.67.15-.49.31-1,.48-1.46.07-.22.15-.43.23-.65s.21-.62.33-.93l.16-.45a1.3,1.3,0,0,1,.1-.25,2,2,0,0,1,.12-.34.58.58,0,0,1,0-.14c.09-.25.18-.49.28-.74s.18-.49.29-.74.14-.38.22-.58c.28-.72.58-1.44.88-2.15.13-.31.26-.62.4-.93a3.52,3.52,0,0,1,.18-.4c.06-.15.12-.3.19-.44.14-.34.29-.67.44-1,.3-.65.6-1.3.92-2,.12-.26.25-.53.38-.79.3-.61.6-1.21.91-1.81.4-.8.82-1.59,1.25-2.37s.89-1.61,1.35-2.41.88-1.49,1.33-2.23q1.45-2.4,3-4.71.22-.34.48-.69l.73-1.05.55-.75c.33-.47.67-.94,1-1.4l.19-.26.16-.21.27-.35c.17-.23.34-.45.52-.67.32-.43.65-.84,1-1.26.09-.11.17-.22.27-.33s.36-.46.55-.68l.14-.18.21-.25c.76-.92,1.54-1.84,2.34-2.73l.36-.4c.19-.22.38-.43.58-.64l.25-.27c.21-.24.43-.47.65-.7,0,0,0,0,0,0l0,0s0,0,0,0l0,0,.06-.06c.22-.24.45-.49.69-.73,0,0,0,0,0,0s0,0,0,0l.05,0,.21-.22.28-.29c.17-.18.33-.35.51-.52a2.72,2.72,0,0,1,.24-.24c.26-.27.52-.53.8-.8l.34-.34c.11-.12.23-.23.35-.34l.9-.86a2.81,2.81,0,0,1,.31-.29l.55-.52a2,2,0,0,1,.26-.24l1.26-1.14.29-.26c.18-.17.38-.34.57-.5.41-.37.82-.72,1.24-1.07.13-.12.27-.23.41-.34l.12-.1c.31-.27.63-.53,1-.78a.27.27,0,0,1,.08-.07,3.11,3.11,0,0,1,.28-.23l.13-.1c.57-.47,1.15-.92,1.74-1.36a.13.13,0,0,1,.08-.07c.13-.11.25-.2.38-.29a.39.39,0,0,1,.1-.08c1.46-1.11,3-2.19,4.48-3.22,13-8.77,33.71-5.56,43.08,7,2.9,3.87,5.29,8.76,9.89,10.24,3.95,1.27,7.48-.38,11-2.76,4.35-3,8.67-7.08,13.71-8.18a13.84,13.84,0,0,1,9.92,1.64c5.81,3.2,10.67,9.79,14.68,15.52,6.1,8.73,17.66,17.55,26.23,11.21,4.63-3.42,6.22-10.3,11.48-12.66,7.43-3.33,15.23,5.61,15.31,13.75.07,6.31-2.45,12.25-4.19,18.35a45.69,45.69,0,0,0-1.24,5.39c-1.27,8,2.45,18.32,10.56,19,2.82.23,5.6-.79,8.42-.75,10,.15,14.77,12.17,16.95,21.94,2.5-7.45,13.3-8.91,19.89-4.64s9.93,12,12.91,19.26c2.33-6.79,7.12-15.08,14.13-13.52,5.62,1.25,7.73,8.08,12.08,11.85,5.16,4.49,12.76,4.14,19.5,5.37s14.28,6.45,12.81,13.13l8.65-6.82a179.72,179.72,0,0,0,54.68,52.85,174.11,174.11,0,0,0,16.18,8.91,37.11,37.11,0,0,1-1.23-6.07,40.05,40.05,0,0,1,6.12-26.56,80,80,0,0,0,19.56,20.87q1.88-4.91,3.76-9.82a10.24,10.24,0,0,0,7,3.16A280.79,280.79,0,0,0,486.64,265a116.18,116.18,0,0,1,55.2,64,34.34,34.34,0,0,0,6.69-26.26,32.31,32.31,0,0,1,12.58,20.74c10.39-1.75,3.48-22.23,13.16-26.41C580.15,294.55,585.88,300.74,589.32,306.15Z" fill="#1395d8"/>
      <path d="M126.57,545.16c-3.89-3.18-9.52-6.45-13.49-3.36-4.77,3.7-1.46,12.49-5.88,16.61-3.37,3.14-9,1.37-12.53-1.56s-6.44-6.93-10.76-8.52-10.6,1.37-9.72,5.89a103.6,103.6,0,0,1-24.11-54.15c0-.2,0-.39-.07-.59l-.15-1.23c-.09-.82-.19-1.65-.29-2.48l-.15-1.24c-.05-.42-.1-.83-.16-1.24s-.11-.83-.18-1.24-.12-.82-.2-1.22-.14-.8-.22-1.19c-.14-.74-.31-1.48-.5-2.21-.1-.41-.22-.81-.34-1.21s-.2-.65-.32-1a21.84,21.84,0,0,0-2.26-4.73c-2-3.09-4.9-5.57-6.6-8.84-1.6-3.1-2-6.67-2.18-10.16a93,93,0,0,1,15.59-56.1c4.37-6.51,9.67-12.63,12-20.13,1.8-5.9,1-13.08-2.75-17.61a12.08,12.08,0,0,0-3.78-3c-3.74-1.9-8.25-1.73-12.29-.6-8.22,2.31-14.92,8.28-19.47,15.61h0A45.63,45.63,0,0,0,22,387c-4.13,10.47-4.76,22-4.81,33.22C17,479.12,31.33,540.29,11,595.59c-.2.54-.4,1.08-.62,1.61l-.09.22c-.2.5-.41,1-.62,1.48s-.33.74-.5,1.1H-3V507.23c1-23.16,1.17-46.3,0-69.36V370.09c.24-.38.48-.76.73-1.13q.89-1.38,1.83-2.73l.69-1,.58-.8.91-1.26c.83-1.14,1.68-2.25,2.54-3.36.16-.2.31-.4.48-.6.31-.41.64-.82,1-1.22l0-.06c.72-.88,1.44-1.76,2.19-2.62.51-.61,1-1.21,1.57-1.8s1.17-1.3,1.77-1.94l.37-.41c.25-.27.5-.53.76-.79l.18-.19c.24-.26.48-.52.73-.77l.76-.77c.57-.58,1.15-1.16,1.73-1.72.73-.72,1.46-1.42,2.2-2.1.42-.39.84-.78,1.27-1.16L20,343l1-.88c.21-.19.41-.37.62-.54.8-.69,1.6-1.36,2.42-2q1-.8,1.95-1.56c.33-.27.67-.53,1-.79s.77-.59,1.16-.88.74-.56,1.12-.84c.75-.55,1.51-1.1,2.28-1.63q1.6-1.12,3.24-2.19c.83-.55,1.67-1.08,2.52-1.61h0c.85-.53,1.71-1.05,2.57-1.54l.21-.13.21-.12,1.26-.72c.71-.41,1.44-.8,2.16-1.19s1.46-.78,2.19-1.15L46.17,341,55.79,340a15.11,15.11,0,0,0,2,8.37l9.08-2.25c.36.69.72,1.38,1.06,2.08l.21.44c.16.33.32.66.46,1a2.64,2.64,0,0,1,.18.38l.24.52c.08.18.16.36.23.54s.27.61.4.92.19.43.27.65a4.62,4.62,0,0,1,.19.47c.16.37.31.75.44,1.12,0,.11.09.22.13.33l.06.14s0,.09,0,.13c.08.2.15.4.22.6q.23.58.42,1.17a2.25,2.25,0,0,1,.08.24.56.56,0,0,1,0,.12c0,.11.08.23.12.34s.08.22.11.33.1.29.14.44c.16.45.3.9.43,1.36.08.23.15.47.22.7s.11.39.17.59q.18.58.33,1.17c.07.27.15.53.21.8.14.51.27,1,.39,1.55h0c.08.35.17.7.24,1.05a1.1,1.1,0,0,1,.06.26c.1.4.19.8.27,1.21,0,.12,0,.23.07.34l.15.79c.07.35.13.7.19,1.05a2.32,2.32,0,0,1,.07.38c0,.13,0,.27.07.41.09.48.16,1,.23,1.44a2.57,2.57,0,0,1,.06.4c.06.43.12.85.17,1.28,0,0,0,0,0,0,.06.43.11.86.16,1.29.08.68.15,1.35.21,2,0,.15,0,.29,0,.43.07.82.13,1.64.17,2.46,0,.45,0,.91.06,1.37q0,.35,0,.69c0,.23,0,.46,0,.7,0,1.45,0,2.91,0,4.36a.29.29,0,0,1,0,.13c0,.29,0,.57,0,.86,0,.11,0,.21,0,.31a.76.76,0,0,1,0,.15,21.58,21.58,0,0,1,0,.67c0,.27,0,.53,0,.8,0,.64-.08,1.28-.13,1.93s-.14,1.56-.22,2.34c0,.42-.09.84-.15,1.27a1.37,1.37,0,0,1,0,.19c-.05.49-.11,1-.19,1.46s-.11.83-.18,1.24c0,.17,0,.33-.08.5-.06.39-.12.78-.19,1.17,0,.19-.07.38-.1.58s-.07.38-.11.57,0,.2,0,.29-.09.44-.13.66a1.06,1.06,0,0,1,0,.19l-.12.6a1.24,1.24,0,0,1,0,.16h0a.31.31,0,0,1,0,.08.43.43,0,0,1,0,.11.06.06,0,0,1,0,0,3.15,3.15,0,0,1-.09.42,1.55,1.55,0,0,1,0,.21c0,.19-.08.38-.13.57-.1.49-.21,1-.34,1.47-.16.7-.34,1.39-.53,2.08s-.41,1.5-.63,2.25-.38,1.27-.59,1.9l-.12.37c-.11.38-.24.75-.37,1.11s-.25.74-.38,1.11c-.52,1.48-1.09,2.94-1.69,4.39q-.45,1.08-.93,2.16c-.64,1.43-1.31,2.84-2,4.23-.35.69-.72,1.39-1.1,2.07-.7,1.29-1.44,2.55-2.21,3.8-.26.42-.52.83-.79,1.24s-.53.81-.8,1.22-.44.67-.68,1l-.24.35-.6.85c-.7,1-1.43,1.95-2.18,2.9l-.82,1-.59.72q-.33.4-.69.81c-.23.28-.47.56-.72.83-.07.08-.14.17-.22.25s-.16.19-.25.28a2.19,2.19,0,0,1-.21.23s0,0,0,0c-.15.18-.32.37-.5.55s-.38.42-.58.62a1.42,1.42,0,0,1-.12.13q-.41.43-.84.87c-.16.18-.34.36-.52.53l0,0c-.41.42-.83.83-1.25,1.22l-.6.57c-.46.43-.92.86-1.39,1.26a2.19,2.19,0,0,1-.23.21l-.28.26h0l-.27.23-.18.16-.4.34-1,.88q.46-5.76.92-11.5A9.94,9.94,0,0,0,59,454.23c0,1.18,0,2.36,0,3.54q0,.66,0,1.32,0,1.05.06,2.1c0,.18,0,.35,0,.52l.06,1.28c0,.47.05.93.08,1.39l.06.76c0,.26,0,.52.06.77l0,.38a1.64,1.64,0,0,0,0,.22c.05.63.11,1.27.17,1.9,0,.08,0,.16,0,.23,0,.36.07.73.11,1.1a1,1,0,0,0,0,.17v0c0,.1,0,.2,0,.31a2.42,2.42,0,0,0,0,.25c0,.11,0,.23,0,.35l.15,1.21c0,.28.07.57.11.85s0,.34.07.51c.06.36.11.72.16,1.08s.07.47.11.71c.09.57.18,1.14.28,1.71,0,.28.09.56.14.84.16.85.32,1.71.49,2.56h0c0,.18.07.36.11.54s.08.36.11.54c.14.67.29,1.34.44,2s.33,1.44.51,2.16.37,1.46.56,2.18.39,1.45.6,2.17.41,1.44.63,2.16c.17.56.35,1.12.53,1.68.23.73.47,1.45.72,2.17s.44,1.29.68,1.93.37,1,.57,1.54c.07.2.14.4.22.59.21.57.43,1.14.66,1.7l.36.89c.11.28.22.55.34.82.58,1.41,1.2,2.81,1.84,4.2q.27-16,.55-31.94a126.28,126.28,0,0,0,27.67,59.42q-10.35-32.33-20.71-64.66c-.46-1.42-.91-2.87-1.34-4.33s-.86-2.95-1.25-4.44h0c0-.09,0-.19-.08-.29a2.46,2.46,0,0,1-.07-.29c-.07-.26-.14-.51-.2-.77s-.07-.28-.1-.41a2.25,2.25,0,0,1,0-.22,2.74,2.74,0,0,1-.09-.39q-.1-.39-.18-.78c-.15-.63-.29-1.26-.41-1.89-.09-.46-.18-.92-.26-1.38,0-.07,0-.14,0-.21-.1-.52-.18-1-.26-1.56,0-.09,0-.18,0-.26-.08-.47-.15-.94-.2-1.41,0-.13,0-.26,0-.4s0-.21,0-.32a1.94,1.94,0,0,1,0-.24.88.88,0,0,1,0-.16.43.43,0,0,1,0-.11.62.62,0,0,0,0-.13.49.49,0,0,1,0-.12s0-.05,0-.08c-.08-.8-.14-1.6-.17-2.39a.76.76,0,0,1,0-.15.24.24,0,0,1,0-.12,0,0,0,0,1,0,0,3.17,3.17,0,0,1,0-.43c0-.49,0-1,0-1.45v-.42a2.44,2.44,0,0,1,0-.27c0-.24,0-.48,0-.72s0-.79.06-1.18,0-.73.09-1.1c0,0,0-.05,0-.07a4.26,4.26,0,0,1,.06-.5,5.93,5.93,0,0,1,.07-.59c0-.41.12-.82.19-1.23q.18-1,.42-2A27.54,27.54,0,0,1,75,433.75q.39-.94.87-1.86c.31-.61.66-1.21,1-1.81.95-1.52,2.32-3.06,4.12-3.09a2.54,2.54,0,0,1,2.27,1.76c-.15.62-.31,1.24-.47,1.86a1.55,1.55,0,0,0,.47-1.86,215.25,215.25,0,0,0,6.32-57.36c4.25-2,6.56,4.89,7.19,9.56s8.31,8.7,8.54,4c0,1.26,0,2.51-.11,3.77,0,.62-.06,1.25-.1,1.88s-.08,1.25-.13,1.87q-.1,1.35-.24,2.7a1.94,1.94,0,0,1,0,.24c0,.41-.08.82-.13,1.22s-.1,1-.16,1.46c-.09.79-.18,1.56-.29,2.34-.07.55-.14,1.09-.22,1.64s-.15,1.09-.23,1.63-.18,1.25-.28,1.87c-.19,1.25-.39,2.49-.59,3.73-.15.93-.31,1.87-.48,2.8l-.24,1.39-.24,1.4a.28.28,0,0,0,0,.09l-.51,2.89c0,.25-.09.5-.13.75q-.49,2.79-1,5.59l-.06.37c-.23,1.36-.45,2.72-.66,4.09-.09.54-.17,1.08-.25,1.63s-.14.92-.2,1.38-.13,1-.2,1.47-.15,1.07-.21,1.61-.14,1.07-.2,1.61c-.09.75-.18,1.51-.25,2.26-.06.59-.12,1.18-.17,1.78s-.09,1-.13,1.47a.81.81,0,0,0,0,.16v0c0,.29-.05.58-.07.87l-.12,1.88A118.1,118.1,0,0,0,113.31,510q-4.28-36.19-8.53-72.4a22.47,22.47,0,0,1-.11-3.7c0-.24,0-.48,0-.73s0-.4,0-.6c0,0,0-.06,0-.08v0a.13.13,0,0,1,0-.06v-.07h0a.15.15,0,0,1,0-.07c0-.18,0-.36.06-.54s.06-.43.1-.64,0-.21,0-.32l.15-.75a17.7,17.7,0,0,1,.48-1.84q.16-.54.36-1c.09-.23.18-.45.28-.67s.16-.36.25-.54a6.36,6.36,0,0,1,.3-.58c.1-.19.21-.37.32-.55l.2-.3h0l.09-.14.11-.15.08-.1a.28.28,0,0,1,.07-.09l.13-.17a.81.81,0,0,1,.09-.1l0-.06.13-.15.21-.22a3.26,3.26,0,0,1,.33-.31l.14-.12.29-.23a4.4,4.4,0,0,1,.45-.3c0,.77,0,1.54.06,2.31,0,.44,0,.87.05,1.31,0,.73.06,1.46.1,2.19s.07,1.46.12,2.2.08,1.34.13,2l.18,2.37c.13,1.46.26,2.91.42,4.36q.12,1.2.27,2.4c.07.65.15,1.3.24,2q.72,5.56,1.75,11.09c.13.73.27,1.45.42,2.18.3,1.51.61,3,1,4.52s.69,3,1.06,4.49c.18.75.37,1.49.57,2.24s.35,1.36.54,2,.44,1.62.67,2.42.43,1.48.65,2.21.42,1.4.64,2.1l.06.19c.16.52.33,1,.5,1.57q1.14,3.57,2.43,7.1c.26.72.53,1.44.8,2.16q1.23,3.24,2.57,6.44Q125.65,519.69,126.57,545.16Z" fill="#93def2"/>
      <path d="M210.57,208.79c-3.51,2.38-7,4-11,2.76-4.6-1.48-7-6.37-9.89-10.24-9.37-12.53-30.12-15.74-43.08-7-1.52,1-3,2.11-4.48,3.22-.55.41-1.09.83-1.62,1.25l-.12.1c-.25.19-.49.38-.73.59-.41.32-.82.65-1.22,1a1.92,1.92,0,0,0-.23.19l-.17.14q-1.15,1-2.28,2c-.45.39-.89.79-1.33,1.2l-.14.13c-.23.21-.46.42-.68.64a2.39,2.39,0,0,0-.23.22c-.36.33-.71.66-1,1-.19.17-.37.35-.54.53s-.54.53-.8.8a2.34,2.34,0,0,0-.27.28l-.1.09s0,0,0,0c-.31.29-.59.59-.87.89,0,0-.05,0-.05.06s0,0,0,0c-.26.25-.5.51-.72.76a.12.12,0,0,0-.05.05.17.17,0,0,0-.07.08h0q-.68.71-1.29,1.41c-.37.4-.73.8-1.07,1.2s-.8.92-1.18,1.38c-.17.19-.33.37-.47.56a1.41,1.41,0,0,0-.2.24l-.18.2-.14.18c-.19.22-.37.45-.55.68a3.92,3.92,0,0,0-.27.33c-.21.25-.41.5-.6.76-.53.66-1,1.32-1.53,2-.35.47-.7.93-1,1.4s-.87,1.19-1.28,1.8l-.48.69-.27.4c-.36.52-.71,1.05-1.05,1.58-.59.9-1.16,1.81-1.72,2.73-.45.74-.9,1.48-1.33,2.23s-.91,1.6-1.35,2.41-.85,1.57-1.25,2.37c-.31.6-.62,1.2-.91,1.81q-1.34,2.72-2.51,5.51c-.3.71-.6,1.43-.88,2.15-.12.29-.23.57-.32.85s-.25.63-.36.94a3.93,3.93,0,0,0-.2.54c-.14.32-.25.64-.36,1-.28.75-.54,1.51-.79,2.28-.16.45-.31.91-.45,1.37-.27.83-.52,1.66-.76,2.5-.14.48-.28.94-.41,1.42,0,.16-.09.32-.12.48-.11.36-.2.71-.29,1.07l-.21.8c0,.15-.07.31-.11.46-.14.57-.28,1.13-.4,1.7,0,.19-.09.39-.13.58a0,0,0,0,0,0,0,.32.32,0,0,0,0,.09c-.16.72-.31,1.45-.45,2.17-.18.88-.34,1.76-.49,2.64-7.66-1.76-1.91-14.66-6.45-21.08-4.42-6.25-15.4-.77-16.6,6.8s3.29,14.69,6.88,21.46a107,107,0,0,1,5.92,85.73q-8.5-36.6-17-73.22c-1.29-5.55-5.45-12.68-10.65-10.35a46.82,46.82,0,0,1-4.13,26.53c-3-4.72-10.05-9.61-13-4.87a8.29,8.29,0,0,0-.79,4.5L46,325.19c-.73.37-1.46.76-2.19,1.15s-1.45.78-2.16,1.19l-1.26.72-.21.12-.21.13c-.86.49-1.72,1-2.57,1.54h0c-.85.53-1.69,1.06-2.52,1.61q-1.63,1.07-3.24,2.19c-.77.53-1.53,1.08-2.28,1.63-.38.28-.75.55-1.12.84s-.78.58-1.16.88-.67.52-1,.79q-1,.76-1.95,1.56c-.82.67-1.62,1.34-2.42,2-.21.17-.41.35-.62.54L20,343c-.67.59-1.33,1.19-2,1.81s-1.47,1.38-2.2,2.1c-.58.56-1.16,1.14-1.73,1.72l-.76.77c-.25.25-.49.51-.73.77l-.18.19c-.26.26-.51.52-.76.79l-.37.41c-.6.64-1.19,1.29-1.77,1.94s-1.06,1.19-1.57,1.8c-.75.86-1.47,1.74-2.19,2.62l0,.06c-.33.4-.66.81-1,1.22-.17.2-.32.4-.48.6-.87,1.11-1.72,2.23-2.54,3.36l-.91,1.26-.58.8-.69,1q-.95,1.35-1.83,2.73c-.25.37-.49.75-.73,1.13v-30c10.85-13.94,33.43-17.72,39.29-34.43,3.53-10.06.65-23.91,9.83-29.33,2.68-1.59,5.94-2,8.59-3.66,10.46-6.54,3-23.73,8.91-34.57,4.67-8.6,15.87-10.42,25.1-13.66A60.28,60.28,0,0,0,121,197.18a55.21,55.21,0,0,0,3-6.19c22.76-13,51.38-5.41,73.56,8.55A146.68,146.68,0,0,1,210.57,208.79Z" fill="#57cde9"/>
      <path d="M598,465.87v23a41.08,41.08,0,0,0-14.26-1.35c2.74-6.92-9.6-11.38-14.66-5.93-4.34,4.66-4.25,11.57-3.33,18.06-1.29-1.06-3.4-1.52-4.69-.3-2.39,2.26-1.83,6.14-1.08,9.34q2.85,12.23,5.71,24.44L557.56,527c.1,3.17.13,6.57-1.59,9.23s-5.91,3.95-8.11,1.66a44.47,44.47,0,0,0,22.65,32.39c3.66,2,7.93,3.73,9.55,7.56,3.59,8.48-8.46,14.62-17.57,16L521.72,600H336.85a251.56,251.56,0,0,0-101.49,0c-.94.19-1.89.39-2.83.6,0-.2.08-.4.13-.6,3.63-17.47,27.06-22.62,44.75-19.06,17.89,3.6,36.31,12,53.6,6.13,6.07-2.05,11.8-5.82,18.21-5.72,6.58.11,12.3,4.29,18.53,6.39,7.11,2.41,14.82,2.08,22.32,1.72l58-2.75a13.48,13.48,0,0,0,3.36.22l3.45-.11q5.63-.2,11.23-.6l1.4-.1c1.75-.12,3.49-.27,5.24-.43,1.08-.09,2.15-.19,3.23-.3L448,586.71a4.91,4.91,0,0,1-2-.91c-5.55-4.38,5.42-13.06,2.65-19.57a25.41,25.41,0,0,1-13,4.08,9.22,9.22,0,0,0-3.78-7.79,19.11,19.11,0,0,1-24.08,1.59c.55,3.49-3.89,5.48-7.41,5.8-28.8,2.6-58.59-21.84-84.55-9.09-1.6.79-3.24,1.74-5,1.68-7.15-.24-4.78-12.2-9.29-17.75-4.73-5.81-13.9-1.92-20.61,1.39s-17.83,3.41-18.57-4c-.66-6.72,9.15-11.84,7-18.25-.8-2.43-3.1-4-4.92-5.77-14.36-14.17,1.87-42.43-11.56-57.48l1.23,36.16-6.33-11.32,1.74,35.23c.28,5.56-1.28,13.18-6.84,13.14-3.19,0-5.55-2.86-7.36-5.48a175.54,175.54,0,0,1-30.52-109.68c.89-14.39,3.17-30.32-5.34-42-26.28,39-16,93.78,11.45,132,5.87,8.19,12.79,18.29,8.53,27.42a9.09,9.09,0,0,1-7.2-2.86L211,553.32a104.57,104.57,0,0,1-38.5-68,19.21,19.21,0,0,0-6.82,17.27,16.53,16.53,0,0,0-12.5-11.6,68.25,68.25,0,0,0,17.07,40.56L163.39,538c5.56,1.78,6.15,10.18,2.35,14.61s-9.93,5.88-15.64,7.08c5,5.07,10.12,13.39,5.12,18.47-5.61,5.68-14.9-1.35-22.88-1.13-10.42.27-18.94,13.38-28.74,9.82-7.9-2.87-10-15.07-18.34-16.4-9.66-1.54-13.21,11.9-18.68,20A28,28,0,0,1,54.85,600H9.18c.17-.36.34-.73.5-1.1s.42-1,.62-1.48l.09-.22c.22-.53.42-1.07.62-1.61,20.32-55.3,6-116.47,6.22-175.38C17.28,409,17.91,397.46,22,387a45.63,45.63,0,0,1,3.67-7.33h0c4.55-7.33,11.25-13.3,19.47-15.61,4-1.13,8.55-1.3,12.29.6a12.08,12.08,0,0,1,3.78,3c3.8,4.53,4.55,11.71,2.75,17.61-2.29,7.5-7.59,13.62-12,20.13a93,93,0,0,0-15.59,56.1c.18,3.49.58,7.06,2.18,10.16,1.7,3.27,4.6,5.75,6.6,8.84a21.84,21.84,0,0,1,2.26,4.73c.12.32.22.64.32,1s.24.8.34,1.21c.19.73.36,1.47.5,2.21.08.39.16.79.22,1.19s.14.81.2,1.22.12.83.18,1.24.11.82.16,1.24l.15,1.24c.1.83.2,1.66.29,2.48l.15,1.23c0,.2.05.39.07.59a103.6,103.6,0,0,0,24.11,54.15c-.88-4.52,5.39-7.48,9.72-5.89s7.2,5.59,10.76,8.52,9.16,4.7,12.53,1.56c4.42-4.12,1.11-12.91,5.88-16.61,4-3.09,9.6.18,13.49,3.36q-.93-25.45-1.85-50.92-1.34-3.19-2.57-6.44c-.27-.72-.54-1.44-.8-2.16q-1.29-3.52-2.43-7.1c-.17-.52-.34-1.05-.5-1.57l-.06-.19c-.22-.7-.43-1.4-.64-2.1s-.43-1.47-.65-2.21-.45-1.61-.67-2.42-.37-1.36-.54-2-.39-1.49-.57-2.24c-.37-1.49-.73-3-1.06-4.49s-.65-3-1-4.52c-.15-.73-.29-1.45-.42-2.18q-1-5.52-1.75-11.09c-.09-.66-.17-1.31-.24-2s-.19-1.6-.27-2.4c-.16-1.45-.29-2.9-.42-4.36L110,432.4c0-.68-.09-1.35-.13-2s-.09-1.47-.12-2.2-.07-1.46-.1-2.19c0-.44,0-.87-.05-1.31,0-.77,0-1.54-.06-2.31a5.07,5.07,0,0,1,4.19-.43l.09.39c.12.48.24,1,.35,1.45l.45,1.84.54,2.19c.3,1.22.61,2.45.93,3.67q.22.91.48,1.83c.14.56.29,1.13.45,1.69.08.28.15.56.23.84a.08.08,0,0,0,0,0l.13.49.09.31c.09.31.17.62.26.92s.23.8.34,1.19c.35,1.21.72,2.42,1.1,3.62.16.53.32,1,.5,1.58s.31.95.47,1.42c.22.66.45,1.33.68,2s.47,1.32.71,2q.72,2,1.5,3.84c.25.6.5,1.19.76,1.78.09.22.19.43.29.65s.21.47.31.71l.11.24c.22.49.45,1,.68,1.45.53,1.13,1.1,2.24,1.69,3.34.28.54.58,1.09.89,1.63s.62,1.08.94,1.61l.48.79c.08.14.16.27.25.4.39.64.8,1.26,1.22,1.89l0,.06c.42.62.85,1.25,1.3,1.86.28.39.56.78.85,1.16s.8,1,1.2,1.53l.66.79.38.45.09.11.4.45.4.45c.23.26.46.52.7.77s.69.74,1,1.11c-.26-.82-.52-1.65-.77-2.47-.36-1.16-.71-2.32-1-3.48-.11-.34-.21-.69-.3-1s-.17-.55-.24-.83c-.13-.45-.26-.89-.38-1.34-.28-1-.55-2-.81-3,0-.1-.06-.21-.08-.31h0c0-.18-.09-.35-.13-.52a0,0,0,0,1,0,0l-.51-2-.19-.76c-.22-.88-.44-1.77-.65-2.65-.27-1.11-.53-2.23-.78-3.34-.1-.43-.2-.86-.29-1.29-.17-.73-.33-1.45-.48-2.18-.12-.54-.23-1.08-.34-1.63-.06-.26-.11-.52-.16-.78-.12-.56-.23-1.12-.34-1.69l-.39-2-.09-.48c0-.13,0-.26-.07-.38s0-.27-.07-.4q-.66-3.6-1.23-7.22l-.09-.59-.09-.59c-.14-.91-.27-1.82-.4-2.73l-.21-1.52c0-.09,0-.19,0-.29s-.05-.34-.07-.52l-.06-.46a1.1,1.1,0,0,1,0-.18c0-.26-.07-.53-.1-.8a.59.59,0,0,1,0-.14h0s0-.09,0-.14a3.06,3.06,0,0,1-.05-.32.37.37,0,0,1,0-.11c0-.33-.09-.67-.12-1a3.32,3.32,0,0,1-.06-.44.37.37,0,0,1,0-.11q-.17-1.31-.3-2.61a1.23,1.23,0,0,1,0-.2c-.13-1.17-.25-2.33-.36-3.5,0-.07,0-.14,0-.22-.11-1.24-.22-2.48-.32-3.72-.08-1-.15-2-.22-3,0-.35,0-.69-.07-1-.08-1.24-.15-2.47-.22-3.7l0-.7q-.11-2.2-.18-4.41-.21-6.33-.11-12.66v0s0,0,0,0a0,0,0,0,1,0,0s0,0,0,0a0,0,0,0,1,0,0,0,0,0,0,0,0,0h0v-.05a.09.09,0,0,1,0,0,0,0,0,0,1,0,0,0,0,0,0,1,0,0,0,0,0,0,1,0,0s0,0,0,0v-.17c0-.1,0-.21,0-.31s0,0,0,0a.29.29,0,0,1,0-.13c0-.12,0-.24,0-.36a0,0,0,0,1,0,0c0-2.31.12-4.63.22-6.94,0-.31,0-.62,0-.94,0-.16,0-.33,0-.5a.61.61,0,0,1,0-.19c0-.16,0-.31,0-.47a4.36,4.36,0,0,1,0-.51.42.42,0,0,1,0-.16,4.93,4.93,0,0,1,0-.55q0-.5.06-1c0-.23,0-.46,0-.69s0-.2,0-.31c0-.61.08-1.21.13-1.82a1,1,0,0,1,0-.29c0-.55.07-1.11.12-1.66a.29.29,0,0,1,0-.13c0-.7.11-1.4.18-2.09,0-.5.07-1,.13-1.5.09-1.09.2-2.17.32-3.26a2.45,2.45,0,0,1,0-.38q.06-.72.15-1.44c.09-.82.19-1.65.29-2.48,0-.46.11-.92.17-1.38,0-.29.07-.59.11-.89,0,0,0,0,0,0,.1-.76.2-1.53.31-2.29,0-.21,0-.43.09-.64.08-.61.17-1.23.26-1.84a2.17,2.17,0,0,1,0-.25c.05-.37.11-.75.17-1.12s.14-1,.23-1.45.17-1.11.27-1.66c0-.21.06-.41.1-.62a2.17,2.17,0,0,1,0-.25,1.42,1.42,0,0,1,0-.2c0-.23.07-.45.11-.68q.15-.94.33-1.89a0,0,0,0,1,0,0c.06-.38.13-.77.21-1.15s.13-.77.21-1.15c0-.22.08-.43.13-.64l.06-.34.06-.33c.11-.58.22-1.16.35-1.73.17-.91.36-1.81.56-2.72.09-.45.19-.9.29-1.35,0-.17.07-.35.11-.52.08-.41.18-.82.27-1.23l.3-1.32.18-.78c.06-.27.12-.54.19-.8q.21-.93.45-1.86c.07-.32.15-.64.23-1,0-.13.06-.26.1-.39.33-1.33.68-2.67,1-4,1.51-5.67,4.09-12.17,9.78-13.58,5.34-1.31,10.77,3,12.69,8.14s1.25,10.87.58,16.32q-.74,5.94-1.45,11.87-.63,5.29-1.25,10.57c-.23,2-.45,4-.68,6-.05.38-.09.77-.13,1.15l-.06.6c-.31,2.67-.61,5.35-.9,8,0,.29-.07.58-.1.88-.07.56-.13,1.12-.18,1.69,0,0,0,0,0,0a.09.09,0,0,0,0,0v0c-.1.9-.2,1.8-.29,2.7s-.2,1.84-.29,2.75c-.38,3.51-.75,7-1.11,10.52q-.49,4.8-1,9.61c-.26,2.56-.51,5.13-.75,7.69-.06.59-.12,1.17-.17,1.76q-.95,9.69-1.79,19.38c-.84,9.58-.5,21.4,8,25.95.39-.62.77-1.25,1.13-1.88s.58-1,.85-1.47.51-.92.76-1.39c.1-.17.19-.34.28-.52l.22-.42.56-1.09c.17-.34.34-.68.5-1,.05-.09.09-.17.13-.26.13-.26.26-.53.38-.79.39-.82.76-1.64,1.11-2.47.16-.36.31-.71.46-1.07a1.11,1.11,0,0,0,.07-.16l.39-1c.11-.25.21-.51.31-.77l.12-.31q.24-.58.45-1.17c0-.1.07-.2.1-.29a.52.52,0,0,0,.06-.16c.16-.4.3-.8.44-1.2l.09-.26.34-1a2.25,2.25,0,0,0,.08-.24c.23-.66.44-1.32.64-2l.09-.27v0l.13-.46c0-.13.09-.27.13-.41.11-.36.22-.73.32-1.09.16-.55.31-1.09.46-1.64.19-.71.37-1.41.55-2.12l.39-1.6q.54-2.35,1-4.74c0-.09,0-.18,0-.26l.09-.47c.27-1.46.51-2.93.72-4.4.06-.44.13-.88.19-1.33a1.64,1.64,0,0,0,0-.22s0-.06,0-.09v0c.17-1.29.33-2.59.45-3.88.07-.64.13-1.28.19-1.92v0c.06-.54.1-1.08.13-1.63a1.84,1.84,0,0,0,0-.33c0-.1,0-.21,0-.31a1.42,1.42,0,0,0,0-.29c0-.34.05-.69.07-1,.06-.76.1-1.52.13-2.28,0-.26,0-.52,0-.78l0-.66,0-1h0a0,0,0,0,0,0-.05.66.66,0,0,0,0-.14l0-1.29c.06-2.29.07-4.59,0-6.88a.38.38,0,0,0,0-.15l0-1.44v-.13c0-.12,0-.24,0-.36l0-1c0-.18,0-.36,0-.54,0-.58,0-1.16-.07-1.73a1.21,1.21,0,0,0,0-.19.19.19,0,0,0,0-.08c0-.66-.06-1.31-.1-2q-.08-1.35-.18-2.7c0-.07,0-.15,0-.22a.06.06,0,0,0,0-.06c0-.1,0-.21,0-.32s0-.37,0-.56a0,0,0,0,0,0,0l0-.31c-.05-.7-.11-1.39-.17-2.09q-.13-1.62-.3-3.24c-.09-.85-.18-1.7-.28-2.56s-.17-1.51-.27-2.27c-.05-.47-.11-1-.17-1.42,0-.26-.07-.52-.1-.78-.37-2.89-.78-5.78-1.23-8.65l-.21-1.34q-.47-3-1-5.88c0-.14,0-.27-.07-.4q-.63-3.71-1.29-7.4l-.93-5.11c-.15-.77-.29-1.54-.42-2.3-.81-4.33-1.61-8.67-2.37-13q-.48-2.7-.94-5.4l-.48-2.87q-.5-3-1-6t-.89-6.34c-.17-1.29-.33-2.58-.48-3.86-.13-1.05-.24-2.09-.35-3.13-.09-.85-.18-1.71-.26-2.56-.54-5.63-.78-11.69,2.18-16.51s10.37-7.21,14.39-3.24c1.93,1.9,2.61,4.69,3.21,7.33q2.76,12.19,5.53,24.38c.77,3.37,1.77,7.1,4.69,8.95,2.46,1.56,6.45.32,7.24-2.13-.05,1.1-.07,2.2-.07,3.31s0,2,.06,3.05l0,.63c0,.54.05,1.08.09,1.61,0,.22,0,.44.05.66,0,.74.12,1.48.19,2.22,0,.48.1.95.16,1.42.09.73.19,1.47.3,2.2s.22,1.48.36,2.21c.09.51.18,1,.28,1.54,0,0,0,.09,0,.13l0,.15,0,.08c.05.26.1.51.16.76s.09.43.14.65c.12.58.25,1.15.39,1.72,0,.13.06.26.1.4a1.6,1.6,0,0,0,.05.21c.08.35.17.69.26,1l.27,1c0,.13.07.25.1.37.2.68.39,1.35.6,2l.15.47c.13.43.27.86.41,1.28.29.87.59,1.73.91,2.58.18.48.36,1,.55,1.43s.37.95.57,1.42q1.32,3.19,2.91,6.26c.09.19.19.38.29.57l.32.61.32.59.51.91c.29.52.59,1,.9,1.55s.54.9.82,1.34l.42.67c.14.23.29.46.44.69s.11.18.17.27l.58.87.28.42c.68,1,1.38,2,2.1,2.92.14-.1.27-.21.4-.32l.13-.11a8,8,0,0,0,.91-.93,6,6,0,0,0,.39-.49,6.78,6.78,0,0,0,.65-1,.61.61,0,0,0,.07-.14,3.13,3.13,0,0,0,.22-.45c.08-.19.16-.38.23-.57h0a.58.58,0,0,0,0-.14,1.72,1.72,0,0,0,.07-.21.65.65,0,0,0,0-.13.66.66,0,0,0,.06-.2,1.32,1.32,0,0,0,.08-.3l.12-.51a2.29,2.29,0,0,0,.07-.36.59.59,0,0,0,0-.13,0,0,0,0,0,0,0,6,6,0,0,0,.1-.74.22.22,0,0,0,0-.08,0,0,0,0,0,0,0,.22.22,0,0,0,0-.08,10.37,10.37,0,0,0,0-1.25c0-.3,0-.61,0-.91s0-.53-.06-.8c0,0,0-.08,0-.12s0-.27-.05-.41,0-.37-.08-.56l0-.22a4.54,4.54,0,0,0-.09-.51c0-.08,0-.16,0-.24a0,0,0,0,0,0,0h0c0-.13-.05-.26-.08-.39s-.08-.39-.13-.58a.36.36,0,0,1,0-.1l0-.11c-.06-.26-.12-.52-.19-.79h0v0h0v0c0-.12-.07-.25-.11-.38-.08-.3-.17-.61-.27-.91h0c-.14-.47-.29-.95-.46-1.42a1.09,1.09,0,0,1-.05-.17l0,0c-.06-.19-.13-.39-.2-.58s-.09-.25-.14-.37-.08-.23-.13-.35c-.2-.53-.41-1.06-.62-1.58-.13-.32-.26-.64-.4-.95s-.26-.62-.4-.93q-.4-.92-.81-1.8l-.06-.14c-.18-.38-.34-.78-.5-1.19-.08-.2-.16-.41-.23-.62s-.23-.67-.33-1c-.19-.58-.35-1.18-.49-1.78-.06-.24-.11-.48-.16-.73a.3.3,0,0,1,0-.1l-.06-.3c-.05-.23-.09-.47-.13-.71s0-.18,0-.28-.07-.42-.09-.63,0-.24-.05-.36c0-.28-.06-.57-.08-.86s0-.5-.05-.75a.34.34,0,0,1,0-.1.17.17,0,0,1,0-.07v-.07c0-.1,0-.19,0-.28,0-.69,0-1.36,0-2,0-.29,0-.57.08-.85s.05-.44.09-.66a.3.3,0,0,1,0-.1c0-.28.09-.56.15-.83s.14-.6.22-.89.18-.57.28-.85.22-.54.34-.8.25-.51.39-.76a5.14,5.14,0,0,1,.32-.49,2.11,2.11,0,0,1,.18-.27l.2-.27c.18-.21.36-.41.55-.6l.41-.38c.15-.13.3-.24.45-.35a1.28,1.28,0,0,1,.21-.14,1.67,1.67,0,0,1,.28-.18,5.42,5.42,0,0,1,.48-.26l.29-.13a5.12,5.12,0,0,1,.65-.25l.16-.05a5.26,5.26,0,0,1,.6-.15l.32-.06.32-.05a41.94,41.94,0,0,1,10,19.19c2.07-7.58-3.46-14.83-7.09-21.81s-4.05-17.86,3.38-20.41c-.16,8.24,11.06,11.53,14.91,18.81,2,3.76,1.81,8.24,1.59,12.48l-.66,12.3-1,18.61q-.37,7.15-.76,14.32c-.93,17.39-.43,37.93,13.8,48a21.15,21.15,0,0,0,3.16-14c7,3.68,13.78-6,14.32-13.93S265,379,271.7,374.8q.89,30.26,1.75,60.5c.25,8.81.57,17.89,4.21,25.92S289.17,476,298,475.62a178,178,0,0,1,2.86-25.83,12.85,12.85,0,0,1,8.53,9.43c1.07-4.47,9-4.43,10,.06,6.58-11.3-3.6-26.8,2.46-38.39,2.13-4.08,6-7,8.26-11.06.2-.37.39-.74.56-1.12l.18-.39s0-.08,0-.11c.08-.19.16-.38.23-.57v0c0-.09.06-.18.1-.27s0,0,0,0c.1-.29.2-.58.28-.87s.12-.41.17-.61.09-.33.12-.5.06-.24.08-.37,0-.24.07-.37.08-.41.11-.62.1-.66.14-1,.07-.74.09-1.11a2.55,2.55,0,0,0,0-.39c0-.16,0-.33,0-.5s0-.28,0-.42c.12-15.27-13-33.54-2.21-44.6,6.21,6.79,8.48,16.19,10.7,25.12.33,1.34.67,2.68,1,4,0,0,0,.1,0,.15.24.95.48,1.9.73,2.84.05.2.1.4.16.6q1.13,4.35,2.31,8.69c.5,1.83,1,3.65,1.52,5.47.56,2,1.13,4,1.72,6,.14.49.28,1,.43,1.48s.35,1.2.53,1.81h0l.18.6c.32,1.05.63,2.11,1,3.17.23.79.47,1.58.72,2.36l0,.12c.33,1.05.65,2.1,1,3.16a.09.09,0,0,0,0,.05c0,.1.07.2.1.29.14.46.28.93.43,1.39.24.78.48,1.56.73,2.34q.82,2.58,1.65,5.13a0,0,0,0,0,0,0q.84,2.56,1.69,5.12c.13.41.27.82.41,1.23.21.62.41,1.24.63,1.86s.48,1.44.73,2.16l.15.46.15.41.06.19q.83,2.42,1.68,4.83l.18.51.4,1.15q.86,2.43,1.74,4.84c.26.73.52,1.46.79,2.18l.27.75c.38,1,.76,2.07,1.15,3.11.22.62.45,1.23.69,1.85q1,2.66,2,5.3.82,2.17,1.68,4.34c.45,1.16.9,2.31,1.36,3.45.54,1.38,1.09,2.76,1.65,4.13q1.18,3,2.4,5.88l.16.39c.54,1.3,1.08,2.6,1.63,3.89a1.12,1.12,0,0,0,.05.13l.39.92c.15.37.31.74.47,1.1.22.53.45,1.07.68,1.6.36.84.72,1.69,1.09,2.53q1.35,3.15,2.74,6.27l.45,1c.85,1.91,1.7,3.82,2.57,5.72,5.29,11.63,13.62,24.89,26.39,24.56,3.82-18.18,7.56-37.59.82-54.89-.16-.41-.32-.82-.5-1.22l0-.08c-.1-.24-.2-.48-.31-.71a1.89,1.89,0,0,0-.11-.25l-.21-.48c-.21-.45-.42-.9-.64-1.34s-.29-.59-.44-.88-.23-.46-.35-.68l0,0-.12-.23c0-.05-.05-.11-.08-.16a0,0,0,0,0,0,0,.47.47,0,0,0-.05-.1l-.1-.19a.35.35,0,0,0-.05-.08l-.13-.26c-.06-.1-.11-.2-.16-.3s-.12-.2-.17-.3-.22-.4-.34-.6-.29-.51-.44-.76-.41-.72-.63-1.08l-.21-.36-.33-.55,0-.05v0a0,0,0,0,1,0,0h0c-.38-.62-.77-1.25-1.17-1.87a1.2,1.2,0,0,0-.11-.17c-1.65-2.62-3.39-5.2-5.07-7.8v0l0,0c-.28-.43-.56-.86-.83-1.3-.12-.17-.23-.35-.35-.53l-.21-.34c-.32-.51-.64-1-.95-1.53-7.08-11.55-12.17-24.18-17.23-36.75l-24.75-61.43c-.16-.4-.32-.81-.47-1.22s-.28-.75-.41-1.13-.26-.74-.38-1.12-.26-.81-.38-1.21-.22-.75-.32-1.13c-.31-1.12-.58-2.26-.81-3.4-.07-.32-.13-.65-.18-1-.1-.55-.18-1.1-.25-1.64a3.93,3.93,0,0,1-.06-.48c0-.16,0-.32-.05-.48,0-.35-.07-.7-.1-1,0,0,0-.07,0-.1s0-.21,0-.31,0-.22,0-.33,0-.34,0-.51v-.1c0-.3,0-.6,0-.9s0-.37,0-.55,0-.3,0-.45v-.11a1.34,1.34,0,0,0,0-.2c0-.11,0-.22,0-.33a.17.17,0,0,0,0-.07,1.28,1.28,0,0,1,0-.19c0-.17,0-.34.05-.51s.06-.55.09-.81.11-.69.17-1,.14-.67.22-1,.18-.65.28-1,.12-.36.19-.53.13-.34.2-.51.14-.33.22-.5a10.46,10.46,0,0,1,.64-1.19c.11-.19.24-.38.36-.56l.4-.54c.2-.25.41-.48.63-.72s.37-.37.57-.55l.06-.05.19-.16.13-.11h0l.11-.1q.39-.3.81-.57l.19-.12a6.65,6.65,0,0,1,.58-.33l.23-.12.3-.15.55-.24c6.81-2.78,14.67,2.4,17.85,9,.17.36.34.73.49,1.1l.11.26a1.8,1.8,0,0,1,.08.21q.19.48.36,1c.14.38.27.77.38,1.16a2.43,2.43,0,0,1,.09.3c0,.15.09.3.13.45a2.25,2.25,0,0,1,.09.35c.07.23.13.47.18.71s.18.77.26,1.15.16.78.23,1.16c.16.87.29,1.75.4,2.63.09.72.17,1.44.24,2.17,0,.08,0,.16,0,.24.06.61.11,1.22.16,1.83s.07.93.11,1.39c0,.25,0,.51.05.76s0,.41,0,.62c0,.51.07,1,.11,1.53l0,.38c0,.75.11,1.5.18,2.24,1.32,14.5,8.69,31.21,23.14,33,1.72,25.77,3.51,51.91,12,76.32q1.28,3.69,2.75,7.3c0,.07.06.14.08.2q1.23,3,2.59,5.92c.29.63.58,1.25.88,1.87.53,1.11,1.08,2.21,1.64,3.31l.26.5q.25.51.54,1,.63,1.2,1.29,2.4l.07.13c.21.39.43.77.65,1.16l.66,1.16c.41.72.83,1.43,1.26,2.14.08.14.16.28.25.42.36.59.72,1.18,1.09,1.77.08.14.17.27.26.41a.25.25,0,0,0,0,.07l.09.15c.67,1.07,1.36,2.13,2.07,3.19l0,.06.16.24q.57.86,1.17,1.71c.29.44.59.87.89,1.29l.07.09.71,1c.13.19.26.37.4.55.36.5.72,1,1.09,1.48.22.31.45.61.69.91.55.73,1.11,1.45,1.68,2.17.28.36.56.72.85,1.07l1.4,1.72.31.36c.18.23.37.45.56.67l.21.25.44.51c.68.8,1.37,1.58,2.07,2.36l.93,1q1.05,1.15,2.13,2.28c1,1,1.93,2,2.92,3,3.73-3.56,3.49-9.53,2.57-14.6s-2.18-10.61.26-15.15,10.55-5.69,12.15-.79c-2.93-26.46-3.42-58.56,18.7-73.36,1.55-1,3.4-2,5.2-1.52,2.2.57,3.33,2.93,4.17,5,6.88,17.38,16.74,38.26,35.41,39.24q1.26-11.37,2.53-22.75l14.16,11.38c-2.6-6.07,6-11.81,12.32-9.85s10.36,7.86,14.95,12.61c.44.46.89.91,1.35,1.34s.77.73,1.16,1.08c0,0,0,0,0,0l1.28,1.1c.45.38.9.74,1.37,1.1l.47.36c.31.24.63.48,1,.71s.91.65,1.38,1q.36.26.72.48l.74.47c1.19.75,2.4,1.44,3.65,2.08l.33.17.32.16.53.26.93.44.06,0h0l.69.31c.39.18.79.35,1.2.52s1,.39,1.43.57l.19.07c.51.19,1,.37,1.52.54l.78.26c.61.2,1.22.39,1.84.56a3.45,3.45,0,0,0,.43.12Z" fill="#57cde9"/>
      <path d="M82.82,430.61c.16-.62.32-1.24.47-1.86A1.55,1.55,0,0,1,82.82,430.61Z" fill="none"/>
      <path d="M448,586.71l27.91-1.32q-12.24,1.22-24.55,1.54A13.48,13.48,0,0,1,448,586.71Z" fill="none"/>
      <path d="M566.27,502.9c-.19-1.06-.36-2.14-.52-3.24C566.85,500.54,567.35,501.85,566.27,502.9Z" fill="none"/>
      <path d="M478,369.77c37.64,19,79.84,32.52,120,48v48.1l-.42-.12a3.45,3.45,0,0,1-.43-.12c-.62-.17-1.23-.36-1.84-.56l-.78-.26c-.51-.17-1-.35-1.52-.54l-.19-.07c-.48-.18-1-.37-1.43-.57s-.81-.34-1.2-.52l-.69-.31h0l-.06,0-.93-.44-.53-.26-.32-.16-.33-.17c-1.25-.64-2.46-1.33-3.65-2.08l-.74-.47q-.36-.23-.72-.48-.71-.46-1.38-1c-.33-.23-.65-.47-1-.71l-.47-.36c-.47-.36-.92-.72-1.37-1.1l-1.28-1.1s0,0,0,0c-.39-.35-.78-.71-1.16-1.08s-.91-.88-1.35-1.34c-4.59-4.75-8.65-10.65-14.95-12.61s-14.92,3.78-12.32,9.85l-14.16-11.38q-1.26,11.37-2.53,22.75c-18.67-1-28.53-21.86-35.41-39.24-.84-2.11-2-4.47-4.17-5-1.8-.47-3.65.48-5.2,1.52-22.12,14.8-21.63,46.9-18.7,73.36-1.6-4.9-9.71-3.76-12.15.79s-1.18,10.07-.26,15.15,1.16,11-2.57,14.6c-1-1-2-2-2.92-3q-1.08-1.12-2.13-2.28l-.93-1c-.7-.78-1.39-1.56-2.07-2.36l-.44-.51c-.26-.31-.52-.61-.77-.92l-.31-.36-1.4-1.72c-.29-.35-.57-.71-.85-1.07-.57-.72-1.13-1.44-1.68-2.17-.24-.3-.47-.6-.69-.91-.37-.49-.73-1-1.09-1.48-.14-.18-.27-.36-.4-.55l-.71-1-.07-.09c-.3-.42-.6-.85-.89-1.29s-.79-1.14-1.17-1.71l-.16-.24,0-.06c-.71-1.06-1.4-2.12-2.07-3.19l-.09-.15a.25.25,0,0,1,0-.07c-.09-.14-.18-.27-.26-.41-.37-.59-.73-1.18-1.09-1.77-.09-.14-.17-.28-.25-.42-.43-.71-.85-1.42-1.26-2.14l-.66-1.16c-.22-.39-.44-.77-.65-1.16l-.07-.13q-.66-1.2-1.29-2.4-.29-.51-.54-1l-.26-.5c-.56-1.1-1.11-2.2-1.64-3.31-.3-.62-.59-1.24-.88-1.87q-1.37-2.94-2.59-5.92c0-.06,0-.13-.08-.2q-1.47-3.62-2.75-7.3c-8.45-24.41-10.24-50.55-12-76.32-14.45-1.83-21.82-18.54-23.14-33-.07-.74-.13-1.49-.18-2.24l0-.38c0-.51-.08-1-.11-1.53s-.07-.92-.1-1.38-.07-.93-.11-1.39-.1-1.22-.16-1.83c0-.08,0-.16,0-.24-.07-.73-.15-1.45-.24-2.17-.11-.88-.24-1.76-.4-2.63-.07-.38-.14-.77-.23-1.16s-.16-.77-.26-1.15-.11-.48-.18-.71a2.25,2.25,0,0,0-.09-.35c0-.15-.08-.3-.13-.45a2.43,2.43,0,0,0-.09-.3c-.11-.39-.24-.78-.38-1.16s-.23-.64-.36-1a1.8,1.8,0,0,0-.08-.21l-.11-.26c-.15-.37-.32-.74-.49-1.1-3.18-6.63-11-11.81-17.85-9l-.55.24-.3.15-.23.12a6.65,6.65,0,0,0-.58.33l-.19.12q-.42.27-.81.57l-.09.07,0,0h0l-.13.11-.19.16-.06.05c-.2.18-.39.37-.57.55s-.43.47-.63.72l-.4.54c-.12.18-.25.37-.36.56a10.46,10.46,0,0,0-.64,1.19c-.08.17-.15.33-.22.5s-.14.34-.2.51-.13.35-.19.53-.19.63-.28,1-.15.66-.22,1-.12.68-.17,1-.07.53-.09.81,0,.34-.05.51a1.28,1.28,0,0,0,0,.19.17.17,0,0,1,0,.07c0,.11,0,.22,0,.33a1.34,1.34,0,0,1,0,.2v.11c0,.15,0,.3,0,.45s0,.36,0,.55,0,.6,0,.9v.1c0,.17,0,.34,0,.51s0,.22,0,.33,0,.2,0,.31,0,.06,0,.1c0,.34.06.69.1,1,0,.16,0,.32.05.48a3.93,3.93,0,0,0,.06.48c.07.54.15,1.09.25,1.64.05.32.11.65.18,1,.23,1.14.5,2.28.81,3.4.1.38.21.75.32,1.13s.25.81.38,1.21.25.75.38,1.12.27.76.41,1.13.31.82.47,1.22l24.75,61.43c5.06,12.57,10.15,25.2,17.23,36.75.31.51.63,1,.95,1.53l.21.32v0c.12.18.23.36.35.53.27.44.55.87.83,1.3l0,0v0c1.68,2.6,3.42,5.18,5.07,7.8a1.2,1.2,0,0,1,.11.17c.4.62.79,1.25,1.17,1.87h0a0,0,0,0,0,0,0v0l0,.05.33.55.21.36q.33.54.63,1.08c.15.25.3.5.44.76s.28.48.4.73.18.31.27.47l.13.26a.35.35,0,0,1,.05.08c.12.22.24.44.34.66a.14.14,0,0,1,.05.08c.12.22.24.45.35.68s.3.58.44.88.43.89.64,1.34l.21.48a1.89,1.89,0,0,1,.11.25c.11.23.21.47.31.71l0,.08c.17.4.34.81.5,1.22,6.74,17.3,3,36.71-.82,54.89-12.77.33-21.1-12.93-26.39-24.56-.87-1.9-1.72-3.81-2.57-5.72l-.45-1q-1.39-3.12-2.74-6.27c-.37-.84-.73-1.69-1.09-2.53-.23-.53-.46-1.07-.68-1.6-.16-.36-.32-.73-.47-1.1l-.39-.92a1.12,1.12,0,0,1-.05-.13c-.55-1.29-1.09-2.59-1.63-3.89l-.16-.39q-1.22-2.93-2.4-5.88c-.56-1.37-1.11-2.75-1.65-4.13-.46-1.14-.91-2.29-1.36-3.45q-.86-2.16-1.68-4.34-1-2.64-2-5.3c-.24-.62-.47-1.23-.69-1.85-.39-1-.77-2.07-1.15-3.11l-.27-.75c-.27-.72-.53-1.45-.79-2.18q-.88-2.42-1.74-4.84l-.4-1.15-.18-.51q-.85-2.42-1.68-4.83l-.21-.6-.15-.46c-.25-.72-.49-1.44-.73-2.16s-.42-1.24-.63-1.86c-.14-.41-.28-.82-.41-1.23q-.86-2.55-1.69-5.12a0,0,0,0,1,0,0q-.82-2.55-1.65-5.13c-.25-.78-.49-1.56-.73-2.34-.18-.56-.36-1.12-.53-1.68a.09.09,0,0,1,0-.05c-.33-1.06-.65-2.11-1-3.16-.08-.27-.16-.54-.25-.81-.17-.56-.34-1.12-.5-1.67-.32-1.06-.63-2.12-1-3.17-.06-.2-.12-.4-.17-.6h0c-.18-.61-.35-1.21-.53-1.81s-.29-1-.43-1.48c-.59-2-1.16-4-1.72-6-.52-1.82-1-3.64-1.52-5.47q-1.18-4.33-2.31-8.69c-.06-.2-.11-.4-.16-.6-.25-.94-.49-1.89-.73-2.84,0-.05,0-.1,0-.15-.34-1.34-.68-2.68-1-4-2.22-8.93-4.49-18.33-10.7-25.12-10.81,11.06,2.33,29.33,2.21,44.6,0,.14,0,.29,0,.42s0,.34,0,.5a2.55,2.55,0,0,1,0,.39q0,.56-.09,1.11,0,.36-.09.72c0,.32-.09.63-.16.94,0,.13-.05.27-.08.4s0,.06,0,.09c-.05.23-.11.47-.17.7s-.1.41-.17.61-.18.58-.28.87a2,2,0,0,1-.1.26.64.64,0,0,1,0,.07c-.07.19-.15.38-.23.57,0,0,0,.07,0,.11l-.18.39c-.17.38-.36.75-.56,1.12-2.23,4-6.13,7-8.26,11.06-6.06,11.59,4.12,27.09-2.46,38.39-1-4.49-8.94-4.53-10-.06a12.85,12.85,0,0,0-8.53-9.43A178,178,0,0,0,298,475.62c-8.81.42-16.67-6.37-20.32-14.4s-4-17.11-4.21-25.92q-.87-30.26-1.75-60.5c-6.7,4.24-6,13.93-6.51,21.84s-7.29,17.61-14.32,13.93a21.15,21.15,0,0,1-3.16,14c-14.23-10.06-14.73-30.6-13.8-48q.38-7.15.76-14.32l1-18.61.66-12.3c.22-4.24.4-8.72-1.59-12.48-3.85-7.28-15.07-10.57-14.91-18.81-7.43,2.55-7,13.44-3.38,20.41s9.16,14.23,7.09,21.81a41.94,41.94,0,0,0-10-19.19l-.32.05-.32.06a5.26,5.26,0,0,0-.6.15l-.16.05a5.12,5.12,0,0,0-.65.25l-.29.13a5.42,5.42,0,0,0-.48.26,1.67,1.67,0,0,0-.28.18,1.28,1.28,0,0,0-.21.14c-.15.11-.3.22-.45.35a3.62,3.62,0,0,0-.41.38,6.31,6.31,0,0,0-.55.6l-.2.27a2.11,2.11,0,0,0-.18.27,5.14,5.14,0,0,0-.32.49c-.14.25-.27.5-.39.76a8,8,0,0,0-.34.8c-.1.28-.19.56-.28.85s-.16.59-.22.89-.11.55-.15.83a.3.3,0,0,0,0,.1q-.06.33-.09.66c0,.28-.06.56-.08.85,0,.66-.06,1.33,0,2,0,.09,0,.18,0,.28v.07a.17.17,0,0,0,0,.07.34.34,0,0,0,0,.1c0,.25,0,.5.05.75s0,.58.08.86c0,.12,0,.24.05.36s0,.28,0,.42a1.55,1.55,0,0,0,0,.21v.05c0,.08,0,.15,0,.23,0,.24.08.48.13.71l.06.3a.3.3,0,0,0,0,.1c0,.25.1.49.16.73.14.6.3,1.2.49,1.78.1.34.21.68.33,1s.15.42.23.62c.16.41.32.81.5,1.19l.06.14q.41.89.81,1.8c.14.31.27.62.4.93s.27.63.4.95c.21.52.42,1.05.62,1.58,0,.12.09.23.13.35s.09.25.14.37.14.41.22.61a1.09,1.09,0,0,0,.05.17c.17.47.32,1,.46,1.42,0,0,0,0,0,0,.1.3.19.61.27.91,0,.13.08.26.11.38v0s0,0,0,0h0c.07.27.13.53.19.79l0,.11a.36.36,0,0,0,0,.1c.05.19.09.39.13.58s.05.26.08.39,0,0,0,0,0,.16,0,.24c.05.25.09.49.12.73s.06.38.08.56,0,.27.05.41,0,.08,0,.12c0,.27.05.53.06.8s0,.61,0,.91a10.37,10.37,0,0,1,0,1.25.22.22,0,0,1,0,.08,0,0,0,0,1,0,0,.22.22,0,0,1,0,.08c0,.25-.06.5-.1.74a0,0,0,0,1,0,0,.59.59,0,0,1,0,.13,2.29,2.29,0,0,1-.07.36l-.12.51a1.32,1.32,0,0,1-.08.3.66.66,0,0,1-.06.2.65.65,0,0,1,0,.13,1.72,1.72,0,0,1-.07.21.58.58,0,0,1,0,.14h0c-.07.19-.15.38-.23.57a3.13,3.13,0,0,1-.22.45.61.61,0,0,1-.07.14,6.78,6.78,0,0,1-.65,1,6,6,0,0,1-.39.49,8,8,0,0,1-.91.93l-.13.11c-.13.11-.26.22-.4.32-.72-1-1.42-1.93-2.1-2.92l-.28-.42-.58-.87c-.06-.09-.12-.18-.17-.27s-.3-.46-.44-.69l-.42-.67c-.28-.44-.56-.89-.82-1.34s-.61-1-.9-1.55l-.51-.91-.32-.59-.32-.61c-.1-.19-.2-.38-.29-.57q-1.59-3.06-2.91-6.26c-.2-.47-.39-.95-.57-1.42s-.37-.95-.55-1.43c-.32-.85-.62-1.71-.91-2.58-.14-.42-.28-.85-.41-1.28l-.15-.47c-.21-.67-.4-1.34-.6-2,0-.12-.07-.24-.1-.37l-.27-1c-.09-.34-.18-.68-.26-1,0-.06,0-.12-.05-.18s-.07-.28-.1-.43c-.14-.57-.27-1.14-.39-1.72-.05-.22-.1-.43-.14-.65s-.11-.5-.16-.76l0-.08,0-.15s0-.09,0-.13c-.1-.51-.19-1-.28-1.54-.14-.73-.26-1.47-.36-2.21s-.21-1.47-.3-2.2c-.06-.47-.11-.94-.16-1.42-.07-.74-.14-1.48-.19-2.22,0-.22,0-.44-.05-.66,0-.53-.07-1.07-.09-1.61l0-.63c0-1-.06-2-.06-3.05s0-2.21.07-3.31c-.79,2.45-4.78,3.69-7.24,2.13-2.92-1.85-3.92-5.58-4.69-8.95q-2.76-12.19-5.53-24.38c-.6-2.64-1.28-5.43-3.21-7.33-4-4-11.43-1.57-14.39,3.24s-2.72,10.88-2.18,16.51c.08.85.17,1.71.26,2.56.11,1,.22,2.08.35,3.13.15,1.28.31,2.57.48,3.86q.4,3.18.89,6.34t1,6l.48,2.87q.45,2.7.94,5.4c.76,4.33,1.56,8.67,2.37,13,.13.76.27,1.53.42,2.3l.93,5.11q.66,3.69,1.29,7.4c0,.13.05.26.07.4q.49,2.93,1,5.88l.21,1.34c.45,2.87.86,5.76,1.23,8.65,0,.26.07.52.1.78.06.47.12.95.17,1.42.1.76.19,1.52.27,2.27s.19,1.71.28,2.56q.16,1.62.3,3.24c.08.8.15,1.6.2,2.4a0,0,0,0,1,0,0c0,.19,0,.38,0,.56s0,.22,0,.32a.06.06,0,0,1,0,.06c.08,1,.14,1.95.19,2.92,0,.65.07,1.3.1,2a.19.19,0,0,1,0,.08V390a.13.13,0,0,1,0,.06c0,.57,0,1.15.07,1.73,0,.18,0,.36,0,.54l0,1c0,.12,0,.24,0,.36v.13l0,1.44a.38.38,0,0,1,0,.15c.05,2.29,0,4.59,0,6.88l0,1.29a.66.66,0,0,1,0,.14v.06l0,1,0,.66c0,.26,0,.52,0,.78,0,.76-.07,1.52-.13,2.28,0,.35,0,.7-.07,1a1.42,1.42,0,0,1,0,.29c0,.1,0,.21,0,.31a1.84,1.84,0,0,1,0,.33c0,.54-.08,1.08-.13,1.63v0c-.06.64-.12,1.28-.19,1.92-.12,1.29-.28,2.59-.45,3.88v0s0,.06,0,.09l-.21,1.55c-.21,1.47-.45,2.94-.72,4.4l-.09.47c0,.08,0,.17,0,.26q-.45,2.39-1,4.74l-.39,1.6c-.18.71-.36,1.41-.55,2.12-.15.55-.3,1.09-.46,1.64-.1.36-.21.73-.32,1.09,0,.14-.08.28-.13.41l-.13.46v0l-.09.27c-.2.66-.41,1.32-.64,2a2.25,2.25,0,0,1-.08.24l-.34,1-.09.26c-.14.4-.29.8-.44,1.2a.52.52,0,0,1-.06.16c0,.09-.06.19-.1.29q-.21.58-.45,1.17l-.12.31c-.1.26-.2.52-.31.77l-.39,1a1.11,1.11,0,0,1-.07.16c-.15.36-.3.71-.46,1.07-.35.83-.72,1.65-1.11,2.47-.12.26-.25.53-.38.79,0,.09-.08.17-.13.26-.16.35-.33.69-.5,1l-.56,1.09-.22.42c-.09.18-.18.35-.28.52-.25.47-.5.93-.76,1.39s-.56,1-.85,1.47-.74,1.26-1.13,1.88c-8.47-4.55-8.81-16.37-8-25.95q.86-9.69,1.79-19.38c0-.59.11-1.17.17-1.76.24-2.56.49-5.13.75-7.69q.48-4.81,1-9.61.33-3.32.69-6.63c.23-2.21.46-4.43.71-6.64.09-.9.19-1.8.29-2.7v0s0,0,0,0a.06.06,0,0,1,0-.06s0,0,0,0c0-.57.11-1.13.18-1.69,0-.3.06-.59.1-.88q.3-2.83.63-5.67c.1-1,.21-2,.33-2.95,0-.38.08-.77.13-1.15.23-2,.45-4,.68-6q.62-5.28,1.25-10.57.7-5.93,1.45-11.87c.67-5.45,1.34-11.17-.58-16.32s-7.35-9.45-12.69-8.14c-5.69,1.41-8.27,7.91-9.78,13.58-.35,1.33-.7,2.67-1,4,0,.13-.07.26-.1.39-.08.33-.16.65-.23,1q-.24.93-.45,1.86c-.07.26-.13.53-.19.8l-.18.78-.3,1.32c-.09.41-.19.82-.27,1.23,0,.17-.08.35-.11.52-.11.45-.2.9-.29,1.35-.2.91-.39,1.81-.56,2.72-.13.57-.24,1.15-.35,1.73,0,.22-.09.44-.12.67s-.09.42-.13.64c-.08.38-.15.77-.21,1.15s-.15.77-.22,1.15v0q-.18.94-.33,1.89c0,.23-.08.45-.11.68a1.42,1.42,0,0,0,0,.2,2.17,2.17,0,0,0,0,.25c0,.21-.08.41-.1.62-.1.55-.19,1.11-.27,1.66s-.16,1-.23,1.45-.12.75-.17,1.12a2.17,2.17,0,0,0,0,.25c-.09.61-.18,1.23-.26,1.84,0,.21-.07.43-.09.64-.11.77-.22,1.53-.32,2.3v0c0,.3-.08.6-.11.89-.06.46-.12.92-.17,1.38-.1.83-.2,1.66-.29,2.48q-.09.72-.15,1.44a2.45,2.45,0,0,0,0,.38c-.12,1.09-.23,2.17-.32,3.26-.06.5-.1,1-.13,1.5-.08.69-.13,1.39-.18,2.09a.29.29,0,0,0,0,.13c0,.55-.09,1.11-.12,1.66a1,1,0,0,0,0,.29c-.06.61-.1,1.22-.14,1.84,0,.32,0,.65-.05,1s0,.66-.06,1a4.93,4.93,0,0,0,0,.55.42.42,0,0,0,0,.16,4.36,4.36,0,0,0,0,.51c0,.16,0,.31,0,.47a.61.61,0,0,0,0,.19c0,.17,0,.34,0,.5,0,.32,0,.63,0,.94-.06,1.14-.1,2.28-.14,3.42,0,.09,0,.18,0,.27,0,1-.06,2-.07,3a1,1,0,0,0,0,.24,0,0,0,0,0,0,0c0,.12,0,.24,0,.36a.29.29,0,0,0,0,.13s0,0,0,0,0,.21,0,.31a.43.43,0,0,0,0,.16h0s0,0,0,0a0,0,0,0,0,0,0,0,0,0,0,0,0,0,0,0,0,0,0,0,0,.11.11,0,0,0,0,.08,0,0,0,0,0,0,0s0,0,0,0a0,0,0,0,0,0,0s0,0,0,0a0,0,0,0,0,0,0s0,0,0,0v0a.41.41,0,0,0,0,.11,4.86,4.86,0,0,0,0,.54q0,1.61,0,3.21c0,1,0,2.07,0,3.11s0,1.9,0,2.85,0,1.9.08,2.84c0,.74,0,1.47.08,2.2s.05,1.3.08,1.95c0,.32,0,.64,0,1,.06,1.23.13,2.47.22,3.7,0,.35,0,.69.07,1,.06,1,.14,2,.22,3,.1,1.24.2,2.48.32,3.72,0,.08,0,.15,0,.22a2.29,2.29,0,0,1,0,.25c.11,1.09.22,2.17.34,3.25a1.23,1.23,0,0,0,0,.2q.14,1.31.3,2.61a.37.37,0,0,0,0,.11,3.32,3.32,0,0,0,.06.44c0,.34.07.68.12,1a.37.37,0,0,0,0,.11c0,.16,0,.31.06.46s0,0,0,0a.59.59,0,0,0,0,.14c0,.27.06.54.1.8a1.1,1.1,0,0,0,0,.18l.06.46c0,.18,0,.35.07.52s0,.2,0,.29l.21,1.52c.13.91.26,1.82.4,2.73l.09.59.09.59q.57,3.62,1.23,7.22c0,.13.05.26.07.4s.05.25.07.38l.09.48.39,2c.11.57.22,1.13.34,1.69.05.26.1.52.16.78.11.55.22,1.09.34,1.63.15.73.31,1.45.48,2.18.09.43.19.86.29,1.29.25,1.11.51,2.23.78,3.34.21.88.43,1.77.65,2.65l.19.76.51,2a0,0,0,0,0,0,0c0,.17.09.34.13.52l.09.32c.26,1,.53,2,.81,3,.12.45.25.89.38,1.34.07.28.15.55.24.83s.19.69.3,1c.33,1.16.68,2.32,1,3.48.25.82.51,1.65.77,2.47-.44-.45-.87-.9-1.29-1.36l-.75-.83a1.34,1.34,0,0,1-.11-.14l-.4-.45-.09-.11-.38-.45-.66-.79c-.4-.5-.81-1-1.2-1.53s-.57-.77-.85-1.16c-.45-.61-.88-1.24-1.3-1.86l0-.06c-.42-.63-.83-1.25-1.22-1.89-.09-.13-.17-.26-.25-.4l-.48-.79c-.32-.53-.63-1.07-.94-1.61s-.6-1.08-.89-1.63c-.59-1.1-1.15-2.21-1.69-3.34-.23-.48-.46-1-.68-1.45l-.11-.24c-.1-.24-.21-.47-.31-.71s-.2-.43-.29-.65c-.26-.59-.51-1.18-.76-1.78q-.78-1.89-1.5-3.84c-.24-.65-.48-1.31-.71-2s-.46-1.32-.68-2c-.16-.47-.32-1-.47-1.42s-.34-1.05-.5-1.58c-.38-1.2-.75-2.41-1.1-3.62-.11-.39-.23-.79-.34-1.19s-.17-.61-.26-.92l-.09-.31-.13-.49a.08.08,0,0,1,0,0c-.08-.28-.15-.56-.23-.84-.16-.56-.31-1.13-.45-1.69s-.33-1.22-.48-1.83c-.32-1.22-.63-2.45-.93-3.67l-.54-2.19-.45-1.84c-.11-.49-.23-1-.35-1.45l-.09-.39a5.07,5.07,0,0,0-4.19.43,4.4,4.4,0,0,0-.45.3l-.29.23-.14.12a3.26,3.26,0,0,0-.33.31,5.22,5.22,0,0,0-.39.43.81.81,0,0,0-.09.1l-.13.17a.28.28,0,0,0-.07.09l-.08.1-.11.15-.08.11,0,0-.2.3c-.11.18-.22.36-.32.55a6.36,6.36,0,0,0-.3.58c-.09.18-.18.36-.25.54s-.19.44-.28.67-.25.69-.36,1a17.7,17.7,0,0,0-.48,1.84l-.15.75c0,.11,0,.21,0,.32s-.07.43-.1.64-.05.36-.06.54a.15.15,0,0,0,0,.07s0,0,0,0a0,0,0,0,0,0,0s0,.06,0,.1v0s0,.05,0,.08c0,.2,0,.4,0,.6s0,.49,0,.73a22.47,22.47,0,0,0,.11,3.7q4.26,36.19,8.53,72.4A118.1,118.1,0,0,1,97.74,444.8l.12-1.88c0-.29,0-.58.07-.87v0a.81.81,0,0,1,0-.16c0-.49.08-1,.13-1.47s.11-1.19.17-1.78c.07-.75.16-1.51.25-2.26.06-.54.12-1.07.2-1.61s.13-1.08.21-1.61.13-1,.2-1.47.13-.92.2-1.38.16-1.09.25-1.63c.21-1.37.43-2.73.66-4.09l.06-.37q.47-2.81,1-5.59c0-.25.09-.5.13-.75.34-1.92.68-3.85,1-5.77.17-.93.33-1.87.48-2.8.2-1.24.4-2.48.59-3.73s.35-2.33.51-3.5c.08-.55.15-1.09.22-1.64.11-.78.2-1.55.29-2.34.06-.48.11-1,.16-1.46,0-.12,0-.24,0-.37s0-.56.08-.85a1.94,1.94,0,0,0,0-.24q.13-1.35.24-2.7c0-.62.09-1.25.13-1.87s.08-1.26.1-1.88c.06-1.26.1-2.51.11-3.77-.23,4.71-7.91.69-8.54-4s-2.94-11.59-7.19-9.56a215.25,215.25,0,0,1-6.32,57.36A2.54,2.54,0,0,0,81,427c-1.8,0-3.17,1.57-4.12,3.09-.37.6-.72,1.2-1,1.81s-.61,1.23-.87,1.86a27.54,27.54,0,0,0-1.27,3.85q-.24,1-.42,2c-.07.41-.14.82-.19,1.23a5.93,5.93,0,0,0-.07.59,4.26,4.26,0,0,0-.06.5s0,.05,0,.07c0,.37-.07.73-.09,1.1s0,.79-.06,1.18,0,.94,0,1.41,0,1,0,1.45a3.17,3.17,0,0,0,0,.43,0,0,0,0,0,0,0,.24.24,0,0,0,0,.12.76.76,0,0,0,0,.15c0,.79.09,1.59.17,2.39,0,0,0,0,0,.08a.49.49,0,0,0,0,.12.62.62,0,0,1,0,.13,2.51,2.51,0,0,0,0,.27,1.94,1.94,0,0,0,0,.24c0,.11,0,.21,0,.32s0,.27,0,.4c.05.47.12.94.2,1.41,0,.08,0,.17,0,.26q.12.89.3,1.77c.08.46.17.92.26,1.38.12.63.26,1.26.41,1.89q.08.39.18.78a2.74,2.74,0,0,0,.09.39,2.25,2.25,0,0,0,0,.22c0,.13.07.27.1.41s.13.51.2.77a2.46,2.46,0,0,0,.07.29c0,.1,0,.2.08.29h0c.39,1.49.81,3,1.25,4.44s.88,2.91,1.34,4.33q10.36,32.34,20.71,64.66a126.28,126.28,0,0,1-27.67-59.42q-.27,16-.55,31.94c-.64-1.39-1.26-2.79-1.84-4.2-.12-.27-.23-.54-.34-.82l-.36-.89c-.23-.56-.45-1.13-.66-1.7-.08-.19-.15-.39-.22-.59-.2-.51-.39-1-.57-1.54s-.46-1.28-.68-1.93-.49-1.44-.72-2.17c-.18-.56-.36-1.12-.53-1.68q-.33-1.08-.63-2.16c-.21-.72-.41-1.44-.6-2.17s-.38-1.45-.56-2.18-.35-1.44-.51-2.16-.3-1.34-.44-2c0-.18-.07-.36-.11-.54s-.07-.36-.11-.54h0c-.17-.85-.33-1.71-.49-2.56,0-.28-.1-.56-.14-.84-.1-.57-.19-1.14-.28-1.71,0-.24-.08-.47-.11-.71s-.1-.72-.16-1.08c0-.17-.05-.33-.07-.51s-.07-.57-.11-.85l-.15-1.21c0-.12,0-.24,0-.35a2.42,2.42,0,0,1,0-.25c0-.11,0-.21,0-.31-.05-.43-.09-.86-.14-1.29,0-.07,0-.15,0-.23-.06-.63-.12-1.27-.17-1.9a1.64,1.64,0,0,1,0-.22c-.06-.64-.1-1.27-.15-1.91,0-.09,0-.18,0-.27,0-.37,0-.74-.07-1.12l-.06-1.28c0-.17,0-.34,0-.52q0-1.05-.06-2.1,0-.66,0-1.32c0-1.18,0-2.36,0-3.54a9.94,9.94,0,0,1-12.37-15.52q-.45,5.75-.92,11.5l1-.88.4-.34.18-.16.27-.23h0l.28-.26a2.19,2.19,0,0,0,.23-.21c.47-.4.93-.83,1.39-1.26l.6-.57c.42-.39.84-.8,1.25-1.22l0,0c.18-.17.36-.35.52-.53s.57-.58.84-.87a1.42,1.42,0,0,0,.12-.13c.21-.21.4-.41.58-.62s.35-.37.5-.55t0,0a2.19,2.19,0,0,0,.21-.23c.09-.09.17-.19.25-.28s.15-.17.22-.25c.25-.27.49-.55.72-.83s.47-.54.69-.81l.59-.72.82-1c.75-.95,1.48-1.91,2.18-2.9l.6-.85.24-.35c.24-.33.46-.67.68-1s.54-.81.8-1.22.53-.82.79-1.24c.77-1.25,1.51-2.51,2.21-3.8.38-.68.75-1.38,1.1-2.07.72-1.39,1.39-2.8,2-4.23q.48-1.08.93-2.16c.6-1.45,1.17-2.91,1.69-4.39.13-.37.26-.74.38-1.11s.26-.73.37-1.11l.12-.37c.21-.63.4-1.27.59-1.9s.43-1.5.63-2.25.37-1.38.53-2.08c.13-.49.24-1,.34-1.47,0-.19.09-.38.13-.57a.78.78,0,0,0,0-.21,1,1,0,0,0,.06-.25.47.47,0,0,0,0-.17.6.6,0,0,0,0-.24c.14-.63.27-1.26.38-1.9s.28-1.54.4-2.32c.1-.58.18-1.16.26-1.74s.14-1,.19-1.46a1.37,1.37,0,0,0,0-.19c.06-.43.11-.85.15-1.27.08-.78.16-1.56.22-2.34s.09-1.29.13-1.93c0-.27,0-.53,0-.8a21.58,21.58,0,0,0,0-.67.76.76,0,0,0,0-.15c0-.1,0-.2,0-.31,0-.29,0-.57,0-.86a.29.29,0,0,0,0-.13c0-1.45,0-2.91,0-4.36,0-.24,0-.47,0-.7s0-.46,0-.69c0-.46,0-.92-.06-1.37,0-.82-.1-1.64-.17-2.46,0-.14,0-.28,0-.43-.06-.67-.13-1.34-.21-2-.05-.43-.1-.86-.16-1.29,0,0,0,0,0,0,0-.43-.1-.86-.17-1.28a2.57,2.57,0,0,0-.06-.4c-.07-.48-.14-1-.23-1.44,0-.14,0-.28-.07-.41a2.32,2.32,0,0,0-.07-.38c0-.35-.12-.7-.19-1.05l-.15-.79c0-.11-.05-.22-.07-.34-.09-.4-.17-.81-.27-1.21a1.1,1.1,0,0,0-.06-.26c-.07-.35-.15-.71-.24-1.05h0c-.12-.52-.25-1-.39-1.55-.06-.27-.14-.53-.21-.8s-.21-.78-.33-1.17c-.06-.2-.12-.4-.17-.59s-.14-.47-.22-.7c-.13-.46-.27-.91-.43-1.36,0-.15-.09-.29-.14-.44s-.07-.22-.11-.33-.07-.23-.12-.34a.56.56,0,0,0,0-.12,2.25,2.25,0,0,0-.08-.24q-.19-.58-.42-1.17c-.07-.2-.14-.4-.22-.6,0,0,0-.08,0-.13s-.12-.31-.19-.47c-.13-.37-.28-.75-.44-1.12a4.62,4.62,0,0,0-.19-.47c-.08-.22-.17-.44-.27-.65s-.25-.62-.4-.92-.15-.36-.23-.54l-.24-.52a2.64,2.64,0,0,0-.18-.38c-.14-.33-.3-.66-.46-1l-.21-.44c-.34-.7-.7-1.39-1.06-2.08l-9.08,2.25a15.11,15.11,0,0,1-2-8.37L46.17,341,46,325.19,45.63,300a8.29,8.29,0,0,1,.79-4.5c2.91-4.74,10,.15,13,4.87a46.82,46.82,0,0,0,4.13-26.53c5.2-2.33,9.36,4.8,10.65,10.35q8.5,36.61,17,73.22a107,107,0,0,0-5.92-85.73c-3.59-6.77-8.07-13.9-6.88-21.46s12.18-13,16.6-6.8c4.54,6.42-1.21,19.32,6.45,21.08.15-.88.31-1.76.49-2.64s.31-1.52.48-2.28c0-.19.09-.39.13-.58s0-.24.08-.36c.1-.45.21-.89.32-1.34l0-.14c0-.14.07-.28.11-.42l.18-.7c.09-.36.18-.71.29-1.07l.06-.24a.19.19,0,0,1,0-.07l.24-.88c.3-1.07.63-2.15,1-3.21.07-.23.14-.45.22-.67.15-.49.31-1,.48-1.46.07-.22.15-.43.23-.65s.21-.62.33-.93l.16-.45a1.3,1.3,0,0,1,.1-.25,2,2,0,0,1,.12-.34.58.58,0,0,1,0-.14c.09-.25.18-.49.28-.74s.18-.49.29-.74.14-.38.22-.58c.28-.72.58-1.44.88-2.15.13-.31.26-.62.4-.93a3.52,3.52,0,0,1,.18-.4c.06-.15.12-.3.19-.44.14-.34.29-.67.44-1,.3-.65.6-1.3.92-2,.12-.26.25-.53.38-.79.3-.61.6-1.21.91-1.81.4-.8.82-1.59,1.25-2.37s.89-1.61,1.35-2.41.88-1.49,1.33-2.23q1.45-2.4,3-4.71.22-.34.48-.69l.73-1.05.55-.75c.33-.47.67-.94,1-1.4l.19-.26.16-.21.27-.35c.17-.23.34-.45.52-.67.32-.43.65-.84,1-1.26.09-.11.17-.22.27-.33s.36-.46.55-.68a4.38,4.38,0,0,1,.29-.34.24.24,0,0,1,.06-.09c.76-.92,1.54-1.84,2.34-2.73l.36-.4c.19-.22.38-.43.58-.64l.25-.27c.21-.24.43-.47.65-.7,0,0,0,0,0,0l0,0s0,0,0,0l0,0,.06-.06c.22-.24.45-.49.69-.73,0,0,0,0,0,0s0,0,0,0l.05,0,.21-.22.28-.29c.17-.18.33-.35.51-.52a2.72,2.72,0,0,1,.24-.24c.26-.27.52-.53.8-.8l.34-.34c.11-.12.23-.23.35-.34l.9-.86a2.81,2.81,0,0,1,.31-.29l.55-.52a2,2,0,0,1,.26-.24l1.26-1.14.29-.26c.18-.17.38-.34.57-.5.41-.37.82-.72,1.24-1.07.13-.12.27-.23.41-.34l.12-.1c.31-.27.63-.53,1-.78a.27.27,0,0,1,.08-.07,3.11,3.11,0,0,1,.28-.23l.13-.1c.57-.47,1.15-.92,1.74-1.36a.13.13,0,0,1,.08-.07c.13-.11.25-.2.38-.29a.39.39,0,0,1,.1-.08c1.46-1.11,3-2.19,4.48-3.22,13-8.77,33.71-5.56,43.08,7,2.9,3.87,5.29,8.76,9.89,10.24,3.95,1.27,7.48-.38,11-2.76,6.26,5,12.19,10.33,18,15.86,9.34,8.86,18.38,18.11,28,26.64q5.76,5.1,11.77,9.85C328,308.39,404.13,330.77,471.79,366.55q3.09,1.63,6.24,3.22Z" fill="none"/>
      <path d="M109.54,422.37a193.41,193.41,0,0,1,.73-21.12" fill="none"/>
      <path d="M58.61,319.66A115.56,115.56,0,0,0,46,325.19" fill="none"/>
      <path d="M297.71,248.42c-10,.25-20.52,6.35-29.35,12.72l-2.08,1.53" fill="none"/>
    </g>
  </g>
</svg>
