<?xml version="1.0" encoding="utf-8"?>
<!-- Generator: Adobe Illustrator 23.0.1, SVG Export Plug-In . SVG Version: 6.00 Build 0)  -->
<svg version="1.1" id="Layer_1" xmlns="http://www.w3.org/2000/svg" xmlns:xlink="http://www.w3.org/1999/xlink" x="0px" y="0px"
	 viewBox="0 0 828 586" style="enable-background:new 0 0 828 586;" xml:space="preserve">
<style type="text/css">
	.st0{fill:#606060;}
	.st1{fill:url(#SVGID_1_);}
	.st2{fill:url(#SVGID_2_);}
	.st3{fill:#E8EACC;}
	.st4{fill:url(#SVGID_3_);}
	.st5{fill:#FFFFFF;}
	.st6{fill:url(#SVGID_4_);}
	.st7{fill:none;stroke:#000000;stroke-width:3;stroke-linecap:round;stroke-miterlimit:10;}
</style>
<g>
	
		<image style="overflow:visible;opacity:0.4;" width="848" height="602" xlink:href="B2B1E05B40903ACE.png"  transform="matrix(1 0 0 1 -10 -8)">
	</image>
	<g>
		
			<image style="overflow:visible;opacity:0.75;" width="816" height="570" xlink:href="B2B1E05B40903AD2.png"  transform="matrix(1 0 0 1 5.3103 8)">
		</image>
		<g>
			<path class="st0" d="M798.5,466.1l-65.8-226.7c-9.8-33.8-23-66.6-39.2-97.8c-14-26.9-36.9-48.4-65-59.9c-0.9-0.3-1.7-0.7-2.6-1
				l-64.5-24.9C517.7,39,470,35.2,424.2,45l-70.8,15.2c-17.6,3.8-35.9,2.1-52.5-4.7c-11.2-4.6-23.2-6.9-35.4-6.7l-21.9,0.4
				c-4.2,0.7-8.4,1-12.6,0.9c-0.8-2.1-2-4.1-3.5-5.8c-8-9.4-23-10-34.7-1.8l-49.4-12.8c-1.3-0.3-2.6-0.5-3.9-0.5
				c-7.1-1.7-14.5-2.7-22.1-2.7c-0.3,0-0.5,0-0.8,0c-0.3,0-0.5,0-0.7,0c-16.9,0-32.7,4.8-46.2,13.1c-0.3-0.4-0.6-0.8-0.9-1.3
				c-9.7-12.4-26-15.7-36.5-7.5S21.4,55.7,31.1,68c2,2.5,3.9,4.2,5.8,5.3c-7.7,13.5-12,29.1-12,45.7c0,25.2,10.1,48,26.3,64.6
				l16.6,19.7c9.4,11.3,19.6,21.8,30.4,31.7l17.2,53c8.4,25.8,6.9,53.7-4.2,78.4l-25.7,50.7c-10.2,20.1-10.5,43.8-0.9,64.2l0.3,0.3
				l-0.5,0.4l24.5,51.8c6.5,13.7,20,22.7,35.2,23.4l37.6,1.6c2.6,0.1,5.1-0.5,7.3-1.7c0.5,1,1.5,1.8,2.8,1.8h136.5
				c4.1,0,7.5-3,8.1-7L372,413.3c4-15.4,19.2-25.2,34.9-22.3c10.3,1.9,20.7,3.3,31.2,4.2l1.5,64.8c0.3,12.1-2.3,24.2-7.6,35.1
				l-12.3,22c-3,5-7.8,8.5-13.3,10.1l-15.8,4.5c-7.5,2.1-14.8,5-21.7,8.7l-3,1.6c-3.5,2.4-5.8,6.2-6.1,10.5c-0.2,3,2.2,5.5,5.2,5.5
				h150.6c2.8,0,5.1-2.1,5.5-4.9h0.1l58.3-161.4c3.6,2,6.9,4.6,9.8,7.6l117.3,121.3c4.4,4.5,2,12.1-4.1,13.4l-15.3,3.2
				c-6.8,1.4-13.2,4.4-18.7,8.8c-2.7,2.1-4.3,5.3-4.6,8.7c-0.2,2.5,1.8,4.6,4.3,4.6H779c2.1,0,3.9-1.6,4.1-3.7
				c0.4-3.4,1.3-6.6,2.9-9.7l8-16.1C803.8,510.2,805.5,487.1,798.5,466.1z M253.8,530.4l-44.2,7.6c-3.5,0.6-6.8,1.9-9.7,3.9
				l-5.1,3.4c-0.2-0.7-0.5-1.3-0.9-2l-4-6.6c-2.1-3.5-2-7.9,0.3-11.2c3.3-4.7,4-10.7,1.9-16l-8.2-17.4c2-1.3,3.9-2.8,5.7-4.3
				c1.9-1.1,3.4-2.6,4.6-4.4c1.6-1.7,3.1-3.5,4.6-5.5l40.7-54.7l21.1,97.3C261.5,525.1,258.5,529.6,253.8,530.4z"/>
		</g>
	</g>
</g>
<linearGradient id="SVGID_1_" gradientUnits="userSpaceOnUse" x1="520.1556" y1="377.8851" x2="458.1657" y2="532.8599" gradientTransform="matrix(1 0 0 1 0 -26)">
	<stop  offset="0" style="stop-color:#37292E"/>
	<stop  offset="5.745701e-03" style="stop-color:#E8EACC"/>
	<stop  offset="0.9986" style="stop-color:#FFFFFF"/>
</linearGradient>
<path class="st1" d="M436.8,357.5l2.4,102.5c0.3,12.1-2.3,24.2-7.6,35.1l-12.3,22c-3,5-7.8,8.5-13.3,10.1l-15.8,4.5
	c-7.5,2.1-14.8,5-21.7,8.7l-3,1.6c-3.5,2.4-5.8,6.2-6.1,10.5c-0.2,3,2.2,5.5,5.2,5.5h150.6c2.8,0,5.1-2.1,5.5-4.9h0.1L583,380.8
	L436.8,357.5z"/>
<linearGradient id="SVGID_2_" gradientUnits="userSpaceOnUse" x1="247.1034" y1="339.0071" x2="78.5721" y2="418.9142" gradientTransform="matrix(1 0 0 1 0 -26)">
	<stop  offset="0" style="stop-color:#37292E"/>
	<stop  offset="5.745701e-03" style="stop-color:#E8EACC"/>
	<stop  offset="0.7419" style="stop-color:#FFFFFF"/>
</linearGradient>
<path class="st2" d="M97.5,234.2L115,288c8.4,25.8,6.9,53.7-4.2,78.4l-25.7,50.7c-10.2,20.1-10.5,43.8-0.9,64.2l36.2,37.2l51.2-20.1
	c10.6-4.2,19.9-11.3,26.7-20.5L289,356l-80-149L97.5,234.2z"/>
<path class="st3" d="M133,445l-6-5.6c-1.1-2.8,1.6-5.7,4.5-4.6l52.3,19.9c10.5,4,15.6,15.9,11.2,26.3l0,0c-1.3,3.1-3.6,5.6-6.6,7.2
	L183,491L133,445z"/>
<linearGradient id="SVGID_3_" gradientUnits="userSpaceOnUse" x1="218.8677" y1="491.2256" x2="169.4706" y2="521.7356" gradientTransform="matrix(1 0 0 1 0 -26)">
	<stop  offset="0" style="stop-color:#37292E"/>
	<stop  offset="5.745701e-03" style="stop-color:#E8EACC"/>
	<stop  offset="0.9986" style="stop-color:#FFFFFF"/>
</linearGradient>
<path class="st4" d="M133,445l34.2,26.5c6.8,5.2,12.2,12,15.9,19.8l8.6,18.2c2.1,5.3,1.4,11.3-1.9,16l0,0c-2.3,3.3-2.4,7.7-0.3,11.2
	l4,6.6c2.1,3.4,1.7,7.8-1,10.8l0,0c-2.9,3.2-7,4.9-11.2,4.7l-37.6-1.6c-15.2-0.7-28.7-9.7-35.2-23.4L84,482L133,445z"/>
<path class="st5" d="M798.1,466.1l-65.8-226.7c-9.8-33.8-23-66.6-39.2-97.8c-14-26.9-36.9-48.4-65-59.9c-0.9-0.3-1.7-0.7-2.6-1
	L561,55.8C517.3,39,469.6,35.2,423.8,45L353,60.2c-17.6,3.8-35.9,2.1-52.5-4.7l0,0c-11.2-4.6-23.2-6.9-35.4-6.7l-21.9,0.4
	c-10.6,1.7-21.4,1.1-31.7-1.7L143,29.7c-7.5-1.9-15.3,1.2-19.5,7.7L45.4,160.1c-3.7,5.8-3.2,13.3,1.2,18.5l20.8,24.7
	c28.1,33.5,62.4,61.2,101,81.8l15.6,8.3c19.3,10.3,33.1,28.5,37.7,49.9l38.4,177.2c1,4.6-2,9.1-6.7,9.9l-44.2,7.6
	c-3.5,0.6-6.8,1.9-9.7,3.9l-5.3,3.5c-3.3,2.2-5.5,5.8-5.9,9.8v0.3c-0.2,1.8,1.2,3.4,3.1,3.4h136.5c4.1,0,7.5-3,8.1-7l0,0l35.6-138.6
	c4-15.4,19.2-25.2,34.9-22.3c44.9,8.2,91.1,7.4,136-2.6l5.8-1.3c14.7-3.3,30.1,1.3,40.6,12.2l117.3,121.3c4.4,4.5,2,12.1-4.1,13.4
	l-15.3,3.2c-6.8,1.4-13.2,4.4-18.7,8.8l0,0c-2.7,2.1-4.3,5.3-4.6,8.7c-0.2,2.5,1.8,4.6,4.3,4.6h110.8c2.1,0,3.9-1.6,4.1-3.7
	c0.4-3.4,1.3-6.6,2.9-9.7l8-16.1C803.4,510.2,805.1,487.1,798.1,466.1z"/>
<g>
	<path d="M163.8,524.1c-1.5-1-3.3,0.8-2.4,2.3c2.4,4.2,6.9,7,12.1,7c3.4,0,6.6-1.2,9.1-3.3c1.5-1.3,0.2-3.8-1.7-3.3
		c-1.7,0.4-3.5,0.6-5.3,0.6C171.2,527.5,167.2,526.3,163.8,524.1z"/>
</g>
<g>
	<path d="M171.4,539.6c-1.1-1.1-2.9,0-2.5,1.5c1.2,4,4.5,7.2,8.9,8.2c2.9,0.7,5.8,0.2,8.2-1.1c1.6-0.8,0.9-3.2-0.8-3.1
		c-1.5,0-3.1-0.1-4.6-0.5C176.9,543.8,173.8,542,171.4,539.6z"/>
</g>
<g>
	<path d="M173.5,546.8c-1.3-0.9-2.9,0.6-2.2,1.9c1.9,3.7,5.8,6.3,10.2,6.5c3,0.1,5.7-0.9,7.9-2.6c1.4-1.1,0.3-3.3-1.4-2.9
		c-1.5,0.3-3,0.5-4.6,0.4C179.7,549.9,176.3,548.8,173.5,546.8z"/>
</g>
<path class="st5" d="M30.7,68c9.7,12.3,19.1,6.4,29.5-1.8s17.9-15.5,8.2-27.9s-26-15.7-36.5-7.5S21,55.7,30.7,68z"/>
<g>
	<path class="st3" d="M32.3,66.8c-4.9-6.2-7-13.6-6.4-20.3c0.1-0.8,0.4-1.5,1.1-2l0,0c6.2-4.9,17.2-1.5,24.4,7.7s2.8,13.7-3.4,18.6
		c-1.2,0.9-2.4,1.8-3.5,2.6C40.4,73.7,36.4,71.9,32.3,66.8z"/>
</g>
<circle class="st5" cx="117" cy="119" r="92.5"/>
<g>
	
		<linearGradient id="SVGID_4_" gradientUnits="userSpaceOnUse" x1="120.226" y1="163.3081" x2="234.5159" y2="189.1155" gradientTransform="matrix(1 0 0 1 0 -26)">
		<stop  offset="0" style="stop-color:#37292E"/>
		<stop  offset="5.745701e-03" style="stop-color:#E8EACC"/>
		<stop  offset="0.9986" style="stop-color:#FFFFFF"/>
	</linearGradient>
	<path class="st6" d="M208.2,82.9c3.7,15.5,3.6,32.4-1.3,49.6c-8.8,30.9-42.4,61.2-74.1,66.6c-5.4,0.9-10.8,1.4-16,1.5
		c-11.8,0.1-13,17.3-1.3,19c3.5,0.5,7.1,0.9,10.7,1c53.4,2.1,99.3-39.1,102.9-92.4c1.2-17.7-2.3-34.5-9.4-49.4
		C216.4,72.2,206.5,75.7,208.2,82.9z"/>
</g>
<circle class="st5" cx="115.5" cy="114.5" r="88"/>
<path class="st5" d="M221.1,81c-11.9,10.2-20,2.5-28.6-7.5s-14.5-18.8-2.6-29s28.6-10.3,37.2-0.2S233,70.8,221.1,81z"/>
<g>
	<path class="st3" d="M219.7,79.5c6-5.1,9.5-12,10.3-18.7c0.1-0.8-0.1-1.6-0.6-2.2l0,0c-5.2-6-16.6-4.8-25.4,2.8
		c-8.9,7.6-5.4,12.9-0.3,18.9c1,1.2,2,2.2,3,3.2C210.5,84.7,214.7,83.7,219.7,79.5z"/>
</g>
<circle cx="145" cy="83" r="9"/>
<circle cx="74.5" cy="78.5" r="9"/>
<path d="M116.5,112.5c0,10.5-10,17.5-20.5,17.5s-17.5-7-17.5-17.5s8.5-14,19-14S116.5,102,116.5,112.5z"/>
<line class="st7" x1="95" y1="140" x2="95" y2="125"/>
<line class="st7" x1="74" y1="139.4" x2="120" y2="141.6"/>
</svg>
