<?xml version="1.0" encoding="utf-8"?>
<!-- Generator: Adobe Illustrator 23.0.1, SVG Export Plug-In . SVG Version: 6.00 Build 0)  -->
<svg version="1.1" id="Layer_1" xmlns="http://www.w3.org/2000/svg" xmlns:xlink="http://www.w3.org/1999/xlink" x="0px" y="0px"
	 viewBox="0 0 785 539" style="enable-background:new 0 0 785 539;" xml:space="preserve">
<style type="text/css">
	.st0{fill:url(#SVGID_1_);}
	.st1{fill:url(#SVGID_2_);}
	.st2{fill:#E8EACC;}
	.st3{fill:url(#SVGID_3_);}
	.st4{fill:#FFFFFF;}
	.st5{fill:url(#SVGID_4_);}
	.st6{fill:none;stroke:#000000;stroke-width:3;stroke-linecap:round;stroke-miterlimit:10;}
</style>
<linearGradient id="SVGID_1_" gradientUnits="userSpaceOnUse" x1="500.2643" y1="328.9286" x2="438.2744" y2="483.9034">
	<stop  offset="0" style="stop-color:#37292E"/>
	<stop  offset="5.745701e-03" style="stop-color:#E8EACC"/>
	<stop  offset="0.9986" style="stop-color:#FFFFFF"/>
</linearGradient>
<path class="st0" d="M416.78,334.55l2.43,102.55c0.29,12.15-2.31,24.19-7.57,35.11l-12.31,22c-3.05,4.95-7.8,8.55-13.28,10.14
	l-15.76,4.46c-7.51,2.12-14.77,5.02-21.67,8.66l-2.96,1.56c-3.5,2.37-5.76,6.22-6.11,10.48c-0.25,3.02,2.17,5.49,5.19,5.49h150.57
	c2.78,0,5.13-2.07,5.53-4.86l0.05,0.01L563,357.79L416.78,334.55z"/>
<linearGradient id="SVGID_2_" gradientUnits="userSpaceOnUse" x1="227.1093" y1="290.0196" x2="58.578" y2="369.9267">
	<stop  offset="0" style="stop-color:#37292E"/>
	<stop  offset="5.745701e-03" style="stop-color:#E8EACC"/>
	<stop  offset="0.7419" style="stop-color:#FFFFFF"/>
</linearGradient>
<path class="st1" d="M77.51,211.16L95,265c8.36,25.75,6.86,53.68-4.22,78.38L65.13,394.1c-10.18,20.13-10.51,43.83-0.88,64.23
	l36.25,37.17l51.2-20.1c10.65-4.18,19.91-11.27,26.74-20.45L269,333l-80-149L77.51,211.16z"/>
<path class="st2" d="M113,422l-6.03-5.57c-1.14-2.84,1.65-5.68,4.51-4.59l52.26,19.85c10.51,3.99,15.59,15.92,11.2,26.26l0,0
	c-1.31,3.09-3.64,5.63-6.6,7.2L163,468L113,422z"/>
<linearGradient id="SVGID_3_" gradientUnits="userSpaceOnUse" x1="198.846" y1="442.1905" x2="149.4489" y2="472.7005">
	<stop  offset="0" style="stop-color:#37292E"/>
	<stop  offset="5.745701e-03" style="stop-color:#E8EACC"/>
	<stop  offset="0.9986" style="stop-color:#FFFFFF"/>
</linearGradient>
<path class="st3" d="M113,422l34.2,26.51c6.77,5.25,12.21,12.03,15.87,19.78l8.6,18.2c2.09,5.32,1.39,11.33-1.87,16.02l0,0
	c-2.31,3.33-2.43,7.72-0.32,11.18l4.01,6.56c2.08,3.41,1.68,7.78-0.99,10.75l0,0c-2.85,3.16-6.96,4.89-11.21,4.7l-37.6-1.63
	c-15.18-0.66-28.75-9.67-35.25-23.41L64,459L113,422z"/>
<path class="st4" d="M778.08,443.06l-65.81-226.69c-9.82-33.83-22.96-66.6-39.23-97.84c-14.02-26.93-36.88-48.42-64.97-59.93
	c-0.87-0.35-1.73-0.7-2.61-1.04l-64.43-24.78c-43.74-16.82-91.43-20.55-137.25-10.73l-70.81,15.17
	c-17.57,3.76-35.87,2.12-52.48-4.72h0c-11.21-4.62-23.24-6.89-35.37-6.68l-21.88,0.37c-10.56,1.73-21.36,1.14-31.67-1.71
	L123.01,6.73c-7.46-1.93-15.31,1.16-19.45,7.66L25.42,137.07c-3.68,5.78-3.19,13.29,1.22,18.53l20.79,24.74
	c28.12,33.46,62.39,61.21,100.97,81.76l15.64,8.33c19.3,10.28,33.11,28.54,37.74,49.92l38.39,177.2c1,4.61-2.04,9.11-6.69,9.92
	l-44.21,7.62c-3.48,0.6-6.79,1.92-9.72,3.88l-5.28,3.52c-3.33,2.22-5.5,5.82-5.9,9.81l-0.03,0.31c-0.18,1.82,1.25,3.4,3.07,3.4
	h136.52c4.06,0,7.5-2.98,8.07-7l0,0l35.65-138.56c3.97-15.43,19.2-25.17,34.87-22.29c44.85,8.23,91.11,7.44,136.03-2.58l5.76-1.28
	c14.72-3.28,30.08,1.33,40.56,12.17l117.28,121.32c4.38,4.53,2.04,12.11-4.13,13.39l-15.31,3.18c-6.84,1.42-13.25,4.44-18.7,8.81
	l0,0c-2.67,2.14-4.34,5.29-4.62,8.71c-0.2,2.5,1.79,4.64,4.29,4.64h110.79c2.12,0,3.87-1.61,4.11-3.71
	c0.38-3.37,1.35-6.64,2.86-9.67l8.03-16.07C783.42,487.16,785.07,464.15,778.08,443.06z"/>
<g>
	<path d="M143.8,501.13c-1.5-0.95-3.32,0.78-2.44,2.32c2.41,4.21,6.94,7.05,12.15,7.05c3.45,0,6.61-1.25,9.05-3.33
		c1.54-1.31,0.25-3.82-1.72-3.33c-1.71,0.43-3.49,0.65-5.33,0.65C151.2,504.5,147.19,503.26,143.8,501.13z"/>
</g>
<g>
	<path d="M151.37,516.56c-1.08-1.08-2.95,0.03-2.5,1.49c1.22,4,4.5,7.25,8.87,8.25c2.9,0.66,5.8,0.21,8.24-1.07
		c1.55-0.81,0.94-3.16-0.81-3.13c-1.52,0.03-3.06-0.12-4.61-0.47C156.95,520.81,153.81,519.01,151.37,516.56z"/>
</g>
<g>
	<path d="M153.47,523.81c-1.26-0.86-2.89,0.57-2.18,1.93c1.95,3.7,5.77,6.29,10.25,6.45c2.98,0.11,5.74-0.88,7.9-2.59
		c1.37-1.08,0.33-3.28-1.38-2.92c-1.48,0.31-3.03,0.46-4.61,0.4C159.74,526.94,156.32,525.75,153.47,523.81z"/>
</g>
<path class="st4" d="M10.67,45.04c9.72,12.34,19.1,6.4,29.51-1.81s17.92-15.55,8.2-27.89S22.34-0.36,11.92,7.85
	S0.95,32.7,10.67,45.04z"/>
<g>
	<path class="st2" d="M12.3,43.77c-4.9-6.22-7.02-13.6-6.42-20.3c0.07-0.79,0.45-1.53,1.07-2.02c0,0,0.01-0.01,0.01-0.01
		c6.25-4.92,17.18-1.47,24.41,7.71c7.23,9.18,2.82,13.72-3.43,18.64c-1.19,0.94-2.37,1.83-3.54,2.58
		C20.36,50.68,16.36,48.92,12.3,43.77z"/>
</g>
<circle class="st4" cx="97" cy="96" r="92.5"/>
<g>
	<linearGradient id="SVGID_4_" gradientUnits="userSpaceOnUse" x1="100.2231" y1="114.321" x2="214.513" y2="140.1284">
		<stop  offset="0" style="stop-color:#37292E"/>
		<stop  offset="5.745701e-03" style="stop-color:#E8EACC"/>
		<stop  offset="0.9986" style="stop-color:#FFFFFF"/>
	</linearGradient>
	<path class="st5" d="M188.18,59.9c3.7,15.49,3.61,32.38-1.28,49.57c-8.8,30.93-42.44,61.16-74.13,66.61
		c-5.42,0.93-10.76,1.42-16,1.49c-11.77,0.15-12.98,17.33-1.34,19.04c3.51,0.52,7.08,0.85,10.7,1
		c53.4,2.12,99.29-39.12,102.88-92.44c1.19-17.65-2.31-34.51-9.41-49.37C196.42,49.16,186.47,52.74,188.18,59.9z"/>
</g>
<circle class="st4" cx="95.5" cy="91.5" r="88"/>
<path class="st4" d="M201.08,58.04c-11.95,10.2-19.98,2.54-28.58-7.54s-14.53-18.76-2.58-28.96c11.95-10.2,28.61-10.3,37.21-0.22
	S213.03,47.84,201.08,58.04z"/>
<g>
	<path class="st2" d="M199.73,56.47c6.02-5.14,9.54-11.96,10.27-18.65c0.09-0.79-0.14-1.59-0.65-2.2c0,0-0.01-0.01-0.01-0.01
		c-5.17-6.05-16.56-4.81-25.44,2.78c-8.89,7.59-5.45,12.9-0.29,18.95c0.99,1.16,1.97,2.25,2.97,3.22
		C190.48,61.68,194.74,60.73,199.73,56.47z"/>
</g>
<circle cx="125" cy="60" r="9"/>
<circle cx="54.5" cy="55.5" r="9"/>
<path d="M96.5,89.5C96.5,99.99,86.49,107,76,107s-17.5-7.01-17.5-17.5s8.51-14,19-14S96.5,79.01,96.5,89.5z"/>
<line class="st6" x1="75" y1="117" x2="75" y2="102"/>
<line class="st6" x1="54.02" y1="116.45" x2="99.98" y2="118.55"/>
</svg>
