<?xml version="1.0" encoding="utf-8"?>
<!-- Generator: Adobe Illustrator 23.0.1, SVG Export Plug-In . SVG Version: 6.00 Build 0)  -->
<svg version="1.1" id="Layer_1" xmlns="http://www.w3.org/2000/svg" xmlns:xlink="http://www.w3.org/1999/xlink" x="0px" y="0px"
	 viewBox="0 0 785 539" style="enable-background:new 0 0 785 539;" xml:space="preserve">
<style type="text/css">
	.st0{fill:url(#SVGID_1_);}
	.st1{fill:url(#SVGID_2_);}
	.st2{fill:#E8EACC;}
	.st3{fill:url(#SVGID_3_);}
	.st4{fill:#FFFFFF;}
	.st5{fill:url(#SVGID_4_);}
	.st6{fill:none;stroke:#000000;stroke-width:3;stroke-linecap:round;stroke-miterlimit:10;}
</style>
<linearGradient id="SVGID_1_" gradientUnits="userSpaceOnUse" x1="500.2645" y1="211.0713" x2="438.2746" y2="56.0965" gradientTransform="matrix(1 0 0 -1 0 540)">
	<stop  offset="0" style="stop-color:#37292E"/>
	<stop  offset="5.745701e-03" style="stop-color:#E8EACC"/>
	<stop  offset="0.9986" style="stop-color:#FFFFFF"/>
</linearGradient>
<path class="st0" d="M416.8,334.5l2.4,102.5c0.3,12.1-2.3,24.2-7.6,35.1l-12.3,22c-3,5-7.8,8.5-13.3,10.1l-15.8,4.5
	c-7.5,2.1-14.8,5-21.7,8.7l-3,1.6c-3.5,2.4-5.8,6.2-6.1,10.5c-0.2,3,2.2,5.5,5.2,5.5h150.6c2.8,0,5.1-2.1,5.5-4.9l0,0L563,357.8
	L416.8,334.5z"/>
<linearGradient id="SVGID_2_" gradientUnits="userSpaceOnUse" x1="227.1084" y1="249.9824" x2="58.5771" y2="170.0753" gradientTransform="matrix(1 0 0 -1 0 540)">
	<stop  offset="0" style="stop-color:#37292E"/>
	<stop  offset="5.745701e-03" style="stop-color:#E8EACC"/>
	<stop  offset="0.7419" style="stop-color:#FFFFFF"/>
</linearGradient>
<path class="st1" d="M77.5,211.2L95,265c8.4,25.8,6.9,53.7-4.2,78.4l-25.7,50.7c-10.2,20.1-10.5,43.8-0.9,64.2l36.2,37.2l51.2-20.1
	c10.6-4.2,19.9-11.3,26.7-20.5L269,333l-80-149L77.5,211.2z"/>
<path class="st2" d="M113,422l-6-5.6c-1.1-2.8,1.7-5.7,4.5-4.6l52.3,19.9c10.5,4,15.6,15.9,11.2,26.3l0,0c-1.3,3.1-3.6,5.6-6.6,7.2
	L163,468L113,422z"/>
<linearGradient id="SVGID_3_" gradientUnits="userSpaceOnUse" x1="198.8451" y1="97.811" x2="149.448" y2="67.301" gradientTransform="matrix(1 0 0 -1 0 540)">
	<stop  offset="0" style="stop-color:#37292E"/>
	<stop  offset="5.745701e-03" style="stop-color:#E8EACC"/>
	<stop  offset="0.9986" style="stop-color:#FFFFFF"/>
</linearGradient>
<path class="st3" d="M113,422l34.2,26.5c6.8,5.2,12.2,12,15.9,19.8l8.6,18.2c2.1,5.3,1.4,11.3-1.9,16l0,0c-2.3,3.3-2.4,7.7-0.3,11.2
	l4,6.6c2.1,3.4,1.7,7.8-1,10.8l0,0c-2.9,3.2-7,4.9-11.2,4.7l-37.6-1.6c-15.2-0.7-28.8-9.7-35.2-23.4L64,459L113,422z"/>
<path class="st4" d="M778.1,443.1l-65.8-226.7c-9.8-33.8-23-66.6-39.2-97.8c-14-26.9-36.9-48.4-65-59.9c-0.9-0.3-1.7-0.7-2.6-1
	L541,32.8C497.3,16,449.6,12.2,403.8,22L333,37.2c-17.6,3.8-35.9,2.1-52.5-4.7l0,0c-11.2-4.6-23.2-6.9-35.4-6.7l-21.9,0.4
	c-10.6,1.7-21.4,1.1-31.7-1.7L123,6.7c-7.5-1.9-15.3,1.2-19.5,7.7L25.4,137.1c-3.7,5.8-3.2,13.3,1.2,18.5l20.8,24.7
	c28.1,33.5,62.4,61.2,101,81.8l15.6,8.3c19.3,10.3,33.1,28.5,37.7,49.9l38.4,177.2c1,4.6-2,9.1-6.7,9.9l-44.2,7.6
	c-3.5,0.6-6.8,1.9-9.7,3.9l-5.3,3.5c-3.3,2.2-5.5,5.8-5.9,9.8l0,0.3c-0.2,1.8,1.2,3.4,3.1,3.4h136.5c4.1,0,7.5-3,8.1-7l0,0
	l35.6-138.6c4-15.4,19.2-25.2,34.9-22.3c44.9,8.2,91.1,7.4,136-2.6l5.8-1.3c14.7-3.3,30.1,1.3,40.6,12.2l117.3,121.3
	c4.4,4.5,2,12.1-4.1,13.4l-15.3,3.2c-6.8,1.4-13.2,4.4-18.7,8.8l0,0c-2.7,2.1-4.3,5.3-4.6,8.7c-0.2,2.5,1.8,4.6,4.3,4.6h110.8
	c2.1,0,3.9-1.6,4.1-3.7c0.4-3.4,1.3-6.6,2.9-9.7l8-16.1C783.4,487.2,785.1,464.1,778.1,443.1z"/>
<g>
	<path d="M143.8,501.1c-1.5-1-3.3,0.8-2.4,2.3c2.4,4.2,6.9,7,12.1,7c3.4,0,6.6-1.2,9.1-3.3c1.5-1.3,0.2-3.8-1.7-3.3
		c-1.7,0.4-3.5,0.6-5.3,0.6C151.2,504.5,147.2,503.3,143.8,501.1z"/>
</g>
<g>
	<path d="M151.4,516.6c-1.1-1.1-2.9,0-2.5,1.5c1.2,4,4.5,7.2,8.9,8.2c2.9,0.7,5.8,0.2,8.2-1.1c1.6-0.8,0.9-3.2-0.8-3.1
		c-1.5,0-3.1-0.1-4.6-0.5C156.9,520.8,153.8,519,151.4,516.6z"/>
</g>
<g>
	<path d="M153.5,523.8c-1.3-0.9-2.9,0.6-2.2,1.9c1.9,3.7,5.8,6.3,10.2,6.5c3,0.1,5.7-0.9,7.9-2.6c1.4-1.1,0.3-3.3-1.4-2.9
		c-1.5,0.3-3,0.5-4.6,0.4C159.7,526.9,156.3,525.8,153.5,523.8z"/>
</g>
<path class="st4" d="M10.7,45c9.7,12.3,19.1,6.4,29.5-1.8s17.9-15.5,8.2-27.9s-26-15.7-36.5-7.5S0.9,32.7,10.7,45z"/>
<g>
	<path class="st2" d="M12.3,43.8c-4.9-6.2-7-13.6-6.4-20.3c0.1-0.8,0.4-1.5,1.1-2l0,0c6.3-4.9,17.2-1.5,24.4,7.7s2.8,13.7-3.4,18.6
		c-1.2,0.9-2.4,1.8-3.5,2.6C20.4,50.7,16.4,48.9,12.3,43.8z"/>
</g>
<circle class="st4" cx="97" cy="96" r="92.5"/>
<g>
	
		<linearGradient id="SVGID_4_" gradientUnits="userSpaceOnUse" x1="100.2237" y1="425.6819" x2="214.5136" y2="399.8745" gradientTransform="matrix(1 0 0 -1 0 540)">
		<stop  offset="0" style="stop-color:#37292E"/>
		<stop  offset="5.745701e-03" style="stop-color:#E8EACC"/>
		<stop  offset="0.9986" style="stop-color:#FFFFFF"/>
	</linearGradient>
	<path class="st5" d="M188.2,59.9c3.7,15.5,3.6,32.4-1.3,49.6c-8.8,30.9-42.4,61.2-74.1,66.6c-5.4,0.9-10.8,1.4-16,1.5
		c-11.8,0.1-13,17.3-1.3,19c3.5,0.5,7.1,0.9,10.7,1c53.4,2.1,99.3-39.1,102.9-92.4c1.2-17.7-2.3-34.5-9.4-49.4
		C196.4,49.2,186.5,52.7,188.2,59.9z"/>
</g>
<circle class="st4" cx="95.5" cy="91.5" r="88"/>
<path class="st4" d="M201.1,58c-11.9,10.2-20,2.5-28.6-7.5s-14.5-18.8-2.6-29s28.6-10.3,37.2-0.2S213,47.8,201.1,58z"/>
<g>
	<path class="st2" d="M199.7,56.5c6-5.1,9.5-12,10.3-18.7c0.1-0.8-0.1-1.6-0.6-2.2l0,0c-5.2-6-16.6-4.8-25.4,2.8
		c-8.9,7.6-5.4,12.9-0.3,19c1,1.2,2,2.2,3,3.2C190.5,61.7,194.7,60.7,199.7,56.5z"/>
</g>
<circle cx="125" cy="60" r="9"/>
<circle cx="54.5" cy="55.5" r="9"/>
<path d="M96.5,89.5c0,10.5-10,17.5-20.5,17.5s-17.5-7-17.5-17.5s8.5-14,19-14S96.5,79,96.5,89.5z"/>
<line class="st6" x1="75" y1="117" x2="75" y2="102"/>
<line class="st6" x1="54" y1="116.4" x2="100" y2="118.6"/>
</svg>
