<?xml version="1.0" encoding="utf-8"?>
<!-- Generator: Adobe Illustrator 23.0.1, SVG Export Plug-In . SVG Version: 6.00 Build 0)  -->
<svg version="1.1" id="Layer_1" xmlns="http://www.w3.org/2000/svg" xmlns:xlink="http://www.w3.org/1999/xlink" x="0px" y="0px"
	 viewBox="0 0 212 224" style="enable-background:new 0 0 212 224;" xml:space="preserve">
<style type="text/css">
	.st0{fill:none;stroke:#5E4A3A;stroke-width:2;stroke-miterlimit:10;}
	.st1{fill:#ED7F1D;}
	.st2{fill:#F29949;}
	.st3{fill:#F4A664;}
	.st4{fill:#090A0C;}
	.st5{fill:#BA6831;}
	.st6{fill:#281E15;}
	.st7{fill:#D37A29;}
	.st8{fill:#F4F4F4;}
	.st9{fill:#533141;}
	.st10{fill:#352411;}
	.st11{fill:#020101;}
	.st12{fill:#2C3233;}
	.st13{fill:#282624;}
	.st14{fill:#C06473;}
	.st15{fill:#9E4467;}
	.st16{fill:#382C1E;}
	.st17{fill:#232221;}
	.st18{fill:#7C6555;}
	.st19{fill:none;stroke:#FFCE51;stroke-width:6;}
</style>
<path class="st0" d="M72.8,142.9c-2.8-2.3-3.7-6.1-3.9-8.8c-0.1-1.6-0.1-3.1-0.1-4.7c0-1.7,0-3.5-0.2-5.2c-0.3-2.9-1.2-5.8-2.1-8.5
	c-1-3.1-2-6.3-2.2-9.6c-0.1-2.1,0-4.2,0.3-6.3c0.3-3.1,0.6-6.3-0.2-9.3c-0.3-1.2-0.8-2.4-1.3-3.5c-0.4-0.8-0.7-1.7-1-2.6
	c-1.7-5.1-1-10.8-0.5-15.7h0.1c-0.6,5-1.2,10.6,0.5,15.7c0.3,0.9,0.7,1.8,1,2.6c0.5,1.1,0.9,2.3,1.3,3.5c0.8,3,0.5,6.2,0.2,9.3
	c-0.2,2.1-0.3,4.2-0.3,6.3c0.2,3.3,1.2,6.5,2.2,9.6c0.9,2.8,1.8,5.6,2.1,8.6c0.2,1.7,0.2,3.5,0.2,5.2c0,1.5,0,3.1,0.1,4.7
	C69.2,136.9,70.1,140.6,72.8,142.9L72.8,142.9z"/>
<path class="st0" d="M61.7,68.6c-0.6,5.3-1.2,10.7,0.5,15.7c0.7,2.1,1.8,4,2.3,6.1c1.3,5.1-0.4,10.4-0.1,15.6
	c0.4,6.2,3.6,11.9,4.3,18.1c0.4,3.3,0,6.6,0.3,9.9c0.3,3.3,1.4,6.7,3.9,8.8c3.7,3,3.5,7.6,3.1,12.3c-0.4,4.7-1.5,9.7,0.1,14.1
	c1.2,3.4,3.8,6.1,4.7,9.6c0.5,2.1,0.4,4.3,0.8,6.4c0.4,2.1,1.6,4.3,3.7,4.9"/>
<path class="st1" d="M66.3,63.9c0.6-1,1.2-2,1.8-3.4c4.8-9.7,7.2-19.7,6.8-28.8c-0.3-7.7-2.7-15.1-6.7-21.1l0.1,0
	c2.9,2.1,5.3,4.8,6.9,8c1.9,3.8,2.7,8,3.2,11.2c0.4,2.8,1,8.2,0.4,11.1V41c-0.5,2.7-1.5,7.1-2.8,9.5C73.3,55.5,70.4,60.7,66.3,63.9
	L66.3,63.9z"/>
<path class="st2" d="M60.2,66.9c-1.1,0.2-2.2,0.3-3.3,0.3c-3.7-0.1-13.2-1.6-21.3-14.2c-5.5-8.6-7.7-17.9-6.2-26.2
	c1.7-9.6,8.9-17.5,17.4-19.3l1-0.2c5.3-1.1,9.9-1.4,14.9,0.4c2,0.7,3.9,1.7,5.7,3c4,6,6.3,13.5,6.7,21.1c0.4,9.2-2,19.1-6.8,28.9
	c-0.7,1.3-1.2,2.4-1.8,3.4C64.6,65.4,62.5,66.4,60.2,66.9z"/>
<path class="st3" d="M40.5,37.7c-1.2,0.2-2.1,0.2-2.9-0.3c-0.9-0.5-1.5-1.5-1.8-3c-0.3-1.7-0.4-3.5-0.3-5.2c0.1-2.4,0.2-5.3,1.3-7.8
	c0.7-1.7,1.8-3.1,3.2-4.3c1.4-1.2,3.1-2,4.8-2.4c1.4-0.3,2.3-0.1,2.8,0.5c0.9,1.2-0.1,3.8-0.9,5.2c-1.6,3.2-2.1,6.7-2.6,10.2
	c-0.3,1.7-0.5,3.4-0.9,5.1c0,0.4-0.1,0.7-0.4,1c-0.2,0.3-0.6,0.5-0.9,0.5C41.5,37.4,41,37.6,40.5,37.7L40.5,37.7z"/>
<path class="st1" d="M78.4,29.5c0.4,2.8,1,8.2,0.4,11c-0.5,2.7-1.5,7.2-2.8,9.6c-2.9,5.1-5.7,10.3-9.6,13.4c0.7-1.1,1.2-2.2,1.8-3.4
	c4.4-8.9,7.2-18.9,6.8-28.9c-0.3-7.5-2.5-14.9-6.7-21.1c2.9,2.1,5.3,4.8,6.9,8C77,21.7,77.8,25.6,78.4,29.5z"/>
<path class="st2" d="M75,31.3c0.4,10-2.3,19.9-6.8,28.8c-0.6,1.1-1.2,2.3-1.8,3.4c-2.6,2.2-6,3.4-9.4,3.2C48,66.6,40.4,60,35.6,52.5
	c-4.9-7.7-7.8-17.1-6.2-26.1S37.8,9,46.8,7.1c5.6-1.2,10.5-1.8,15.9,0.1c2,0.7,3.9,1.7,5.7,3C72.4,16.4,74.7,23.9,75,31.3z"/>
<path class="st3" d="M36.9,21c-1,2.4-1.2,5.1-1.3,7.8c-0.1,1.8,0,3.5,0.3,5.2c0.3,1.2,0.8,2.4,1.8,3c1.3,0.8,2.9,0.3,4.3-0.1
	c0.3-0.1,0.5-0.2,0.7-0.3c0.3-0.3,0.5-0.7,0.5-1.1c1.2-5.1,1.2-10.6,3.5-15.3c1.4-2.9,2.4-6.6-1.9-5.7c-1.8,0.4-3.4,1.2-4.8,2.4
	C38.7,17.9,37.6,19.4,36.9,21z"/>
<path class="st2" d="M57.8,70.2c0.1-0.4,0.2-0.7,0.3-1.1c0.6-1.1,1.5-2.1,2.4-2.9l-0.3,0.2l0-0.1c0.5-0.4,1.1-0.7,1.8-0.8h0v0
	c0.2,0.4,0.4,0.7,0.6,1c0.1,0.4,0.2,0.8,0.4,1.1v0.1v0.1c0,0.1,0,0.2,0,0.2c-0.1,0.1-0.1,0.1-0.2,0.2l-3.6,1.4l-0.3,0.1
	C58.6,69.9,58.2,70.1,57.8,70.2l0,0.1L57.8,70.2z"/>
<path class="st2" d="M63,67.6l0,0.1c0,0.1,0,0.2,0,0.2c-0.1,0.1-0.1,0.1-0.2,0.1c-1.3,0.5-2.6,1-3.9,1.6c-0.4,0.1-0.8,0.3-1.1,0.5
	c0.1-0.4,0.2-0.7,0.3-1.1c0.7-1.2,1.6-2.3,2.7-3.2l-0.7,0.4c0.5-0.4,1.1-0.7,1.8-0.8c0.2,0.4,0.4,0.7,0.6,1
	C62.7,66.9,62.8,67.3,63,67.6z"/>
<path class="st1" d="M64.7,69.9c-0.1,0-0.3,0-0.4,0c-0.2,0-0.3-0.1-0.5-0.1c-0.3-0.1-0.5-0.1-0.8-0.1c-0.2,0-0.5,0-0.7,0.1
	c-0.2,0-0.5,0.1-0.7,0.2h-0.1c-0.7,0.2-1.5,0.4-2.2,0.5c-0.5,0.1-1,0.2-1.5,0.3h0v0c0-0.2,0.1-0.3,0.1-0.5c0.4-0.2,0.7-0.4,1.1-0.5
	l0.3-0.1l3.6-1.4c0.1,0,0.1-0.1,0.2-0.1c0-0.1,0-0.1,0-0.2l0-0.1c-0.2-0.3-0.3-0.7-0.4-1.1l0.1,0c0.2,0.2,0.3,0.4,0.5,0.6l0.1,0.1
	c0.2,0.2,0.4,0.3,0.6,0.5c0.1,0.1,0.1,0.1,0.1,0.2C64.4,68.4,64.6,69.1,64.7,69.9L64.7,69.9L64.7,69.9z"/>
<path class="st1" d="M64.7,69.8c-0.1,0-0.3,0-0.4,0c-0.4-0.1-0.9-0.1-1.3-0.2c-0.5,0-1,0.1-1.5,0.3c-1.2,0.3-2.5,0.6-3.8,0.8
	c0-0.2,0.1-0.3,0.1-0.5c0.4-0.2,0.7-0.4,1.1-0.5c1.3-0.5,2.6-1,3.8-1.5c0.1,0,0.2-0.1,0.2-0.2c0-0.1,0-0.2,0-0.2l0-0.1
	c-0.2-0.3-0.3-0.7-0.4-1.1c0.2,0.2,0.3,0.4,0.5,0.6c0,0,0.1,0,0.1,0.1c0.2,0.2,0.4,0.3,0.6,0.5c0,0,0.1,0.1,0.1,0.2
	C64.3,68.4,64.6,69.1,64.7,69.8z"/>
<path class="st4" d="M126.5,105.6c0.8-2,1-4.2,1.2-6.3c0.1-1.8,0.4-3.6,0.9-5.4c0.1-0.4,0.3-0.9,0.5-1.3c0.2-0.4,0.4-1,0.5-1.5
	c0.3-1.2,0.5-2.4,0.6-3.6c0.1-0.8,0.2-1.6,0.3-2.4c0.2-1.6,0.4-3.2,0.6-4.9c0-0.2,0-0.5,0-0.7c0-0.8,0.1-1.6,0.5-2
	c0.1,0,0.2-0.1,0.3-0.1c0.2,0,0.4,0,0.7,0c0.3,0,0.6,0,0.9,0c0.4,0,0.7-0.1,0.8-0.2l0-0.1h0.1c0,0,0,0.1,0,0.1l-0.8,2.4
	c0.7-0.1,1.3-0.3,1.8-0.8l0,0.1c0,0.1,0,0.1,0,0.2c0,0.1,0,0.1,0,0.2c0,0.1,0.1,0.2,0.2,0.2c0.1,0.1,0.2,0.1,0.3,0.1
	c0.3,0,0.7-0.2,0.9-0.4l0.1-0.1l-0.4,1.2c0.5,0,0.9-0.2,1.3-0.4l0.1,0l-0.5,1.9l1-0.2l0,0.1c-0.2,0.3-0.2,0.7-0.2,1.1L140,83
	l-0.1,0.1c-0.3,0.3-0.6,0.6-0.7,1c0,0.1,0,0.2,0,0.3c0,0.1,0.1,0.2,0.2,0.3c0,0.1,0.1,0.1,0.2,0.2c0.1,0,0.2,0.1,0.2,0.1h0.1V85
	l-0.4,1.2l1.7-0.1l-0.1,0.1c-0.2,0.1-0.3,0.3-0.4,0.5c-0.1,0.2-0.2,0.4-0.2,0.6c0,0.1,0.1,0.2,0.2,0.3c0.1,0.1,0.2,0.1,0.4,0.1
	c0.1,0,0.1,0,0.2,0c0,0,0.1-0.1,0.1-0.1h0l0,0l0.1,0h0h0l-0.8,1.8h0c0.3,0,0.6,0.1,0.9,0.3l0,0l0,0c-0.8,0.7-1.4,1.7-1.6,2.8
	c-0.2,1.1,0,2.2,0.5,3.2l0.1,0.1l-1-0.5l-0.1,1.6h0c-0.1,0-0.2,0-0.3,0c-0.2,0-0.3,0-0.5-0.1c-0.1-0.1-0.3-0.2-0.4-0.3l-0.8,2
	c0,0-0.1,0-0.1,0.1c0,0-0.1,0-0.1,0c0,0-0.1-0.1-0.1-0.1c0,0,0-0.1-0.1-0.1c-0.9,2.1-2.3,3.9-4.2,5.2
	C131,104.8,128.8,105.5,126.5,105.6L126.5,105.6L126.5,105.6z"/>
<path class="st4" d="M134.4,77.3l-0.8,2.5c0.7-0.1,1.4-0.3,1.9-0.8c-0.2,0.3,0.1,0.7,0.5,0.7c0.4,0,0.7-0.2,1-0.4l-0.4,1.2
	c0.5,0,1-0.2,1.4-0.4l-0.5,1.9l1-0.2c-0.2,0.4-0.2,0.7-0.2,1.1l1.7,0.1c-0.3,0.3-0.6,0.6-0.7,1c-0.1,0.4,0.2,0.9,0.6,0.9l-0.4,1.3
	l1.6-0.1c-0.2,0.1-0.3,0.3-0.4,0.5c-0.1,0.2-0.2,0.4-0.2,0.6c0,0.4,0.7,0.7,0.9,0.3l-0.8,1.8c0.3,0,0.7,0.1,0.9,0.3
	c-0.8,0.7-1.4,1.7-1.6,2.8c-0.2,1.1,0,2.2,0.6,3.2l-0.9-0.4l-0.1,1.6c-0.2,0.1-0.4,0-0.6,0c-0.2-0.1-0.4-0.2-0.5-0.3l-0.8,2.1
	c-0.2,0.1-0.5-0.2-0.4-0.4c-0.8,2.1-2.3,4-4.1,5.3c-1.9,1.3-4.1,2.1-6.3,2.2c1.5-3.7,0.9-7.9,2.1-11.7c0.3-0.9,0.7-1.8,1-2.8
	c0.3-1.2,0.5-2.4,0.6-3.6c0.3-2.4,0.5-4.9,0.9-7.3c0.1-0.8,0-2.1,0.5-2.7C131.9,77.4,134.4,77.9,134.4,77.3z"/>
<path class="st4" d="M84.7,142.2c0-0.4-0.2-0.8-0.4-1.1c-0.3,0.1-0.5,0.4-0.7,0.6l0,0.1l0-0.1c-0.3-0.6-0.4-1.3-0.4-2l-1,1v-0.1
	c0.1-0.6,0-1.2-0.3-1.7l-1.2,0.8v0c-0.3-0.5-0.5-1.2-0.4-1.8l-1,0.7l0,0c-0.3-0.4-0.4-0.9-0.4-1.4l-0.9,1l-0.5-1
	c-0.2,0.2-0.5,0.3-0.7,0.3c-0.1,0-0.1,0-0.2,0h0l-0.1-2.1l-1,0.1l0-0.1c0.1,0,0.1-0.1,0.1-0.1c0-0.1,0-0.1,0-0.2
	c-0.1-0.2-0.2-0.4-0.3-0.6c-0.2-0.2-0.4-0.3-0.6-0.3c-0.2-0.1-0.5-0.2-0.7-0.3c-0.2-0.1-0.4-0.3-0.5-0.5c0-0.1,0-0.1,0-0.2
	c0-0.1,0-0.1,0-0.2c-0.5,0.3-0.9,0.7-1.1,1.2l-0.1,0.1v-0.1c-0.2-2.1-0.7-4.3-1.4-6.3c-0.2,0.3-0.5,0.5-0.8,0.6h0v0
	c-0.2-0.7-0.8-3.1-0.7-3.5c0.4-1.5,2.3-2.6,2.9-2.9h0l1,1.4c0.3-0.5,0.8-0.9,1.3-1.1c0.1,0,0.2,0,0.3,0c0.3,0,0.6,0.1,0.8,0.3
	c0.1,0.1,0.2,0.3,0.2,0.5l0.9-0.4c0.7,0.5,1.4,1,2,1.7l0.5-0.7l0,0c0.7,0.9,1.5,1.7,2.5,2.3c0.3-0.4,0.4-0.9,0.3-1.4
	c0-0.1,0.1-0.1,0.2-0.1c0.1,0,0.1,0,0.2,0c0.4,0,0.9,0.5,1.1,0.8c0.1,0.1,0.2,0.2,0.4,0.3c0.2,0.1,0.3,0.1,0.5,0.1
	c0.1,0,0.1,0,0.2,0c0.1,0,0.1,0,0.1-0.1c0,0,0-0.1,0.1-0.1c0,0,0-0.1,0-0.1H85c0.4,1.4,1.1,2.6,2.2,3.7c1,1,2.3,1.7,3.7,2.1h0v0
	c-0.3,1-0.4,2.1-0.3,3.2v0.1l-0.1-0.1c-0.2-0.2-0.4-0.2-0.6-0.2c-0.1,0-0.2,0-0.3,0.1c0,1.5-0.4,2.9-0.9,4.2v0h0c0,0-0.1,0-0.1,0
	c-0.4,0-0.5,0.5-0.6,1.1c-0.1,0.6-0.2,1.2-0.7,1.4h0l-0.5-0.7C86.2,141.2,85.6,141.9,84.7,142.2L84.7,142.2L84.7,142.2z"/>
<path class="st4" d="M70,128.5c0.2,0,0.3-0.1,0.5-0.2c0.1-0.1,0.3-0.2,0.3-0.4c0.7,2.1,1.2,4.2,1.4,6.4c0.3-0.6,0.7-1,1.2-1.3
	c-0.4,0.5,0.4,1.1,1,1.2c0.6,0.2,1.3,1,0.7,1.3l1.1-0.1l0.1,2.1c0.2,0,0.3,0,0.5,0c0.2,0,0.3-0.1,0.4-0.3l0.5,1l0.9-1
	c-0.1,0.5,0.1,1.1,0.4,1.5l1.1-0.7c-0.1,0.6,0,1.3,0.4,1.8l1.2-0.8c0.3,0.5,0.5,1.2,0.4,1.8l1-1c-0.1,0.7,0,1.4,0.4,2.1
	c0.2-0.3,0.5-0.5,0.8-0.7c0.3,0.3,0.4,0.7,0.4,1.1c0.8-0.4,1.4-1,1.8-1.8l0.5,0.7c0.9-0.5,0.4-2.7,1.4-2.5c0.6-1.4,0.9-2.8,0.9-4.3
	c0.2-0.1,0.4-0.1,0.5-0.1c0.2,0,0.3,0.1,0.5,0.2c-0.1-1.1,0-2.2,0.3-3.2c-1.4-0.4-2.7-1.1-3.7-2.1c-1-1-1.8-2.3-2.2-3.7
	c0,0.6-1,0.4-1.3-0.1c-0.4-0.5-1-1.1-1.4-0.7c0,0.3,0,0.5,0,0.8c-0.1,0.3-0.2,0.5-0.3,0.7c-1-0.5-1.9-1.3-2.6-2.3l-0.5,0.7
	c-0.6-0.6-1.2-1.2-2-1.7l-0.9,0.4c0-0.6-0.7-0.9-1.3-0.8c-0.5,0.2-1,0.6-1.3,1.1c-0.3-0.5-0.7-0.9-1-1.4c-1.1,0.6-2.5,1.6-2.9,2.9
	C69.2,125.5,70,128.5,70,128.5z"/>
<path class="st4" d="M131,217.8c-0.6,0-1.1-0.1-1.7-0.2c-1.4-0.4-2.8-0.9-4.1-1.6c-1-0.4-1.9-1.1-2.7-1.8c-0.6-0.7-1-1.6-1.3-2.5
	c-1.3-4-1.3-8.4,0.1-12.4l0.1-0.3c0.8-2.4,1.9-5.3,0.1-6.9c-0.5-0.5-1.2-0.7-1.9-0.7c-0.8,0-1.6,0.3-2.3,0.7c-0.7,0.4-1.3,1-1.7,1.6
	c-0.7,1.2-1.3,2.6-1.6,3.9c-0.2,0.9-0.5,1.7-0.9,2.6c-1.8,4.1-6.3,6.9-11.2,6.9c-2.2,0-4.4-0.6-6.2-1.8l-5.4-0.9v0
	c0-0.1,0.1-0.2,0-0.3c0-0.1,0-0.2-0.1-0.3c-0.1-0.2-0.3-0.3-0.5-0.4c-0.2-0.1-0.4-0.2-0.6-0.2h-0.2c-0.2,0-0.4,0-0.6,0
	c-0.2,0-0.4,0-0.6,0c-0.2,0-0.4,0-0.6-0.1c-1.4-0.5-1.4-2.4-1.3-3.2c0.4-5.6,2.6-10.8,4.8-15.9c0.6-1.4,1.2-2.8,1.7-4.1
	c0.3-0.7,0.5-1.3,0.3-2c-0.1-0.2-0.2-0.5-0.4-0.6c-0.2-0.2-0.4-0.3-0.7-0.3c-0.1,0-0.3,0-0.4,0.1l0-0.1c0.2-0.2,0.3-0.4,0.3-0.6
	c0.1-0.2,0.1-0.5,0-0.7c-0.1-0.2-0.2-0.4-0.4-0.6c-0.2-0.2-0.4-0.3-0.6-0.3h0l0.2-12.2c0.1-3.1,0.1-6.2-0.6-9.2
	c-1-4.4-3.7-8.3-6-11.8v0v0c7.2-10.5,17.9-18,28.3-25.2c3.9-2.7,8-5.5,11.8-8.5c5.5-4.2,10.6-8.9,15.2-14.1l0,0l0,0
	c3.6,4.9,6.8,10.2,9.3,15.7c0.6,1.4,0.9,3.1,0,3.9c0.1,0,0.1,0,0.2,0c0.2,0,0.3,0.1,0.5,0.1c0.1,0.1,0.3,0.2,0.4,0.3
	c0.4,0.5,0.6,1,0.6,1.6c0,0.4-0.1,0.8-0.2,1.2c-0.2,0.6-0.3,1.3-0.2,2c0.1,0.3,0.3,0.6,0.5,0.7c0.3,0.2,0.6,0.3,0.9,0.3
	c0.2,0,0.4,0,0.5-0.1c0.1-0.1,0.2-0.3,0.3-0.4h0.1l0.6,3l0.4-2.3l7.6,14.4c3.8,7.2,8,15.3,8.5,24c2.6,7.7,3,16,1.3,23.9v0.1
	l-1.5-1.1c-0.5,3.2-2,5.2-4.5,6.2l-0.3,0.5l-0.4,0.5c-1.1,0.2-1.8,1.1-2.6,2.1l-16.4,20.8h0c-0.5-0.4-1.2-0.7-1.9-0.7l-1.4,2.1
	l-0.5,0.7l-0.1,0c0-0.1,0-0.1,0-0.2c0-0.1-0.1-0.1-0.1-0.2c-0.1-0.1-0.2-0.2-0.3-0.2c-0.1,0-0.2-0.1-0.4-0.1c-0.1,0-0.2,0-0.3,0.1
	c-0.4,0.3-0.8,0.6-1,1.1l-0.1,0.2c-0.8,1.2-1.9,2.3-3.2,3C134,217.4,132.5,217.8,131,217.8z"/>
<path class="st4" d="M164.1,187.1l-0.7,1.1c-1.1,0.2-1.9,1.2-2.6,2.1l-16.4,20.8c-0.5-0.4-1.2-0.7-1.9-0.7l-1.9,2.8
	c0.1-0.6-0.7-0.9-1.2-0.7c-0.5,0.2-0.8,0.8-1.1,1.2c-0.9,1.5-2.3,2.6-3.9,3.3c-1.6,0.7-3.4,0.9-5.1,0.5c-1.4-0.4-2.8-0.9-4.1-1.6
	c-1-0.4-1.9-1-2.7-1.8c-0.6-0.7-1-1.6-1.3-2.5c-1.3-4-1.3-8.4,0.1-12.4c0.9-2.4,2.1-5.5,0.2-7.3c-1.7-1.6-4.7-0.4-6,1.6
	c-1.3,1.9-1.6,4.4-2.5,6.5c-2.8,6.3-11.7,8.9-17.5,5l-5.3-0.9c0.2-0.6-0.5-1.2-1.2-1.2c-0.7,0-1.4,0.2-2,0c-1.2-0.4-1.4-2-1.3-3.2
	c0.5-7.1,3.9-13.5,6.5-20.1c0.3-0.6,0.5-1.3,0.3-2c-0.2-0.7-1-1.2-1.6-0.8c0.8-0.7,0.3-2.2-0.7-2.3l0.2-12.2
	c0.1-3.1,0.1-6.2-0.6-9.2c-1-4.3-3.6-8.1-6-11.8c9.9-14.5,26.2-22.9,40.1-33.7c5.5-4.2,10.6-8.9,15.2-14.1
	c3.6,4.9,6.8,10.2,9.3,15.7c0.6,1.4,1,3.3-0.2,4c1-0.5,1.9,0.9,1.8,1.9c-0.1,1.1-0.7,2.1-0.4,3.2c0.2,1,2.1,1.5,2.2,0.4l0.6,3.2
	l0.4-2.4l7.5,14.3c4.2,8,8.5,16.3,8.5,25.3c-0.3-0.3-0.5-0.6-0.6-1c-0.1-0.4,0-0.8,0.3-1.1c2.8,7.9,3.3,16.5,1.6,24.7l-1.5-1.1
	C168.2,183.9,166.9,186,164.1,187.1z"/>
<path class="st5" d="M90.8,137.7c-1.3-1.7-2.5-3.4-3.7-5.2l-1.3,1.7l-0.4-1.4l-0.9,1.7l-0.2-1.1l-1.9,1.9l-0.1-1.7
	c-0.7,0.3-1.2,0.8-1.6,1.5l-0.1,0c0.1-0.6,0.1-1.1-0.2-1.7l-1,1.5l-0.1,0l0.3-2.1c-0.6,0.7-1.1,1.6-1.5,2.5v0.1l0,0
	c-0.6-0.6-1-1.3-1.2-2c-0.2-0.8-0.3-1.6-0.1-2.4c-0.1,0.1-0.2,0.1-0.3,0.1c-0.1,0-0.2,0-0.3-0.1c-0.1-0.1-0.2-0.1-0.2-0.3
	c-0.1-0.3-0.1-0.7,0.1-1c-0.7,0.3-1.4,0.8-1.7,1.5l-0.1,0l1.5-4.4l-2.8,3.2l-0.1,0c0.4-1.9,0.7-3.8,0.7-5.7l-0.6,1.3l0-0.1
	c-5.2-10.3-10-21.1-5.9-30.6c1.8-4.2,5.5-7.1,9-10c1.9-1.4,3.6-3,5.3-4.6c1.7-1.8,3.2-3.7,4.6-5.6c0.8-1.1,1.7-2.3,2.7-3.4
	c3-3.7,6-5.9,9.2-6.9c1.1-0.3,2.3-0.5,3.5-0.5c2.4,0,4.7,0.7,6.7,1.9c1.6,1,3,2.4,4.3,3.7c2.1,2.1,4.2,4.1,7,4.8
	c0.7,0.2,1.4,0.2,2.1,0.2c1.9,0,3.8-0.5,5.4-0.9c0.2,0,0.3-0.1,0.5-0.2c-0.1-0.1-0.2-0.1-0.3-0.2c0,0,0,0,0-0.1c0,0,0-0.1,0-0.1
	c0,0,0.1-0.1,0.1-0.1c0,0,0.1,0,0.1,0c0.1,0,0.2,0,0.2,0.1c0,0,0,0,0,0.1c0,0,0,0.1,0,0.1c0,0.1,0,0.2-0.1,0.2
	c0.2,0.1,0.4,0.1,0.5,0.1c0.4,0,0.7-0.1,1.1-0.2c0.3-0.2,0.7-0.4,0.9-0.6l0.1-0.1l0.1,1.4l0.9-0.8l0,0c0.2,0.5,0.3,0.9,0.2,1.4
	l2.2-2.3v0.1c0.7,2.8,0.6,5.7-0.5,8.4c0.1,0,0.1,0,0.2,0c0.2,0,0.4,0.1,0.5,0.2c0.1,0.1,0.2,0.3,0.3,0.5c0,0.3-0.1,0.6-0.2,0.8
	c-0.1,0.2-0.2,0.5-0.2,0.8c0,0.1,0,0.2,0.1,0.3c0,0.1,0.1,0.2,0.2,0.2c0.1,0.1,0.3,0.2,0.5,0.2c0.1,0,0.1,0,0.2,0
	c0.1,0,0.1-0.1,0.1-0.1h0.1c0.1,0.8-0.2,1.6-0.6,2.2l1.2-0.8l0,0.1l-1.3,1.7l0.9-0.4v0.1c-0.2,0.9-0.3,1.8-0.5,2.7
	c-0.4,2.3-0.8,4.7-1.8,6.9c-0.8,1.9-2.1,3.6-3.3,5.3c-3.5,4.8-7.1,9.7-11.4,13.8c-1.8,1.7-3.8,3.3-5.8,4.7c-2.1,1.5-4.1,3.2-6,5
	c-2.6,2.6-5.2,5.1-8.1,7.5c-1.4,1.1-2.8,2.2-4.3,3.2L90.8,137.7L90.8,137.7z"/>
<path class="st5" d="M127.3,73c-0.2-0.2,0.4-0.3,0.4,0c0,0.3-0.4,0.4-0.7,0.5c-2.5,0.6-5.1,1.2-7.6,0.7c-4.6-1.1-7.3-6-11.3-8.5
	c-1.5-0.9-3.2-1.5-5-1.8c-1.8-0.2-3.6-0.1-5.3,0.4c-3.7,1.1-6.7,3.9-9.1,6.9c-2.5,3-4.5,6.3-7.2,9.1c-4.8,4.9-11.6,8.3-14.3,14.6
	c-4.2,9.7,1.1,21.1,5.9,30.5l0.6-1.4c-0.1,2-0.3,3.9-0.8,5.9l2.9-3.3l-1.5,4.6c0.4-0.7,1.1-1.3,1.8-1.6c-0.2,0.3-0.2,0.7-0.1,1.1
	c0.1,0.3,0.7,0.5,0.8,0.1c-0.2,0.8-0.2,1.6,0.1,2.4c0.2,0.8,0.6,1.5,1.2,2.1c0.3-1,0.9-1.8,1.6-2.6l-0.3,2.2l1-1.6
	c0.3,0.5,0.4,1.2,0.2,1.8c0.4-0.7,1-1.2,1.7-1.6l0.1,1.7l1.8-1.8l0.2,1.1l0.9-1.7l0.4,1.4l1.3-1.7c1.2,1.8,2.4,3.5,3.8,5.2l2.2-1.6
	l1-0.8c1.4-1,2.9-2.1,4.2-3.2c2.8-2.3,5.5-4.8,8.1-7.5c3.6-3.6,8.2-6.2,11.9-9.7c4.3-4.1,7.8-9,11.3-13.8c1.2-1.7,2.4-3.4,3.3-5.3
	c1.3-3,1.6-6.4,2.3-9.6l-0.9,0.4l1.4-1.8l-1.4,0.9c0.5-0.7,0.8-1.5,0.7-2.4c-0.2,0.5-1.1,0-1.1-0.6c0-0.5,0.4-1.1,0.4-1.6
	c0-0.6-0.9-1-1.1-0.4c1.1-2.7,1.3-5.8,0.6-8.6l-2.2,2.3c0.1-0.5,0-1-0.2-1.5l-0.9,0.9l-0.1-1.4C129.6,73.2,127.9,73.8,127.3,73z"/>
<path class="st6" d="M121.7,196.1c0.3-0.6,0.4-1.3,0.3-2s-0.5-1.3-1.1-1.7c-0.5-0.3-1-0.5-1.5-0.5c-0.4,0-0.8,0.1-1.2,0.2
	c-0.4,0.2-0.7,0.4-1,0.7l0,0l0,0c-0.2-0.2-0.3-0.3-0.4-0.3h0v0c0-0.2-0.1-0.4-0.2-0.5c-1.7-2.8-2.5-6.2-2.2-9.5
	c-0.1,0-0.1,0-0.2,0.1c0,0-0.1,0-0.1,0c-0.4-0.1-0.5-0.5-0.6-0.9c-0.4-1.8-0.7-3.7-0.7-5.6l-0.9,1.9l0,0.1l0-0.1
	c-0.6-2.8-0.8-5.6-0.8-8.5l-1.2,1.9v-0.1c-0.4-2.9-0.5-5.8-0.3-8.7c-1.2,1.5-2,3.3-2.5,5.1H107c-0.7-4.3-0.9-8.8-0.6-13.2l-1.8,1.4
	l1.2-5h-1.6v0c0.4-1.1,0.9-2.1,1.5-3l-1.5,0.3l-0.5,0.1v0c-0.1-0.6,0.4-1.1,0.8-1.6c0.2-0.2,0.4-0.4,0.5-0.6
	c0.1-0.2,0.2-0.4,0.2-0.7c0-0.2-0.1-0.5-0.2-0.7c0-0.1-0.1-0.2-0.2-0.3c-0.1-0.1-0.2-0.1-0.3-0.1c-0.1,0-0.2,0-0.3,0.1l-0.1,0
	c0.4-0.6,0.8-1.3,1.1-2c0.3-0.5,0.5-1,0.7-1.5c-0.4,0.3-0.8,0.4-1.2,0.4c-0.2,0-0.4,0-0.6-0.1c-0.1-0.1-0.1-0.2-0.1-0.4
	c0-0.1-0.1-0.3-0.1-0.4v-0.1c0.1-0.5,0.1-1,0.1-1.5c0.1-0.4,0.2-0.8,0.3-1.2c0.2-0.9,0.4-1.8,0.5-2.8c0.2-1.9-0.2-3-1.1-3.3l-0.1,0
	l0,0c0.3-0.5,0.6-1.1,0.7-1.7c0,0,0,0,0,0h0l0-0.1c0.3-0.2,0.6-0.4,0.8-0.7c0.1-0.2,0.1-0.3,0.1-0.5s-0.1-0.4-0.2-0.5l0,0v0
	c0.1-0.2,0.2-0.4,0.4-0.5c0.2-0.1,0.3-0.3,0.5-0.3c1.2-0.4,2-1.2,2.9-2c0.7-0.7,1.5-1.3,2.3-1.8c1.5-0.8,3.4-1.7,5.4-1.8
	c0.3,0,0.6,0,1,0h0.1c0.4,0,0.9,0,1.3,0c1.7-0.2,3.3-1,4.7-1.8c2.9-1.7,5.7-3.6,8.4-5.6l0.1,0v0.1c0.1,0.7,0.1,1.3,0.2,2
	c0.5,1,0.8,2,0.8,3.1c0.2,0,0.3,0.1,0.5,0.2l1.1-0.6l0,0c0.5,0.9,0.4,2.2-0.3,3.3c0,0,0,0.1-0.1,0.1c-0.2,0.8-0.1,1.7,0.2,2.5
	c0.3,0.8,0.7,1.5,1.4,2.1l0,0.1c-0.1,0-0.1,0-0.2,0c-0.2,0-0.3,0.1-0.5,0.1c-0.1,0.1-0.3,0.2-0.3,0.3c-0.1,0.1-0.1,0.2-0.2,0.4
	c0,0.1,0,0.3,0,0.4c0,4.6,1,9.2,2.8,13.5v0c-2.2,2.3-1.6,5.9-1.1,9.1c0.1,0.3,0.1,0.7,0.2,1c0.7,4.3,0.4,8.6-0.7,12.8
	c-0.7,0.8-1.3,1.6-2,2.4l0.9,2c-1.1,4.2-2.8,8.3-4.9,12.1c0,0.1-0.1,0.2,0,0.2c0,0.1,0,0.2,0.1,0.2c0.1,0.1,0.1,0.2,0.2,0.2
	c0.1,0.1,0.2,0.1,0.3,0.1c0.1,0,0.2,0,0.3-0.1l0.1,0L121.7,196.1L121.7,196.1z M114.5,182.1c0,0.1,0,0.2,0,0.4c0,0,0.1-0.1,0.1-0.1
	c0,0,0-0.1,0-0.1C114.6,182.2,114.6,182.2,114.5,182.1C114.5,182.2,114.5,182.2,114.5,182.1z"/>
<path class="st6" d="M136.7,151.7c0.7,4.3,0.4,8.6-0.7,12.8l-2,2.4c0.3,0.7,0.6,1.3,0.9,2c-1.1,4.2-2.8,8.3-4.9,12
	c-0.3,0.5,0.5,1.1,0.9,0.8l-9.1,14.3c0.3-0.6,0.4-1.3,0.3-2s-0.6-1.3-1.1-1.7c-0.6-0.4-1.3-0.6-2-0.5c-0.7,0.1-1.3,0.4-1.8,1
	c-0.2-0.2-0.3-0.3-0.4-0.3c0-0.2-0.1-0.4-0.2-0.5c-1.7-2.9-2.5-6.2-2.2-9.5c0.2-0.1,0.3-0.4,0.1-0.5c0,0.2,0,0.3-0.1,0.5
	c0,0-0.1,0.1-0.1,0.1c-0.1,0-0.1,0-0.2,0c-0.3-0.1-0.5-0.5-0.6-0.8c-0.4-1.9-0.7-3.8-0.7-5.8l-0.9,2c-0.6-2.8-0.8-5.7-0.8-8.6
	l-1.2,2c-0.4-2.9-0.5-5.9-0.3-8.8c-1.2,1.6-2.1,3.3-2.6,5.2c-0.7-4.4-0.9-8.8-0.6-13.2l-1.8,1.4l1.2-4.9h-1.6
	c0.4-1.1,0.9-2.1,1.6-3.1l-2,0.5c-0.1-0.9,0.8-1.5,1.3-2.2c0.5-0.7-0.1-2.2-0.8-1.7c0.4-0.6,0.8-1.3,1.2-2c0.3-0.5,0.5-1.1,0.8-1.6
	c-0.3,0.2-0.6,0.4-0.9,0.4c-0.3,0.1-0.7,0.1-1,0c0-0.1-0.1-0.2-0.1-0.3c0-0.1-0.1-0.3-0.1-0.4c0,0,0,0,0,0c0.1-0.5,0.1-1,0.1-1.6
	c0.2-1.1,0.6-2.6,0.8-4c0.2-1.6,0-2.9-1.2-3.4c0.2-0.2,1-2,0.6-1.8c0.3-0.2,0.6-0.4,0.9-0.8c0.1-0.2,0.2-0.4,0.1-0.5
	c0-0.2-0.1-0.4-0.2-0.5c0.1-0.2,0.2-0.4,0.4-0.5c0.2-0.1,0.3-0.3,0.5-0.3c2.1-0.8,3.3-2.8,5.3-3.8c1.7-0.9,3.5-1.7,5.4-1.8
	c0.8,0,1.6,0,2.4-0.1c1.7-0.2,3.2-1,4.7-1.8c2.9-1.7,5.7-3.6,8.4-5.6c0.1,0.7,0.1,1.3,0.2,2c0.5,1,0.8,2.1,0.8,3.2
	c0.2,0,0.4,0.1,0.5,0.2l1.1-0.6c0.6,1,0.3,2.3-0.3,3.2l-0.1,0.1c-0.2,0.8-0.1,1.7,0.2,2.5c0.3,0.8,0.8,1.5,1.4,2.1
	c-0.2,0-0.3,0-0.5,0c-0.2,0.1-0.3,0.1-0.4,0.3c-0.1,0.1-0.2,0.3-0.3,0.4c0,0.2-0.1,0.3,0,0.5c0,4.6,1,9.2,2.8,13.5
	C135.1,144.1,136.1,148.2,136.7,151.7z"/>
<path class="st7" d="M92.6,129.3c-0.4,0-0.9-0.1-1.3-0.2s-0.8-0.4-1-0.8c-0.1-0.1-0.2-0.2-0.3-0.4c-0.2-0.3-0.4-0.6-0.8-0.8
	c-0.1,0-0.1,0-0.2,0c-0.1,0-0.3,0-0.4,0.1c-0.1,0.1-0.2,0.2-0.3,0.3c0,0.1,0,0.1,0,0.2c0,0.1,0,0.1,0.1,0.2l0,0
	c-1.6-1.4-2.6-3.4-2.9-5.5c-0.5,0.4-0.8,0.8-1.1,1.3c-0.3,0.5-0.4,1.1-0.5,1.7v0.1l-0.1-0.1c-0.6-0.8-1-1.6-1.2-2.6
	c-0.2-0.9-0.3-1.9-0.1-2.8l-2.1,1l-0.3-1.7c-0.4-0.2-0.7-0.5-1-0.9c-0.3-0.4-0.4-0.8-0.5-1.2c-0.2-0.8-0.1-1.6,0.2-2.3
	c-0.8,0.8-1.5,1.8-1.9,2.9h-0.1l-0.3-11.5c0.2-0.1,0.3-0.3,0.4-0.5c0.1-0.2,0.1-0.4,0.1-0.7c0-0.2-0.1-0.4-0.2-0.6
	c-0.1-0.2-0.3-0.3-0.5-0.4h-0.1l1-1.3c-0.1,0-0.1,0-0.2-0.1s-0.1-0.1-0.1-0.2c-0.2-0.4,0.1-0.9,0.7-1.4l6.8-5.6l2-2.1
	c-0.9-0.3-1.8-0.5-2.7-0.5c-0.5,0-0.9,0-1.3,0.1l-0.1,0l5.1-4.3c0.1,0.1,0.2,0.1,0.4,0.1c0.2,0,0.5-0.1,0.7-0.2
	c0.2-0.1,0.3-0.3,0.4-0.6c0.1-0.2,0.1-0.4,0.1-0.5c0-0.2-0.1-0.4-0.2-0.5l0,0h0.1c0.2-0.1,0.4-0.1,0.7-0.1c0.7,0,1.3,0.2,1.9,0.5
	c0.5,0.3,1.1,0.4,1.6,0.5c0.1,0,0.2,0,0.3,0c1-0.1,2.2-1,3.2-1.8c0.4-0.3,0.7-0.6,1-0.8l1.8-0.5l1.7-0.4c0.4-0.6,0.7-1.2,0.8-1.9
	c0.1-0.7,0.2-1.4,0-2.1v-0.1l0.1,0.1c0.1,0.1,0.3,0.2,0.5,0.2c0.2,0,0.3,0,0.5-0.1c0.2-0.1,0.3-0.2,0.4-0.3c0.1-0.1,0.1-0.2,0.2-0.3
	c0-0.1,0-0.2,0-0.4v0h0c3.2-1.1,6.2-2.9,8.8-5.1l0,0l0,0c0.5,0.8,1.1,1.4,1.9,1.9c0.7,0.5,1.6,0.8,2.5,1c0.5,0.1,1.1,0.4,1.2,0.8
	c0,0.1,0,0.2,0,0.3l3.6-2.3l0,0.1c-0.1,0.1-0.2,0.2-0.2,0.3c0,0.1,0,0.3,0,0.4c0,0.2,0.1,0.3,0.3,0.4c0.1,0.1,0.3,0.2,0.5,0.2
	c0.1,0,0.1,0,0.2-0.1l0.1,0l0,2.2l2.7-0.3c0.6,0,1.1-0.2,1.6-0.5l0.1,0c-0.4,1-0.5,2.2-0.1,3.2c0.3,1.1,1,2,1.9,2.6l0.4,2.3l1.6,0.6
	l1.6,0.6c0.8,5.1-2.7,9.6-6.1,13.5c-8.2,9.4-17.5,20.1-29.3,26.4C95.5,128.6,94,129.3,92.6,129.3z"/>
<path class="st7" d="M88.7,87c0.7,0.8-0.5,2.3-1.4,1.8l-4.9,4.2c1.4-0.2,2.8-0.1,4.1,0.4l-2,2.1l-6.9,5.6c-0.4,0.3-0.9,0.9-0.7,1.4
	c0.2,0.5,1.2-0.1,0.7-0.4l-1.4,1.9c0.9,0.2,1.1,1.7,0.3,2.1l0.3,11.5c0.5-1.2,1.2-2.2,2.1-3c-0.4,0.8-0.6,1.7-0.4,2.5
	c0.2,0.9,0.7,1.6,1.5,2.1l0.3,1.7l2.1-1c-0.2,0.9-0.2,1.9,0.1,2.9s0.6,1.8,1.2,2.6c0-0.6,0.2-1.2,0.5-1.7c0.3-0.5,0.7-1,1.1-1.4
	c0.3,2.1,1.4,4.1,2.9,5.6c-0.4-0.4,0.3-1,0.8-0.8c0.5,0.2,0.7,0.7,1.1,1.1c1.4,1.7,4.1,0.9,6-0.1c11.7-6.2,20.6-16.4,29.3-26.4
	c3.4-3.9,7-8.5,6.1-13.5l-3.2-1.1l-0.4-2.3c-0.9-0.6-1.6-1.5-1.9-2.6c-0.3-1.1-0.3-2.2,0.1-3.2c-0.5,0.3-1,0.5-1.6,0.5l-2.7,0.3
	l0-2.2c-0.7,0.3-1.5-1-0.8-1.4l-3.8,2.4c0.5-0.5-0.4-1-1.1-1.2c-0.9-0.2-1.7-0.5-2.5-1c-0.7-0.5-1.4-1.2-1.9-1.9
	c-2.6,2.2-5.6,3.9-8.8,5.1c0.2,0.8-1,1.5-1.6,1c0.1,0.7,0.1,1.4,0,2.1c-0.2,0.7-0.4,1.3-0.8,1.9l-3.5,0.9c-1.1,0.8-2.8,2.4-4.2,2.6
	C91.6,88.1,90.4,86.5,88.7,87z"/>
<path class="st8" d="M96.1,133.3c-0.2-0.3-0.4-0.6-0.5-0.9c-0.1-0.3-0.2-0.7-0.1-1.1c-0.1,0.1-0.2,0.2-0.4,0.3
	c-0.1,0.1-0.3,0.1-0.5,0.1c-0.4,0-0.7-0.1-1-0.4c-0.5-0.5-0.6-1.2-0.7-2l-1.1,0.8l-0.8,0.6l-0.9-3.1c-0.1,0.1-0.2,0.2-0.3,0.2
	c-0.1,0-0.2,0.1-0.3,0.1c-0.1,0-0.2,0-0.3-0.1c-0.1,0-0.2-0.1-0.2-0.2c-0.2-0.4-0.2-0.8-0.1-1.2c0-0.2,0-0.4,0-0.6
	c0-0.2-0.1-0.4-0.3-0.6c-0.1-0.2-0.3-0.3-0.6-0.3c-0.1,0-0.1,0-0.2,0c-0.1,0-0.1,0.1-0.1,0.1l-0.1,0c0.3-1.2,0.5-2.5,0.8-3.8
	l-1.4,1.2l-0.1,0c1.3-3.5,3.8-6.4,7.1-8.2c-0.1,0-0.2,0-0.3,0c-0.3,0-0.7-0.1-1-0.3c-0.3-0.2-0.6-0.4-0.8-0.7
	c-0.3-0.3-0.4-0.7-0.5-1.1c-0.1-0.4-0.1-0.8,0-1.3c0.5-1.8,2.5-2.8,4-3.3l-0.8-0.3l-3.1-1.3h0v0c0.9-1.6,2.1-2.4,3.8-2.4
	c1.1,0.1,2.2,0.2,3.2,0.5c0.4,0.1,0.8,0.2,1.2,0.3c0.5,0.1,1,0.2,1.5,0.4c0.2,0.1,0.4,0.1,0.7,0.2c0.3,0,0.6-0.2,1.5-0.9l0.6-0.5
	c0.7-0.5,4-3.6,4-4.4c-1.6-1.5-3.1-3.3-3.3-5.4c0-0.5,0.1-1,0.2-1.5c0.2-0.5,0.5-0.9,0.8-1.3c0.3-0.3,0.6-0.6,0.9-0.7
	c0.4-0.2,0.8-0.3,1.2-0.3c0.3,0,0.6,0,0.9,0.1h0l0,4.6c0.2,0.1,0.4,0.1,0.6,0.1c1.4,0,2.4-2.1,2.6-3.6c0.2-1.5,1.1-3.9,2.7-3.9
	c0.2,0,0.3,0,0.5,0.1h0l0.3,3c0.9-2.1,2.2-4,3.9-5.5c1.7-1.5,3.7-2.7,5.9-3.3h0.1l-0.3,1.7l1.7-1l0.1,0c-0.1,0.1-0.1,0.2-0.1,0.4
	c0,0.1,0,0.2,0.1,0.3c0,0.1,0.1,0.2,0.2,0.3c0.1,0.1,0.2,0.1,0.3,0.1c0.7,0,1.1-0.6,1.5-1.2l0-0.1l0.8,2.3l2.2-0.6v0
	c1,2.6,2.7,4.8,4.8,6.5l0,0l-0.1,0c-0.7,0.4-1.5,0.7-2.2,1.1c0.1,0,0.2,0.1,0.2,0.2c0.1,0.1,0.1,0.2,0.1,0.3c0.1,0.2,0.1,0.4,0,0.5
	c-0.1,0.2-0.2,0.3-0.3,0.4c-0.4,0.1-0.7,0.2-1.1,0.2c-0.4,0-0.7,0-1,0.2c-0.2,0.1-0.4,0.2-0.5,0.4c-0.1,0.2-0.2,0.4-0.2,0.6
	c0,0.2,0,0.4,0.1,0.6c0.1,0.2,0.2,0.4,0.3,0.5c0.2,0.2,0.5,0.3,0.8,0.3c0.3,0,0.6-0.1,0.8-0.2c0.2-0.2,0.4-0.4,0.5-0.7h0.1
	c0,0.5-0.2,1.1-0.4,1.5c-0.2,0.5-0.6,0.9-1,1.2c0,0,0.1,0.1,0.1,0.1c0.1,0.1,0.1,0.2,0.1,0.3c0.2,0.1,0.5,0.2,0.8,0.2
	c0.1,0,0.1,0,0.2,0h0l0.3,1h0c-0.7,0.3-1.2,0.8-1.8,1.3c-0.1,0.9-0.5,1.8-1.1,2.4l-0.2,0.2c-0.2,0.2-0.4,0.4-0.6,0.7
	c-0.2,0.4-0.3,0.9-0.3,1.4c0,0.2,0,0.4-0.1,0.7c0,0.3-0.1,0.6-0.3,0.8c-0.2,0.2-0.4,0.4-0.6,0.5c0.1,0.3,0.2,0.6,0.4,1
	c0.1,0.2,0.1,0.3,0.2,0.5c1.3,3.3,1.5,6.7,0.5,9.6c-1.1,3.2-3.8,5.8-6.9,6.4c-0.7,0.2-1.5,0.2-2.2,0.2c-1.3,0-2.6-0.2-3.9-0.4
	c-1.3-0.2-2.6-0.3-3.9-0.4h-0.3l-0.2,0.6h0c-0.2,0-0.5,0.1-0.6,0.3c-0.2,0.2-0.3,0.4-0.3,0.6h-0.1c0,0-0.1-0.1-0.1-0.1
	c0,0-0.1,0-0.1,0c-0.1,0-0.1,0-0.2,0c-0.1,0.1-0.2,0.2-0.2,0.3c0,0.1-0.1,0.1-0.2,0.2c-0.1,0.1-0.3,0.2-0.5,0.2
	c-0.2,0-0.3-0.1-0.5-0.2c-0.1,0.3-0.3,0.6-0.6,0.8l0,0l-0.4-1.2c-0.4,0.3-0.7,0.6-0.8,1.1l0,0.1l-0.3-0.4l-0.3,1.3h-0.1
	c0,0,0,0,0-0.1c0,0,0,0,0-0.1c0,0,0,0-0.1,0c0,0,0,0-0.1,0c-0.1,0-0.2,0.1-0.3,0.1c-0.1,0.1-0.2,0.1-0.3,0.2l-2.1,3.2l0,0.1
	l-0.6-1.3l-0.6,1.8l0,0l-0.7-1.1c-0.1,0.4-0.2,0.8-0.4,1.1l0,0l0,0c-0.1-0.1-0.2-0.2-0.3-0.3l-0.1-0.1c-0.2,0.3-0.4,0.6-0.7,0.8h0
	l-0.5-1.2l-0.2,0.3c-0.4,0.6-0.7,1.2-1.1,1.8l0,0.1l0-0.1c-0.2-0.4-0.2-0.9-0.1-1.3l-0.5,0.3c-0.2,0.2-0.5,0.3-0.8,0.3
	c-0.1,0-0.2,0-0.2,0c-0.1,0-0.1-0.1-0.2-0.1s-0.1-0.1-0.1-0.2L96.1,133.3L96.1,133.3z M98.2,131C98.1,131,98.1,131,98.2,131
	c-0.1,0.1-0.1,0.1-0.1,0.2L98.2,131z M132.9,97.4c-0.1,0-0.1,0-0.2,0c-0.1,0-0.1,0.1-0.1,0.1c0,0,0,0,0,0.1c0,0,0,0,0,0.1
	C132.8,97.6,132.9,97.5,132.9,97.4L132.9,97.4z"/>
<path class="st8" d="M134.9,92.7c-0.7,0.3-1.5,0.1-2.1,0.3c-0.2,0.1-0.4,0.2-0.5,0.4c-0.1,0.2-0.2,0.4-0.3,0.6c0,0.2,0,0.5,0.1,0.7
	c0.1,0.2,0.2,0.4,0.4,0.6c0.2,0.2,0.4,0.3,0.6,0.3c0.2,0,0.5,0,0.7,0c0.2-0.1,0.4-0.2,0.6-0.3c0.2-0.2,0.3-0.4,0.3-0.6
	c0,0.5-0.2,1.1-0.4,1.5c-0.3,0.5-0.6,0.9-1.1,1.2c-0.2-0.1-0.6,0.1-0.5,0.3c0.2-0.1,0.3-0.2,0.5-0.3c0.1,0,0.1,0.1,0.1,0.1
	c0.1,0.1,0.1,0.2,0,0.3c0.3,0.2,0.7,0.3,1,0.2l0.3,0.9c-0.7,0.3-1.3,0.8-1.8,1.3c-0.1,0.9-0.5,1.8-1.1,2.4c-0.3,0.3-0.6,0.6-0.8,0.9
	c-0.4,0.6-0.3,1.4-0.4,2.1c-0.1,0.6-0.4,1.2-0.9,1.3c0.2,0.5,0.4,1,0.6,1.5c1.2,3,1.5,6.5,0.5,9.6c-1.1,3.1-3.6,5.7-6.8,6.4
	c-3.3,0.7-6.9-0.6-10.3-0.5l-0.2,0.6c-0.2,0-0.5,0.1-0.6,0.3c-0.2,0.2-0.3,0.4-0.3,0.6c0-0.1-0.3-0.2-0.4-0.1
	c-0.1,0.1-0.2,0.3-0.4,0.5c-0.1,0.1-0.3,0.2-0.5,0.2c-0.2,0-0.3-0.1-0.5-0.2c-0.1,0.3-0.3,0.6-0.6,0.8c-0.1-0.4-0.2-0.8-0.4-1.2
	c-0.4,0.3-0.7,0.7-0.9,1.1l-0.3-0.4c-0.1,0.5-0.2,0.9-0.4,1.4c0-0.4-0.6-0.2-0.9,0.2l-2.1,3.2c-0.2-0.5-0.4-0.9-0.6-1.4
	c-0.2,0.6-0.4,1.2-0.6,1.8l-0.8-1.2c-0.1,0.4-0.2,0.8-0.4,1.2l-0.4-0.5c-0.2,0.3-0.4,0.6-0.7,0.8c-0.2-0.4-0.3-0.8-0.5-1.2
	c-0.4,0.7-0.8,1.4-1.3,2.1c-0.2-0.4-0.2-0.9-0.1-1.4c-0.2,0.1-0.4,0.2-0.5,0.3c-0.1,0.1-0.3,0.2-0.5,0.2c-0.2,0-0.3,0-0.5,0
	c-0.1,0-0.1-0.1-0.2-0.2c0-0.1-0.1-0.2-0.1-0.2l0.3-0.3c-0.2,0-0.3,0.1-0.3,0.3l-1.8,2c-0.3-0.3-0.4-0.6-0.6-1
	c-0.1-0.4-0.1-0.8-0.1-1.1c-0.3,0.7-1.3,0.6-1.8,0.1c-0.5-0.5-0.6-1.3-0.7-2l-1.9,1.4c-0.3-1-0.6-2.1-0.9-3.1c0,0,0-0.1,0-0.1
	c0,0,0-0.1-0.1-0.1l0.1,0.3c-0.1,0.1-0.1,0.2-0.2,0.2c-0.1,0.1-0.2,0.1-0.3,0.1c-0.1,0-0.2,0-0.3-0.1c-0.1,0-0.2-0.1-0.3-0.2
	c-0.3-0.5,0-1.2-0.1-1.8c0-0.6-0.8-1.2-1.2-0.8c0.3-1.3,0.5-2.6,0.8-3.9l-1.4,1.2c1.4-3.6,4-6.6,7.4-8.4c-1.7,0.8-3.4-1.5-2.9-3.2
	c0.5-1.7,2.3-2.7,4.1-3.3l-4-1.7c2-3.6,5.3-2.2,8.2-1.6c2.8,0.6,1.7,1.2,4.3-0.8c0.7-0.5,4.1-3.7,4.1-4.4c-1.5-1.5-3.1-3.2-3.3-5.4
	c-0.2-2.1,2-4.5,4-3.6c0,1.5,0,3.1,0,4.6c1.7,0.7,3-1.7,3.3-3.5c0.3-1.8,1.3-4.2,3.1-3.8l0.3,3.1c0.9-2.1,2.2-4,3.9-5.5
	c1.7-1.5,3.7-2.7,5.9-3.4l-0.3,1.7l1.8-1.1c0,0.1-0.1,0.2-0.1,0.4c0,0.1,0,0.2,0.1,0.3c0.1,0.1,0.1,0.2,0.2,0.3
	c0.1,0.1,0.2,0.1,0.3,0.1c0.7,0,1.1-0.7,1.5-1.2c0.3,0.7,0.5,1.5,0.8,2.2l2.2-0.6c1,2.6,2.7,4.8,4.8,6.5c-0.7,0.4-1.5,0.8-2.3,1.1
	c-0.1,0-0.1,0-0.2,0.1c0.1,0,0.1-0.1,0.2-0.1C135.2,91.3,135.4,92.4,134.9,92.7z"/>
<path class="st8" d="M90.1,127.3L90.1,127.3c0.1,0,0.1,0,0.1,0.1c0,0.1,0,0.1,0,0.2l0,0.1L90.1,127.3z"/>
<path class="st8" d="M90.2,127.6l-0.1-0.3c0,0,0.1,0.1,0.1,0.1C90.2,127.5,90.2,127.5,90.2,127.6z"/>
<path class="st8" d="M97.9,131.2c0-0.2,0.1-0.3,0.3-0.3h0h0.1L97.9,131.2L97.9,131.2z"/>
<path class="st8" d="M98.2,130.9l-0.3,0.3C98,131.1,98.1,130.9,98.2,130.9z"/>
<path class="st8" d="M127,82.2c0-0.1,0.1-0.1,0.1-0.1c0.1,0,0.1-0.1,0.2-0.1l0,0.1l-0.2,0.1l-0.2,0.1L127,82.2z"/>
<path class="st8" d="M127.4,82.1l-0.3,0.2c0-0.1,0.1-0.1,0.1-0.1C127.2,82.1,127.3,82.1,127.4,82.1z"/>
<path class="st8" d="M132.6,97.7c0,0,0-0.1,0-0.1c0,0,0-0.1,0-0.1c0-0.1,0.1-0.1,0.2-0.1c0.1,0,0.1,0,0.2,0c0.1,0,0.1,0,0.2,0l0.1,0
	l0,0C133,97.5,132.8,97.6,132.6,97.7L132.6,97.7L132.6,97.7z"/>
<path class="st8" d="M133.1,97.4c-0.1,0.1-0.3,0.2-0.5,0.3C132.5,97.5,132.9,97.3,133.1,97.4z"/>
<path class="st8" d="M134.6,91.4c0.1-0.1,0.1-0.1,0.2-0.1v0.1L134.6,91.4L134.6,91.4z"/>
<path class="st8" d="M134.8,91.3c-0.1,0-0.1,0.1-0.2,0.1C134.6,91.4,134.7,91.4,134.8,91.3z"/>
<path class="st9" d="M118.3,122.8c-0.5,0-1-0.1-1.5-0.2c-0.1,0-2.4-0.8-2.8-1.5c-0.5-0.8,0.3-1.4,1-2c0.2-0.1,0.3-0.3,0.5-0.4
	l5.8-5.5c1.1-1,2.1-2.1,3.1-3.2c0.6-0.8,1.2-1.6,1.8-2.5l0.2-0.3c0.1-0.2,0.3-0.4,0.5-0.4c0,0,0.1,0,0.1,0c0.4,0,0.7,0.5,0.8,1
	c0.4,2.4,0.3,4.8-0.5,7.1c-0.8,2.3-2.1,4.3-3.9,5.9C121.7,122,119.9,122.8,118.3,122.8z"/>
<path class="st9" d="M121.2,113.1c1.1-1,2.1-2.1,3.1-3.2c0.7-0.9,1.4-1.8,2-2.8c0.1-0.2,0.3-0.3,0.5-0.4c0.5-0.1,0.8,0.5,0.9,1
	c0.5,2.4,0.3,4.8-0.5,7.1c-0.8,2.3-2.1,4.3-4,5.9c-1.8,1.5-4.2,2.6-6.4,1.9c-0.7-0.2-2.4-0.9-2.8-1.5c-0.6-1,0.8-1.7,1.5-2.4
	L121.2,113.1z"/>
<path class="st10" d="M103.7,123.9c-0.8-0.5-1.4-1.3-1.7-2.2c-0.4,0.1-0.7,0.4-1,0.7l0,0l0,0c-0.4-0.7-0.7-1.5-0.8-2.4
	c-1-0.2-1.9-0.8-2.5-1.6c-0.6-0.8-1-1.8-1-2.8v-0.2c0-0.5,0.1-1.1-0.3-1.4c-0.2-0.1-0.4-0.2-0.6-0.3c-0.3-0.1-0.6-0.2-0.7-0.5
	c0-0.1,0-0.1,0-0.2l-3.4,0.6l2.2-2.8c0-0.1,0-0.2,0-0.3c0-0.1,0.1-0.2,0.1-0.2c0.1-0.1,0.3-0.2,0.4-0.3c0.2-0.1,0.3-0.1,0.5-0.1
	c0.1,0,0.1,0,0.2,0c0.2,0.1,0.5,0.1,0.7,0.2c0.3,0.1,0.6,0.2,1,0.2h0.1c1-0.1,1.8-0.9,2.5-1.7c0.9-1,1.8-2,3.2-2
	c0.3,0,0.6,0,0.9,0.1c0.4,0.1,0.7,0.2,1,0.5c0.3,0.2,0.5,0.5,0.7,0.8c0.8,1.6,0,4.3-1,6.6c0.8,1.7,0.9,3.6,0.4,5.3
	C104,121.4,103.7,122.6,103.7,123.9L103.7,123.9L103.7,123.9z"/>
<path class="st10" d="M96.8,110.6c-0.6,0-1.1-0.3-1.7-0.4c-0.6-0.1-1.4,0.3-1.2,0.9l-2.2,2.7l3.4-0.6c-0.2,0.5,0.7,0.6,1.2,1
	c0.5,0.3,0.4,1,0.3,1.6c0,1,0.3,2,1,2.8c0.6,0.8,1.5,1.3,2.5,1.6c0.1,0.8,0.4,1.6,0.8,2.4c0.3-0.3,0.6-0.6,1.1-0.7
	c0.3,0.9,0.9,1.7,1.7,2.2c0-1.3,0.3-2.5,0.9-3.7c0.5-1.8,0.4-3.7-0.4-5.3c1.1-2.6,2.6-7-0.7-7.9C100.1,106.2,99.2,110.5,96.8,110.6z
	"/>
<path class="st10" d="M127.7,102.9c0-0.5-0.1-0.9-0.4-1.3c0,0,0,0.1-0.1,0.1c0,0-0.1,0.1-0.2,0.1c-0.1,0-0.1,0-0.2,0
	c-0.1,0-0.2,0-0.3-0.1c-0.1-0.1-0.2-0.2-0.2-0.3c-0.1-0.3-0.1-0.6,0-0.9c0-0.2,0-0.3,0.1-0.5c0-0.9-0.7-1.5-1.4-1.8
	c-0.5-0.2-1-0.3-1.5-0.2c-0.3,0-0.7,0-1,0.1c-2.3,0.2-4.6,0.7-6.8,1.4l-0.1,0c-0.5,0.2-1,0.3-1.5,0.3h-0.1c-0.4,0-0.8-0.2-1.2-0.4
	c-0.3-0.2-0.6-0.6-0.8-1c-0.3-0.5-0.4-1.1-0.4-1.6c0-0.6,0.2-1.1,0.4-1.6c0.5-0.6,1-1.2,1.7-1.7c0.2-0.2,0.6-0.5,1-1
	c1.3-1.2,3.1-3,4.1-3h0.1c0.6,0.1,2.2,1.9,2.3,2.8c0,0.1,0,0.2-0.1,0.3c0.2-0.1,0.5-0.1,0.8-0.1c0.5,0,0.9,0.1,1.4,0.3
	c0.4,0.2,0.8,0.5,1.1,0.8c0.1-0.2,0.2-0.3,0.3-0.4c0.1-0.1,0.3-0.1,0.5-0.1c0.6,0,1.1,0.3,1.6,0.6c1.2,1,2.8,2.5,3.3,4.5
	C130.5,100.1,129.7,102.4,127.7,102.9L127.7,102.9L127.7,102.9z"/>
<path class="st10" d="M113.7,93.5c-0.6,0.5-1.2,1-1.7,1.7c-1.1,1.7-0.1,4.4,1.9,4.5c0.6,0,1.2-0.1,1.7-0.3c2.2-0.7,4.5-1.2,6.8-1.4
	c0.8-0.1,1.7-0.1,2.5,0.2c0.4,0.1,0.7,0.4,1,0.7c0.3,0.3,0.4,0.7,0.5,1.1c0,0.5-0.2,1,0,1.4c0.2,0.4,1,0.4,1,0
	c0.3,0.4,0.5,0.9,0.4,1.5c1.8-0.5,2.7-2.8,2.3-4.6c-0.4-1.8-1.8-3.3-3.3-4.5c-0.7-0.6-2-1-2.3-0.1c-0.4-0.5-1-0.8-1.6-1
	c-0.6-0.2-1.3-0.2-1.9,0c0.9-0.3-1.4-3-2.1-3.1C117.6,89.5,114.7,92.7,113.7,93.5z"/>
<path class="st5" d="M103.3,107.9L103.3,107.9c-0.8-1.1-1.3-2.2-1.6-3.4h0.1c0.3,1.2,0.8,2.3,1.5,3.2c0-0.6,0.2-1.1,0.5-1.6
	c0.3-0.5,0.7-0.9,1.2-1.2c0.3-0.2,0.7-0.4,1.1-0.5c0.4-0.2,0.8-0.3,1.2-0.6c0.4-0.3,0.7-0.7,0.9-1.2c0-0.1,0-0.3,0-0.4
	c0-0.1-0.1-0.3-0.2-0.4l-0.1-0.1l0.1,0c0.2,0.1,0.5,0.1,0.8,0.1s0.5-0.1,0.7-0.3c0.2-0.1,0.4-0.3,0.5-0.5c0.1-0.2,0.2-0.5,0.3-0.7
	v-0.1h0c0.3,0.1,0.6,0.1,0.8,0c0.2-0.1,0.4-0.3,0.5-0.5c-2-0.2-3.9-0.8-5.5-2c0.2,0.6,0.1,1.2-0.2,1.8c-0.1,0.3-0.3,0.6-0.6,0.8
	c-0.2,0.2-0.5,0.4-0.8,0.5c0,0.4-0.1,0.8-0.1,1.2v0l-1.7,0.1c0,0.5-0.1,0.9-0.2,1.4v0h0c-0.1,0-0.3,0-0.4,0c-0.1,0-0.2,0.1-0.3,0.2
	c-0.1,0.1-0.1,0.2-0.2,0.4c0,0.1,0,0.3,0.1,0.4l-0.1,0c-0.1-0.1-0.1-0.3-0.1-0.4c0-0.2,0.1-0.3,0.2-0.4c0.1-0.1,0.2-0.2,0.3-0.3
	c0.1,0,0.3,0,0.4,0c0.1-0.4,0.2-0.9,0.2-1.3v0l1.7-0.1c0-0.4,0.1-0.8,0.1-1.2v0h0c0.6-0.2,1.1-0.6,1.4-1.2c0.3-0.6,0.3-1.2,0.2-1.8
	l0-0.1l0.1,0.1c1.7,1.1,3.6,1.8,5.6,2h0.1v0c-0.1,0.3-0.3,0.5-0.6,0.6c-0.3,0.1-0.6,0.1-0.8,0.1c0,0.3-0.1,0.5-0.3,0.7
	c-0.1,0.2-0.3,0.4-0.5,0.5c-0.2,0.1-0.5,0.2-0.7,0.3c-0.3,0-0.5,0-0.8,0c0.1,0.2,0.2,0.5,0.1,0.8c-0.1,0.5-0.4,1-0.9,1.3
	c-0.4,0.2-0.8,0.4-1.2,0.6c-0.4,0.1-0.7,0.3-1.1,0.5c-0.5,0.3-0.9,0.7-1.2,1.2C103.5,106.7,103.4,107.2,103.3,107.9L103.3,107.9z"/>
<path class="st5" d="M101.8,104.5c0.3,1.2,0.8,2.3,1.5,3.3c0-0.6,0.2-1.1,0.5-1.6c0.3-0.5,0.7-0.9,1.2-1.2c0.7-0.4,1.6-0.6,2.3-1.1
	c0.7-0.5,1.2-1.5,0.7-2.2c0.2,0.1,0.5,0.1,0.8,0.1c0.3,0,0.5-0.1,0.7-0.3c0.2-0.1,0.4-0.3,0.6-0.6c0.1-0.2,0.2-0.5,0.3-0.7
	c0.3,0.1,0.6,0.1,0.8,0c0.3-0.1,0.5-0.3,0.6-0.6c-2-0.2-4-0.8-5.7-2c0.2,0.6,0.1,1.3-0.2,1.9c-0.3,0.6-0.8,1-1.4,1.2l-0.1,1.2
	l-1.7,0.1c0,0.5,0,0.9-0.2,1.4c-0.1,0-0.3,0-0.4,0c-0.1,0-0.3,0.1-0.3,0.2c-0.1,0.1-0.2,0.2-0.2,0.4c0,0.1,0,0.3,0.1,0.4"/>
<path class="st11" d="M113.6,99.9c-0.3,0-0.6-0.1-0.9-0.2s-0.5-0.4-0.7-0.6c-0.3-0.4-0.4-0.8-0.5-1.2c-0.1-0.4,0-0.9,0.1-1.3
	c0.5-1.2,1.8-2.2,3.6-2.6v0.1c0.3,0.1,0.7,0.2,0.9,0.5c0.3,0.2,0.4,0.6,0.5,0.9c0.1,0.8,0,1.6-0.4,2.3
	C115.9,98.3,115,99.8,113.6,99.9L113.6,99.9z M114.9,94c-1.6,0.4-2.8,1.3-3.2,2.5c-0.1,0.4-0.2,0.8-0.1,1.3c0.1,0.4,0.2,0.8,0.5,1.2
	c0.2,0.3,0.4,0.5,0.7,0.6s0.6,0.2,0.9,0.2h0c1.4,0,2.2-1.5,2.5-2.2c0.4-0.7,0.5-1.5,0.4-2.3c-0.1-0.4-0.3-0.7-0.5-0.9
	c-0.3-0.2-0.6-0.4-1-0.4L114.9,94L114.9,94z"/>
<path class="st11" d="M115.1,93.9c-1.5,0.3-3,1.2-3.5,2.6c-0.5,1.4,0.5,3.4,2,3.3c1.2,0,2.1-1.1,2.5-2.2c0.4-0.7,0.5-1.5,0.4-2.3
	c-0.2-0.8-0.9-1.5-1.7-1.4"/>
<path class="st11" d="M100.5,113.1c-0.2,0-0.4,0-0.6-0.1c-0.8-0.3-1.1-1.4-0.8-2.2c0.3-0.8,0.9-1.5,1.6-2c0.8-0.6,1.6-1.2,2.5-1.6
	c-0.1,0-0.2,0-0.3,0.1l0-0.1c0.2-0.1,0.5-0.1,0.7-0.1c0.2,0,0.5,0.1,0.7,0.2c0.3,0.1,0.5,0.3,0.6,0.5c0.2,0.2,0.3,0.5,0.4,0.8
	c0.1,0.5,0.1,1-0.1,1.5c-0.2,0.5-0.5,0.9-0.8,1.3c-0.8,0.7-1.7,1.2-2.7,1.4C101.2,113,100.9,113.1,100.5,113.1z M103.4,107.2
	c-0.9,0.5-1.8,1.1-2.7,1.7c-0.7,0.5-1.2,1.1-1.6,1.9c-0.2,0.8,0,1.8,0.8,2.1c0.5,0.2,1.1,0.1,1.6-0.1c1-0.3,1.9-0.7,2.7-1.4
	c0.4-0.3,0.7-0.8,0.8-1.2c0.2-0.5,0.2-1,0.1-1.5c-0.1-0.3-0.2-0.5-0.4-0.7c-0.2-0.2-0.4-0.4-0.6-0.5
	C103.9,107.3,103.7,107.2,103.4,107.2z"/>
<path class="st11" d="M103.4,107.1c-0.9,0.5-1.8,1.1-2.7,1.7c-0.7,0.5-1.3,1.1-1.6,1.9c-0.3,0.8,0,1.8,0.8,2.2
	c0.6,0.2,1.1,0.1,1.7-0.1c1-0.3,1.9-0.7,2.7-1.4c0.4-0.3,0.7-0.8,0.8-1.3c0.2-0.5,0.2-1,0.1-1.5c-0.3-1-1.4-1.8-2.3-1.4"/>
<path class="st12" d="M113.2,98.2c-0.2,0-0.3-0.1-0.5-0.2c-0.1-0.1-0.3-0.3-0.3-0.4c-0.1-0.2-0.1-0.4-0.1-0.5
	c0.1-0.6,0.4-1.1,0.9-1.5c-0.1-0.1-0.2-0.1-0.4-0.2v-0.1c0.4,0.1,0.8,0.4,1,0.8c0.2,0.4,0.3,0.9,0.2,1.3c0,0.1-0.1,0.3-0.2,0.4
	c-0.1,0.1-0.2,0.2-0.4,0.3C113.3,98.2,113.3,98.2,113.2,98.2z M113.2,95.7c-0.4,0.4-0.7,0.9-0.8,1.5c0,0.2,0,0.3,0.1,0.5
	c0.1,0.2,0.2,0.3,0.3,0.4c0.1,0.1,0.2,0.1,0.3,0.1c0.1,0,0.2,0,0.3,0c0.1-0.1,0.2-0.1,0.3-0.2c0.1-0.1,0.2-0.2,0.2-0.4
	c0.1-0.2,0.1-0.4,0.1-0.6c0-0.2-0.1-0.4-0.2-0.6C113.6,96,113.4,95.8,113.2,95.7L113.2,95.7z"/>
<path class="st12" d="M113.2,95.6c-0.5,0.4-0.8,0.9-0.9,1.5c-0.1,0.6,0.5,1.2,1.1,1.1c0.1-0.1,0.2-0.1,0.3-0.3
	c0.1-0.1,0.2-0.2,0.2-0.4c0.1-0.4,0.1-0.9-0.2-1.3s-0.6-0.7-1-0.8"/>
<path class="st12" d="M101.1,111.4c-0.2,0-0.4,0-0.5-0.1c-0.1,0-0.3-0.1-0.4-0.2c-0.1-0.1-0.2-0.2-0.3-0.3c0-0.1,0-0.1,0-0.2
	c0-0.1,0-0.1,0-0.2c0.1-0.2,0.3-0.3,0.5-0.4c0.5-0.2,0.9-0.3,1.4-0.3v0.1l-0.3,0c0.2,0.1,0.3,0.1,0.5,0.1c0.3,0,0.5,0,0.6,0.3
	c0,0.1,0,0.2,0,0.3c0,0.1-0.1,0.2-0.1,0.2c-0.2,0.2-0.4,0.4-0.7,0.5C101.7,111.3,101.4,111.4,101.1,111.4z M101.6,109.8
	c-0.4,0.1-0.7,0.2-1.1,0.3c-0.2,0-0.4,0.2-0.5,0.3c0,0.1,0,0.1,0,0.2c0,0.1,0,0.1,0,0.2c0.1,0.1,0.1,0.2,0.2,0.3
	c0.1,0.1,0.2,0.2,0.4,0.2c0.4,0.1,0.7,0.1,1.1,0c0.4-0.1,0.7-0.3,0.9-0.6c0.1-0.1,0.1-0.1,0.1-0.2c0-0.1,0-0.2,0-0.2
	c-0.1-0.2-0.3-0.2-0.6-0.2c-0.1,0-0.2,0-0.3,0C101.7,109.9,101.6,109.8,101.6,109.8z"/>
<path class="st12" d="M101.9,109.7c-0.5,0.1-1,0.2-1.4,0.3c-0.2,0-0.4,0.2-0.5,0.3c-0.2,0.4,0.2,0.8,0.6,0.9c0.4,0.1,0.8,0.1,1.1,0
	c0.4-0.1,0.7-0.3,0.9-0.6c0.1-0.1,0.1-0.1,0.1-0.2c0-0.1,0-0.2,0-0.3c-0.2-0.4-0.9-0.1-1.2-0.4"/>
<path class="st8" d="M69.9,128.1c-1.7-0.9-2.1-2.8-2.5-4.9c-0.2-1-0.4-2.1-0.8-3c-0.6-1.5-1.8-2.6-3-3.8c-1.3-1.2-2.6-2.6-3.1-4.3
	c-0.3,0.2-0.7,0.3-1.1,0.3c-1-0.1-1.9-0.4-2.7-1.1c-0.2-0.2-0.5-0.4-0.7-0.6c-0.8-0.7-1.7-1.4-2.7-1.6h0c-0.3-0.8-0.7-1.4-1.3-1.9
	c-0.6-0.5-1.3-0.9-2.1-1h0v0c0.2-1.1-0.1-2.2-0.6-3.1l-1.9,1v0c-0.4-1.2-0.9-4.6,4.7-8.4c2-1.3,4-2.5,6.1-3.6
	c2.1-1.1,4.6-2.2,7.1-2.2h0.2c2.3,0,4,0.6,4.9,1.9c2,2.6,0.7,7.5-0.3,11.5c-0.3,1.1-0.6,2.2-0.8,3.1c-0.5,2.3-1,5.2,0,7.7
	c0.5,1,1,1.9,1.7,2.7c1.1,1.5,2.2,3,2.1,4.8c-0.1,1.3-0.9,2.4-1.6,3.5C70.8,126,70.2,126.9,69.9,128.1L69.9,128.1L69.9,128.1z"/>
<path class="st8" d="M65.2,89.8c-2.5,0-4.9,1.1-7.1,2.2c-2.1,1.1-4.1,2.3-6.1,3.6c-2.9,1.9-5.9,5.1-4.7,8.3l1.9-1
	c0.6,0.9,0.8,2,0.6,3.1c0.8,0.2,1.5,0.5,2.1,1.1c0.6,0.5,1,1.2,1.3,2c1.3,0.3,2.3,1.4,3.4,2.2c1.1,0.8,2.6,1.5,3.8,0.8
	c1,3.3,4.8,5,6.1,8.1c1.2,2.7,0.7,6.6,3.3,7.9c0.5-2.4,2.9-4.1,3.1-6.6c0.2-2.8-2.6-4.9-3.8-7.5c-1-2.4-0.5-5.2,0-7.8
	C70.3,100.5,75.1,89.7,65.2,89.8z"/>
<path class="st8" d="M93.6,74.3c-0.6,0-1.2-0.1-1.7-0.4c-0.5-0.3-0.9-0.7-1.2-1.2c-0.9-1.4-0.9-2.9-0.8-4.7c0.3-4.7,2-9.2,4.9-12.9
	l3.2-4c0.7-0.8,1.7-1.7,2.6-1.7c0.3,0,0.7,0.1,0.9,0.4c0.2,0.2,0.3,0.3,0.4,0.5c0.1,0.2,0.2,0.3,0.3,0.4c0.3,0.3,0.6,0.5,1,0.6
	l0.1,0.1c1.7,0.8,3.3,1.9,4.5,3.3l1.2-0.5v0c0.1,0.5,0.6,0.8,1.1,1c0.2,0.1,0.3,0.2,0.5,0.2c1,0.6,1.4,1.7,1.8,2.8
	c0.1,0.4,0.3,0.8,0.4,1.1c1,2.3,3.1,3.8,5.2,5.2c0.5,0.3,0.9,0.7,1.4,1c1.5,1.1,4.9,4.1,4.2,7.6v0c-1,0.3-2,0.5-3.1,0.5
	c-1.7,0-3.4-0.4-4.9-1.2l-0.3-0.2c-0.6-0.4-1.2-0.6-1.9-0.7c-0.1,0-0.2,0-0.3,0l-1.8-1.6l-0.7,0.2l-0.8,0.2v0
	c-2-2.4-4.5-4.9-7.3-5.2h-1.2l0-0.1c0.2,0,0.4,0,0.7,0c0.2,0,0.3,0,0.5,0c-0.3-0.1-0.7-0.3-0.9-0.5c-0.3-0.2-0.5-0.5-0.6-0.9
	L98.5,66c0.1,0,0.2,0,0.2,0.1c0.1,0,0.1,0.1,0.2,0.2c0.1,0.1,0.1,0.2,0.2,0.3c0,0.1,0,0.2,0,0.3c-0.1,0.4-0.4,0.7-0.7,1
	c0.6,0.3,1.2,0.5,1.9,0.5c0.2,0,0.4,0,0.6,0c0,0,0.1,0,0.1,0h0.1v0.1l-0.2,0c0,0-0.1,0.1-0.1,0.2c0,0.1,0,0.1,0,0.2
	c0,0.1,0,0.1,0.1,0.2c0,0.1,0.1,0.1,0.2,0.1c0.1,0,0.1,0,0.2,0c0.1,0,0.3,0,0.4-0.1c0.1,0,0.3-0.1,0.5-0.1h0.1c0.1,0,0.2,0,0.2,0.1
	c0.1,0,0.1,0.1,0.2,0.2c0.1,0.1,0.1,0.2,0.1,0.3l1.5-1.4l0.1,0c-0.9,1.5-2.2,2.9-3.7,3.8c-1.5,1-3.2,1.6-5,1.9
	c0.1,0.1,0.2,0.2,0.4,0.2H96h0.5v0.1c-0.1,0-0.2,0-0.3,0c-0.1,0-0.2,0-0.3,0c-0.4,0-0.9,0-1.2,0.1C94.3,74.3,93.9,74.3,93.6,74.3z"
	/>
<path class="st8" d="M94.7,55.1l3.2-4c0.9-1.1,2.5-2.3,3.5-1.3c0.3,0.3,0.5,0.7,0.7,1c0.3,0.3,0.7,0.5,1.1,0.6
	c1.8,0.8,3.3,1.9,4.6,3.4l1.1-0.5c0.1,0.7,1,0.9,1.6,1.2c1.3,0.8,1.6,2.5,2.2,3.9c1.2,2.8,4.1,4.4,6.6,6.2c2.4,1.8,4.8,4.6,4.2,7.6
	c-1.3,0.4-2.7,0.6-4.1,0.4c-1.4-0.1-2.7-0.5-3.9-1.2c-0.8-0.4-1.7-1-2.6-0.8l-1.8-1.6l-1.5,0.4c-2.2-2.7-5.1-5.6-8.6-5.2h1.6
	c-0.4,0-0.9-0.2-1.2-0.4c-0.4-0.3-0.7-0.6-0.8-1l-2.4,2.3c0.4-0.1,0.8,0.4,0.7,0.8c-0.1,0.4-0.4,0.7-0.7,1c0.8,0.5,1.8,0.6,2.7,0.4
	c-0.4-0.1-0.3,0.7,0.1,0.8c0.4,0.1,0.8-0.1,1.2-0.1c0.4,0,0.7,0.7,0.3,0.8l1.8-1.6c-0.9,1.5-2.2,2.9-3.7,3.8c-1.5,1-3.2,1.6-5,1.9
	c0.1,0.1,0.3,0.2,0.5,0.3c0.2,0.1,0.4,0.1,0.6,0c-2.6-0.1-4.3,0.9-5.8-1.5c-1-1.5-0.9-3-0.8-4.7C90.2,63.3,91.9,58.8,94.7,55.1z"/>
<path class="st8" d="M113,119.7c-0.9,0-1.7-0.2-2.5-0.6c-1.2-0.6-1.6-2-2-3.2c-0.2-0.6-0.3-1.2-0.3-1.8c0.1-0.6,0.3-1.1,0.6-1.6
	c1.8-3.6,3.9-6,6.3-7.4c1.4-0.8,3-1.2,4.6-1.2c1.7,0,3.4,0.5,4.7,1.6c1.9,1.6,0.5,5.2-1,7.2c-0.2,0.2-0.3,0.4-0.5,0.6
	c-0.3,0.4-0.7,0.7-1.1,1.1l-2.6,2.4c-0.4,0.4-0.8,0.7-1.2,1c-0.3,0.3-0.7,0.5-1,0.8c-0.5,0.4-1.1,0.6-1.7,0.8
	C114.6,119.5,113.8,119.7,113,119.7z"/>
<path class="st8" d="M123.4,112.6c-0.2,0.2-0.3,0.4-0.5,0.6c-0.4,0.4-0.7,0.7-1.1,1.1l-0.6,0.5l-2,1.9c-0.4,0.3-0.8,0.7-1.2,1
	c-0.3,0.3-0.7,0.5-1,0.8c-0.5,0.4-1.1,0.6-1.7,0.8c-1.6,0.5-3.3,0.5-4.8-0.2c-1.2-0.6-1.6-2-1.9-3.2c-0.2-0.6-0.3-1.2-0.2-1.8
	c0.1-0.6,0.3-1.1,0.6-1.6c1.5-2.9,3.5-5.8,6.3-7.4c2.8-1.6,6.7-1.8,9.2,0.4C126.3,107.1,125,110.7,123.4,112.6z"/>
<path class="st11" d="M115.1,116.5c-0.5,0-1-0.1-1.4-0.3c-0.6-0.3-1-0.8-1.3-1.4l0.1,0c0.2,0.1,0.3,0.2,0.5,0.3c0.1,0,0.2,0,0.3,0
	c0.2,0,0.5-0.1,0.7-0.2c0.2-0.1,0.4-0.3,0.5-0.5c0.2-0.4,0.3-0.8,0.3-1.2c0.1-0.6,0.2-1.2,0.8-1.5c0.1-0.1,0.3-0.1,0.5-0.1
	c0.1,0,0.2,0,0.3,0h0.2h0.1c0.4,0,0.9-0.1,1.2-0.3c0.4-0.2,0.7-0.5,1-0.9c0.3-0.4,0.5-0.8,0.6-1.2c0.1-0.4,0.1-0.9,0-1.3v-0.1l0.1,0
	c0.2,0.1,0.4,0.2,0.6,0.2c0.6,0.2,1.2,0.6,1.4,1.2c0.1,0.4,0.1,0.8,0,1.2c-0.3,1.1-0.7,2-1.4,2.9c-0.6,0.9-1.5,1.6-2.4,2.2
	C116.9,116.2,116,116.5,115.1,116.5z"/>
<path class="st11" d="M121.3,110.6c-0.3,1.1-0.7,2-1.4,2.9c-0.6,0.9-1.5,1.6-2.4,2.2c-1.2,0.7-2.6,1-3.8,0.4c-0.6-0.3-1-0.8-1.3-1.4
	c0.2,0.1,0.3,0.2,0.5,0.3c0.3,0.1,0.6,0,0.8-0.1c0.3-0.1,0.5-0.3,0.6-0.6c0.5-0.8,0.1-2.2,1-2.6c0.3-0.1,0.6-0.1,0.9-0.1
	c1.9,0,3.4-2.1,2.9-3.8c0.2,0.1,0.4,0.2,0.6,0.2c0.6,0.2,1.2,0.6,1.4,1.2C121.5,109.8,121.5,110.2,121.3,110.6z"/>
<path class="st13" d="M113.3,115.1c-0.1,0-0.2,0-0.3,0c-0.2-0.1-0.4-0.2-0.6-0.3c-0.2-0.5-0.4-1-0.4-1.5c-0.1-1.1,0-2.3,0.4-3.4
	c0.3-1.1,0.7-2.4,1.8-2.7c0.3-0.1,0.6-0.1,0.9-0.1c1.5,0,2.9,0.3,4.3,0.8c0.1,0.5,0.1,0.9,0.1,1.4c-0.1,0.5-0.3,0.9-0.6,1.3
	c-0.3,0.4-0.6,0.7-1,0.9c-0.4,0.2-0.8,0.3-1.3,0.4h-0.1h-0.2H116c-0.2,0-0.3,0-0.4,0.1c-0.5,0.2-0.6,0.8-0.7,1.4
	c0,0.4-0.1,0.8-0.3,1.2c-0.1,0.2-0.3,0.4-0.5,0.5C113.8,115.1,113.5,115.2,113.3,115.1z"/>
<path class="st13" d="M116.5,111.8c-0.3,0-0.6,0-0.9,0.1c-0.9,0.4-0.6,1.8-1,2.6c-0.2,0.2-0.4,0.4-0.6,0.6c-0.3,0.1-0.6,0.1-0.8,0.1
	c-0.2-0.1-0.4-0.2-0.5-0.3c-0.2-0.5-0.4-0.9-0.4-1.5c-0.1-1.1,0-2.3,0.4-3.4c0.2-1.1,0.7-2.4,1.8-2.7c1.1-0.3,3.5,0.1,5.2,0.7
	C119.8,109.7,118.3,111.8,116.5,111.8z"/>
<path class="st14" d="M121.8,123h-0.2c-1.5-0.1-3.1-1.2-4-2.8c-0.3-0.5-0.5-1.1-0.5-1.7c0.8-0.6,1.5-1.2,2.2-1.8l2.6-2.4
	c0.4-0.4,0.8-0.7,1.1-1.1l0,0l0,0c0.6,1,1.1,2,1.7,3l0,0c0.4,0.7,0.7,1.4,0.9,2.1c0.1,0.6,0.1,1.1,0,1.7c-0.1,0.6-0.4,1.1-0.8,1.5
	c-0.4,0.4-0.8,0.8-1.3,1S122.3,123,121.8,123L121.8,123z"/>
<path class="st14" d="M124.6,121.6c-0.4,0.4-0.9,0.8-1.4,1c-0.5,0.2-1.1,0.3-1.7,0.3c-1.7-0.1-3.1-1.3-4-2.8
	c-0.3-0.5-0.5-1.1-0.5-1.6c0.8-0.5,1.5-1.1,2.2-1.8l2.6-2.4c0.4-0.4,0.8-0.7,1.1-1.1c0.6,1,1.1,2,1.7,3c0.4,0.7,0.7,1.4,0.9,2.2
	c0.1,0.6,0.1,1.2-0.1,1.7C125.3,120.7,125,121.2,124.6,121.6z"/>
<path class="st15" d="M121.3,121.1c-0.3,0-0.5-0.1-0.7-0.2c-0.4-0.3-0.7-0.6-1-1l-1.6-2.2l0,0c0.4-0.3,0.8-0.7,1.2-1l2-1.9l0,0
	c0.5,0.8,0.8,1.6,1.1,2.4c0.3,1,0.3,2,0,3c-0.1,0.2-0.2,0.5-0.4,0.6C121.8,121,121.6,121.1,121.3,121.1z"/>
<path class="st15" d="M122.4,120.2c-0.1,0.2-0.2,0.4-0.4,0.6c-0.2,0.1-0.4,0.2-0.7,0.2s-0.5-0.1-0.7-0.2c-0.4-0.3-0.7-0.6-1-1
	c-0.5-0.7-1.1-1.4-1.6-2.1c0.4-0.3,0.8-0.7,1.2-1l2-1.8c0.5,0.8,0.8,1.6,1.1,2.4C122.7,118.2,122.7,119.2,122.4,120.2z"/>
<path class="st16" d="M64.3,109L64.3,109c-0.8-0.7-1.4-1.5-1.8-2.5c-0.4-0.9-0.5-2-0.4-3c-0.3,0-0.6-0.1-0.9-0.2
	c-0.3-0.1-0.5-0.3-0.7-0.6c-0.2-0.2-0.3-0.5-0.3-0.8c0-0.3,0-0.6,0.1-0.9l-3.1-0.1l0.1-0.1l3.5-3.4c0.3-0.4,0.7-0.7,1.2-0.9
	c0.5-0.1,1-0.1,1.5,0c0.5,0.2,0.9,0.5,1.2,0.9c0.6,0.8,1,1.8,1.2,2.8h-0.1c-0.2-1-0.6-1.9-1.2-2.7c-0.6-0.7-1.7-1.2-2.7-0.9
	c-0.4,0.2-0.8,0.5-1.2,0.9l-3.5,3.4l3.1,0.1l0,0.1c-0.1,0.3-0.2,0.6-0.1,0.9c0,0.3,0.1,0.6,0.3,0.8c0.2,0.2,0.4,0.4,0.7,0.6
	c0.3,0.1,0.6,0.2,0.9,0.2h0v0c-0.1,1,0,2,0.4,3C62.9,107.4,63.5,108.3,64.3,109l1.8-2.7c0.7-1,1.5-2.1,1.7-3.4
	c0.2-1.2-0.2-2.7-1.4-3.3l0-0.1c1.2,0.6,1.6,2.2,1.4,3.4c-0.2,1.3-1,2.4-1.7,3.5L64.3,109z"/>
<path class="st16" d="M65.8,100.3c-0.2-1-0.6-1.9-1.2-2.8c-0.7-0.8-1.8-1.2-2.7-0.9c-0.4,0.2-0.9,0.5-1.2,0.9l-3.5,3.4l3.1,0.1
	c-0.6,1.1,0.5,2.7,1.8,2.5c-0.1,1,0,2.1,0.4,3c0.4,1,1,1.8,1.8,2.5l1.8-2.7c0.7-1.1,1.5-2.2,1.7-3.4c0.2-1.3-0.2-2.8-1.4-3.3"/>
<path class="st16" d="M105.8,70.3c0.4-0.3,0.7-0.7,0.9-1.2c-0.7,0.2-1.5,0.3-2.2,0.3c-0.2,0-0.4,0-0.5,0h-0.1l0.1-0.1
	c0.3-0.2,0.5-0.5,0.6-0.8c0.1-0.3,0.1-0.7,0-1c-0.6,0.1-1.1,0.4-1.5,0.9l0,0.1l0-0.1c-0.1-0.2-0.1-0.4-0.1-0.5
	c0-0.2,0.1-0.4,0.2-0.5c-0.4,0.2-0.9,0.4-1.3,0.6l-0.1,0V68c0-0.2,0-0.5,0.1-0.7c-0.6,0.1-1.1,0.3-1.5,0.7l-0.1,0.1l0.4-1.4
	c-0.5,0.2-0.8,0.6-1.1,1l0,0.1l0-0.1c-0.1-0.4-0.2-0.9-0.1-1.4c0.1-0.5,0.3-0.9,0.6-1.2h-1.2l0.1-0.1c0.4-0.4,0.8-0.8,1.1-1.2
	L98.8,64V64c0.1,0,0.3-0.3,0.5-0.6c0.5-0.6,1.1-1.5,1.9-1.6c0.1,0,0.3,0,0.4,0c0.6,0,1.1,0.1,1.7,0.3c0.6,0.2,1.2,0.3,1.8,0.3
	c0.1,0,0.2,0,0.3,0h0.1l0,0.1c0,0.1-0.1,0.1-0.1,0.2c0,0.1,0,0.1,0,0.2c0.1,0.2,0.3,0.3,0.4,0.4c0.2,0.1,0.4,0.1,0.6,0.1h0.1l0.3,0
	c0.2,0,0.4-0.1,0.7-0.1c0.2,0,0.3,0,0.5,0.1c0.1,0.1,0.3,0.1,0.4,0.3c0.1,0.1,0.1,0.2,0.1,0.2c0,0.1,0.1,0.2,0.2,0.3
	c0.1,0.1,0.2,0.1,0.3,0.2c0.1,0,0.2,0,0.3,0c0.2,0,0.3,0,0.5,0c0.2,0,0.3,0,0.5,0c0.2,0,0.3,0,0.5,0.1h0l-0.2,1.3l1.9,0.1l0.1,1.1
	l1.7,0.1L114,67c0,0-0.1,0.1-0.1,0.1c0,0,0,0.1,0,0.1c0,0.1,0.1,0.2,0.2,0.3c0.1,0.1,0.2,0.1,0.3,0.2c0.4,0.1,0.8,0.2,0.8,0.6
	l0.5-0.2c0.1-0.1,0.2-0.1,0.3-0.1v0.1l-0.3,0.1c-0.2,0.1-0.4,0.3-0.5,0.5c-0.1,0.2-0.1,0.5-0.1,0.7v0.1h-0.1c-0.1,0-0.3,0-0.4,0
	c-0.7,0-1.3,0.1-1.9,0.2h-0.1v-0.1c0-0.1,0-0.2,0-0.2c0-0.1-0.1-0.1-0.2-0.2l-0.3,0.2l-0.4,0.2C109.8,69.6,107.8,69.9,105.8,70.3
	L105.8,70.3z"/>
<path class="st16" d="M98.8,63.9l1.3-0.2c-0.3,0.5-0.7,1-1.1,1.3h1.2c-0.3,0.3-0.5,0.8-0.6,1.2c-0.1,0.5-0.1,0.9,0.1,1.4
	c0.3-0.5,0.7-0.8,1.2-1.1l-0.4,1.4c0.4-0.4,1-0.7,1.6-0.7c-0.2,0.2-0.2,0.5-0.2,0.7c0.4-0.3,0.9-0.5,1.4-0.7
	c-0.1,0.2-0.2,0.3-0.2,0.5c0,0.2,0,0.4,0.1,0.6c0.4-0.5,0.9-0.8,1.6-0.9c0.1,0.3,0.1,0.7,0,1c-0.1,0.3-0.3,0.6-0.6,0.8
	c0.9,0.1,1.9,0,2.8-0.3c-0.2,0.5-0.5,0.9-1,1.2c2-0.5,4-0.7,6-0.8l0.7-0.4c0.1,0,0.2,0.1,0.2,0.2c0,0.1,0.1,0.2,0,0.3
	c0.8-0.2,1.6-0.3,2.4-0.2c0-0.2,0-0.3,0-0.5c0-0.2,0.1-0.3,0.2-0.4c0.1-0.1,0.2-0.2,0.3-0.3c0.1-0.1,0.3-0.2,0.4-0.2l-0.8,0.3
	c0-0.4-0.5-0.5-0.8-0.6c-0.4-0.1-0.7-0.6-0.4-0.8l-1.7-0.1l-0.1-1.1l-1.9-0.1l0.2-1.4c-0.6-0.3-1.6,0.3-2-0.2
	c-0.1-0.1-0.2-0.4-0.3-0.5c-0.4-0.5-1.2-0.3-1.8-0.2c-0.6,0.1-1.5-0.5-1.1-1c-1.4,0.2-2.9-0.7-4.2-0.5
	C100.1,61.9,99.1,63.9,98.8,63.9z"/>
<path class="st17" d="M98.1,206.9c-2.2,0-4.5-0.4-6.5-1.3c-2.1-0.9-3.9-2.2-5.4-3.9c-1.6-1.9-3-9.6-1.4-13c0.5-1.1,1.3-1.7,2.3-1.7
	c0.3,0,0.6,0,0.8,0.1h0l0.2,1.8c1.5-0.6,2.9-1.3,4.3-2.1l0,0v0.1c0.3,1.5,0.7,3.3,2,4c0.7,0.3,1.5,0.5,2.4,0.4h1.1
	c0.6,0,2.5,0.2,3,1.6c0.1,0.3,0.1,0.5,0.1,0.8c0,0.3,0.1,0.6,0.2,0.9c0.3,0.7,1.1,0.9,1.9,1.2c0.2,0.1,0.5,0.1,0.7,0.2
	c0.3,0.1,0.6,0.3,0.8,0.6c0.2,0.3,0.4,0.6,0.5,0.9c0,0.1,0,0.3,0,0.4c0,0.1-0.1,0.3-0.2,0.4l3.2,0.3v0c0,0.2-0.1,0.4,0,0.5
	c0,0.2,0.1,0.4,0.2,0.5c0.1,0.2,0.2,0.3,0.4,0.4c0.1,0.1,0.3,0.2,0.5,0.2h0.1l0,0c-0.4,0.5-0.7,1.1-0.9,1.7c-0.1,0.5-0.4,1-0.6,1.4
	c-0.4,0.6-1,1-1.6,1.3C103.6,206.2,100.9,206.9,98.1,206.9z"/>
<path class="st18" d="M86.2,190.7L86.2,190.7c2.8-1.6,4.4-3.6,4.3-5.7c-2.5,1.7-4.2,3.6-4.8,5.7l-0.1,0c0.7-2.1,2.4-4,4.9-5.7l0.1,0
	v0.1C90.7,187,89.1,189.1,86.2,190.7z"/>
<path class="st18" d="M92.1,193.8L92.1,193.8c-0.1-2.2,0.9-4.6,2.8-7l0-0.1l0,0.1c0.8,1.9,0,4.4-2.3,6.8l0-0.1
	c2.2-2.4,3.1-4.8,2.3-6.7C93,189.2,92.1,191.6,92.1,193.8z"/>
<path class="st18" d="M99.5,196.2c-0.6-2.1-0.4-4.7,0.7-7.5l0-0.1l0,0c1.3,1.6,1.3,4.2-0.2,7.2l-0.1,0c1.4-2.9,1.5-5.5,0.2-7.1
	C99.2,191.6,99,194.1,99.5,196.2L99.5,196.2z"/>
<path class="st18" d="M106.2,199.8c-1.1-1.8-1.6-4.4-1.2-7.4v-0.1l0.1,0c1.7,1.2,2.3,3.8,1.6,7h-0.1c0.6-3.2,0.1-5.7-1.6-6.9
	C104.8,195.4,105.2,197.9,106.2,199.8L106.2,199.8z"/>
<path class="st6" d="M112.9,134.5c0.7-1.2,1.7-2.2,2.8-3.1l0.1-0.1l-0.1,0.1c-0.1,0.2,0,0.4,0,0.6c0.1,0.2,0.2,0.3,0.4,0.4l0.1,0
	L112.9,134.5L112.9,134.5z"/>
<path class="st6" d="M116.2,132.4l-3.3,2c0.7-1.2,1.7-2.2,2.8-3.1c-0.1,0.2,0,0.4,0,0.6C115.8,132.2,116,132.4,116.2,132.4z"/>
<path class="st6" d="M104.1,140.8l0-0.1h0.1L104.1,140.8L104.1,140.8L104.1,140.8z"/>
<path class="st6" d="M104.1,140.6C104.1,140.6,104.1,140.7,104.1,140.6l0,0.1C104.1,140.7,104.1,140.7,104.1,140.6z"/>
<path class="st6" d="M104.1,140.6c0-0.2,0-0.4,0-0.6c0-0.3,0.1-0.7,0.1-1h0.1C104.3,139.6,104.3,140.1,104.1,140.6L104.1,140.6z"/>
<path class="st6" d="M104.1,140.6c0-0.2,0-0.4,0-0.6c0-0.3,0.1-0.7,0.1-1C104.3,139.6,104.2,140.1,104.1,140.6z"/>
<path class="st6" d="M104.2,139.1C104.2,139.1,104.2,139,104.2,139.1l-0.7,0l0-0.1c0.3-0.6,0.4-1.1,0.5-1.7c-0.1,0-0.3,0-0.4,0
	c-0.1,0-0.3,0-0.3,0h0l0,0c0.4-0.8,1-1.6,1.7-2.2l0.1-0.1v0.1c-0.1,0.9-0.3,1.9-0.5,2.8C104.4,138.3,104.4,138.7,104.2,139.1
	L104.2,139.1z"/>
<path class="st6" d="M105,135.1c-0.2,1.4-0.6,2.9-0.8,4c0,0,0-0.1,0-0.1l-0.7,0.1c0.3-0.6,0.5-1.2,0.5-1.8c0,0.1-0.7,0.1-0.7,0.1
	C103.8,136.5,104.3,135.7,105,135.1z"/>
<path class="st6" d="M104.3,141.5c-0.1,0-0.1,0-0.1,0h0l0.1-0.3h0.1C104.3,141.2,104.3,141.3,104.3,141.5L104.3,141.5L104.3,141.5z"
	/>
<path class="st6" d="M104.2,141.1c0,0.1,0.1,0.2,0.1,0.3l-0.1-0.1C104.2,141.3,104.2,141.2,104.2,141.1z"/>
<path class="st6" d="M105.4,142.7c-0.5-0.1-0.9-0.5-1.1-1.2l0-0.1l0.1,0c0.2,0.1,0.4,0.1,0.5,0.1c0.5,0,0.9-0.2,1.3-0.5l0.1,0
	C106,141.6,105.7,142.1,105.4,142.7L105.4,142.7L105.4,142.7z"/>
<path class="st6" d="M106.2,141c-0.2,0.6-0.5,1.1-0.8,1.6c-0.5-0.1-0.9-0.6-1.1-1.2c0.3,0.1,0.7,0.1,1,0
	C105.6,141.4,105.9,141.2,106.2,141z"/>
<path class="st6" d="M114.4,182.6c0-0.2,0-0.3,0.1-0.5v0h0c0,0,0.1,0,0.1,0.1c0,0,0,0.1,0,0.1c0,0.1,0,0.1,0,0.2
	C114.5,182.5,114.5,182.6,114.4,182.6L114.4,182.6L114.4,182.6z"/>
<path class="st6" d="M114.4,182.6c0-0.2,0-0.3,0.1-0.5C114.7,182.2,114.6,182.5,114.4,182.6z"/>
<path class="st6" d="M116.5,193c-0.1,0-0.1,0-0.2,0c0,0-0.1-0.1-0.1-0.1c0,0,0-0.1,0-0.1c0,0,0-0.1,0-0.1v0l0,0
	C116.4,192.8,116.5,192.9,116.5,193l0.2,0L116.5,193C116.5,193,116.5,193,116.5,193z"/>
<path class="st6" d="M116.3,192.7c0.1,0.1,0.2,0.2,0.3,0.2C116.4,193,116.2,192.9,116.3,192.7z"/>
<path class="st6" d="M116.6,193C116.6,193,116.6,193,116.6,193l-0.2-0.1l0.1,0c0,0,0,0,0.1,0c0,0,0,0,0.1,0l0.1,0
	C116.8,192.9,116.7,193,116.6,193z"/>
<path class="st6" d="M116.6,193C116.6,193,116.6,192.9,116.6,193c0.1,0,0.1-0.1,0.1-0.1C116.7,193,116.7,193,116.6,193z"/>
<path class="st6" d="M116.7,192.9L116.7,192.9c0-0.2,0-0.3,0.1-0.3h0v0C116.8,192.7,116.8,192.8,116.7,192.9
	C116.8,192.9,116.8,192.9,116.7,192.9l0,0.1L116.7,192.9z"/>
<path class="st6" d="M116.8,192.6c0,0.1,0,0.1,0,0.2c0,0,0,0,0,0C116.7,192.8,116.7,192.7,116.8,192.6z"/>
<g>
	<circle class="st19" cx="106" cy="110" r="97"/>
</g>
<path class="st1" d="M78.4,29.5c0.4,2.8,1,8.2,0.4,11c-0.5,2.7-1.5,7.2-2.8,9.6c-2.9,5.1-5.7,10.3-9.6,13.4c0.7-1.1,1.2-2.2,1.8-3.4
	c4.4-8.9,7.2-18.9,6.8-28.9c-0.3-7.5-2.5-14.9-6.7-21.1c2.9,2.1,5.3,4.8,6.9,8C77,21.7,77.8,25.6,78.4,29.5z"/>
<path class="st2" d="M75,31.3c0.4,10-2.3,19.9-6.8,28.8c-0.6,1.1-1.2,2.3-1.8,3.4c-2.6,2.2-6,3.4-9.4,3.2C48,66.6,40.4,60,35.6,52.5
	c-4.9-7.7-7.8-17.1-6.2-26.1S37.8,9,46.8,7.1c5.6-1.2,10.5-1.8,15.9,0.1c2,0.7,3.9,1.7,5.7,3C72.4,16.4,74.7,23.9,75,31.3z"/>
<path class="st3" d="M36.9,21c-1,2.4-1.2,5.1-1.3,7.8c-0.1,1.8,0,3.5,0.3,5.2c0.3,1.2,0.8,2.4,1.8,3c1.3,0.8,2.9,0.3,4.3-0.1
	c0.3-0.1,0.5-0.2,0.7-0.3c0.3-0.3,0.5-0.7,0.5-1.1c1.2-5.1,1.2-10.6,3.5-15.3c1.4-2.9,2.4-6.6-1.9-5.7c-1.8,0.4-3.4,1.2-4.8,2.4
	C38.7,17.9,37.6,19.4,36.9,21L36.9,21z"/>
<path class="st17" d="M87.9,187.1l0.2,1.9c1.5-0.6,3-1.3,4.4-2.1c0.3,1.5,0.7,3.3,2,4c1,0.6,2.3,0.4,3.5,0.5c1.2,0,2.5,0.4,2.9,1.6
	c0.2,0.6,0.1,1.2,0.3,1.8c0.4,0.9,1.6,1.1,2.6,1.4c0.9,0.4,1.8,1.7,1,2.3l3.3,0.3c-0.1,0.4,0,0.8,0.2,1.1c0.2,0.3,0.5,0.6,0.9,0.7
	c-0.8,0.8-0.8,2.2-1.5,3.1c-0.4,0.6-1,1-1.6,1.3c-6.3,3.6-14.9,2.4-19.7-3.2C83.9,199,82.3,185.6,87.9,187.1z"/>
<path class="st18" d="M86.2,190.6c2.9-1.6,4.5-3.6,4.3-5.7c-2.5,1.7-4.2,3.7-4.9,5.7"/>
<path class="st18" d="M92.6,193.6c2.3-2.4,3.1-4.9,2.3-6.8c-1.9,2.4-2.8,4.8-2.8,7"/>
<path class="st18" d="M100,195.9c1.4-3,1.5-5.6,0.2-7.2c-1.1,2.8-1.3,5.4-0.7,7.5"/>
<path class="st18" d="M106.6,199.3c0.7-3.2,0.1-5.8-1.6-7c-0.3,3,0.1,5.6,1.2,7.4"/>
</svg>
