<?xml version="1.0" encoding="utf-8"?>
<!-- Generator: Adobe Illustrator 23.0.1, SVG Export Plug-In . SVG Version: 6.00 Build 0)  -->
<svg version="1.1" id="Layer_1" xmlns="http://www.w3.org/2000/svg" xmlns:xlink="http://www.w3.org/1999/xlink" x="0px" y="0px"
	 viewBox="0 0 344.4 193.6" style="enable-background:new 0 0 344.4 193.6;" xml:space="preserve">
<style type="text/css">
	.st0{display:none;}
	.st1{display:inline;fill:#DABA56;}
	.st2{display:inline;}
	.st3{clip-path:url(#SVGID_3_);}
	.st4{clip-path:url(#SVGID_4_);fill:#EA984B;}
	.st5{opacity:0.59;}
	.st6{clip-path:url(#SVGID_7_);}
	.st7{fill:#EA984B;}
	.st8{clip-path:url(#SVGID_11_);}
	.st9{clip-path:url(#SVGID_12_);fill:#EA984B;}
	.st10{clip-path:url(#SVGID_15_);}
	.st11{clip-path:url(#SVGID_16_);fill:#EA984B;}
	.st12{font-family:'MyriadPro-Regular';}
	.st13{font-size:12px;}
	.st14{display:inline;fill:#EA984B;}
	.st15{fill:url(#SVGID_17_);fill-opacity:0.9;}
	.st16{fill:none;stroke:#CDA52B;stroke-width:0.25;}
	.st17{display:inline;fill:none;stroke:#CDA52B;stroke-width:0.25;}
	.st18{font-family:'Roboto-Bold';}
	.st19{font-size:64.6692px;}
</style>
<g class="st0">
	<path class="st1" d="M40.4,188.1c-0.5,0-0.9-0.1-1.3-0.3c-0.4-0.2-0.7-0.4-1-0.7l0.4-0.5c0.2,0.2,0.5,0.4,0.8,0.6
		c0.3,0.1,0.6,0.2,1,0.2c0.3,0,0.6-0.1,0.8-0.2c0.2-0.1,0.4-0.3,0.6-0.6c0.1-0.3,0.2-0.5,0.2-0.9c0-0.5-0.1-0.9-0.4-1.2
		c-0.3-0.3-0.7-0.4-1.1-0.4c-0.2,0-0.4,0-0.6,0.1c-0.2,0.1-0.4,0.2-0.6,0.3l-0.4-0.3l0.2-3.4h3.4v0.7h-2.7l-0.2,2.2
		c0.2-0.1,0.4-0.2,0.5-0.2c0.2-0.1,0.4-0.1,0.6-0.1c0.6,0,1.2,0.2,1.6,0.6c0.4,0.4,0.6,0.9,0.6,1.6c0,0.5-0.1,0.9-0.3,1.3
		c-0.2,0.4-0.5,0.6-0.9,0.8C41.2,188,40.8,188.1,40.4,188.1z"/>
	<path class="st1" d="M96.8,187.3h1.6V182h-1.3v-0.5c0.6-0.1,1.1-0.3,1.5-0.5h0.6v6.3h1.5v0.7h-3.9V187.3z M104.1,188.1
		c-0.7,0-1.2-0.3-1.6-1c-0.4-0.6-0.6-1.5-0.6-2.7s0.2-2.1,0.6-2.7c0.4-0.6,0.9-0.9,1.6-0.9c0.7,0,1.2,0.3,1.6,0.9
		c0.4,0.6,0.6,1.5,0.6,2.7s-0.2,2.1-0.6,2.7C105.3,187.8,104.8,188.1,104.1,188.1z M104.1,187.5c0.4,0,0.8-0.2,1-0.7
		c0.3-0.5,0.4-1.3,0.4-2.3s-0.1-1.7-0.4-2.2c-0.2-0.5-0.6-0.7-1-0.7c-0.4,0-0.8,0.2-1.1,0.7c-0.2,0.5-0.4,1.2-0.4,2.2
		s0.1,1.8,0.4,2.3C103.3,187.2,103.6,187.5,104.1,187.5z"/>
	<path class="st1" d="M157.8,187.3h1.6V182h-1.3v-0.5c0.6-0.1,1.1-0.3,1.5-0.5h0.6v6.3h1.5v0.7h-3.9V187.3z M164.9,188.1
		c-0.5,0-0.9-0.1-1.3-0.3c-0.4-0.2-0.7-0.4-1-0.7l0.4-0.5c0.2,0.2,0.5,0.4,0.8,0.6c0.3,0.1,0.6,0.2,1,0.2c0.3,0,0.6-0.1,0.8-0.2
		c0.2-0.1,0.4-0.3,0.6-0.6c0.1-0.3,0.2-0.5,0.2-0.9c0-0.5-0.1-0.9-0.4-1.2c-0.3-0.3-0.7-0.4-1.1-0.4c-0.2,0-0.4,0-0.6,0.1
		c-0.2,0.1-0.4,0.2-0.6,0.3l-0.4-0.3l0.2-3.4h3.4v0.7h-2.7l-0.2,2.2c0.2-0.1,0.4-0.2,0.5-0.2c0.2-0.1,0.4-0.1,0.6-0.1
		c0.6,0,1.2,0.2,1.6,0.6c0.4,0.4,0.6,0.9,0.6,1.6c0,0.5-0.1,0.9-0.3,1.3c-0.2,0.4-0.5,0.6-0.9,0.8
		C165.7,188,165.3,188.1,164.9,188.1z"/>
	<path class="st1" d="M218.5,187.5c0.8-0.8,1.5-1.5,1.9-2c0.5-0.5,0.8-1,1-1.4c0.2-0.4,0.4-0.8,0.4-1.2c0-0.4-0.1-0.8-0.4-1
		c-0.2-0.3-0.6-0.4-1-0.4c-0.3,0-0.5,0.1-0.8,0.2c-0.3,0.2-0.5,0.4-0.7,0.6l-0.5-0.5c0.3-0.3,0.6-0.6,1-0.8c0.3-0.2,0.7-0.3,1.1-0.3
		c0.6,0,1.1,0.2,1.5,0.6c0.4,0.4,0.6,0.9,0.6,1.5c0,0.4-0.1,0.9-0.4,1.3c-0.2,0.4-0.5,0.9-0.9,1.4c-0.4,0.5-0.9,1.1-1.7,1.8l0.3,0
		c0.4,0,0.7,0,0.9,0h2.1v0.7h-4.5V187.5z M226.3,188.1c-0.7,0-1.2-0.3-1.6-1c-0.4-0.6-0.6-1.5-0.6-2.7s0.2-2.1,0.6-2.7
		c0.4-0.6,0.9-0.9,1.6-0.9c0.7,0,1.2,0.3,1.6,0.9c0.4,0.6,0.6,1.5,0.6,2.7s-0.2,2.1-0.6,2.7C227.6,187.8,227,188.1,226.3,188.1z
		 M226.3,187.5c0.4,0,0.8-0.2,1-0.7c0.3-0.5,0.4-1.3,0.4-2.3s-0.1-1.7-0.4-2.2c-0.2-0.5-0.6-0.7-1-0.7c-0.4,0-0.8,0.2-1.1,0.7
		c-0.2,0.5-0.4,1.2-0.4,2.2s0.1,1.8,0.4,2.3C225.5,187.2,225.9,187.5,226.3,187.5z"/>
	<path class="st1" d="M279.5,187.5c0.8-0.8,1.5-1.5,1.9-2c0.5-0.5,0.8-1,1-1.4c0.2-0.4,0.4-0.8,0.4-1.2c0-0.4-0.1-0.8-0.4-1
		c-0.2-0.3-0.6-0.4-1-0.4c-0.3,0-0.5,0.1-0.8,0.2c-0.3,0.2-0.5,0.4-0.7,0.6l-0.5-0.5c0.3-0.3,0.6-0.6,1-0.8s0.7-0.3,1.1-0.3
		c0.6,0,1.1,0.2,1.5,0.6c0.4,0.4,0.6,0.9,0.6,1.5c0,0.4-0.1,0.9-0.4,1.3c-0.2,0.4-0.5,0.9-0.9,1.4s-0.9,1.1-1.7,1.8l0.3,0
		c0.4,0,0.7,0,0.9,0h2.1v0.7h-4.5V187.5z M287.2,188.1c-0.5,0-0.9-0.1-1.3-0.3c-0.4-0.2-0.7-0.4-1-0.7l0.4-0.5
		c0.2,0.2,0.5,0.4,0.8,0.6c0.3,0.1,0.6,0.2,1,0.2c0.3,0,0.6-0.1,0.8-0.2c0.2-0.1,0.4-0.3,0.6-0.6c0.1-0.3,0.2-0.5,0.2-0.9
		c0-0.5-0.1-0.9-0.4-1.2c-0.3-0.3-0.7-0.4-1.1-0.4c-0.2,0-0.4,0-0.6,0.1c-0.2,0.1-0.4,0.2-0.6,0.3l-0.4-0.3l0.2-3.4h3.4v0.7h-2.7
		l-0.2,2.2c0.2-0.1,0.4-0.2,0.5-0.2s0.4-0.1,0.6-0.1c0.6,0,1.2,0.2,1.6,0.6c0.4,0.4,0.6,0.9,0.6,1.6c0,0.5-0.1,0.9-0.3,1.3
		c-0.2,0.4-0.5,0.6-0.9,0.8C288,188,287.6,188.1,287.2,188.1z"/>
	<g class="st2">
		<defs>
			<path id="SVGID_1_" d="M6.1,0.1h314c3.3,0,6,2.7,6,6v166c0,3.3-2.7,6-6,6H6.1c-3.3,0-6-2.7-6-6V6.1C0.1,2.8,2.8,0.1,6.1,0.1z"/>
		</defs>
		<defs>
			<path id="SVGID_2_" d="M6.1,0.2h314c3.2,0,5.9,2.6,5.9,5.9v166c0,3.2-2.6,5.9-5.9,5.9H6.1c-3.2,0-5.9-2.6-5.9-5.9V6.1
				C0.2,2.9,2.9,0.2,6.1,0.2z"/>
		</defs>
		<clipPath id="SVGID_3_">
			<use xlink:href="#SVGID_1_"  style="overflow:visible;"/>
		</clipPath>
		<clipPath id="SVGID_4_" class="st3">
			<use xlink:href="#SVGID_2_"  style="overflow:visible;"/>
		</clipPath>
		<rect x="6.1" y="65" class="st4" width="4" height="134.5"/>
		<rect x="14.1" y="44" class="st4" width="4" height="134.5"/>
		<rect x="22" y="58" class="st4" width="4" height="134.5"/>
		<rect x="30" y="44" class="st4" width="4" height="134.5"/>
		<rect x="45.9" y="58" class="st4" width="4" height="134.5"/>
		<rect x="53.8" y="56" class="st4" width="4" height="134.5"/>
		<rect x="69.7" y="44" class="st4" width="4" height="134.5"/>
		<rect x="85.6" y="65" class="st4" width="4" height="134.5"/>
		<rect x="93.6" y="44" class="st4" width="4" height="134.5"/>
		<rect x="101.5" y="58" class="st4" width="4" height="134.5"/>
		<rect x="109.5" y="44" class="st4" width="4" height="134.5"/>
		<rect x="37.9" y="58" class="st4" width="4" height="134.5"/>
		<rect x="77.7" y="56" class="st4" width="4" height="134.5"/>
		<rect x="61.8" y="44" class="st4" width="4" height="134.5"/>
	</g>
</g>
<g>
	<g class="st5">
		<defs>
			<path id="SVGID_5_" class="st5" d="M6.1,0.1h313c3.3,0,6,2.7,6,6v166c0,3.3-2.7,6-6,6H6.1c-3.3,0-6-2.7-6-6V6.1
				C0.1,2.8,2.8,0.1,6.1,0.1z"/>
		</defs>
		<defs>
			<path id="SVGID_6_" class="st5" d="M6.1,0.2h313c3.2,0,5.9,2.6,5.9,5.9v166c0,3.2-2.6,5.9-5.9,5.9H6.1c-3.2,0-5.9-2.6-5.9-5.9
				V6.1C0.2,2.9,2.9,0.2,6.1,0.2z"/>
		</defs>
		<use xlink:href="#SVGID_5_"  style="overflow:visible;fill:#FFFFFF;"/>
		<use xlink:href="#SVGID_6_"  style="overflow:visible;fill:#FFFFFF;"/>
		<clipPath id="SVGID_7_">
			<use xlink:href="#SVGID_5_"  style="overflow:visible;"/>
		</clipPath>
		<clipPath id="SVGID_8_" class="st6">
			<use xlink:href="#SVGID_6_"  style="overflow:visible;"/>
		</clipPath>
	</g>
	<path class="st7" d="M83.8,76.8h4.9v6.3l-0.2,3.3c0.8-0.8,1.7-1.4,2.6-1.9c0.9-0.5,1.9-0.7,3-0.7c1.9,0,3.3,0.6,4.1,1.9
		c0.9,1.2,1.4,3,1.4,5.3v11.1h-4.9V91.6c0-1.3-0.2-2.2-0.6-2.8c-0.4-0.5-1-0.8-1.8-0.8c-0.7,0-1.3,0.1-1.8,0.4
		c-0.5,0.3-1.1,0.8-1.8,1.4v12.2h-4.9V76.8z M104.6,84.3h4l0.4,3.1h0.1c0.6-1.2,1.4-2,2.3-2.6c0.9-0.6,1.8-0.9,2.8-0.9
		c0.8,0,1.5,0.1,2.1,0.4l-0.8,4.2c-0.1,0-0.3-0.1-0.6-0.1c-0.4-0.1-0.8-0.1-1.2-0.1c-0.8,0-1.5,0.3-2.2,0.8s-1.3,1.4-1.8,2.6v10.5
		h-4.9V84.3z M142,96.4c5-4.8,8.8-8.5,11.4-11.2c2.6-2.7,4.8-5.4,6.3-7.8s2.4-4.8,2.4-6.9c0-2.3-0.6-4-1.8-5.3
		c-1.2-1.3-2.9-1.9-5-1.9c-1.5,0-3,0.4-4.3,1.3c-1.3,0.9-2.7,2-4,3.5l-5.4-5.3c2.3-2.4,4.6-4.2,6.9-5.4c2.4-1.2,5.1-1.8,8.2-1.8
		c4.5,0,8.1,1.3,10.8,4c2.7,2.6,4.1,6.1,4.1,10.4c0,3.6-1.3,7.2-4,11.1c-2.6,3.8-6.4,8.3-11.4,13.4c2.8-0.3,5.4-0.5,7.7-0.5h9.9v8.3
		H142V96.4z M196.5,103c-3.3,0-6.1-0.9-8.6-2.7c-2.4-1.9-4.3-4.6-5.6-8.2c-1.3-3.6-1.9-7.9-1.9-13c0-7.6,1.4-13.4,4.3-17.4
		c2.9-4.1,6.8-6.1,11.8-6.1c4.9,0,8.9,2,11.7,6.1c2.9,4,4.3,9.8,4.3,17.4c0,5.1-0.7,9.4-2,13c-1.3,3.6-3.1,6.3-5.5,8.2
		C202.6,102.1,199.8,103,196.5,103z M196.5,95.4c2.1,0,3.8-1.2,5-3.7c1.2-2.5,1.8-6.7,1.8-12.7c0-5.9-0.6-10-1.8-12.3
		c-1.2-2.4-2.9-3.6-5-3.6c-2.2,0-3.8,1.2-5,3.5c-1.2,2.4-1.7,6.5-1.7,12.4c0,6,0.6,10.2,1.8,12.7C192.7,94.1,194.4,95.4,196.5,95.4z
		 M218.5,84.3h4l0.4,2.3h0.1c0.9-0.9,1.7-1.6,2.6-2.1s1.8-0.7,2.8-0.7c1.2,0,2.3,0.3,3.1,0.8c0.8,0.5,1.4,1.3,1.9,2.3
		c0.9-1,1.8-1.7,2.7-2.2c0.9-0.6,1.9-0.8,2.9-0.8c1.9,0,3.3,0.6,4.2,1.9c0.9,1.2,1.4,3,1.4,5.3v11.1h-4.9V91.6
		c0-1.3-0.2-2.2-0.6-2.7c-0.4-0.6-1-0.8-1.8-0.8c-1,0-2.1,0.6-3.3,1.9v12.2H229V91.6c0-1.3-0.2-2.2-0.6-2.7c-0.4-0.6-1-0.8-1.8-0.8
		c-1,0-2.1,0.6-3.3,1.9v12.2h-4.9V84.3z M249.5,84.3h4.9v17.8h-4.9V84.3z M252,81.5c-0.8,0-1.5-0.2-2-0.7c-0.5-0.5-0.8-1.1-0.8-1.9
		s0.3-1.4,0.8-1.9c0.5-0.5,1.2-0.8,2-0.8c0.8,0,1.5,0.3,2,0.8c0.5,0.5,0.8,1.1,0.8,1.9s-0.3,1.4-0.8,1.9
		C253.5,81.3,252.8,81.5,252,81.5z M259.7,84.3h4l0.4,2.3h0.1c0.9-0.8,1.8-1.5,2.7-2c0.9-0.5,2-0.8,3.1-0.8c1.9,0,3.3,0.6,4.1,1.9
		c0.9,1.2,1.4,3,1.4,5.3v11.1h-4.9V91.6c0-1.3-0.2-2.2-0.6-2.8c-0.4-0.5-1-0.8-1.8-0.8c-0.7,0-1.3,0.1-1.8,0.4s-1.1,0.8-1.8,1.4
		v12.2h-4.9V84.3z M285.7,102.6c-1.2,0-2.4-0.2-3.6-0.7c-1.2-0.5-2.3-1.1-3.2-1.8l2.2-3.1c0.8,0.6,1.6,1.1,2.4,1.4
		c0.8,0.3,1.5,0.5,2.3,0.5c0.8,0,1.4-0.1,1.8-0.4c0.4-0.3,0.6-0.7,0.6-1.3c0-0.4-0.2-0.7-0.5-1c-0.3-0.3-0.8-0.6-1.4-0.8
		c-0.6-0.3-1.2-0.5-1.8-0.8c-1.4-0.6-2.6-1.2-3.5-2c-0.9-0.8-1.3-1.9-1.3-3.2c0-1.6,0.6-3,1.8-4c1.2-1,2.8-1.5,4.9-1.5
		c2.2,0,4.3,0.7,6.2,2.2l-2.2,3c-1.4-1-2.7-1.5-3.8-1.5c-0.7,0-1.3,0.1-1.7,0.4c-0.4,0.3-0.5,0.7-0.5,1.2s0.2,0.9,0.7,1.2
		c0.5,0.3,1,0.5,1.7,0.8s1,0.4,1.2,0.4c1.5,0.6,2.7,1.2,3.6,2c0.9,0.8,1.3,1.9,1.3,3.3c0,1.1-0.3,2.1-0.9,2.9
		c-0.6,0.8-1.4,1.5-2.4,2C288.5,102.3,287.2,102.6,285.7,102.6z"/>
</g>
<g class="st0">
	<path class="st1" d="M62.5,185h1l1.4,4l0.5,1.5h0c0.1-0.1,0.1-0.3,0.2-0.6c0.1-0.4,0.2-0.7,0.3-0.9l1.4-4h1v7.2h-0.8V188
		c0-0.4,0-1.1,0.1-2.1h0l-0.6,1.6l-1.4,3.9h-0.6l-1.4-3.9l-0.6-1.6h0l0,0.3c0.1,0.8,0.1,1.4,0.1,1.8v4.2h-0.7V185z M72.5,192.3
		c-0.4,0-0.8-0.1-1.2-0.3c-0.4-0.2-0.7-0.5-0.9-1c-0.2-0.4-0.3-0.9-0.3-1.5c0-0.6,0.1-1.1,0.3-1.5c0.2-0.4,0.5-0.7,0.9-1
		c0.4-0.2,0.8-0.3,1.2-0.3c0.4,0,0.8,0.1,1.2,0.3c0.4,0.2,0.7,0.5,0.9,1c0.2,0.4,0.3,0.9,0.3,1.5c0,0.6-0.1,1.1-0.3,1.5
		c-0.2,0.4-0.5,0.7-0.9,1C73.4,192.2,73,192.3,72.5,192.3z M72.5,191.7c0.3,0,0.6-0.1,0.8-0.3c0.2-0.2,0.4-0.4,0.6-0.7
		c0.1-0.3,0.2-0.7,0.2-1.1s-0.1-0.8-0.2-1.1c-0.1-0.3-0.3-0.6-0.6-0.7c-0.2-0.2-0.5-0.3-0.8-0.3c-0.3,0-0.6,0.1-0.8,0.3
		c-0.2,0.2-0.4,0.4-0.6,0.7c-0.1,0.3-0.2,0.7-0.2,1.1c0,0.6,0.2,1.2,0.5,1.5C71.7,191.5,72.1,191.7,72.5,191.7z M76.5,186.9h0.7
		l0.1,0.8h0c0.3-0.3,0.6-0.5,0.9-0.7c0.3-0.2,0.6-0.2,0.9-0.2c0.6,0,1,0.2,1.2,0.5c0.3,0.3,0.4,0.9,0.4,1.6v3.4h-0.8v-3.3
		c0-0.5-0.1-0.9-0.3-1.1c-0.2-0.2-0.4-0.4-0.8-0.4c-0.3,0-0.5,0.1-0.7,0.2c-0.2,0.1-0.5,0.3-0.8,0.6v3.9h-0.8V186.9z"/>
	<path class="st1" d="M109.6,185.7h-2.2V185h5.2v0.7h-2.2v6.5h-0.8V185.7z M115,192.3c-0.6,0-1-0.2-1.2-0.5
		c-0.3-0.4-0.4-0.9-0.4-1.6v-3.4h0.8v3.3c0,0.5,0.1,0.9,0.3,1.1c0.2,0.2,0.4,0.4,0.8,0.4c0.3,0,0.5-0.1,0.7-0.2
		c0.2-0.1,0.5-0.4,0.8-0.7v-3.8h0.8v5.3h-0.7l-0.1-0.8h0c-0.3,0.3-0.5,0.6-0.8,0.7C115.7,192.3,115.4,192.3,115,192.3z M123.6,189.2
		c0,0.2,0,0.4,0,0.5h-3.7c0,0.6,0.2,1.1,0.6,1.5c0.4,0.3,0.8,0.5,1.3,0.5c0.5,0,0.9-0.1,1.4-0.4l0.3,0.5c-0.3,0.2-0.5,0.3-0.8,0.4
		c-0.3,0.1-0.6,0.1-0.9,0.1c-0.5,0-0.9-0.1-1.3-0.3c-0.4-0.2-0.7-0.6-0.9-1c-0.2-0.4-0.3-0.9-0.3-1.5c0-0.6,0.1-1,0.3-1.5
		c0.2-0.4,0.5-0.8,0.9-1c0.4-0.2,0.8-0.4,1.2-0.4c0.7,0,1.2,0.2,1.5,0.7C123.4,187.9,123.6,188.5,123.6,189.2z M122.9,189.1
		c0-0.6-0.1-1-0.4-1.3s-0.6-0.5-1-0.5c-0.4,0-0.7,0.1-1.1,0.5s-0.5,0.7-0.6,1.3H122.9z"/>
	<path class="st1" d="M150.7,185h0.8l0.8,4l0.4,2.3h0c0.1-0.5,0.3-1.3,0.5-2.3l1-4h0.7l1,4c0.1,0.4,0.2,0.7,0.2,0.9l0.3,1.5h0
		l0.1-0.6c0.1-0.7,0.2-1.3,0.3-1.7l0.8-4h0.8l-1.5,7.2h-1l-1.2-4.5c0-0.1-0.1-0.3-0.1-0.4c0-0.1,0-0.2-0.1-0.3
		c-0.1-0.3-0.1-0.6-0.2-1h0l-0.4,1.6l-1.1,4.5h-1L150.7,185z M164.1,189.2c0,0.2,0,0.4,0,0.5h-3.7c0,0.6,0.2,1.1,0.6,1.5
		c0.4,0.3,0.8,0.5,1.3,0.5c0.5,0,0.9-0.1,1.4-0.4l0.3,0.5c-0.3,0.2-0.5,0.3-0.8,0.4c-0.3,0.1-0.6,0.1-0.9,0.1
		c-0.5,0-0.9-0.1-1.3-0.3c-0.4-0.2-0.7-0.6-0.9-1c-0.2-0.4-0.3-0.9-0.3-1.5c0-0.6,0.1-1,0.3-1.5c0.2-0.4,0.5-0.8,0.9-1
		c0.4-0.2,0.8-0.4,1.2-0.4c0.7,0,1.2,0.2,1.5,0.7C163.9,187.9,164.1,188.5,164.1,189.2z M163.4,189.1c0-0.6-0.1-1-0.4-1.3
		s-0.6-0.5-1-0.5c-0.4,0-0.7,0.1-1.1,0.5s-0.5,0.7-0.6,1.3H163.4z M167.4,192.3c-0.7,0-1.2-0.2-1.6-0.7c-0.4-0.5-0.6-1.2-0.6-2.1
		c0-0.6,0.1-1,0.3-1.5c0.2-0.4,0.5-0.8,0.8-1c0.4-0.2,0.7-0.4,1.2-0.4c0.3,0,0.5,0.1,0.8,0.2c0.2,0.1,0.5,0.3,0.7,0.5l0-0.9v-2.1
		h0.8v7.9h-0.7l-0.1-0.6h0c-0.2,0.2-0.5,0.4-0.8,0.6C168,192.3,167.7,192.3,167.4,192.3z M167.5,191.7c0.3,0,0.5-0.1,0.7-0.2
		c0.2-0.1,0.5-0.3,0.7-0.6V188c-0.2-0.2-0.5-0.4-0.7-0.4c-0.2-0.1-0.4-0.1-0.7-0.1c-0.3,0-0.6,0.1-0.8,0.3c-0.2,0.2-0.4,0.4-0.6,0.8
		c-0.1,0.3-0.2,0.7-0.2,1.1c0,0.7,0.1,1.2,0.4,1.6C166.7,191.5,167,191.7,167.5,191.7z"/>
	<path class="st1" d="M200.1,185.7h-2.2V185h5.2v0.7h-2.2v6.5h-0.8V185.7z M204.5,184.4h0.8v2.2l0,1.1c0.3-0.3,0.6-0.5,0.9-0.7
		c0.3-0.2,0.6-0.2,0.9-0.2c0.6,0,1,0.2,1.2,0.5c0.3,0.3,0.4,0.9,0.4,1.6v3.4h-0.8v-3.3c0-0.5-0.1-0.9-0.3-1.1
		c-0.2-0.2-0.4-0.4-0.8-0.4c-0.3,0-0.5,0.1-0.7,0.2c-0.2,0.1-0.5,0.3-0.8,0.6v3.9h-0.8V184.4z M212.1,192.3c-0.6,0-1-0.2-1.2-0.5
		c-0.3-0.4-0.4-0.9-0.4-1.6v-3.4h0.8v3.3c0,0.5,0.1,0.9,0.3,1.1c0.2,0.2,0.4,0.4,0.8,0.4c0.3,0,0.5-0.1,0.7-0.2
		c0.2-0.1,0.5-0.4,0.8-0.7v-3.8h0.8v5.3h-0.7l-0.1-0.8h0c-0.3,0.3-0.5,0.6-0.8,0.7C212.7,192.3,212.4,192.3,212.1,192.3z"/>
	<path class="st1" d="M246.7,185h4.1v0.7h-3.3v2.6h2.8v0.7h-2.8v3.3h-0.8V185z M251.9,186.9h0.7l0.1,1h0c0.2-0.3,0.4-0.6,0.7-0.8
		c0.3-0.2,0.5-0.3,0.8-0.3c0.2,0,0.4,0,0.5,0.1l-0.2,0.7c-0.2-0.1-0.4-0.1-0.5-0.1c-0.2,0-0.5,0.1-0.7,0.3c-0.2,0.2-0.5,0.5-0.6,1
		v3.5h-0.8V186.9z M255.7,186.9h0.8v5.3h-0.8V186.9z M256.1,185.7c-0.2,0-0.3-0.1-0.4-0.2c-0.1-0.1-0.2-0.2-0.2-0.4
		c0-0.2,0.1-0.3,0.2-0.4c0.1-0.1,0.2-0.2,0.4-0.2c0.2,0,0.3,0.1,0.4,0.2c0.1,0.1,0.2,0.2,0.2,0.4c0,0.2-0.1,0.3-0.2,0.4
		S256.3,185.7,256.1,185.7z"/>
	<path class="st1" d="M293,192.3c-0.5,0-1-0.1-1.4-0.3c-0.4-0.2-0.8-0.5-1.1-0.8l0.5-0.6c0.3,0.3,0.6,0.5,0.9,0.7
		c0.4,0.2,0.7,0.2,1.1,0.2c0.5,0,0.9-0.1,1.2-0.3c0.3-0.2,0.4-0.5,0.4-0.9c0-0.2-0.1-0.4-0.2-0.6c-0.1-0.2-0.2-0.3-0.4-0.4
		c-0.2-0.1-0.4-0.2-0.7-0.3l-1-0.5c-0.4-0.2-0.8-0.4-1.1-0.7c-0.3-0.3-0.4-0.7-0.4-1.1c0-0.4,0.1-0.7,0.3-1c0.2-0.3,0.5-0.5,0.8-0.7
		c0.3-0.2,0.7-0.2,1.1-0.2s0.8,0.1,1.2,0.2c0.4,0.2,0.7,0.4,0.9,0.6l-0.4,0.5c-0.5-0.5-1-0.7-1.7-0.7c-0.4,0-0.8,0.1-1,0.3
		c-0.3,0.2-0.4,0.5-0.4,0.8c0,0.2,0.1,0.4,0.2,0.6c0.1,0.2,0.3,0.3,0.4,0.4c0.2,0.1,0.4,0.2,0.6,0.3l1,0.5c0.5,0.2,0.8,0.4,1.1,0.7
		c0.3,0.3,0.4,0.7,0.4,1.2c0,0.4-0.1,0.7-0.3,1c-0.2,0.3-0.5,0.5-0.8,0.7C293.9,192.3,293.5,192.3,293,192.3z M298.1,192.3
		c-0.5,0-0.8-0.1-1.1-0.4s-0.4-0.6-0.4-1.1c0-0.6,0.3-1,0.8-1.3c0.5-0.3,1.4-0.5,2.5-0.7c0-0.4-0.1-0.8-0.3-1
		c-0.2-0.3-0.5-0.4-0.9-0.4c-0.5,0-1,0.2-1.6,0.6l-0.3-0.5c0.7-0.5,1.4-0.7,2.1-0.7c0.6,0,1.1,0.2,1.4,0.6c0.3,0.4,0.4,0.9,0.4,1.6
		v3.3H300l-0.1-0.6h0C299.3,192.1,298.7,192.3,298.1,192.3z M298.3,191.7c0.3,0,0.5-0.1,0.7-0.2c0.2-0.1,0.5-0.3,0.8-0.6v-1.6
		c-0.9,0.1-1.6,0.3-2,0.5c-0.4,0.2-0.6,0.5-0.6,0.9c0,0.3,0.1,0.5,0.3,0.7C297.8,191.6,298,191.7,298.3,191.7z M304,192.3
		c-0.5,0-0.9-0.1-1.1-0.5c-0.2-0.3-0.3-0.7-0.3-1.3v-3.1h-0.8v-0.6l0.8-0.1l0.1-1.5h0.7v1.5h1.5v0.7h-1.5v3.1c0,0.4,0.1,0.6,0.2,0.8
		c0.1,0.2,0.4,0.3,0.7,0.3c0.2,0,0.4,0,0.6-0.1l0.2,0.6C304.6,192.3,304.2,192.3,304,192.3z"/>
	<path class="st1" d="M21.5,192.3c-0.5,0-1-0.1-1.4-0.3c-0.4-0.2-0.8-0.5-1.1-0.8l0.5-0.6c0.3,0.3,0.6,0.5,0.9,0.7
		c0.4,0.2,0.7,0.2,1.1,0.2c0.5,0,0.9-0.1,1.2-0.3c0.3-0.2,0.4-0.5,0.4-0.9c0-0.2-0.1-0.4-0.2-0.6c-0.1-0.2-0.2-0.3-0.4-0.4
		c-0.2-0.1-0.4-0.2-0.7-0.3l-1-0.5c-0.4-0.2-0.8-0.4-1.1-0.7c-0.3-0.3-0.4-0.7-0.4-1.1c0-0.4,0.1-0.7,0.3-1c0.2-0.3,0.5-0.5,0.8-0.7
		c0.3-0.2,0.7-0.2,1.1-0.2s0.8,0.1,1.2,0.2c0.4,0.2,0.7,0.4,0.9,0.6l-0.4,0.5c-0.5-0.5-1-0.7-1.7-0.7c-0.4,0-0.8,0.1-1,0.3
		c-0.3,0.2-0.4,0.5-0.4,0.8c0,0.2,0.1,0.4,0.2,0.6c0.1,0.2,0.3,0.3,0.4,0.4c0.2,0.1,0.4,0.2,0.6,0.3l1,0.5c0.5,0.2,0.8,0.4,1.1,0.7
		c0.3,0.3,0.4,0.7,0.4,1.2c0,0.4-0.1,0.7-0.3,1c-0.2,0.3-0.5,0.5-0.8,0.7C22.5,192.3,22,192.3,21.5,192.3z M27,192.3
		c-0.5,0-1-0.2-1.2-0.5c-0.3-0.4-0.4-0.9-0.4-1.6v-3.4h0.8v3.3c0,0.5,0.1,0.9,0.3,1.1c0.2,0.2,0.4,0.4,0.8,0.4
		c0.3,0,0.5-0.1,0.7-0.2c0.2-0.1,0.5-0.4,0.8-0.7v-3.8h0.8v5.3h-0.7l-0.1-0.8h0c-0.3,0.3-0.5,0.6-0.8,0.7
		C27.6,192.3,27.3,192.3,27,192.3z M31.5,186.9h0.7l0.1,0.8h0c0.3-0.3,0.6-0.5,0.9-0.7c0.3-0.2,0.6-0.2,0.9-0.2c0.6,0,1,0.2,1.2,0.5
		c0.3,0.3,0.4,0.9,0.4,1.6v3.4h-0.8v-3.3c0-0.5-0.1-0.9-0.3-1.1c-0.2-0.2-0.4-0.4-0.8-0.4c-0.3,0-0.5,0.1-0.7,0.2
		c-0.2,0.1-0.5,0.3-0.8,0.6v3.9h-0.8V186.9z"/>
	<g class="st2">
		<defs>
			<path id="SVGID_9_" d="M6.1,0.1h313c3.3,0,6,2.7,6,6v166c0,3.3-2.7,6-6,6H6.1c-3.3,0-6-2.7-6-6V6.1C0.1,2.8,2.8,0.1,6.1,0.1z"/>
		</defs>
		<defs>
			<path id="SVGID_10_" d="M6.1,0.2h313c3.2,0,5.9,2.6,5.9,5.9v166c0,3.2-2.6,5.9-5.9,5.9H6.1c-3.2,0-5.9-2.6-5.9-5.9V6.1
				C0.2,2.9,2.9,0.2,6.1,0.2z"/>
		</defs>
		<clipPath id="SVGID_11_">
			<use xlink:href="#SVGID_9_"  style="overflow:visible;"/>
		</clipPath>
		<clipPath id="SVGID_12_" class="st8">
			<use xlink:href="#SVGID_10_"  style="overflow:visible;"/>
		</clipPath>
		<rect x="20.1" y="64.2" class="st9" width="14.6" height="134.5"/>
		<rect x="65.1" y="46.2" class="st9" width="14.6" height="134.5"/>
		<rect x="110.1" y="57.2" class="st9" width="14.6" height="134.5"/>
		<rect x="155.1" y="44.8" class="st9" width="14.6" height="134.5"/>
		<rect x="201.1" y="57.2" class="st9" width="14.6" height="134.5"/>
		<rect x="246.1" y="55.2" class="st9" width="14.6" height="134.5"/>
		<rect x="291.1" y="44.8" class="st9" width="14.6" height="134.5"/>
	</g>
</g>
<g class="st0">
	<path class="st1" d="M141.2,188.3c-0.9,0-1.5-0.4-1.9-1.1l0.6-0.4c0.2,0.3,0.3,0.5,0.6,0.6s0.5,0.2,0.7,0.2c0.4,0,0.7-0.1,0.9-0.4
		c0.2-0.3,0.3-0.7,0.3-1.2v-5.1h0.8v5.1c0,0.7-0.2,1.2-0.5,1.6S141.8,188.3,141.2,188.3z M146.7,188.3c-0.6,0-1-0.2-1.2-0.5
		c-0.3-0.4-0.4-0.9-0.4-1.6v-3.4h0.8v3.3c0,0.5,0.1,0.9,0.3,1.1c0.2,0.2,0.4,0.4,0.8,0.4c0.3,0,0.5-0.1,0.7-0.2
		c0.2-0.1,0.5-0.4,0.8-0.7v-3.8h0.8v5.3h-0.7l-0.1-0.8h0c-0.3,0.3-0.6,0.6-0.8,0.7C147.3,188.2,147,188.3,146.7,188.3z M151.2,182.8
		h0.7l0.1,0.8h0c0.3-0.3,0.6-0.5,0.9-0.7c0.3-0.2,0.6-0.2,0.9-0.2c0.6,0,1,0.2,1.2,0.5c0.3,0.3,0.4,0.9,0.4,1.6v3.4h-0.8v-3.3
		c0-0.5-0.1-0.9-0.3-1.1c-0.2-0.2-0.4-0.4-0.8-0.4c-0.3,0-0.5,0.1-0.7,0.2c-0.2,0.1-0.5,0.3-0.8,0.6v3.9h-0.8V182.8z"/>
	<path class="st1" d="M221.8,188.3c-0.5,0-1-0.1-1.4-0.3c-0.4-0.2-0.8-0.5-1.1-0.8l0.5-0.6c0.3,0.3,0.6,0.5,0.9,0.7
		c0.4,0.2,0.7,0.2,1.1,0.2c0.5,0,0.9-0.1,1.2-0.3c0.3-0.2,0.4-0.5,0.4-0.9c0-0.2-0.1-0.4-0.2-0.6c-0.1-0.2-0.2-0.3-0.4-0.4
		c-0.2-0.1-0.4-0.2-0.7-0.3l-1-0.5c-0.4-0.2-0.8-0.4-1.1-0.7c-0.3-0.3-0.4-0.7-0.4-1.1c0-0.4,0.1-0.7,0.3-1c0.2-0.3,0.5-0.5,0.8-0.7
		c0.3-0.2,0.7-0.2,1.1-0.2s0.8,0.1,1.2,0.2c0.4,0.2,0.7,0.4,0.9,0.6l-0.4,0.5c-0.5-0.5-1-0.7-1.7-0.7c-0.4,0-0.8,0.1-1,0.3
		c-0.3,0.2-0.4,0.5-0.4,0.8c0,0.2,0.1,0.4,0.2,0.6c0.1,0.2,0.3,0.3,0.4,0.4c0.2,0.1,0.4,0.2,0.6,0.3l1,0.5c0.5,0.2,0.8,0.4,1.1,0.7
		c0.3,0.3,0.4,0.7,0.4,1.2c0,0.4-0.1,0.7-0.3,1c-0.2,0.3-0.5,0.5-0.8,0.7C222.7,188.2,222.2,188.3,221.8,188.3z M229.7,185.2
		c0,0.2,0,0.4,0,0.5H226c0,0.6,0.2,1.1,0.6,1.5c0.4,0.3,0.8,0.5,1.3,0.5c0.5,0,0.9-0.1,1.4-0.4l0.3,0.5c-0.3,0.2-0.5,0.3-0.8,0.4
		c-0.3,0.1-0.6,0.1-0.9,0.1c-0.5,0-0.9-0.1-1.3-0.3c-0.4-0.2-0.7-0.6-0.9-1c-0.2-0.4-0.3-0.9-0.3-1.5c0-0.6,0.1-1,0.3-1.5
		c0.2-0.4,0.5-0.8,0.9-1c0.4-0.2,0.8-0.4,1.2-0.4c0.7,0,1.2,0.2,1.5,0.7C229.5,183.8,229.7,184.4,229.7,185.2z M229,185.1
		c0-0.6-0.1-1-0.4-1.3s-0.6-0.5-1-0.5c-0.4,0-0.7,0.1-1.1,0.5s-0.5,0.7-0.6,1.3H229z M231.2,182.8h0.7l0.1,0.6h0
		c0.6-0.5,1.2-0.8,1.7-0.8c0.7,0,1.2,0.2,1.6,0.7c0.4,0.5,0.6,1.1,0.6,2c0,0.6-0.1,1.1-0.3,1.5c-0.2,0.4-0.5,0.8-0.8,1
		c-0.4,0.2-0.7,0.3-1.1,0.3c-0.5,0-1-0.2-1.5-0.6l0,0.9v1.8h-0.8V182.8z M233.3,187.6c0.3,0,0.6-0.1,0.8-0.3
		c0.2-0.2,0.4-0.4,0.6-0.8c0.1-0.3,0.2-0.7,0.2-1.2c0-0.6-0.1-1.1-0.4-1.5c-0.2-0.4-0.6-0.5-1.1-0.5c-0.4,0-1,0.3-1.5,0.8v2.9
		c0.2,0.2,0.5,0.4,0.7,0.5C232.9,187.5,233.1,187.6,233.3,187.6z"/>
	<path class="st1" d="M64.9,180.9h1l1.4,4l0.5,1.5h0c0.1-0.1,0.1-0.3,0.2-0.6c0.1-0.4,0.2-0.7,0.3-0.9l1.4-4h1v7.2H70v-4.2
		c0-0.4,0-1.1,0.1-2.1h0l-0.6,1.6l-1.4,3.9h-0.6l-1.4-3.9l-0.6-1.6h0l0,0.3c0.1,0.8,0.1,1.4,0.1,1.8v4.2h-0.7V180.9z M74,188.3
		c-0.5,0-0.8-0.1-1.1-0.4c-0.3-0.3-0.4-0.6-0.4-1.1c0-0.6,0.3-1,0.8-1.3c0.5-0.3,1.4-0.5,2.5-0.7c0-0.4-0.1-0.8-0.3-1
		c-0.2-0.3-0.5-0.4-0.9-0.4c-0.5,0-1,0.2-1.6,0.6l-0.3-0.5c0.7-0.5,1.4-0.7,2.1-0.7c0.6,0,1.1,0.2,1.4,0.6c0.3,0.4,0.4,0.9,0.4,1.6
		v3.3h-0.7l-0.1-0.6h0C75.2,188,74.6,188.3,74,188.3z M74.2,187.6c0.3,0,0.5-0.1,0.7-0.2c0.2-0.1,0.5-0.3,0.8-0.6v-1.6
		c-0.9,0.1-1.6,0.3-2,0.5c-0.4,0.2-0.6,0.5-0.6,0.9c0,0.3,0.1,0.5,0.3,0.7C73.7,187.5,74,187.6,74.2,187.6z M78.4,182.8h0.7l0.1,1h0
		c0.2-0.3,0.4-0.6,0.7-0.8s0.5-0.3,0.8-0.3c0.2,0,0.4,0,0.5,0.1l-0.2,0.7c-0.2-0.1-0.4-0.1-0.5-0.1c-0.2,0-0.5,0.1-0.7,0.3
		c-0.2,0.2-0.5,0.5-0.6,1v3.5h-0.8V182.8z"/>
	<path class="st1" d="M295.9,180.9h1.8c1.1,0,1.9,0.3,2.5,0.9c0.6,0.6,0.9,1.5,0.9,2.7s-0.3,2-0.9,2.7c-0.6,0.6-1.4,1-2.5,1h-1.8
		V180.9z M297.6,187.5c0.9,0,1.5-0.3,1.9-0.8c0.4-0.5,0.7-1.3,0.7-2.2c0-0.9-0.2-1.7-0.7-2.2c-0.4-0.5-1.1-0.8-1.9-0.8h-0.9v5.9
		H297.6z M306.7,185.2c0,0.2,0,0.4,0,0.5H303c0,0.6,0.2,1.1,0.6,1.5c0.4,0.3,0.8,0.5,1.3,0.5c0.5,0,0.9-0.1,1.4-0.4l0.3,0.5
		c-0.3,0.2-0.5,0.3-0.8,0.4c-0.3,0.1-0.6,0.1-0.9,0.1c-0.5,0-0.9-0.1-1.3-0.3c-0.4-0.2-0.7-0.6-0.9-1c-0.2-0.4-0.3-0.9-0.3-1.5
		c0-0.6,0.1-1,0.3-1.5c0.2-0.4,0.5-0.8,0.9-1c0.4-0.2,0.8-0.4,1.2-0.4c0.7,0,1.2,0.2,1.5,0.7C306.5,183.8,306.7,184.4,306.7,185.2z
		 M306,185.1c0-0.6-0.1-1-0.4-1.3s-0.6-0.5-1-0.5c-0.4,0-0.7,0.1-1.1,0.5c-0.3,0.3-0.5,0.7-0.5,1.3H306z M310.2,188.3
		c-0.5,0-0.9-0.1-1.3-0.3c-0.4-0.2-0.7-0.5-0.9-1c-0.2-0.4-0.3-0.9-0.3-1.5c0-0.6,0.1-1.1,0.3-1.5c0.2-0.4,0.5-0.7,0.9-1
		c0.4-0.2,0.8-0.3,1.3-0.3c0.6,0,1.1,0.2,1.6,0.6l-0.4,0.5c-0.2-0.2-0.4-0.3-0.5-0.4c-0.2-0.1-0.4-0.1-0.6-0.1
		c-0.3,0-0.6,0.1-0.9,0.3c-0.3,0.2-0.5,0.4-0.6,0.7c-0.1,0.3-0.2,0.7-0.2,1.1c0,0.6,0.2,1.2,0.5,1.5c0.3,0.4,0.7,0.6,1.2,0.6
		c0.5,0,0.9-0.2,1.3-0.5l0.4,0.5c-0.2,0.2-0.5,0.4-0.8,0.5C310.9,188.2,310.6,188.3,310.2,188.3z"/>
	<g class="st2">
		<g>
			<defs>
				<path id="SVGID_13_" d="M6.1,0.1h314c3.3,0,6,2.7,6,6v166c0,3.3-2.7,6-6,6H6.1c-3.3,0-6-2.7-6-6V6.1C0.1,2.8,2.8,0.1,6.1,0.1z"
					/>
			</defs>
			<defs>
				<path id="SVGID_14_" d="M6.1,0.2h314c3.2,0,5.9,2.6,5.9,5.9v166c0,3.2-2.6,5.9-5.9,5.9H6.1c-3.2,0-5.9-2.6-5.9-5.9V6.1
					C0.2,2.9,2.9,0.2,6.1,0.2z"/>
			</defs>
			<clipPath id="SVGID_15_">
				<use xlink:href="#SVGID_13_"  style="overflow:visible;"/>
			</clipPath>
			<clipPath id="SVGID_16_" class="st10">
				<use xlink:href="#SVGID_14_"  style="overflow:visible;"/>
			</clipPath>
			<rect x="14.1" y="64.1" class="st11" width="11.9" height="134.5"/>
			<rect x="40" y="44.5" class="st11" width="11.9" height="134.5"/>
			<rect x="66" y="57.1" class="st11" width="11.9" height="134.5"/>
			<rect x="91.9" y="44.5" class="st11" width="11.9" height="134.5"/>
			<rect x="117.8" y="57.1" class="st11" width="11.9" height="134.5"/>
			<rect x="195.6" y="64.1" class="st11" width="11.9" height="134.5"/>
			<rect x="221.5" y="44.5" class="st11" width="11.9" height="134.5"/>
			<rect x="247.5" y="57.1" class="st11" width="11.9" height="134.5"/>
			<rect x="273.4" y="44.5" class="st11" width="11.9" height="134.5"/>
			<rect x="299.3" y="57.1" class="st11" width="11.9" height="134.5"/>
			<rect x="143.7" y="55.1" class="st11" width="11.9" height="134.5"/>
			<rect x="169.7" y="44.5" class="st11" width="11.9" height="134.5"/>
		</g>
		<text transform="matrix(1 0 0 1 330.6156 33.0307)" class="st7 st12 st13">60</text>
		<text transform="matrix(1 0 0 1 330.6156 92.3699)" class="st7 st12 st13">40</text>
		<text transform="matrix(1 0 0 1 330.6156 151.7093)" class="st7 st12 st13">20</text>
	</g>
</g>
<g class="st0">
	<text transform="matrix(1 0 0 1 333.6892 33.0467)" class="st14 st12 st13">3</text>
	<text transform="matrix(1 0 0 1 333.6892 92.3859)" class="st14 st12 st13">2</text>
	<text transform="matrix(1 0 0 1 333.6897 151.7253)" class="st14 st12 st13">1</text>
</g>
<g class="st0">
	<text transform="matrix(1 0 0 1 333.6892 33.0467)" class="st14 st12 st13">3</text>
	<text transform="matrix(1 0 0 1 333.6892 92.3859)" class="st14 st12 st13">2</text>
	<text transform="matrix(1 0 0 1 333.6897 151.7253)" class="st14 st12 st13">1</text>
</g>
<g class="st0">
	<g class="st2">
		
			<linearGradient id="SVGID_17_" gradientUnits="userSpaceOnUse" x1="163.1063" y1="809.2834" x2="163.1063" y2="663.9854" gradientTransform="matrix(1 0 0 -1 0 842.1102)">
			<stop  offset="0.7735" style="stop-color:#FFFFFF"/>
			<stop  offset="1" style="stop-color:#FFFFFF;stop-opacity:0.8"/>
		</linearGradient>
		<path class="st15" d="M6.1,0.1h314c3.3,0,6,2.7,6,6v166c0,3.3-2.7,6-6,6H6.1c-3.3,0-6-2.7-6-6V6.1C0.1,2.8,2.8,0.1,6.1,0.1z"/>
		<path class="st16" d="M6.1,0.2h314c3.2,0,5.9,2.6,5.9,5.9v166c0,3.2-2.6,5.9-5.9,5.9H6.1c-3.2,0-5.9-2.6-5.9-5.9V6.1
			C0.2,2.9,2.9,0.2,6.1,0.2z"/>
	</g>
	<path class="st17" d="M0.2,28.1h325.7"/>
	<path class="st17" d="M0.2,87.1h325.7"/>
	<path class="st17" d="M0.2,146.1h325.7"/>
</g>
<text transform="matrix(1 0 0 1 49.6951 102.1484)" class="st7 st18 st19">1</text>
</svg>
