<?xml version="1.0" encoding="utf-8"?>
<!-- Generator: Adobe Illustrator 23.0.1, SVG Export Plug-In . SVG Version: 6.00 Build 0)  -->
<svg version="1.1" id="Layer_1" xmlns="http://www.w3.org/2000/svg" xmlns:xlink="http://www.w3.org/1999/xlink" x="0px" y="0px"
	 viewBox="0 0 318 372" style="enable-background:new 0 0 318 372;" xml:space="preserve">
<style type="text/css">
	.st0{fill:#D0E9EA;}
	.st1{fill:#F2F2F2;}
	.st2{fill:none;stroke:#23160D;stroke-width:30;stroke-miterlimit:10;}
	.st3{fill:#23160D;}
	.st4{fill:#E06612;}
	.st5{fill:none;}
</style>
<title>timer</title>
<g id="Layer_4">
	<path class="st0" d="M295,213.5c0,64.6-46.3,120-109.9,131.4c21.5-21.3,43.1-43.2,57.7-69.7c23.9-43.6,25.7-100.2-0.9-142.3
		c-18-28.6-49.5-48.3-82.6-52.9h2.2C235.2,80,295,139.8,295,213.5z"/>
	<path class="st1" d="M242.7,275.2c-14.6,26.5-36.2,48.4-57.7,69.7c-2.5,0.4-5,0.8-7.6,1.1c-73.2,9-139.8-43-148.9-116.1
		c-9-73.2,43-139.8,116.1-148.9c4.8-0.6,9.6-0.9,14.5-1c33.1,4.6,64.6,24.3,82.6,52.9C268.4,175,266.7,231.6,242.7,275.2z"/>
	<circle class="st2" cx="162.5" cy="212.5" r="133.5"/>
	<path class="st3" d="M19.3,88.3c-6.2,3.8-12.5,8.4-14,14.4s4.1,13.3,12.1,12.9c4.7-0.2,8.4-2.8,11.8-5.3L50,95
		c6.6-4.8,13.7-11.4,10.3-17.9c-2.9-5.5-12.7-7.3-20.1-5.3s-12.8,6.7-17.9,11.2l-13.6,12"/>
	<path class="st3" d="M275.3,72.8c-6.4-2.5-12,6.9-9.4,13.3s9.2,9.9,14.8,13.9c5.2,3.7,9.8,8.1,13.7,13.2c1.4,1.9,2.9,3.9,5,4.9
		c3.4,1.5,7.5-0.2,9.8-3c3.7-4.4,3.9-11.1,1.6-16.5s-6.6-9.6-11.1-13.2c-7.7-6.1-16.3-11-25.6-14.3"/>
	<path class="st3" d="M128,9.6c-6.9,5.5-9.9,17.4-6.6,26.7c0.7,2.4,2.1,4.5,4,6.1c5.4,3.9,14.6-0.6,17.3,6.4
		c0.4,1.1,0.6,2.5,1.3,3.4c0.8,0.9,2,1.4,3.2,1.4c13.2,1.6,26.5,2.3,39.8,2.1c1.3,0.1,2.6-0.2,3.8-0.8c1.3-0.8,2.1-2.3,3.1-3.5
		c2.1-2.7,5.2-4.6,8.5-5.2c3.9-0.6,6.9-4.7,6.8-9.6l-0.2-12.2c-0.1-2.9-0.1-5.9-1.1-8.5c-2.6-6.7-9.9-7.8-16-8.1
		C175.2,7.4,143.1-1.6,128,9.6z"/>
	<path class="st4" d="M154.2,218.9c3.2,3.5,8.6,4.6,13.1,3.2c2.8-1,5.4-2.4,7.8-4.1c26.5-17.8,50.3-39.1,71-63.4
		c-8.6,2.2-16.4,6.9-24.1,11.4C211.1,172.5,141.3,204.5,154.2,218.9z"/>
	<path class="st5" d="M177.5,346L177.5,346c-1.8,2.3,3.6,2.8,5.7,0.8l1.9-1.8"/>
	<path class="st5" d="M112.4,84.5c15-5.2,31.1-6.8,46.8-4.5"/>
</g>
</svg>
