<svg width="1289" height="350" viewBox="0 0 1289 350" fill="none" xmlns="http://www.w3.org/2000/svg">
<path fill-rule="evenodd" clip-rule="evenodd" d="M0 210.729V349.28C14.1682 345.965 28.3562 340.951 40 335C62.5 323.5 140 298.5 190 293.5C240 288.5 278.5 293.5 346.5 307.5C390.739 316.608 448.732 295.878 497.765 278.35C524.102 268.936 547.854 260.446 565.5 258C633.161 248.621 759.5 258 793.5 286.5C827.5 315 881.5 350.5 951 334C992.807 324.075 1001.87 311.435 1011.16 298.477C1017.31 289.893 1023.56 281.168 1039.5 273C1066.77 259.026 1087.53 265.033 1110.02 271.54C1120.52 274.579 1131.4 277.727 1143.5 279C1170.45 281.837 1204.2 264.8 1232.07 250.73C1243.49 244.965 1253.93 239.697 1262.5 236.5C1280.66 229.73 1286.76 231.207 1288 233.918V236.5C1288.31 235.654 1288.37 234.731 1288 233.918V0C1269 0.666667 1221.4 9.2 1183 38C1159.02 55.988 1134.91 91.8273 1111.67 126.369C1088.4 160.956 1066.01 194.242 1045.5 207C1004.5 232.5 862.658 223.346 831 214.5C812.586 209.355 798.572 192.2 783.874 174.209C771.433 158.98 758.503 143.153 742 133.5C698.5 108.057 663.5 104.5 593 120C555.208 128.309 527.33 162.049 500.585 194.417C477.438 222.431 455.141 249.417 428 258C388.477 270.499 385.241 269.304 373.733 265.055C368.207 263.015 360.773 260.271 346.5 258C327.2 254.93 311.556 250.993 297.837 247.542C280.28 243.124 265.876 239.5 251 239.5C240.646 239.5 227.163 241.866 211.922 244.541C188.155 248.712 160.113 253.632 133 251.5C102.543 249.104 87.0761 241.088 68.8053 231.618C60.381 227.251 51.3607 222.576 40 218C26.0001 212.361 13.0589 209.898 0 210.729Z" fill="url(#paint0_linear)"/>
<defs>
<linearGradient id="paint0_linear" x1="1001.42" y1="1.12706e-05" x2="823.801" y2="764.356" gradientUnits="userSpaceOnUse">
<stop stop-color="#FFCE51"/>
<stop offset="1" stop-color="#FFF06A"/>
</linearGradient>
</defs>
</svg>
